<svg width="192" height="611" viewBox="0 0 192 611" fill="none" xmlns="http://www.w3.org/2000/svg">
<g filter="url(#filter0_d_153_3254)">
<path d="M122.6 17.5689L114.96 22.9113C113.614 21.0808 111.667 19.7818 109.46 19.2414C107.253 18.701 104.926 18.9537 102.886 19.9551C95.2645 23.4099 77.9552 41.1467 72.8443 57.3519C67.7334 73.5572 84.6688 92.0953 81.4633 98.987C78.2579 105.879 69.1402 107.891 69.8882 119.448C70.6361 131.006 111.773 146.534 131.468 137.417C151.164 128.299 132.216 107.143 136.65 100.216C141.084 93.2885 153.888 95.3008 153.888 74.8572C153.888 54.4136 149.988 44.0494 142.563 31.4947C136.152 20.7743 129.741 15.1114 122.6 17.5689Z" fill="#105C0A" stroke="#105C0A" stroke-linecap="round" stroke-linejoin="round"/>
<path d="M147.959 553.518C145.511 559.645 142.643 565.595 139.375 571.326C135.813 576.811 126.108 577.345 129.759 581.815C133.409 586.285 142.67 587.763 149.348 583.311C156.026 578.859 156.88 570.738 162.062 567.658C167.245 564.577 167.761 560.089 165.945 554.747C164.128 549.404 161.101 547.962 161.101 547.962C161.101 547.962 158.162 554.355 147.959 553.518Z" fill="white" stroke="#105C0A" stroke-linecap="round" stroke-linejoin="round"/>
<path d="M60.2917 227.703C60.2917 227.703 53.1685 261.236 55.715 287.146C58.2616 313.057 62.3574 336.439 64.8683 345.574C67.3793 354.71 86.2379 441.114 87.7338 442.129C89.2297 443.144 123.403 489.819 130.028 507.627C136.652 525.435 149.314 555.335 149.314 555.335C149.314 555.335 156.241 558.665 160.818 554.604C165.394 550.544 163.721 549.422 163.721 549.422C163.721 549.422 148.726 482.767 140.57 457.355C132.414 431.943 119.735 403.486 119.735 403.486C119.735 403.486 144.114 308.979 138.522 271.867C132.93 234.755 125.825 230.196 125.825 230.196C125.825 230.196 84.1722 245.493 60.2917 227.703Z" fill="#105C0A" stroke="#105C0A" stroke-linecap="round" stroke-linejoin="round"/>
<path d="M129.048 235.272C144.449 256.187 154.195 280.721 157.345 306.504C161.921 348.174 137.524 375.617 132.413 402.044C127.302 428.471 134.497 437.766 126.875 465.209C119.253 492.651 117.419 498.527 112.344 513.771C107.268 529.015 100.127 549.939 100.127 549.939C100.127 549.939 97.1001 552.931 90.4933 552.931C83.8865 552.931 83.0674 552.788 83.0674 552.788C83.0674 552.788 94.3042 473.186 94.8028 447.721C95.3015 422.256 98.3644 394.867 98.3644 394.867C98.3644 394.867 94.8028 300.859 102.425 283.068C110.046 265.278 115.14 260.203 115.14 260.203" fill="#105C0A"/>
<path d="M129.048 235.272C144.449 256.187 154.195 280.721 157.345 306.504C161.921 348.174 137.524 375.616 132.413 402.044C127.302 428.471 134.497 437.766 126.875 465.209C119.253 492.651 117.419 498.527 112.344 513.771C107.268 529.015 100.127 549.939 100.127 549.939C100.127 549.939 97.1001 552.931 90.4933 552.931C83.8865 552.931 83.0674 552.788 83.0674 552.788C83.0674 552.788 94.3042 473.186 94.8028 447.721C95.3015 422.256 98.3644 394.867 98.3644 394.867C98.3644 394.867 94.8028 300.859 102.425 283.068C110.046 265.278 115.14 260.203 115.14 260.203" stroke="#105C0A" stroke-linecap="round" stroke-linejoin="round"/>
<path d="M94.8018 429.967C94.8018 415.026 94.9799 393.603 95.6031 377.575C96.636 350.294 98.7373 285.241 113.411 267.397" stroke="white" stroke-linecap="round" stroke-linejoin="round"/>
<path d="M94.8379 447.739C94.8379 447.739 94.8379 444.925 94.8379 440.313" stroke="white" stroke-linecap="round" stroke-linejoin="round"/>
<path d="M71.4551 271.582C71.4551 271.582 82.407 299.986 100.144 306.878" stroke="white" stroke-linecap="round" stroke-linejoin="round"/>
<path d="M64.8678 115.388C61.1977 114.917 57.4743 115.655 54.2611 117.49C51.0479 119.325 48.5199 122.156 47.0598 125.556C41.4859 137.755 17.8369 185.73 17.8369 191.838C17.8369 197.946 24.4793 214.561 35.449 205.336C41.8777 199.994 60.3802 161.137 60.3802 161.137" fill="#A8C879"/>
<path d="M64.8678 115.388C61.1977 114.917 57.4743 115.655 54.2611 117.49C51.0479 119.325 48.5199 122.156 47.0598 125.556C41.4859 137.755 17.8369 185.73 17.8369 191.838C17.8369 197.946 24.4793 214.561 35.449 205.336C41.8777 199.994 60.3802 161.137 60.3802 161.137" stroke="#105C0A" stroke-linecap="round" stroke-linejoin="round"/>
<path d="M149.206 129.172C144.54 114.64 115.958 113.892 113.732 113.411C113.732 113.411 112.753 114.89 112.753 111.631C112.753 108.372 114.534 96.3514 114.534 96.3514C114.534 96.3514 95.0695 96.3514 91.8641 89.4597C91.8641 89.4597 91.3654 106.199 89.1572 112.61C89.1572 112.61 86.0943 114.836 78.704 114.836C71.3136 114.836 59.1152 111.862 55.4111 121.959C55.1815 122.654 54.9912 123.362 54.8413 124.078C53.0605 130.774 47.5222 151.699 46.8811 160.745C46.4537 166.8 49.8728 178.553 52.9892 187.92C53.2029 194.616 53.5413 200.297 53.9153 203.947C55.6961 220.455 54.6454 241.771 60.059 245.226C65.4726 248.681 106.2 254.522 119.021 249.108C131.843 243.695 131.042 228.576 131.042 221.435C131.042 214.294 153.889 143.703 149.206 129.172Z" fill="#A8C879" stroke="#105C0A" stroke-linecap="round" stroke-linejoin="round"/>
<path d="M78.8115 163.506C78.8115 163.506 81.9457 177.147 98.7387 184.501" stroke="#105C0A" stroke-linecap="round" stroke-linejoin="round"/>
<path d="M130.651 116.047C125.083 114.76 119.429 113.879 113.733 113.411C113.733 113.411 112.754 114.89 112.754 111.631C112.754 108.372 114.535 96.3514 114.535 96.3514C114.535 96.3514 95.0705 96.3514 91.8651 89.4597C91.8651 89.4597 91.3664 106.199 89.1582 112.61C89.1582 112.61 82.0351 114.017 75.2324 114.801C76.4077 121.799 80.8241 136.491 97.2965 138.254C111.632 139.856 123.955 125.752 130.651 116.047Z" fill="white" stroke="#105C0A" stroke-linecap="round" stroke-linejoin="round"/>
<path d="M129.616 78.7392C129.616 78.7392 133.587 75.9611 133.177 80.7337C132.768 85.5062 130.399 89.8692 127.621 90.6527C126.071 91.1218 124.467 91.3911 122.849 91.4541L129.616 78.7392Z" fill="white" stroke="#105C0A" stroke-linecap="round" stroke-linejoin="round"/>
<path d="M89.069 69.5507C89.069 69.5507 85.0978 65.1699 84.706 72.3287C84.3142 79.4875 88.2676 81.4642 88.2676 81.4642L89.069 69.5507Z" fill="white" stroke="#105C0A" stroke-linecap="round" stroke-linejoin="round"/>
<path d="M110.437 44.6191C110.437 44.6191 104.632 50.3177 90.1003 51.7423C90.1003 51.7423 84.1881 73.664 89.3702 88.4446C94.5523 103.225 103.617 105.451 110.74 103.475C122.903 100.127 132.43 75.3914 135.137 66.0778C135.172 66.0956 114.604 58.4203 110.437 44.6191Z" fill="white" stroke="#105C0A" stroke-linecap="round" stroke-linejoin="round"/>
<path d="M101.943 66.9504C101.516 68.7312 100.162 70.0668 99.0581 69.7997C97.954 69.5326 97.2773 67.823 97.7225 65.971C98.1677 64.119 99.5033 62.8724 100.607 63.1395C101.712 63.4066 102.353 65.1162 101.943 66.9504Z" fill="#105C0A"/>
<path d="M117.72 71.3315C117.293 73.1123 115.939 74.4479 114.853 74.1808C113.767 73.9136 113.072 72.2041 113.517 70.3698C113.963 68.5356 115.298 67.2534 116.385 67.5206C117.471 67.7877 118.148 69.426 117.72 71.3315Z" fill="#105C0A"/>
<path d="M103.545 78.2053C104.105 78.8312 104.811 79.3086 105.6 79.5945C106.389 79.8804 107.238 79.966 108.068 79.8437" stroke="#105C0A" stroke-linecap="round" stroke-linejoin="round"/>
<path d="M97.3662 81.0901C97.3662 81.0901 101.48 89.727 113.839 86.0229" stroke="#105C0A" stroke-linecap="round" stroke-linejoin="round"/>
<path d="M97.3662 58.8655C97.3662 58.8655 100.661 56.7998 105.184 60.0942" stroke="#105C0A" stroke-linecap="round" stroke-linejoin="round"/>
<path d="M115.904 61.7324C117.764 61.9227 119.564 62.4955 121.191 63.4149C122.818 64.3343 124.238 65.5804 125.36 67.0748" stroke="#105C0A" stroke-linecap="round" stroke-linejoin="round"/>
<path d="M83.1202 550.028C83.1202 550.028 77.0299 564.577 65.3122 572.11C59.7205 575.671 50.585 577.167 53.4877 581.708C56.3904 586.249 74.2696 586.249 82.7106 582.777C91.1516 579.304 94.6776 578.61 97.3488 573.535C100.02 568.459 100.127 549.903 100.127 549.903C94.6122 551.733 88.6611 551.776 83.1202 550.028Z" fill="white" stroke="#105C0A" stroke-linecap="round" stroke-linejoin="round"/>
<path d="M68.7847 190.484C68.7847 190.484 56.0342 175.882 55.2151 174.457C54.3959 173.033 33.8633 166.533 33.8633 166.533C33.3806 167.8 33.343 169.194 33.7565 170.486C34.5578 171.875 47.6823 175.348 47.6823 175.348L48.8577 177.128L30.8716 174.618C30.8716 174.618 27.6661 175.17 28.5209 177.271C29.3757 179.372 48.5371 182.097 48.5371 182.097L28.9483 182.987C29.2 183.947 29.7331 184.809 30.4789 185.462C31.2247 186.116 32.1491 186.532 33.1332 186.656C36.3564 186.816 44.2097 186.317 44.2097 186.317C44.2097 186.317 34.9852 187.617 36.9263 190.004C38.8673 192.39 48.733 189.612 48.733 189.612L56.5507 194.491L64.4396 200.083L68.7847 190.484Z" fill="white" stroke="#105C0A" stroke-linecap="round" stroke-linejoin="round"/>
<path d="M133.694 145.519L120.534 200.012C120.534 200.012 85.7724 195.934 78.2574 193.743C75.3615 193.053 72.5312 192.111 69.7986 190.93L64.3672 200.083C64.3672 200.083 88.5861 214.739 108.015 221.31C127.443 227.881 134.317 233.206 139.321 224.747C144.325 216.288 153.104 164.93 155.615 147.71C158.126 130.489 155.295 124.844 149.667 122.654C145.49 121.151 141.196 119.995 136.828 119.199" fill="#A8C879"/>
<path d="M133.694 145.519L120.534 200.012C120.534 200.012 85.7724 195.934 78.2574 193.743C75.3615 193.053 72.5312 192.111 69.7986 190.93L64.3672 200.083C64.3672 200.083 88.5861 214.739 108.015 221.31C127.443 227.881 134.317 233.206 139.321 224.747C144.325 216.288 153.104 164.93 155.615 147.71C158.126 130.489 155.295 124.844 149.667 122.654C145.49 121.151 141.196 119.995 136.828 119.199" stroke="#105C0A" stroke-linecap="round" stroke-linejoin="round"/>
<path d="M26.7398 184.554L100.501 194.669L97.9718 204.179C97.9718 204.179 67.8407 211.302 42.9629 212.46C11.0866 213.866 15.2893 192.39 20.881 182.738" fill="#A8C879"/>
<path d="M26.7398 184.554L100.501 194.669L97.9718 204.179C97.9718 204.179 67.8407 211.302 42.9629 212.46C11.0866 213.866 15.2893 192.39 20.881 182.738" stroke="#105C0A" stroke-linecap="round" stroke-linejoin="round"/>
<path d="M100.43 194.669C100.43 194.669 119.503 190.271 120.998 189.665C122.494 189.06 142.671 196.521 142.671 196.521C142.671 196.521 141.798 199.103 140.32 199.691C138.842 200.279 126.359 194.936 126.359 194.936L124.364 195.56L140.106 204.766C140.106 204.766 142.279 207.188 140.302 208.328C138.326 209.468 121.568 199.798 121.568 199.798L136.509 212.602C135.72 213.201 134.77 213.552 133.78 213.609C132.79 213.666 131.806 213.427 130.953 212.922C128.317 211.052 122.441 205.799 122.441 205.799C122.441 205.799 128.905 212.513 125.896 213.207C122.886 213.902 116.849 205.621 116.849 205.621L107.678 204.642L97.9727 204.179L100.43 194.669Z" fill="white" stroke="#105C0A" stroke-linecap="round" stroke-linejoin="round"/>
</g>
<defs>
<filter id="filter0_d_153_3254" x="0.5" y="0.499756" width="190.897" height="610" filterUnits="userSpaceOnUse" color-interpolation-filters="sRGB">
<feFlood flood-opacity="0" result="BackgroundImageFix"/>
<feColorMatrix in="SourceAlpha" type="matrix" values="0 0 0 0 0 0 0 0 0 0 0 0 0 0 0 0 0 0 127 0" result="hardAlpha"/>
<feOffset dx="4" dy="4"/>
<feGaussianBlur stdDeviation="10"/>
<feComposite in2="hardAlpha" operator="out"/>
<feColorMatrix type="matrix" values="0 0 0 0 0 0 0 0 0 0 0 0 0 0 0 0 0 0 0.25 0"/>
<feBlend mode="normal" in2="BackgroundImageFix" result="effect1_dropShadow_153_3254"/>
<feBlend mode="normal" in="SourceGraphic" in2="effect1_dropShadow_153_3254" result="shape"/>
</filter>
</defs>
</svg>
