<svg width="92" height="317" viewBox="0 0 92 317" fill="none" xmlns="http://www.w3.org/2000/svg">
<g filter="url(#filter0_d_20_40)">
<path d="M35.0327 99.8939L64.9612 89.1338L67.6242 81.3865L73.7044 81.1763L84.7379 78.8742L83.411 81.3865L69.5237 92.4869L66.0973 94.3687L34.7964 112.376L35.0327 99.8939Z" fill="white" stroke="#105C0A" stroke-width="1.00396" stroke-miterlimit="10"/>
<path d="M67.6242 81.3865L70.478 79.5048L76.1765 81.8069L75.2313 83.0581L67.6242 81.3865Z" fill="white" stroke="#105C0A" stroke-width="1.00396" stroke-linejoin="round"/>
<path d="M35.0327 99.8939L64.9612 89.1338L67.6242 81.3865L73.7044 81.1763L84.7379 78.8742L83.411 81.3865L69.5237 92.4869L66.0973 94.3687L34.7964 112.376L35.0327 99.8939Z" fill="white"/>
<mask id="mask0_20_40" style="mask-type:luminance" maskUnits="userSpaceOnUse" x="34" y="78" width="51" height="35">
<path d="M35.0327 99.8939L64.9612 89.1338L67.6242 81.3865L73.7044 81.1763L84.7379 78.8742L83.411 81.3865L69.5237 92.4869L66.0973 94.3687L34.7964 112.376L35.0327 99.8939Z" fill="white"/>
</mask>
<g mask="url(#mask0_20_40)">
<path opacity="0.5" d="M35.0327 99.8939L64.9612 89.1338L67.6242 81.3865L73.7044 81.1763L84.7379 78.8742L83.411 81.3865L69.5237 92.4869L66.0973 94.3687L34.7964 112.376L35.0327 99.8939Z" fill="#A8C879" stroke="#105C0A" stroke-width="1.00396" stroke-miterlimit="10"/>
</g>
<path d="M35.0327 99.8939L64.9612 89.1338L67.6242 81.3865L73.7044 81.1763L84.7379 78.8742L83.411 81.3865L69.5237 92.4869L66.0973 94.3687L34.7964 112.376L35.0327 99.8939Z" stroke="#105C0A" stroke-width="1.00396" stroke-miterlimit="10"/>
<path d="M67.6242 81.3865L70.478 79.5048L76.1765 81.8069L75.2313 83.0581L67.6242 81.3865Z" fill="white"/>
<mask id="mask1_20_40" style="mask-type:luminance" maskUnits="userSpaceOnUse" x="67" y="79" width="10" height="5">
<path d="M67.6242 81.3865L70.478 79.5048L76.1765 81.8069L75.2313 83.0581L67.6242 81.3865Z" fill="white"/>
</mask>
<g mask="url(#mask1_20_40)">
<path opacity="0.5" d="M67.6242 81.3865L70.478 79.5048L76.1765 81.8069L75.2313 83.0581L67.6242 81.3865Z" fill="#A8C879" stroke="#105C0A" stroke-width="1.00396" stroke-linejoin="round"/>
</g>
<path d="M67.6242 81.3865L70.478 79.5048L76.1765 81.8069L75.2313 83.0581L67.6242 81.3865Z" stroke="#105C0A" stroke-width="1.00396" stroke-linejoin="round"/>
<path d="M28.6798 30.0583C28.6798 30.0583 29.1433 34.5625 27.9891 37.4553C26.8348 40.348 20.4274 50.1472 20.4274 50.1472L32.3879 60.7071C32.3879 60.7071 37.3503 49.6968 38.2955 47.9151C39.2407 46.1334 40.3767 38.4662 37.2957 32.9711C34.2147 27.4759 29.7795 25.9945 28.6798 30.0583Z" fill="white"/>
<mask id="mask2_20_40" style="mask-type:luminance" maskUnits="userSpaceOnUse" x="20" y="27" width="20" height="34">
<path d="M28.6798 30.0583C28.6798 30.0583 29.1433 34.5625 27.9891 37.4553C26.8348 40.348 20.4274 50.1472 20.4274 50.1472L32.3879 60.7071C32.3879 60.7071 37.3503 49.6968 38.2955 47.9151C39.2407 46.1334 40.3767 38.4662 37.2957 32.9711C34.2147 27.4759 29.7795 25.9945 28.6798 30.0583Z" fill="white"/>
</mask>
<g mask="url(#mask2_20_40)">
<g style="mix-blend-mode:multiply" opacity="0.5">
<path d="M34.8236 44.5319L29.6341 56.383L32.397 60.7171L37.6138 50.4575L34.8236 44.5319Z" fill="#A8C879"/>
</g>
</g>
<path d="M28.6798 30.0583C28.6798 30.0583 29.1433 34.5625 27.9891 37.4553C26.8348 40.348 20.4274 50.1472 20.4274 50.1472L32.3879 60.7071C32.3879 60.7071 37.3503 49.6968 38.2955 47.9151C39.2407 46.1334 40.3767 38.4662 37.2957 32.9711C34.2147 27.4759 29.7795 25.9945 28.6798 30.0583Z" stroke="#105C0A" stroke-width="1.00396" stroke-miterlimit="10"/>
<path d="M24.9717 21.8106C25.7079 16.8059 30.9156 6.62633 39.1771 7.0167C44.5393 7.27694 47.0477 8.46806 49.3744 9.91943C51.2709 11.15 53.0387 12.6068 54.6457 14.2635C58.6811 19.5985 60.0989 21.0599 59.3173 25.1437C59.3814 26.7726 59.1496 28.3992 58.6356 29.9282C57.3996 33.5616 56.5543 35.9339 55.4819 37.6655C55.8091 39.3571 56.6634 43.8213 56.7088 44.8422C56.7543 45.8632 53.9823 45.1525 52.5826 44.7621C49.9833 51.1682 45.2209 55.6123 43.7395 56.1228C41.1584 57.0136 37.0776 52.3392 34.9145 48.7158C32.7515 45.0924 34.3874 41.0186 34.3783 39.3971C34.3692 37.7756 29.516 34.2122 27.7164 33.0812C25.9169 31.9501 24.2446 26.8053 24.9717 21.8106Z" fill="white"/>
<mask id="mask3_20_40" style="mask-type:luminance" maskUnits="userSpaceOnUse" x="24" y="7" width="36" height="50">
<path d="M24.9717 21.8106C25.7079 16.8059 30.9156 6.62633 39.1771 7.0167C44.5393 7.27694 47.0477 8.46806 49.3744 9.91943C51.2709 11.15 53.0387 12.6068 54.6457 14.2635C58.6811 19.5985 60.0989 21.0599 59.3173 25.1437C59.3814 26.7726 59.1496 28.3992 58.6356 29.9282C57.3996 33.5616 56.5543 35.9339 55.4819 37.6655C55.8091 39.3571 56.6634 43.8213 56.7088 44.8422C56.7543 45.8632 53.9823 45.1525 52.5826 44.7621C49.9833 51.1682 45.2209 55.6123 43.7395 56.1228C41.1584 57.0136 37.0776 52.3392 34.9145 48.7158C32.7515 45.0924 34.3874 41.0186 34.3783 39.3971C34.3692 37.7756 29.516 34.2122 27.7164 33.0812C25.9169 31.9501 24.2446 26.8053 24.9717 21.8106Z" fill="white"/>
</mask>
<g mask="url(#mask3_20_40)">
<g style="mix-blend-mode:multiply" opacity="0.5">
<path d="M59.2809 25.1437C59.345 26.7726 59.1133 28.3992 58.5993 29.9282C57.3632 33.5616 56.518 35.9339 55.4455 37.6655C55.7727 39.3571 56.627 43.8213 56.6725 44.8422C56.7179 45.8632 53.9459 45.1525 52.5463 44.7621C49.947 51.1682 45.1846 55.6123 43.7031 56.1228C41.122 57.0137 37.0413 52.3393 34.8782 48.7159C34.3378 47.8112 33.987 46.7855 33.8512 45.713C33.9693 45.2426 34.0511 44.9523 34.0511 44.9523C34.0511 44.9523 35.269 50.1072 37.6865 49.4365C40.1041 48.7659 43.8031 43.4309 45.8662 41.5892C47.9293 39.7474 47.0841 37.3252 47.4931 34.5826C47.902 31.84 54.0095 29.4277 54.4185 27.8563C54.8275 26.2848 53.4006 19.7787 53.4006 19.7787C53.4006 19.7787 51.083 16.3755 51.5829 17.7768C51.9362 18.9919 52.0644 20.2727 51.9598 21.5433C51.8552 22.8139 51.5199 24.0485 50.974 25.1737C50.5909 26.0616 49.9831 26.8088 49.2237 27.3255C48.4644 27.8422 47.5857 28.1065 46.6933 28.0865L44.4757 15.9851L49.1563 11.7211L54.6094 14.2235C58.6811 19.5985 60.0716 21.0599 59.2809 25.1437Z" fill="#A8C879"/>
</g>
</g>
<path d="M24.9717 21.8106C25.7079 16.8059 30.9156 6.62633 39.1771 7.0167C44.5393 7.27694 47.0477 8.46806 49.3744 9.91943C51.2709 11.15 53.0387 12.6068 54.6457 14.2635C58.6811 19.5985 60.0989 21.0599 59.3173 25.1437C59.3814 26.7726 59.1496 28.3992 58.6356 29.9282C57.3996 33.5616 56.5543 35.9339 55.4819 37.6655C55.8091 39.3571 56.6634 43.8213 56.7088 44.8422C56.7543 45.8632 53.9823 45.1525 52.5826 44.7621C49.9833 51.1682 45.2209 55.6123 43.7395 56.1228C41.1584 57.0136 37.0776 52.3392 34.9145 48.7158C32.7515 45.0924 34.3874 41.0186 34.3783 39.3971C34.3692 37.7756 29.516 34.2122 27.7164 33.0812C25.9169 31.9501 24.2446 26.8053 24.9717 21.8106Z" stroke="#105C0A" stroke-miterlimit="10"/>
<path d="M54.3549 34.6426L53.4461 37.5053C53.4461 37.5053 51.492 38.216 49.1108 35.3533" stroke="#105C0A" stroke-miterlimit="10" stroke-linecap="round"/>
<path d="M47.6385 48.0152C47.6385 48.0152 45.4754 47.775 44.6029 44.4318" stroke="#105C0A" stroke-miterlimit="10" stroke-linecap="round"/>
<path d="M55.8727 32.2504C55.8727 32.2504 55.2274 30.0984 51.3284 30.0984" stroke="#105C0A" stroke-miterlimit="10" stroke-linecap="round"/>
<path d="M35.887 3.03295C38.7201 2.58427 41.5772 2.34351 44.4393 2.31227C44.4393 2.31227 53.0007 -3.12283 61.2258 2.67261C69.451 8.46805 65.4974 18.6176 65.4974 21.15C65.4974 23.6823 68.1331 23.6924 66.4881 26.9554C64.8431 30.2185 59.2809 28.4168 59.2809 28.4168C59.2221 27.1861 58.9268 25.9831 58.4145 24.8874C57.9022 23.7917 57.1845 22.8283 56.3089 22.0608C53.3461 19.5284 50.9831 18.9779 50.0015 19.7086C50.0015 19.7086 50.6559 25.1437 49.6743 27.3158C49.6743 27.3158 46.3843 29.1275 45.3936 29.1275C44.403 29.1275 46.0389 30.6589 42.7579 32.0202C42.1602 32.2566 41.5208 32.3372 40.89 32.2555C40.2592 32.1739 39.6542 31.9323 39.1225 31.5497C38.6408 29.3477 37.5866 26.0345 35.6234 26.8053C32.7424 27.9363 30.1158 35.7437 34.0148 38.4062C29.3251 39.347 23.6448 30.2085 23.3085 21.8806C22.9722 13.5528 31.0156 3.97383 35.887 3.03295Z" fill="#105C0A"/>
<path d="M49.8561 16.1352C49.8561 16.1352 47.4385 14.7039 44.4757 17.7668C41.5128 20.8297 35.7507 24.9235 28.1163 22.6714" stroke="white" stroke-width="0.5" stroke-linecap="round" stroke-linejoin="round"/>
<path d="M50.1924 13.683C50.1924 13.683 48.5292 10.8203 45.7481 10.8203C42.967 10.8203 36.4687 15.1143 31.2791 15.1143" stroke="white" stroke-width="0.5" stroke-linecap="round" stroke-linejoin="round"/>
<path d="M52.0828 19.1981C52.0828 19.1981 55.2365 14.9141 58.1994 18.3874C61.1622 21.8606 59.2809 25.1437 59.2809 25.1437" stroke="white" stroke-width="0.5" stroke-linecap="round" stroke-linejoin="round"/>
<path d="M64.6886 22.0608C62.8813 20.2659 61.7579 17.7841 61.5439 15.1143C61.1713 10.6201 55.6 6.73645 52.0828 10.4199" stroke="white" stroke-width="0.5" stroke-linecap="round" stroke-linejoin="round"/>
<path d="M58.9446 5.71548C58.9446 5.71548 53.3733 -0.210077 48.7382 7.34702" stroke="white" stroke-width="0.5" stroke-linecap="round" stroke-linejoin="round"/>
<path d="M13.6019 297.059C13.6019 297.059 10.1755 302.925 10.5573 306.698L10.9299 310.472C10.9299 310.472 23.4993 314.265 26.1623 314.265C28.8252 314.265 42.9215 312.794 42.9215 312.794L43.5305 310.131C43.5731 309.935 43.553 309.728 43.4736 309.546C43.3941 309.363 43.2602 309.217 43.0942 309.13L30.5248 302.674L26.5622 297.9L13.6019 297.059Z" fill="white" stroke="#105C0A" stroke-width="1.00396" stroke-miterlimit="10"/>
<path d="M24.2537 311.312C20.8455 311.603 14.3745 309.311 10.6209 307.849L10.8845 310.472C10.8845 310.472 23.4993 314.265 26.1623 314.265C28.8252 314.265 42.9215 312.794 42.9215 312.794L43.3578 310.892C41.1038 310.902 28.7616 310.932 24.2537 311.312Z" fill="#A8C879" stroke="#105C0A" stroke-width="1.00396" stroke-miterlimit="10"/>
<path d="M30.5066 302.674L48.8018 311.443C48.8018 311.443 50.365 315.757 48.8018 316.617C47.2386 317.478 13.1566 316.617 13.1566 316.617C13.1566 316.617 10.8027 309.801 14.5199 305.227C18.2371 300.652 30.5066 302.674 30.5066 302.674Z" fill="white" stroke="#105C0A" stroke-width="1.00396" stroke-miterlimit="10"/>
<path d="M13.1566 316.617C13.1566 316.617 47.2386 317.478 48.8018 316.617C49.5562 316.197 49.5834 314.986 49.4107 313.835H12.5567C12.6772 314.781 12.878 315.713 13.1566 316.617Z" fill="#A8C879" stroke="#105C0A" stroke-width="1.00396" stroke-miterlimit="10"/>
<path d="M39.1589 150.321C39.1589 150.321 43.9395 173.653 45.7481 188.247C47.5567 202.841 48.62 232.078 48.2383 235.431C47.8566 238.784 28.8252 294.967 28.8252 294.967L26.9257 299.972L13.6019 297.039C13.6019 297.039 19.6912 275.659 21.9725 263.918C24.2537 252.177 29.2433 232.889 29.2433 229.536C29.2433 226.182 17.4282 162.142 16.583 157.938C15.7377 153.734 11.9024 147.278 11.9024 147.278L37.4139 146.708L39.1589 150.321Z" fill="#A8C879" stroke="#105C0A" stroke-width="1.00396" stroke-miterlimit="10"/>
<path d="M39.1589 150.321C39.1589 150.321 41.9581 171.631 40.8039 186.445C39.6497 201.259 37.1685 232.799 37.1685 237.493C37.1685 242.187 30.2885 270.224 29.8977 279.032C29.2887 291.754 30.1431 298.05 30.1431 298.05L30.552 302.664C30.552 302.664 22.5269 303.925 20.7728 304.476C18.7468 305.051 16.6561 305.3 14.5653 305.217C14.5653 305.217 11.6479 291.073 11.6479 279.022C11.6479 266.971 14.0745 242.167 15.2833 232.118C16.4921 222.069 12.684 183.302 10.5209 176.065C8.35785 168.829 3.63181 153.504 6.8128 145.677C9.99379 137.85 39.1589 150.321 39.1589 150.321Z" fill="#A8C879" stroke="#105C0A" stroke-width="1.00396" stroke-miterlimit="10"/>
<path d="M3.27736 141.753L3.56818 151.282C3.56818 151.282 8.74865 152.413 15.7286 153.744C21.4908 154.846 35.9597 153.454 40.8312 152.934C41.2751 152.89 41.6855 152.656 41.9732 152.281C42.2608 151.906 42.4024 151.421 42.3671 150.932L41.8945 142.324L3.27736 141.753Z" fill="#105C0A"/>
<path d="M23.5266 46.764C23.5266 46.764 31.7063 56.5031 34.7873 62.5588C37.8683 68.6145 39.0862 77.8932 40.2404 85.2001C41.3947 92.5069 38.2682 109.663 39.1498 117.54L41.94 142.354C41.94 142.354 42.5398 144.035 40.5312 145.877C38.5227 147.719 28.7161 148.389 19.8548 148.88C16.6193 149.06 6.9582 146.768 5.3768 146.658C3.46821 146.528 3.40458 143.855 3.32278 141.753C2.94107 131.874 1.32331 105.539 0.259952 94.0684C-1.93039 70.6764 10.0574 48.0953 23.5266 46.764Z" fill="white" stroke="#105C0A" stroke-width="1.00396" stroke-miterlimit="10"/>
<g style="mix-blend-mode:multiply">
<path d="M1.2597 107.371C0.896158 102.176 0.532608 97.4616 0.214511 94.0684C0.123625 93.0675 0.0690995 92.0665 0.0236581 91.0656L21.7543 95.0694L40.4222 88.0628C40.4202 92.3169 40.2017 96.5675 39.7678 100.795L21.4544 106.44L1.2597 107.371Z" fill="#A8C879"/>
</g>
<g style="mix-blend-mode:multiply">
<path d="M24.3355 47.7449C25.5715 49.2564 28.0254 52.3292 30.3612 55.5923L16.5648 71.0368L12.0205 69.0349L24.3355 47.7449Z" fill="#A8C879"/>
</g>
<path d="M23.5266 46.764C23.5266 46.764 31.7063 56.5031 34.7873 62.5588C35.7009 64.3992 36.4409 66.3378 36.9958 68.3443L20.5456 47.4146C21.5174 47.0904 22.5159 46.8725 23.5266 46.764Z" fill="#105C0A"/>
<g style="mix-blend-mode:multiply">
<path d="M39.6042 81.2564L21.7543 87.7225L0.078187 84.9799C0.417926 79.033 1.61757 73.184 3.63181 67.6536L21.1091 75.3709L36.7322 67.5735C38.0097 72.0457 38.9699 76.6205 39.6042 81.2564Z" fill="#A8C879"/>
</g>
<g style="mix-blend-mode:multiply">
<path d="M8.87588 131.874C17.9292 133.548 27.2187 132.712 35.9052 129.442L40.2586 127.8L41.6128 139.811L36.6504 141.343C27.2168 144.248 17.3571 145.084 7.63076 143.805L3.62271 143.275C3.41413 142.788 3.29668 142.261 3.27735 141.723C3.16829 139.051 2.97743 135.167 2.73204 130.713L8.87588 131.874Z" fill="#A8C879"/>
</g>
<g style="mix-blend-mode:multiply">
<path d="M6.44924 115.519C15.503 117.199 24.7946 116.36 33.4785 113.076L39.0226 110.984C38.885 113.165 38.9124 115.355 39.1044 117.53L39.7496 123.306L34.2238 125.007C24.7938 127.915 14.9371 128.755 5.2132 127.48L2.48664 127.119C2.25943 123.116 1.99587 118.852 1.71413 114.638L6.44924 115.519Z" fill="#A8C879"/>
</g>
<path d="M91.7167 73.1908L74.1437 88.7515L73.3863 87.714L90.9593 72.1533L91.7167 73.1908Z" fill="#105C0A"/>
<path d="M15.0652 57.5641C15.0652 57.5641 8.62141 62.3987 8.476 73.8194C8.41238 78.8241 8.88497 83.4985 9.93016 91.6962C10.9753 99.8939 17.4646 126.589 22.5178 129.832C27.571 133.075 35.4144 126.949 35.4144 126.949L73.3499 99.2133L82.5203 91.0556L87.0645 81.6067L85.6376 78.6039L74.4497 88.0528L80.4754 81.917L79.2938 80.2655L77.1126 81.937L70.7506 84.5595L69.3601 94.5689L67.397 96.0503L31.1064 110.654C31.1064 110.654 31.5609 89.1438 31.2246 85.0299C30.8883 80.9161 30.4248 70.5764 26.4259 63.0793" fill="white"/>
<mask id="mask4_20_40" style="mask-type:luminance" maskUnits="userSpaceOnUse" x="8" y="57" width="80" height="74">
<path d="M15.0652 57.5641C15.0652 57.5641 8.62141 62.3987 8.476 73.8194C8.41238 78.8241 8.88497 83.4985 9.93016 91.6962C10.9753 99.8939 17.4646 126.589 22.5178 129.832C27.571 133.075 35.4144 126.949 35.4144 126.949L73.3499 99.2133L82.5203 91.0556L87.0645 81.6067L85.6376 78.6039L74.4497 88.0528L80.4754 81.917L79.2938 80.2655L77.1126 81.937L70.7506 84.5595L69.3601 94.5689L67.397 96.0503L31.1064 110.654C31.1064 110.654 31.5609 89.1438 31.2246 85.0299C30.8883 80.9161 30.4248 70.5764 26.4259 63.0793" fill="white"/>
</mask>
<g mask="url(#mask4_20_40)">
<g style="mix-blend-mode:multiply" opacity="0.5">
<path d="M31.3609 94.3987C31.3609 101.826 31.1337 110.654 31.1337 110.654L67.3879 96.1103L69.351 94.6289L70.7415 84.6196L77.1035 81.9971L79.2757 80.2955L80.4572 81.947L74.4497 88.0528L85.6376 78.6039L86.9918 81.5567L82.4476 91.0055L73.2772 99.2132L70.9688 100.905L20.8455 118.692L31.3609 94.3987Z" fill="#A8C879"/>
</g>
</g>
<path d="M15.0652 57.5641C15.0652 57.5641 8.62142 62.3987 8.476 73.8194C8.41238 78.8241 8.88498 83.4985 9.93016 91.6962C10.9753 99.8939 17.4646 126.589 22.5178 129.832C27.571 133.075 35.4144 126.949 35.4144 126.949L73.3499 99.2133L82.5203 91.0556L87.0645 81.6067L85.6376 78.6039L74.4497 88.0528L80.4754 81.917L79.2938 80.2655L77.1126 81.937L70.7506 84.5595L69.3601 94.5689L67.397 96.0503L31.1064 110.654C31.1064 110.654 31.5609 89.1438 31.2246 85.0299C30.8883 80.9161 30.4248 70.5764 26.4259 63.0793" stroke="#105C0A" stroke-width="1.00396" stroke-miterlimit="10"/>
<path d="M31.1064 110.654L17.2555 121.664L13.6655 114.658C13.6655 114.658 11.1844 112.506 10.8208 110.884C10.4573 109.263 10.9208 106.63 10.5482 105.009C10.1756 103.387 8.32149 101.866 8.14881 97.9421C7.97613 94.0184 8.14881 90.7453 8.14881 90.7453C8.14881 90.7453 5.14959 77.1626 5.47678 71.257C5.80396 65.3515 10.9753 54.9117 15.1197 54.6815C19.2641 54.4513 24.6536 55.1419 28.8343 62.1084C33.015 69.075 32.1607 89.4141 32.8151 90.6853C33.4695 91.9565 32.5606 98.2324 32.5606 98.2324C32.9238 98.5307 33.2252 98.9109 33.4446 99.3475C33.664 99.7842 33.7964 100.267 33.833 100.765C33.9057 102.396 32.3061 106.41 32.3061 106.41L31.1064 110.654Z" fill="white" stroke="#105C0A" stroke-width="1.00396" stroke-miterlimit="10"/>
<g style="mix-blend-mode:multiply">
<path d="M32.4515 85.4604C32.423 87.207 32.5417 88.9528 32.806 90.6753C33.3877 91.8163 32.7242 96.9712 32.5788 98.0222C24.7883 100.687 16.5505 101.371 8.48508 100.024C8.31181 99.3279 8.20819 98.613 8.17607 97.892C7.9943 93.9784 8.17607 90.6953 8.17607 90.6953C8.17607 90.6953 7.9125 89.4841 7.54896 87.6424C15.9018 88.2271 24.2877 87.4924 32.4515 85.4604Z" fill="#A8C879"/>
</g>
<g style="mix-blend-mode:multiply">
<path d="M29.3978 63.2195C30.6974 66.0922 31.4245 70.4062 31.8426 74.7803C23.5919 78.2481 14.6963 79.4405 5.9312 78.2536C5.58149 75.9387 5.42632 73.5932 5.46768 71.247C5.62507 69.3924 6.02295 67.5722 6.64919 65.8419C14.3025 66.0386 21.9473 65.1574 29.3978 63.2195Z" fill="#A8C879"/>
</g>
<path d="M32.3061 106.52L31.1337 110.654L17.2828 121.664L13.6928 114.658C13.6928 114.658 11.2116 112.506 10.8481 110.884C10.7832 110.602 10.7437 110.314 10.73 110.023C18.029 109.885 25.2812 108.707 32.3061 106.52Z" fill="#105C0A"/>
<path d="M22.2815 304.346C22.2815 304.346 21.9725 295.678 20.4638 283.006C18.9551 270.334 22.5814 252.337 23.1903 249.334C23.7992 246.331 22.8813 239.665 23.4902 237.323C24.0992 234.981 27.0439 224.991 25.3079 213.401C23.572 201.81 22.1633 171.171 22.1633 171.171C22.1633 171.171 26.5349 167.257 27.8164 162.162C29.0979 157.068 28.1163 155.466 28.1163 155.466" stroke="#105C0A" stroke-width="1.00396" stroke-miterlimit="10"/>
<path d="M20.2547 155.937L21.9361 166.186" stroke="#105C0A" stroke-width="1.00396" stroke-miterlimit="10"/>
</g>
<defs>
<filter id="filter0_d_20_40" x="-16.5175" y="-16.015" width="132.257" height="357.54" filterUnits="userSpaceOnUse" color-interpolation-filters="sRGB">
<feFlood flood-opacity="0" result="BackgroundImageFix"/>
<feColorMatrix in="SourceAlpha" type="matrix" values="0 0 0 0 0 0 0 0 0 0 0 0 0 0 0 0 0 0 127 0" result="hardAlpha"/>
<feOffset dx="4" dy="4"/>
<feGaussianBlur stdDeviation="10"/>
<feComposite in2="hardAlpha" operator="out"/>
<feColorMatrix type="matrix" values="0 0 0 0 0 0 0 0 0 0 0 0 0 0 0 0 0 0 0.25 0"/>
<feBlend mode="normal" in2="BackgroundImageFix" result="effect1_dropShadow_20_40"/>
<feBlend mode="normal" in="SourceGraphic" in2="effect1_dropShadow_20_40" result="shape"/>
</filter>
</defs>
</svg>
