<svg width="188" height="312" viewBox="0 0 188 312" fill="none" xmlns="http://www.w3.org/2000/svg">
<g filter="url(#filter0_d_22_135)">
<path d="M99.6044 54.6671C109.919 55.3778 112.608 67.9112 119.437 93.7463C126.265 119.581 123.355 114.587 128.926 121.819C133.075 127.217 144.888 168.601 144.888 168.601C144.888 168.601 135.514 168.082 134.804 166.334C127.965 149.402 116.892 134.823 117.583 128.532C118.275 122.242 104.608 97.1653 104.608 97.1653L99.6044 54.6671Z" fill="white"/>
<mask id="mask0_22_135" style="mask-type:luminance" maskUnits="userSpaceOnUse" x="99" y="54" width="46" height="115">
<path d="M99.6044 54.6671C109.919 55.3778 112.608 67.9112 119.437 93.7463C126.265 119.581 123.355 114.587 128.926 121.819C133.075 127.217 144.888 168.601 144.888 168.601C144.888 168.601 135.514 168.082 134.804 166.334C127.965 149.402 116.892 134.823 117.583 128.532C118.275 122.242 104.608 97.1653 104.608 97.1653L99.6044 54.6671Z" fill="white"/>
</mask>
<g mask="url(#mask0_22_135)">
<path opacity="0.4" d="M100.747 64.3576L104.589 97.1653C104.589 97.1653 110.207 107.461 114.059 116.508C117.727 106.798 117.583 93.583 116.258 81.7891C111.821 65.3565 108.671 56.6359 101.439 54.8976L100.747 64.3576Z" fill="#A8C879"/>
</g>
<path d="M99.6044 54.6671C109.919 55.3778 112.608 67.9112 119.437 93.7463C126.265 119.581 123.355 114.587 128.926 121.819C133.075 127.217 144.888 168.601 144.888 168.601C144.888 168.601 135.514 168.082 134.804 166.334C127.965 149.402 116.892 134.823 117.583 128.532C118.275 122.242 104.608 97.1653 104.608 97.1653L99.6044 54.6671Z" stroke="#105C0A" stroke-linecap="round" stroke-linejoin="round"/>
<path d="M119.437 143.524C119.437 143.524 113.674 191.987 92.8239 217.995C71.9733 244.003 67.0368 276.052 67.0368 276.052L54.5514 272.45C54.5514 272.45 60.3907 256.258 61.4472 242.053C62.7342 224.833 66.5854 215.709 73.9326 207.594C82.6339 197.989 79.695 145.436 79.695 145.436L119.437 143.524Z" fill="white"/>
<mask id="mask1_22_135" style="mask-type:luminance" maskUnits="userSpaceOnUse" x="54" y="143" width="66" height="134">
<path d="M119.437 143.524C119.437 143.524 113.674 191.987 92.8239 217.995C71.9733 244.003 67.0368 276.052 67.0368 276.052L54.5514 272.45C54.5514 272.45 60.3907 256.258 61.4472 242.053C62.7342 224.833 66.5854 215.709 73.9326 207.594C82.6339 197.989 79.695 145.436 79.695 145.436L119.437 143.524Z" fill="white"/>
</mask>
<g mask="url(#mask1_22_135)">
<path opacity="0.4" d="M61.2359 244.771C67.87 243.919 74.2471 241.667 79.9447 238.163C83.541 231.02 87.8564 224.262 92.8239 217.995C113.607 191.987 119.437 143.524 119.437 143.524L79.7335 145.445C79.7335 145.445 82.7107 198.028 73.971 207.603C66.5854 215.719 62.7342 224.843 61.4856 242.063C61.4184 242.956 61.332 243.859 61.2359 244.771Z" fill="#A8C879"/>
</g>
<path d="M119.437 143.524C119.437 143.524 113.674 191.987 92.8239 217.995C71.9733 244.003 67.0368 276.052 67.0368 276.052L54.5514 272.45C54.5514 272.45 60.3907 256.258 61.4472 242.053C62.7342 224.833 66.5854 215.709 73.9326 207.594C82.6339 197.989 79.695 145.436 79.695 145.436L119.437 143.524Z" stroke="#105C0A" stroke-linecap="round" stroke-linejoin="round"/>
<path d="M99.8924 166.382C101.813 167.631 106.884 203.598 103.849 213.731C103.849 213.731 104.618 230.192 107.393 257.756C108.18 265.565 109.363 273.328 110.937 281.017C110.937 281.017 100.834 287.135 99.8924 284.398C92.8238 264.008 81.0491 247.297 84.4778 223.978C86.2065 212.223 74.8737 192.237 74.0285 170.426C73.1833 148.615 99.8924 166.382 99.8924 166.382Z" fill="white"/>
<mask id="mask2_22_135" style="mask-type:luminance" maskUnits="userSpaceOnUse" x="74" y="159" width="37" height="127">
<path d="M99.8924 166.382C101.813 167.631 106.884 203.598 103.849 213.731C103.849 213.731 104.618 230.192 107.393 257.756C108.18 265.565 109.363 273.328 110.937 281.017C110.937 281.017 100.834 287.135 99.8924 284.398C92.8238 264.008 81.0491 247.297 84.4778 223.978C86.2065 212.223 74.8737 192.237 74.0285 170.426C73.1833 148.615 99.8924 166.382 99.8924 166.382Z" fill="white"/>
</mask>
<g mask="url(#mask2_22_135)">
<path opacity="0.4" d="M74.0286 170.378C74.4714 178.249 75.8283 186.042 78.0719 193.6C81.609 192.018 85.2285 190.626 88.915 189.432C93.7277 187.851 98.8244 187.323 103.859 187.886C102.745 176.995 100.891 166.978 99.8925 166.334C99.8925 166.382 73.2699 148.567 74.0286 170.378Z" fill="#A8C879"/>
</g>
<path d="M99.8924 166.382C101.813 167.631 106.884 203.598 103.849 213.731C103.849 213.731 104.618 230.192 107.393 257.756C108.18 265.565 109.363 273.328 110.937 281.017C110.937 281.017 100.834 287.135 99.8924 284.398C92.8238 264.008 81.0491 247.297 84.4778 223.978C86.2065 212.223 74.8737 192.237 74.0285 170.426C73.1833 148.615 99.8924 166.382 99.8924 166.382Z" stroke="#105C0A" stroke-linecap="round" stroke-linejoin="round"/>
<path d="M50.585 22.5029C53.8792 29.1586 53.3413 45.3031 57.7016 47.9634V45.8793C59.6989 47.9631 62.2633 49.4156 65.0776 50.0571C69.7164 51.0752 83.9209 50.6238 87.6089 42.6428C87.4543 44.0999 87.0413 45.5179 86.3891 46.8302C86.3891 46.8302 90.8647 45.6296 92.1516 41.2886L92.2669 44.1698C92.2669 44.1698 94.1877 44.5252 96.3486 36.9379C98.5095 29.3506 92.603 24.5486 92.1516 20.947C91.7002 17.3455 86.3891 9.96952 75.7478 8.25999C65.1064 6.55045 50.585 22.5029 50.585 22.5029Z" fill="#105C0A"/>
<path d="M-7.64861e-06 156.624L4.56195 170.301L34.959 173.144L45.9461 130.732L47.3195 125.43L22.0415 120.907L21.907 121.128L-7.64861e-06 156.624Z" fill="#A8C879"/>
<mask id="mask3_22_135" style="mask-type:luminance" maskUnits="userSpaceOnUse" x="0" y="120" width="48" height="54">
<path d="M-7.64861e-06 156.624L4.56195 170.301L34.959 173.144L45.9461 130.732L47.3195 125.43L22.0415 120.907L21.907 121.128L-7.64861e-06 156.624Z" fill="white"/>
</mask>
<g mask="url(#mask3_22_135)">
<path opacity="0.4" d="M21.907 121.128L25.2588 125.238L26.0176 131.231L45.9461 130.732L47.3195 125.43L22.0415 120.907L21.907 121.128Z" fill="#105C0A"/>
</g>
<path d="M-8.31245e-06 156.624L4.56195 170.301L34.959 173.144L45.9461 130.732L47.3195 125.43L22.0415 120.907L21.907 121.128L-8.31245e-06 156.624Z" stroke="#105C0A" stroke-linecap="round" stroke-linejoin="round"/>
<path d="M23.0979 122.597L25.2588 125.248L26.0175 131.241L44.3422 130.78" stroke="#105C0A" stroke-linecap="round" stroke-linejoin="round"/>
<path d="M24.7499 134.468L6.8958 167.929L7.77936 157.546L2.84286 156.778" stroke="#105C0A" stroke-linecap="round" stroke-linejoin="round"/>
<path d="M14.8288 145.196L21.4076 133.229" stroke="#105C0A" stroke-linecap="round" stroke-linejoin="round"/>
<path d="M9.80589 154.252C11.0064 152.072 12.2165 149.902 13.417 147.731" stroke="#105C0A" stroke-linecap="round" stroke-linejoin="round"/>
<path d="M32.4139 123.951C32.4139 123.951 45.2642 108.95 52.8419 111.466C60.4196 113.982 44.8609 126.756 44.8609 126.756" stroke="#105C0A" stroke-linecap="round" stroke-linejoin="round"/>
<path d="M35.6409 132.509C35.6409 132.509 47.6556 110.678 53.5238 111.139C59.3919 111.6 48.8754 132 48.8754 132" stroke="#105C0A" stroke-linecap="round" stroke-linejoin="round"/>
<path d="M99.6043 54.6671C99.6043 54.6671 91.1623 58.6912 83.3253 60.0166C75.4884 61.3419 60.6308 58.6912 56.0208 62.4848C51.4108 66.2785 53.7446 81.8659 58.4699 92.1232C63.1951 102.38 78.0719 114.165 78.0719 114.165C78.0719 114.165 70.3886 136.196 65.8458 154.857C61.3031 173.518 60.9093 181.067 60.9093 181.067C60.9093 181.067 89.0302 192.851 121.703 181.067C121.703 181.067 121.483 143.179 115.624 118.755C113.348 109.257 109.862 106.424 112.964 100.738C118.092 91.2396 121.703 80.7615 111.821 70.8884C105.636 64.6938 109.525 60.3239 104.791 56.828C103.316 55.6068 101.51 54.8543 99.6043 54.6671Z" fill="#A8C879"/>
<mask id="mask4_22_135" style="mask-type:luminance" maskUnits="userSpaceOnUse" x="53" y="54" width="69" height="133">
<path d="M99.6043 54.6671C99.6043 54.6671 91.1623 58.6912 83.3253 60.0166C75.4884 61.3419 60.6308 58.6912 56.0208 62.4848C51.4108 66.2785 53.7446 81.8659 58.4699 92.1232C63.1951 102.38 78.0719 114.165 78.0719 114.165C78.0719 114.165 70.3886 136.196 65.8458 154.857C61.3031 173.518 60.9093 181.067 60.9093 181.067C60.9093 181.067 89.0302 192.851 121.703 181.067C121.703 181.067 121.483 143.179 115.624 118.755C113.348 109.257 109.862 106.424 112.964 100.738C118.092 91.2396 121.703 80.7615 111.821 70.8884C105.636 64.6938 109.525 60.3239 104.791 56.828C103.316 55.6068 101.51 54.8543 99.6043 54.6671Z" fill="white"/>
</mask>
<g mask="url(#mask4_22_135)">
<path opacity="0.15" d="M78.0719 114.165C78.0719 114.165 70.3886 136.196 65.8459 154.857C61.3031 173.518 60.9094 181.067 60.9094 181.067C67.9646 183.672 75.3467 185.288 82.8452 185.869C82.1441 181.259 80.4826 169.235 81.539 165.7C82.8548 161.359 78.4561 144.466 78.6002 142.497C78.7442 140.528 86.466 145.772 86.466 145.772C86.466 145.772 89.3472 145.224 85.3615 141.277C81.3758 137.33 83.1333 113.281 83.1333 113.281C85.6401 113.853 88.2697 113.48 90.5189 112.234C94.2261 110.14 97.2418 101.545 97.2418 101.545C97.2418 101.545 88.5981 105.963 82.0192 104.359C75.4404 102.755 68.1221 88.0318 68.1221 88.0318H65.8747C67.7187 85.5347 66.6334 79.9451 66.6334 79.9451L53.6967 74.0674C54.3054 80.3008 55.9274 86.3931 58.4987 92.1039C63.1952 102.38 78.0719 114.165 78.0719 114.165Z" fill="#105C0A"/>
</g>
<path d="M99.6043 54.6671C99.6043 54.6671 91.1623 58.6912 83.3253 60.0166C75.4884 61.3419 60.6308 58.6912 56.0208 62.4848C51.4108 66.2785 53.7446 81.8659 58.4699 92.1232C63.1951 102.38 78.0719 114.165 78.0719 114.165C78.0719 114.165 70.3886 136.196 65.8458 154.857C61.3031 173.518 60.9093 181.067 60.9093 181.067C60.9093 181.067 89.0302 192.851 121.703 181.067C121.703 181.067 121.483 143.179 115.624 118.755C113.348 109.257 109.862 106.424 112.964 100.738C118.092 91.2396 121.703 80.7615 111.821 70.8884C105.636 64.6938 109.525 60.3239 104.791 56.828C103.316 55.6068 101.51 54.8543 99.6043 54.6671Z" stroke="#105C0A" stroke-linecap="round" stroke-linejoin="round"/>
<path d="M59.584 61.1595C59.584 61.1595 84.8044 71.7241 94.5334 69.5151C101.708 67.8824 99.6044 54.6671 99.6044 54.6671C99.6044 54.6671 87.9258 53.7067 85.0061 51.4113C78.4369 46.1579 85.0061 32.0302 85.0061 32.0302L65.2888 36.7266C66.5713 39.7875 67.6839 42.9168 68.6215 46.1003C69.1904 47.9548 69.5859 49.8582 69.8028 51.7859C69.9263 52.7508 69.8545 53.7306 69.5915 54.6671C68.4678 57.8557 59.584 61.1595 59.584 61.1595Z" fill="white" stroke="#105C0A" stroke-linecap="round" stroke-linejoin="round"/>
<path d="M55.9824 62.4849C59.5168 62.2352 66.1916 69.3327 66.547 79.9644C66.9023 90.5962 59.5167 87.1867 59.5167 87.1867L48.7697 114.165C48.7697 114.165 41.0864 121.454 37.6674 120.465C34.2483 119.476 50.22 62.9075 55.9824 62.4849Z" fill="white"/>
<mask id="mask5_22_135" style="mask-type:luminance" maskUnits="userSpaceOnUse" x="37" y="62" width="30" height="59">
<path d="M55.9824 62.4849C59.5168 62.2352 66.1916 69.3327 66.547 79.9644C66.9023 90.5962 59.5167 87.1867 59.5167 87.1867L48.7697 114.165C48.7697 114.165 41.0864 121.454 37.6674 120.465C34.2483 119.476 50.22 62.9075 55.9824 62.4849Z" fill="white"/>
</mask>
<g mask="url(#mask5_22_135)">
<path opacity="0.4" d="M59.584 87.1867C60.2724 87.4938 61.0152 87.6606 61.7689 87.6771C62.5225 87.6935 63.2719 87.5595 63.9731 87.2827C65.3945 83.7196 64.146 79.8299 63.0127 80.5598C61.3127 81.7508 59.584 87.1867 59.584 87.1867Z" fill="#A8C879"/>
</g>
<path d="M55.9824 62.4849C59.5168 62.2352 66.1916 69.3327 66.547 79.9644C66.9023 90.5962 59.5167 87.1867 59.5167 87.1867L48.7697 114.165C48.7697 114.165 41.0864 121.454 37.6674 120.465C34.2483 119.476 50.22 62.9075 55.9824 62.4849Z" stroke="#105C0A" stroke-linecap="round" stroke-linejoin="round"/>
<path d="M41.3458 126.131C41.3458 126.131 49.4132 113.031 56.2034 112.273C62.9935 111.514 58.1242 127.85 58.1242 127.85" stroke="#105C0A" stroke-linecap="round" stroke-linejoin="round"/>
<path d="M64.6069 127.399L30.8004 124.403L6.0506 179.77L14.6463 188.798L55.5118 185.917L66.6238 129.205L64.6069 127.399Z" fill="#A8C879"/>
<mask id="mask6_22_135" style="mask-type:luminance" maskUnits="userSpaceOnUse" x="6" y="124" width="61" height="65">
<path d="M64.6069 127.399L30.8004 124.403L6.0506 179.77L14.6463 188.798L55.5118 185.917L66.6238 129.205L64.6069 127.399Z" fill="white"/>
</mask>
<g mask="url(#mask6_22_135)">
<path opacity="0.2" d="M30.7428 124.528L35.3336 128.312L36.2171 131.98L66.6238 129.205L64.6069 127.39L30.8004 124.403L30.7428 124.528Z" fill="#105C0A"/>
<path opacity="0.6" d="M6.0506 179.77L14.6463 188.798L55.5118 185.917L66.6238 129.205L35.977 132L35.3336 128.312L30.7428 124.528L6.0506 179.77Z" fill="white"/>
</g>
<path d="M64.6069 127.399L30.8004 124.403L6.0506 179.77L14.6463 188.798L55.5118 185.917L66.6238 129.205L64.6069 127.399Z" stroke="#105C0A" stroke-linecap="round" stroke-linejoin="round"/>
<path d="M65.3464 129.579L35.977 132L35.3335 128.312L32.4139 126.131" stroke="#105C0A" stroke-linecap="round" stroke-linejoin="round"/>
<path d="M34.6996 134.9L15.7027 185.178L14.4349 175.554L8.85491 178.368" stroke="#105C0A" stroke-linecap="round" stroke-linejoin="round"/>
<path d="M17.2586 169.427L15.9524 172.51" stroke="#105C0A" stroke-linecap="round" stroke-linejoin="round"/>
<path d="M28.0056 144.081L18.5264 166.382" stroke="#105C0A" stroke-linecap="round" stroke-linejoin="round"/>
<path d="M33.2974 131.606C31.9337 134.846 30.5635 138.082 29.1869 141.315" stroke="#105C0A" stroke-linecap="round" stroke-linejoin="round"/>
<path d="M48.184 133.229C48.184 133.229 54.3594 113.886 61.0055 113.32C67.6515 112.753 61.9659 131.836 61.9659 131.836" stroke="#105C0A" stroke-linecap="round" stroke-linejoin="round"/>
<path d="M71.0609 132.441L63.9635 131.241L38.8295 137.109L28.6971 186.244L43.3914 196.376L78.3504 186.503L71.0609 132.441Z" fill="#105C0A"/>
<mask id="mask7_22_135" style="mask-type:luminance" maskUnits="userSpaceOnUse" x="28" y="131" width="51" height="66">
<path d="M71.0609 132.441L63.9635 131.241L38.8295 137.109L28.6971 186.244L43.3914 196.376L78.3504 186.503L71.0609 132.441Z" fill="white"/>
</mask>
<g mask="url(#mask7_22_135)">
<path opacity="0.3" d="M71.0609 132.441L47.7901 142.391L45.9269 139.433L38.8295 137.109L63.9635 131.241L71.0609 132.441Z" fill="#105C0A"/>
</g>
<path d="M71.0609 132.441L63.9635 131.241L38.8295 137.109L28.6971 186.244L43.3914 196.376L78.3504 186.503L71.0609 132.441Z" stroke="#105C0A" stroke-linecap="round" stroke-linejoin="round"/>
<g opacity="0.5">
<path d="M70.427 133.939L47.4732 143.524L45.1298 140.086L39.3385 138.185" stroke="white" stroke-linecap="round" stroke-linejoin="round"/>
<path d="M47.0698 145.397L44.3038 194.004L37.7538 183.775L29.84 185.418" stroke="white" stroke-linecap="round" stroke-linejoin="round"/>
<path d="M42.6328 151.294L38.8295 176.111" stroke="white" stroke-linecap="round" stroke-linejoin="round"/>
<path d="M44.2847 141.287L43.2666 147.741" stroke="white" stroke-linecap="round" stroke-linejoin="round"/>
</g>
<path d="M67.0368 138.732C67.0368 138.732 71.3203 115.98 62.7726 113.761C54.2249 111.543 54.8876 143.534 54.8876 143.534" stroke="#105C0A" stroke-linecap="round" stroke-linejoin="round"/>
<path d="M47.0603 136.456C47.0603 136.456 49.9415 113.319 60.0738 113.79" stroke="#105C0A" stroke-linecap="round" stroke-linejoin="round"/>
<path d="M162.473 190.393C162.473 190.393 149.142 174.383 141.267 175.833C133.392 177.283 148.95 190.834 148.95 190.834" stroke="#105C0A" stroke-linecap="round" stroke-linejoin="round"/>
<path d="M187.684 227.609L181.364 240.565L150.852 239.374L137.262 195.204L144.888 190.45L170.55 189.298L170.646 189.538L187.684 227.609Z" fill="#D09A36"/>
<mask id="mask8_22_135" style="mask-type:luminance" maskUnits="userSpaceOnUse" x="137" y="189" width="51" height="52">
<path d="M187.684 227.609L181.364 240.565L150.852 239.374L137.262 195.204L144.888 190.45L170.55 189.298L170.646 189.538L187.684 227.609Z" fill="white"/>
</mask>
<g mask="url(#mask8_22_135)">
<path opacity="0.4" d="M170.646 189.538L166.785 193.168L165.239 199.008L139.404 194.926L144.888 190.45L170.55 189.298L170.646 189.538Z" fill="#105C0A"/>
</g>
<path d="M187.684 227.609L181.364 240.565L150.852 239.374L137.262 195.204L144.888 190.45L170.55 189.298L170.646 189.538L187.684 227.609Z" stroke="#105C0A" stroke-linecap="round" stroke-linejoin="round"/>
<path d="M169.273 190.834L166.785 193.168L165.249 199.017L141.363 195.233" stroke="#105C0A" stroke-linecap="round" stroke-linejoin="round"/>
<path d="M166.074 202.388L179.367 237.904L179.856 227.493L184.851 227.388" stroke="#105C0A" stroke-linecap="round" stroke-linejoin="round"/>
<path d="M174.497 214.316L169.503 201.581" stroke="#105C0A" stroke-linecap="round" stroke-linejoin="round"/>
<path d="M178.281 224.007C177.321 221.692 176.466 219.387 175.563 217.073" stroke="#105C0A" stroke-linecap="round" stroke-linejoin="round"/>
<path d="M155.529 199.036C155.529 199.036 146.501 175.814 140.624 175.506C134.746 175.199 142.477 196.799 142.477 196.799" stroke="#105C0A" stroke-linecap="round" stroke-linejoin="round"/>
<path d="M127.197 194.378L134.4 194.119L158.535 203.253L162.098 253.3L146.194 261.406L112.849 247.009L127.197 194.378Z" fill="#105C0A"/>
<mask id="mask9_22_135" style="mask-type:luminance" maskUnits="userSpaceOnUse" x="112" y="194" width="51" height="68">
<path d="M127.197 194.378L134.4 194.119L158.535 203.253L162.098 253.3L146.194 261.406L112.849 247.009L127.197 194.378Z" fill="white"/>
</mask>
<g mask="url(#mask9_22_135)">
<path opacity="0.3" d="M127.197 194.378L148.95 207.315L151.188 204.626L158.535 203.253L134.4 194.119L127.197 194.378Z" fill="#105C0A"/>
</g>
<path d="M127.197 194.378L134.4 194.119L158.535 203.253L162.098 253.3L146.194 261.406L112.849 247.009L127.197 194.378Z" stroke="#105C0A" stroke-linecap="round" stroke-linejoin="round"/>
<g opacity="0.5">
<path d="M127.629 195.953L149.123 208.477L151.899 205.375L157.892 204.261" stroke="white" stroke-linecap="round" stroke-linejoin="round"/>
<path d="M149.277 210.388L145.598 258.937L153.445 249.66L161.071 252.339" stroke="white" stroke-linecap="round" stroke-linejoin="round"/>
<path d="M152.898 216.813L153.388 241.919" stroke="white" stroke-linecap="round" stroke-linejoin="round"/>
<path d="M152.581 206.681L152.734 213.212" stroke="white" stroke-linecap="round" stroke-linejoin="round"/>
</g>
<path d="M130.366 201.149C130.366 201.149 129.118 178.032 137.877 176.985C146.636 175.938 141.776 207.498 141.776 207.498" stroke="#105C0A" stroke-linecap="round" stroke-linejoin="round"/>
<path d="M150.458 201.524C150.458 201.524 150.679 178.215 140.556 177.341" stroke="#105C0A" stroke-linecap="round" stroke-linejoin="round"/>
<path d="M45.7157 112.359C55.3198 109.785 66.6238 118.323 82.5571 117.43C84.9869 117.296 91.5465 116.162 92.2476 116.422C92.9487 116.681 96.9537 122.184 96.243 124.268C95.6763 125.949 87.9354 129.81 86.3891 129.32L84.8429 128.83C83.5352 128.989 82.2088 128.791 81.0048 128.257C79.8007 127.722 78.7639 126.872 78.0047 125.795C78.0047 125.795 47.867 129.32 37.7346 120.465" fill="white"/>
<path d="M45.7157 112.359C55.3198 109.785 66.6238 118.323 82.5571 117.43C84.9869 117.296 91.5465 116.162 92.2476 116.422C92.9487 116.681 96.9537 122.184 96.243 124.268C95.6763 125.949 87.9354 129.81 86.3891 129.32L84.8429 128.83C83.5352 128.989 82.2088 128.791 81.0048 128.257C79.8007 127.722 78.7639 126.872 78.0047 125.795C78.0047 125.795 47.867 129.32 37.7346 120.465" stroke="#105C0A" stroke-linecap="round" stroke-linejoin="round"/>
<path d="M84.7948 128.83C84.7948 128.83 83.4886 125.949 84.3434 125.949" stroke="#105C0A" stroke-linecap="round" stroke-linejoin="round"/>
<path d="M83.1332 124.902C83.9994 125.874 85.1784 126.513 86.4659 126.708" stroke="#105C0A" stroke-linecap="round" stroke-linejoin="round"/>
<path d="M89.6641 128.532C90.1251 128.34 88.8381 123.73 88.0794 122.914" stroke="#105C0A" stroke-linecap="round" stroke-linejoin="round"/>
<path d="M92.3052 127.284C92.8238 126.323 90.7397 121.771 90.7397 121.771" stroke="#105C0A" stroke-linecap="round" stroke-linejoin="round"/>
<path d="M94.5526 125.93C95.1961 124.441 92.8239 120.619 92.8239 120.619" stroke="#105C0A" stroke-linecap="round" stroke-linejoin="round"/>
<path d="M62.7725 113.79C54.2248 111.591 54.8875 143.563 54.8875 143.563" stroke="#105C0A" stroke-linecap="round" stroke-linejoin="round"/>
<path d="M47.0603 136.456C47.0603 136.456 49.9415 113.319 60.0738 113.79" stroke="#105C0A" stroke-linecap="round" stroke-linejoin="round"/>
<path d="M41.3457 126.131C41.3457 126.131 49.4132 113.031 56.2033 112.273" stroke="#105C0A" stroke-linecap="round" stroke-linejoin="round"/>
<path d="M48.1839 133.229C48.1839 133.229 54.3593 113.886 61.0054 113.32" stroke="#105C0A" stroke-linecap="round" stroke-linejoin="round"/>
<path d="M32.4139 123.951C32.4139 123.951 45.2642 108.95 52.8419 111.466" stroke="#105C0A" stroke-linecap="round" stroke-linejoin="round"/>
<path d="M35.641 132.509C35.641 132.509 47.6557 110.678 53.5238 111.139" stroke="#105C0A" stroke-linecap="round" stroke-linejoin="round"/>
<path d="M99.8829 58.0382C99.8829 58.0382 94.3509 61.2268 93.0159 62.4849C92.6377 62.8249 92.3645 63.2658 92.2284 63.7558C92.0923 64.2458 92.0989 64.7645 92.2476 65.2509" stroke="#105C0A" stroke-linecap="round" stroke-linejoin="round"/>
<path d="M90.1635 65.2508C89.603 64.6465 88.924 64.164 88.1689 63.8335C87.4138 63.5031 86.5987 63.3317 85.7744 63.33C82.9508 63.33 72.2038 64.0791 67.0368 63.9927" stroke="#105C0A" stroke-linecap="round" stroke-linejoin="round"/>
<path d="M107.269 276.83C108.311 278.602 109.541 280.257 110.937 281.766L109.977 276.129C110.575 276.054 111.182 276.121 111.749 276.325C112.317 276.528 112.828 276.863 113.242 277.3C113.242 277.3 112.656 281.401 114.203 282.909C119.341 287.961 131.634 295.116 133.555 295.491C142.602 297.306 142.602 298.132 142.602 298.132C142.602 298.132 138.549 305.671 125.468 306.823C125.468 306.823 117.266 303.26 112.743 303.26C108.219 303.26 109.42 312 109.42 312H104.003C104.003 312 99.2011 305.671 98.5768 299.332C97.9525 292.993 99.2491 288.845 96.2814 280.94C96.2814 280.94 99.7869 278.606 102.803 276.907C105.818 275.207 107.269 276.83 107.269 276.83Z" fill="#105C0A"/>
<path d="M67.0272 269.415C66.6142 272.537 67.0272 273.257 67.0272 273.257L69.4283 265.641C69.4283 265.641 71.9541 267.888 71.1954 270.299C71.1954 270.299 68.6119 274.025 68.9288 276.157C69.9757 283.293 75.45 296.422 76.7466 297.882C82.8644 304.787 82.365 305.44 82.365 305.44C82.365 305.44 74.5857 309.004 63.4641 302.021C63.4641 302.021 59.075 294.223 55.4735 291.457C51.8719 288.691 47.5501 296.422 47.5501 296.422L43.2186 293.147C43.2186 293.147 43.2186 285.185 46.5416 279.769C49.8647 274.352 52.9572 270.501 55.3678 262.404H57.7112C57.7112 262.404 56.0497 265.065 61.0631 267.725C62.9059 268.712 64.9405 269.289 67.0272 269.415Z" fill="#105C0A"/>
<path d="M144.12 165.739C147.001 172.25 150.113 177.677 149.354 180.942C148.595 184.208 143.447 185.994 140.556 185.178C137.666 184.361 132.729 183.602 133.296 180.654C133.607 178.982 134.05 177.338 134.621 175.737C134.073 172.62 134.135 169.427 134.804 166.334" fill="white"/>
<path d="M144.12 165.739C147.001 172.25 150.113 177.677 149.354 180.942C148.595 184.208 143.447 185.994 140.556 185.178C137.666 184.361 132.729 183.602 133.296 180.654C133.607 178.982 134.05 177.338 134.621 175.737C134.073 172.62 134.135 169.427 134.804 166.334" stroke="#105C0A" stroke-linecap="round" stroke-linejoin="round"/>
<path d="M138.578 175.737C138.578 175.737 135.697 174.901 134.631 175.737" stroke="#105C0A" stroke-linecap="round" stroke-linejoin="round"/>
<path d="M145.07 178.8C145.07 178.8 148.297 183.343 148.585 186.81" stroke="#105C0A" stroke-linecap="round" stroke-linejoin="round"/>
<path d="M151.438 180.788C151.438 180.788 147.663 176.803 144.888 176.995" stroke="#105C0A" stroke-linecap="round" stroke-linejoin="round"/>
<path d="M150.458 187.694C150.458 187.694 147.202 180.587 145.041 178.205" stroke="#105C0A" stroke-linecap="round" stroke-linejoin="round"/>
<path d="M144.888 172.51C144.888 172.51 145.282 178.109 144.888 179.53C144.494 180.952 138.424 183.891 138.424 183.891C138.424 183.891 138.04 181.73 141.747 178.205C141.747 178.205 137.906 176.553 137.473 173.144" fill="white"/>
<path d="M144.888 172.51C144.888 172.51 145.282 178.109 144.888 179.53C144.494 180.952 138.424 183.891 138.424 183.891C138.424 183.891 138.04 181.73 141.747 178.205C141.747 178.205 137.906 176.553 137.473 173.144" stroke="#105C0A" stroke-linecap="round" stroke-linejoin="round"/>
<path d="M143.121 186.263C143.121 186.263 143.265 183.382 143.121 181.23V186.263Z" fill="white"/>
<path d="M143.121 186.263C143.121 186.263 143.265 183.382 143.121 181.23" stroke="#105C0A" stroke-linecap="round" stroke-linejoin="round"/>
<path d="M139.759 176.947C139.759 176.947 137.473 176.947 137.473 181.221" stroke="#105C0A" stroke-linecap="round" stroke-linejoin="round"/>
<path d="M137.262 175.458C136.546 175.753 135.95 176.281 135.572 176.956C135.296 178.202 135.167 179.475 135.188 180.75" stroke="#105C0A" stroke-linecap="round" stroke-linejoin="round"/>
<path d="M68.6214 46.0906C69.1904 47.9452 69.5858 49.8485 69.8027 51.7762C71.3167 51.2014 72.6861 50.3014 73.8145 49.1398C74.9429 47.9782 75.8027 46.5833 76.3335 45.0534L68.6214 46.0906Z" fill="#105C0A"/>
<path d="M82.557 39.9056C91.0663 28.3806 84.0169 7.1555 74.9602 4.30308C58.0761 -1.01761 53.0628 10.9395 52.7938 17.3743C52.5729 22.8198 56.4722 29.3506 56.2321 32.6352C55.6271 40.8468 64.2708 49.0295 69.0056 48.9623C71.9733 48.9623 74.8449 47.3199 77.8606 44.7076" fill="white"/>
<path d="M82.557 39.9056C91.0663 28.3806 84.0169 7.1555 74.9602 4.30308C58.0761 -1.01761 53.0628 10.9395 52.7938 17.3743C52.5729 22.8198 56.4722 29.3506 56.2321 32.6352C55.6271 40.8468 64.2708 49.0295 69.0056 48.9623C71.9733 48.9623 74.8449 47.3199 77.8606 44.7076" stroke="#105C0A" stroke-linecap="round" stroke-linejoin="round"/>
<path d="M77.2748 22.5605C76.6023 21.4697 75.6375 20.5892 74.49 20.0188C73.3424 19.4484 72.058 19.211 70.7824 19.3335" stroke="#105C0A" stroke-linecap="round" stroke-linejoin="round"/>
<path d="M60.1411 20.9471C60.1411 20.9471 56.2995 20.5245 55.2526 24.078" stroke="#105C0A" stroke-linecap="round" stroke-linejoin="round"/>
<path d="M70.792 26.1621C70.9265 27.1993 71.4931 27.9868 72.0694 27.91C72.6456 27.8332 73.0298 26.9496 72.8665 25.8931C72.7033 24.8367 72.1558 24.0683 71.5892 24.1452C71.0225 24.222 70.6576 25.0768 70.792 26.1621Z" fill="#105C0A"/>
<path d="M58.7293 27.3818C58.8541 28.4191 59.4304 29.2066 60.0066 29.1298C60.5829 29.0529 60.9671 28.1694 60.8038 27.1129C60.6405 26.0565 60.0931 25.2881 59.5264 25.365C58.9598 25.4418 58.5948 26.335 58.7293 27.3818Z" fill="#105C0A"/>
<path d="M65.0775 29.7828C64.7375 30.7768 64.1252 31.6553 63.3103 32.3183C62.1674 33.0098 65.0775 35.4781 65.0775 35.4781" stroke="#105C0A" stroke-linecap="round" stroke-linejoin="round"/>
<path d="M64.0595 38.6475C64.0595 38.6475 69.0056 39.022 72.2999 36.9379" stroke="#105C0A" stroke-linecap="round" stroke-linejoin="round"/>
<path d="M71.8293 37.2164C71.8293 37.2164 70.5232 40.7987 67.8052 41.2405C65.0873 41.6823 64.8279 38.6762 64.8279 38.6762" stroke="#105C0A" stroke-linecap="round" stroke-linejoin="round"/>
<path d="M84.4106 24.078C83.6681 24.332 82.9914 24.7482 82.4299 25.2964C81.8684 25.8447 81.4361 26.5111 81.1644 27.2474C81.1644 27.2474 69.044 19.0166 68.3237 9.76785C68.3237 9.76785 53.9175 16.1546 54.2536 28.0925C54.2536 28.0925 48.3663 27.3722 48.8753 17.9986C49.3844 8.62497 62.8013 -5.42587 74.8065 2.171C74.8065 2.171 82.7107 -1.12321 88.9533 10.152C95.196 21.4273 91.8346 34.9691 84.2857 36.9379C84.3146 36.9379 86.8885 29.7829 84.4106 24.078Z" fill="#105C0A"/>
<path d="M82.557 26.0084C82.557 26.0084 85.8512 21.8018 87.4935 23.1944C89.1358 24.587 89.7793 30.5992 87.4935 32.6352C85.2077 34.6713 83.575 36.4769 83.1909 34.5561" fill="white"/>
<path d="M82.557 26.0084C82.557 26.0084 85.8512 21.8018 87.4935 23.1944C89.1358 24.587 89.7793 30.5992 87.4935 32.6352C85.2077 34.6713 83.575 36.4769 83.1909 34.5561" stroke="#105C0A" stroke-linecap="round" stroke-linejoin="round"/>
<path d="M70.3886 84.7472C69.5876 86.0746 68.4621 87.1766 67.1181 87.9494C65.774 88.7222 64.2555 89.1406 62.7053 89.1651" stroke="#105C0A" stroke-linecap="round" stroke-linejoin="round"/>
<path d="M103.273 74.0867C103.273 74.0867 86.4372 74.903 77.755 69.8224" stroke="#105C0A" stroke-linecap="round" stroke-linejoin="round"/>
<path d="M104.608 97.1653C104.608 97.1653 96.6944 100.94 92.1228 106.001" stroke="#105C0A" stroke-linecap="round" stroke-linejoin="round"/>
<path d="M116.191 141.315C114.164 151.592 102.745 168.428 103.273 178.109" stroke="#105C0A" stroke-linecap="round" stroke-linejoin="round"/>
<path d="M78.6002 134.938C78.6002 134.938 85.8033 147.664 92.1324 150.132" stroke="#105C0A" stroke-linecap="round" stroke-linejoin="round"/>
</g>
<defs>
<filter id="filter0_d_22_135" x="-16.5415" y="-16.0403" width="228.787" height="352.101" filterUnits="userSpaceOnUse" color-interpolation-filters="sRGB">
<feFlood flood-opacity="0" result="BackgroundImageFix"/>
<feColorMatrix in="SourceAlpha" type="matrix" values="0 0 0 0 0 0 0 0 0 0 0 0 0 0 0 0 0 0 127 0" result="hardAlpha"/>
<feOffset dx="4" dy="4"/>
<feGaussianBlur stdDeviation="10"/>
<feComposite in2="hardAlpha" operator="out"/>
<feColorMatrix type="matrix" values="0 0 0 0 0 0 0 0 0 0 0 0 0 0 0 0 0 0 0.25 0"/>
<feBlend mode="normal" in2="BackgroundImageFix" result="effect1_dropShadow_22_135"/>
<feBlend mode="normal" in="SourceGraphic" in2="effect1_dropShadow_22_135" result="shape"/>
</filter>
</defs>
</svg>
