<svg width="375" height="358" viewBox="0 0 375 358" fill="none" xmlns="http://www.w3.org/2000/svg">
<g filter="url(#filter0_d_153_1780)">
<path opacity="0.1" d="M271.4 147.816C271.153 140.68 270.689 133.069 269.921 125.193C268.888 109.461 266.917 94.7704 263.344 85.5297C243.668 81.5017 141.452 89.008 141.377 89.008L140.742 86.1647L140.486 85.0369L140.031 83.0561L139.908 82.6012C139.244 79.9285 138.495 77.2842 137.623 74.6589C137.623 74.6589 60.1348 67.7403 34.4316 74.4504C34.4316 74.6779 34.4316 74.8959 34.4316 75.1233L34.5074 81.4638C34.5832 93.7373 34.2989 105.253 34.9339 117.896V117.99C34.8109 117.979 34.6872 117.979 34.5642 117.99C33.5668 118.122 32.6254 118.528 31.8442 119.162C31.0629 119.796 30.4725 120.633 30.1382 121.582C29.8832 122.318 29.7894 123.101 29.8634 123.876L30.2046 127.866C30.2046 127.932 30.2046 127.989 30.2046 128.056C31.1523 138.121 32.1001 148.091 32.1001 148.091C32.1001 148.091 32.5929 148.139 33.3985 148.177L37.6539 148.48C28.5934 149.314 18.6988 161.275 19.1347 171.558C19.5707 181.841 9.65717 201.204 12.1308 212.311C14.0263 220.993 23.7788 234.953 28.527 245.559L28.1574 247.663L6.95606 290.236C8.37769 288.151 21.1724 343.784 80.5969 332.004L122.876 263.121C127.592 259.564 131.908 255.506 135.747 251.018C137.367 249.408 138.715 247.545 139.737 245.502C141.247 243.09 142.399 240.472 143.158 237.73C143.348 237.01 143.547 236.299 143.755 235.569C147.205 226.784 151.811 214.794 155.185 206.492C199.73 205.165 246.502 202.445 269.987 196.92H270.035C272.309 181.471 272.357 164.137 271.4 147.816ZM42.6392 186.741C42.2715 184.174 42.05 181.589 41.9757 178.998C42.497 181.727 43.0656 184.447 43.6627 187.177C43.3215 187.025 42.9803 186.874 42.6392 186.741Z" fill="black"/>
<path d="M2.11231 287.517C2.11231 287.517 21.1433 343.785 80.5962 332.004C80.5962 332.004 93.789 270.068 104.84 260.923C111.967 255.046 127.709 244.507 131.074 236.878C134.438 229.248 147.953 193.016 150.569 188.656C153.185 184.296 122.212 134.131 122.212 134.131L56.9685 167.796L20.6694 232.243C20.6694 232.243 13.7034 273.945 2.11231 287.517Z" fill="white"/>
<path d="M20.0356 237.266C20.0356 237.266 15.3821 272.058 0 290.236" stroke="#105C0A" stroke-linecap="round" stroke-linejoin="round"/>
<path d="M80.5977 332.004C80.5977 332.004 93.7147 272.077 104.841 260.922C104.841 260.922 129.976 246.308 134.506 229.106C137.643 217.193 143.349 203.46 146.078 197.223" stroke="#105C0A" stroke-linecap="round" stroke-linejoin="round"/>
<path d="M85.8878 199.147C84.94 198.541 101.099 211.468 101.725 229.134" stroke="#105C0A" stroke-linecap="round" stroke-linejoin="round"/>
<path d="M261.381 188.314C208.989 200.635 40.2505 199.015 40.2505 199.015C38.8288 196.02 37.1134 188.476 35.4548 179.737C32.1376 162.194 29.0385 139.837 29.0385 139.837L23.4562 139.448C23.4562 139.448 22.5084 129.478 21.5607 119.412C20.6129 109.347 26.2995 109.357 26.2995 109.357L25.8919 74.5171L25.7877 65.8166C51.4909 59.1065 128.98 66.0251 128.98 66.0251L131.396 74.4223L132.742 80.3742L254.7 76.9338C265.883 105.85 261.381 188.314 261.381 188.314Z" fill="#A8C879"/>
<path d="M241.121 103.797L161.13 107.797C157.838 107.962 155.302 110.764 155.467 114.056L156.28 130.31C156.444 133.603 159.247 136.138 162.539 135.974L242.53 131.974C245.822 131.81 248.358 129.007 248.193 125.715L247.381 109.461C247.216 106.168 244.414 103.633 241.121 103.797Z" fill="#105C0A"/>
<path d="M247.755 142.595L248.011 145.296L155.908 148.859L155.832 146.433L247.755 142.595Z" fill="#105C0A"/>
<path d="M248.209 151.987L248.294 154.413L156.201 157.815L156.115 155.399L248.209 151.987Z" fill="#105C0A"/>
<path opacity="0.3" d="M254.681 76.934C254.681 76.934 268.272 141.382 261.382 188.315C261.382 188.315 175.439 198.399 146.011 196.769L144.807 181.083L147.271 180.704C147.271 180.704 135.406 91.1788 132.714 80.3743C132.714 80.3743 235.062 72.8965 254.681 76.934Z" fill="black"/>
<path opacity="0.8" d="M141.973 180.856L142.988 192.712C142.988 192.712 56.3624 196.503 48.7424 193.745C41.1225 190.987 49.15 186.589 69.2993 185.007C89.4487 183.424 141.973 180.856 141.973 180.856Z" fill="white"/>
<path d="M90.2536 130.567C94.6243 130.567 98.1674 127.36 98.1674 123.402C98.1674 119.445 94.6243 116.237 90.2536 116.237C85.883 116.237 82.3399 119.445 82.3399 123.402C82.3399 127.36 85.883 130.567 90.2536 130.567Z" fill="#105C0A"/>
<path d="M29.0391 139.827C30.8244 159.876 34.5766 179.7 40.2416 199.015C76.9862 198.702 113.721 198.294 150.456 197.119C187.191 195.944 224.941 193.461 261.344 188.314C261.344 188.314 267.865 130.729 254.643 76.9338C240.029 73.8915 133.084 80.3552 133.084 80.3552" stroke="#105C0A" stroke-linecap="round" stroke-linejoin="round"/>
<path d="M141.974 180.855L142.988 192.712L60.5335 194.607C57.1311 194.901 51.8331 195.346 48.7055 193.745C47.2839 193.015 46.2603 191.233 46.9332 189.774C47.5398 188.466 49.132 188.001 50.5536 187.717C60.6378 185.641 70.9304 184.769 81.1947 184.011C103.17 182.381 125.18 181.278 147.225 180.704C146.761 180.704 141.387 136.358 140.79 132.264C138.458 116.246 136.24 100.163 133.359 84.2312C132.319 78.063 130.834 71.9782 128.914 66.0248C94.9466 63.5985 59.472 61.3523 25.7129 65.8162C26.0257 80.8572 25.4665 94.249 26.2342 109.356" stroke="#105C0A" stroke-linecap="round" stroke-linejoin="round"/>
<path d="M38.9813 194.55C38.7784 193.937 38.6573 193.3 38.6211 192.655" stroke="#105C0A" stroke-linecap="round" stroke-linejoin="round"/>
<path d="M39.1719 189.063C40.4324 185.907 44.214 182.344 54.4971 181.206C73.2533 179.121 114.14 175.368 138.127 174.458" stroke="#105C0A" stroke-linecap="round" stroke-linejoin="round" stroke-dasharray="3.91 3.91"/>
<path d="M139.984 174.392L141.88 174.325L141.624 172.43" stroke="#105C0A" stroke-linecap="round" stroke-linejoin="round"/>
<path d="M141.093 168.8C136.78 137.78 132.004 106.987 126.535 76.1377" stroke="#105C0A" stroke-linecap="round" stroke-linejoin="round" stroke-dasharray="3.88 3.88"/>
<path d="M126.232 74.3275L125.891 72.432L123.995 72.2993" stroke="#105C0A" stroke-linecap="round" stroke-linejoin="round"/>
<path d="M120.168 72.0526C104.407 71.0006 59.5873 68.3753 29.6856 70.4225" stroke="#105C0A" stroke-linecap="round" stroke-linejoin="round" stroke-dasharray="4.07 4.07"/>
<path d="M27.751 70.5647L25.8555 70.7164" stroke="#105C0A" stroke-linecap="round" stroke-linejoin="round"/>
<path d="M23.4573 139.448L21.1921 115.28C21.1234 114.554 21.2018 113.822 21.4226 113.127C21.6434 112.432 22.0021 111.789 22.4773 111.236C22.9524 110.683 23.5342 110.232 24.1879 109.909C24.8416 109.586 25.5537 109.398 26.2816 109.357C40.2136 108.551 76.2474 106.655 90.0752 107.764C96.7095 108.295 103.922 110.428 107.135 116.778C109.808 122.009 110.206 129.857 105.723 134.159C98.8988 140.699 85.9524 140.197 77.1572 140.509C60.78 141.135 23.4667 139.59 23.4573 139.448Z" stroke="#105C0A" stroke-linecap="round" stroke-linejoin="round"/>
<path d="M109.134 124.672C109.134 123.999 112.584 138.557 99.9788 143.362C87.3736 148.167 29.0391 146.651 29.0391 146.651V139.827C29.0391 139.827 70.3045 140.699 77.1757 140.509C84.0469 140.32 108.395 142.604 109.134 124.672Z" fill="#105C0A"/>
<path d="M97.0127 205.99C97.0127 205.99 107.324 212.028 111.182 223.372" stroke="#105C0A" stroke-linecap="round" stroke-linejoin="round"/>
<path d="M21.4756 112.987C21.4756 112.987 72.048 110.608 84.9185 111.034C97.7891 111.461 104.092 114.295 105.371 122.36C106.651 130.425 98.8506 135.449 92.6333 136.396C86.416 137.344 23.4469 137.619 23.4469 137.619" stroke="#105C0A" stroke-linecap="round" stroke-linejoin="round" stroke-dasharray="4 4"/>
<path d="M56.2311 210.691C56.2311 210.691 48.4026 183.5 33.9966 178.145C33.9966 178.145 31.1534 159.588 37.2948 158.565C43.4363 157.541 60.7803 146.111 56.25 131.847C51.7197 117.583 38.1194 139.003 29.0588 139.827C19.9983 140.652 10.1037 152.622 10.5112 162.915C10.9187 173.207 1.03362 192.57 3.50727 203.668C5.98092 214.767 21.2303 234.565 22.4624 244.867" fill="white"/>
<path d="M56.2311 210.691C56.2311 210.691 48.4026 183.5 33.9966 178.145C33.9966 178.145 31.1534 159.588 37.2948 158.565C43.4363 157.541 60.7803 146.111 56.25 131.847C51.7197 117.583 38.1194 139.003 29.0588 139.827C19.9983 140.652 10.1037 152.622 10.5112 162.915C10.9187 173.207 1.03362 192.57 3.50727 203.668C5.98092 214.767 21.2303 234.565 22.4624 244.867" stroke="#105C0A" stroke-linecap="round" stroke-linejoin="round"/>
<path d="M37.2666 135.647C37.2666 135.647 48.1184 137.619 54.0135 130.729C59.9086 123.838 53.1226 123.402 53.1226 123.402L37.2666 135.647Z" fill="white" stroke="#105C0A" stroke-linecap="round" stroke-linejoin="round"/>
<path d="M17.8838 151.001C19.8647 151.137 21.7803 151.766 23.4566 152.83" stroke="#105C0A" stroke-linecap="round" stroke-linejoin="round"/>
<path d="M17.5508 154.944C19.524 155.131 21.4038 155.873 22.972 157.086" stroke="#105C0A" stroke-linecap="round" stroke-linejoin="round"/>
<path d="M46.8467 191.366C46.8467 191.366 93.2869 188.968 105.513 189.67" stroke="#105C0A" stroke-linecap="round" stroke-linejoin="round"/>
<path d="M94.2071 186.125C94.2071 186.125 105.893 185.177 113.162 186.125" stroke="#105C0A" stroke-linecap="round" stroke-linejoin="round"/>
<path d="M123.814 189.537H142.721" stroke="#105C0A" stroke-linecap="round" stroke-linejoin="round"/>
<path d="M135.255 85.6813C135.255 85.6813 218.307 78.2604 251.678 82.4969C251.678 82.4969 260.681 99.0542 258.719 183.907C221.213 188.715 183.476 191.521 145.671 192.314" stroke="#105C0A" stroke-linecap="round" stroke-linejoin="round" stroke-dasharray="4 4"/>
<g opacity="0.1">
<path d="M360.083 203.109C357.723 193.072 354.264 189.3 350.795 186.4C350.795 186.4 350.719 180.713 346.274 177.472C345.087 176.426 343.819 175.475 342.483 174.629C338.313 171.501 333.716 167.994 333.716 167.994C331.555 161.739 328.627 154.166 325.461 146.717L325.622 148.414C322.381 140.5 319.206 132.624 318.315 130.008V129.951C319.263 132.472 320.211 134.908 321.253 137.154L309.387 95.2159C309.103 93.5289 308.809 91.8703 308.515 90.2686C307.947 85.5298 306.402 76.602 302.677 75.967C302.538 75.9576 302.399 75.9576 302.26 75.967C302.26 75.967 297.872 74.0714 297.872 81.8525C292.65 83.5964 290.631 87.5391 290.129 92.1736C289.857 93.6436 289.825 95.1479 290.034 96.6281C290.129 98.3435 290.328 100.097 290.593 101.841L273.78 79.739L272.159 77.635L251.422 50.3396L223.549 13.5666C222.512 12.2015 221.216 11.0542 219.735 10.1901C218.255 9.32601 216.618 8.76212 214.919 8.53064C213.221 8.29917 211.493 8.40464 209.835 8.84103C208.177 9.27742 206.622 10.0362 205.257 11.074L170.655 37.3553L157.149 47.61C146.79 53.0028 149.491 63.6556 152.363 67.4371L212.707 146.869C212.392 146.829 212.075 146.813 211.759 146.821C211.759 146.821 210.034 142.755 205.769 143.4C204.861 143.442 203.982 143.734 203.229 144.243C202.541 144.605 201.957 145.137 201.532 145.788C201.06 146.359 200.635 146.968 200.262 147.608C198.092 151.323 200.101 160.412 203.238 171.51C203.437 172.231 203.637 172.923 203.826 173.567V173.671L204.632 176.448C207.702 187.101 213.446 208.018 214.507 218.273C214.583 219.221 214.63 220.235 214.649 221.182C214.716 232.992 209.475 252.762 211.73 260.931C212.024 262.002 212.327 263.026 212.631 264.04C214.308 269.499 215.806 274.664 218.44 279.792C221.644 286.047 225.463 292.046 229.036 298.102C235.595 309.229 242.381 320.223 249.394 331.084C252.626 336.07 256.408 340.619 260.066 345.301C261.744 347.452 265.402 350.684 266.037 353.442C266.037 353.442 298.479 356.124 316.638 344.59L314.932 318.773L327.11 248.781C330.589 243.502 341.327 233.191 343.469 229.93C344.578 228.31 345.658 226.698 346.71 225.125C354.719 217.647 358.728 211.857 360.49 205.118C360.528 205.137 360.405 204.369 360.083 203.109ZM247.774 218.396L247.613 218.093C250.926 219.593 254.436 220.614 258.038 221.126C254.256 220.69 249.982 220.083 247.774 218.396ZM261.459 221.533L263.203 221.656C262.62 221.654 262.037 221.613 261.459 221.533ZM247.432 217.685L245.253 213.363C242.22 204.663 235.367 184.154 235.339 184.068C233.997 178.158 232.204 172.36 229.975 166.724C231.587 167.293 233.315 167.452 235.004 167.187C236.693 166.922 238.29 166.242 239.651 165.208L256.237 152.612C257.953 153.645 259.706 154.574 261.421 155.389L276.955 167.53L264.634 218.169L247.432 217.685ZM310.307 101.054C311.596 107.101 313.633 115.801 316.334 124.227C313.712 116.674 311.69 108.925 310.288 101.054H310.307Z" fill="black"/>
<path d="M239.898 344.382L239.992 344.837C239.992 344.837 239.964 344.666 239.898 344.382Z" fill="black"/>
</g>
<path d="M297.474 102.912C298.421 102.286 312.316 94.723 319.272 117.403C326.229 140.083 334.389 178.675 334.389 178.675L317.86 181.888C317.86 181.888 302.544 173.738 288.821 153.323C288.821 153.323 269.581 148.338 261.203 136.491C253.621 125.724 277.012 86.1931 277.012 86.1931L297.474 102.912Z" fill="white"/>
<path d="M291.531 131.136C295.626 137.277 303.378 150.195 313.842 154.271" stroke="#105C0A" stroke-linecap="round" stroke-linejoin="round"/>
<path d="M279.949 137.741C281.845 138.509 286.584 141.239 288.82 141.343C288.82 141.343 298.478 160.459 314.41 166.667" stroke="#105C0A" stroke-linecap="round" stroke-linejoin="round"/>
<path d="M271.087 144.784C277.01 149.741 284.071 153.124 288.82 153.314C288.82 153.314 298.477 172.43 314.409 178.638" stroke="#105C0A" stroke-linecap="round" stroke-linejoin="round"/>
<path d="M221.237 6.26006L168.829 46.0684C164.278 49.5258 163.391 56.0185 166.848 60.5701L239.637 156.397C243.095 160.948 249.587 161.835 254.139 158.378L306.546 118.57C311.098 115.112 311.985 108.62 308.528 104.068L235.739 8.2414C232.281 3.68973 225.789 2.80265 221.237 6.26006Z" fill="#105C0A"/>
<path d="M305.055 116.493L256.966 153.029C255.602 154.069 254.046 154.829 252.387 155.266C250.728 155.703 249 155.808 247.3 155.576C245.601 155.344 243.964 154.778 242.484 153.912C241.004 153.045 239.709 151.895 238.674 150.527L169.156 59.0116C168.023 57.5334 167.228 55.8255 166.824 54.0075C166.264 51.5661 166.421 49.0149 167.277 46.6608C168.133 44.3068 169.651 42.2503 171.649 40.7389L185.164 30.4841L219.757 4.1933C221.122 3.15603 222.678 2.3979 224.336 1.96226C225.995 1.52662 227.722 1.42198 229.421 1.65434C231.12 1.8867 232.756 2.4515 234.236 3.31646C235.717 4.18143 237.012 5.3296 238.048 6.69538L265.941 43.4115L286.678 70.707L307.529 98.192C308.569 99.5557 309.33 101.111 309.769 102.769C310.208 104.427 310.315 106.156 310.085 107.855C309.856 109.555 309.293 111.193 308.43 112.675C307.567 114.157 306.42 115.455 305.055 116.493Z" fill="#A8C879"/>
<path opacity="0.1" d="M265.905 43.4115L185.137 30.4746L219.758 4.1933C221.124 3.15603 222.68 2.3979 224.338 1.96226C225.996 1.52662 227.724 1.42198 229.423 1.65434C231.121 1.8867 232.758 2.4515 234.238 3.31646C235.718 4.18142 237.014 5.3296 238.05 6.69538L265.905 43.4115Z" fill="black"/>
<path opacity="0.1" d="M305.056 116.493L256.967 153.029C255.602 154.069 254.046 154.829 252.388 155.266C250.729 155.703 249.001 155.808 247.301 155.576C245.602 155.343 243.965 154.778 242.485 153.911C241.004 153.045 239.71 151.895 238.675 150.527L169.157 59.0115C168.024 57.5333 167.228 55.8254 166.825 54.0073L288.271 72.8962L307.529 98.2487C309.612 100.999 310.522 104.462 310.058 107.881C309.595 111.3 307.796 114.397 305.056 116.493Z" fill="black"/>
<path d="M226.584 13.4854L218.093 19.9347C216.392 21.2265 216.061 23.6523 217.353 25.3529L227.632 38.885C228.923 40.5856 231.349 40.9171 233.05 39.6253L241.54 33.1759C243.241 31.8842 243.572 29.4583 242.281 27.7577L232.002 14.2256C230.71 12.525 228.284 12.1936 226.584 13.4854Z" fill="white" stroke="#105C0A" stroke-linecap="round" stroke-linejoin="round"/>
<path d="M222.516 16.5615L237.178 36.4834" stroke="#105C0A" stroke-linecap="round" stroke-linejoin="round"/>
<path d="M222.516 32.1521L237.178 21.0349" stroke="#105C0A" stroke-linecap="round" stroke-linejoin="round"/>
<path d="M250.911 147.068L248.409 148.906L217.882 108.722L220.365 106.845L250.911 147.068Z" fill="#105C0A"/>
<path d="M255.145 143.93L252.643 145.788L222.078 105.537L224.542 103.66L255.145 143.93Z" fill="#105C0A"/>
<path d="M259.376 140.813L256.883 142.651L226.271 102.362L228.744 100.476L259.376 140.813Z" fill="#105C0A"/>
<path d="M263.611 137.676L261.109 139.514L230.904 99.7559L233.369 97.8699L263.611 137.676Z" fill="#105C0A"/>
<path d="M268.178 134.301L265.676 136.15L235.424 96.3248L237.898 94.4387L268.178 134.301Z" fill="#105C0A"/>
<path d="M268.178 87.4445L265.676 89.2832L235.424 49.4584L237.898 47.5818L268.178 87.4445Z" fill="#105C0A"/>
<path d="M202.294 17.5645L198.422 20.5054L283.668 132.732L287.54 129.791L202.294 17.5645Z" fill="#105C0A"/>
<path d="M305.055 116.493L256.966 153.029C255.602 154.069 254.046 154.829 252.387 155.266C250.728 155.703 249 155.808 247.3 155.576C245.601 155.344 243.964 154.778 242.484 153.912C241.004 153.045 239.709 151.895 238.674 150.527L169.156 59.0116C168.023 57.5334 167.228 55.8255 166.824 54.0075C166.264 51.5661 166.421 49.0149 167.277 46.6608C168.133 44.3068 169.651 42.2503 171.649 40.7389L185.164 30.4841L219.757 4.1933C221.122 3.15603 222.678 2.3979 224.336 1.96226C225.995 1.52662 227.722 1.42198 229.421 1.65434C231.12 1.8867 232.756 2.4515 234.236 3.31646C235.717 4.18143 237.012 5.3296 238.048 6.69538L265.941 43.4115L286.678 70.707L307.529 98.192C308.569 99.5557 309.33 101.111 309.769 102.769C310.208 104.427 310.315 106.156 310.085 107.855C309.856 109.555 309.293 111.193 308.43 112.675C307.567 114.157 306.42 115.455 305.055 116.493Z" stroke="#105C0A" stroke-linecap="round" stroke-linejoin="round"/>
<path d="M266.073 353.433C266.073 353.433 322.048 373.335 338.984 329.985C338.984 329.985 312.495 297.761 326.957 271.432C336.056 254.847 361.219 218.235 361.219 218.235C361.219 218.235 371.729 208.255 374.999 198.228C374.999 198.228 373.198 187.054 365.275 179.49C365.275 179.49 365.19 173.804 360.745 170.563C356.3 167.321 348.149 161.085 348.149 161.085C348.149 161.085 334.748 128.937 332.758 123.127C330.767 117.317 326.768 106.333 324.768 94.2017C322.768 82.0704 320.92 69.0103 316.674 69.0482C316.674 69.0482 312.296 67.1527 312.296 74.9337C312.296 74.9337 303.102 79.6725 304.458 89.6998C305.813 99.7271 307.064 104.911 306.704 110.55C306.344 116.19 308.154 135.77 312.684 141.912C312.684 141.912 314.2 169.397 316.475 176.552C316.551 176.77 316.617 176.969 316.684 177.149C319.072 183.206 295.207 206.53 282.289 212.842C282.289 212.842 280.934 215.363 275.921 214.671C270.907 213.979 262.424 213.657 260.965 209.932C259.505 206.208 249.791 177.149 249.791 177.149C249.791 177.149 241.934 139.903 226.239 139.912C226.239 139.912 223.86 134.226 217.709 137.334C211.558 140.443 215.586 157.389 218.306 166.658C221.026 175.927 227.917 200.294 229.035 211.506C230.153 222.718 223.803 245.18 226.192 254.013C228.58 262.846 231.234 268.807 238.854 283.27C246.474 297.733 263.353 340.856 266.073 353.433Z" fill="white"/>
<path d="M266.075 353.433C266.075 353.433 254.095 308.338 236.486 279.176C218.876 250.013 229.235 239.702 229.235 215.429C229.235 191.157 209.456 149.835 214.792 140.727C220.127 131.619 227.406 138.907 230.449 147.409C233.491 155.91 229.235 160.772 220.706 161.379" stroke="#105C0A" stroke-linecap="round" stroke-linejoin="round"/>
<path d="M226.239 139.95C226.239 139.95 236.466 139.325 242.749 155.674C249.033 172.022 259.098 213.487 269.58 226.101" stroke="#105C0A" stroke-linecap="round" stroke-linejoin="round"/>
<path d="M261.306 210.786C261.363 210.918 275.949 219.05 298.581 211.923" stroke="#105C0A" stroke-linecap="round" stroke-linejoin="round"/>
<path d="M228.185 187.935C229.322 186.544 230.805 185.476 232.485 184.839C234.165 184.202 235.983 184.018 237.757 184.305" stroke="#105C0A" stroke-linecap="round" stroke-linejoin="round"/>
<path d="M230.126 193.081C231.109 191.906 232.402 191.032 233.859 190.557C235.315 190.083 236.876 190.028 238.362 190.399" stroke="#105C0A" stroke-linecap="round" stroke-linejoin="round"/>
<path d="M312.297 74.9055C297.417 79.8623 308.506 102.334 306.705 110.532C304.904 118.73 309.548 134.425 313.122 142.936C313.122 152.916 316.676 177.131 316.676 177.131C314.477 184.836 296.128 207.544 278.301 214.653" stroke="#105C0A" stroke-linecap="round" stroke-linejoin="round"/>
<path d="M323.215 86.2216C323.215 86.2216 322.106 69.0198 316.675 69.0198C311.245 69.0198 311.576 80.6109 313.832 89.2165C316.088 97.8222 324.864 96.5901 323.215 86.2216Z" stroke="#105C0A" stroke-linecap="round" stroke-linejoin="round"/>
<path d="M323.214 86.2217C323.214 86.2217 327.839 113.261 335.677 130.245" stroke="#105C0A" stroke-linecap="round" stroke-linejoin="round"/>
<path d="M344.918 193.574C348.709 187.433 350.387 181.623 351.789 174.231C351.439 169.596 346.103 154.47 339.904 139.818" stroke="#105C0A" stroke-linecap="round" stroke-linejoin="round"/>
<path d="M348.652 162.516C354.803 167.141 365.504 170.695 364.271 178.675C362.912 186.658 360.118 194.329 356.026 201.317" stroke="#105C0A" stroke-linecap="round" stroke-linejoin="round"/>
<path d="M340.35 332.004C340.35 332.004 318.921 302.254 323.214 281.707C326.37 266.59 346.662 240.157 361.219 218.264C369.237 210.786 373.246 204.995 375 198.257C372.431 185.604 368.261 181.917 364.252 178.676" stroke="#105C0A" stroke-linecap="round" stroke-linejoin="round"/>
<path d="M346.066 167.426C343.679 166.755 341.18 166.581 338.723 166.915C336.266 167.249 333.904 168.084 331.783 169.369" stroke="#105C0A" stroke-linecap="round" stroke-linejoin="round"/>
<path d="M344.862 172.515C341.951 172.074 338.975 172.597 336.389 174.003" stroke="#105C0A" stroke-linecap="round" stroke-linejoin="round"/>
</g>
<defs>
<filter id="filter0_d_153_1780" x="-16.5" y="-14.9661" width="416" height="396.959" filterUnits="userSpaceOnUse" color-interpolation-filters="sRGB">
<feFlood flood-opacity="0" result="BackgroundImageFix"/>
<feColorMatrix in="SourceAlpha" type="matrix" values="0 0 0 0 0 0 0 0 0 0 0 0 0 0 0 0 0 0 127 0" result="hardAlpha"/>
<feOffset dx="4" dy="4"/>
<feGaussianBlur stdDeviation="10"/>
<feComposite in2="hardAlpha" operator="out"/>
<feColorMatrix type="matrix" values="0 0 0 0 0 0 0 0 0 0 0 0 0 0 0 0 0 0 0.25 0"/>
<feBlend mode="normal" in2="BackgroundImageFix" result="effect1_dropShadow_153_1780"/>
<feBlend mode="normal" in="SourceGraphic" in2="effect1_dropShadow_153_1780" result="shape"/>
</filter>
</defs>
</svg>
