<svg width="20" height="20" viewBox="0 0 20 20" fill="none" xmlns="http://www.w3.org/2000/svg">
<path d="M9.16703 3.33333H3.3337C2.89168 3.33333 2.46776 3.50893 2.15519 3.82149C1.84263 4.13405 1.66704 4.55797 1.66704 5V16.6666C1.66704 17.1087 1.84263 17.5326 2.15519 17.8452C2.46776 18.1577 2.89168 18.3333 3.3337 18.3333H15.0004C15.4424 18.3333 15.8663 18.1577 16.1789 17.8452C16.4914 17.5326 16.667 17.1087 16.667 16.6666V10.8333" stroke="white" stroke-linecap="round" stroke-linejoin="round"/>
<path d="M15.4162 2.08342C15.7477 1.7519 16.1973 1.56565 16.6662 1.56565C17.135 1.56565 17.5846 1.7519 17.9162 2.08342C18.2477 2.41494 18.4339 2.86458 18.4339 3.33342C18.4339 3.80226 18.2477 4.2519 17.9162 4.58342L9.9995 12.5001L6.66617 13.3334L7.4995 10.0001L15.4162 2.08342Z" stroke="white" stroke-linecap="round" stroke-linejoin="round"/>
</svg>
