<svg width="14" height="14" viewBox="0 0 14 14" fill="none" xmlns="http://www.w3.org/2000/svg">
<g clip-path="url(#clip0_153_1918)">
<path d="M7.00033 12.8334C10.222 12.8334 12.8337 10.2217 12.8337 7.00008C12.8337 3.77842 10.222 1.16675 7.00033 1.16675C3.77866 1.16675 1.16699 3.77842 1.16699 7.00008C1.16699 10.2217 3.77866 12.8334 7.00033 12.8334Z" stroke="black" stroke-linecap="round" stroke-linejoin="round"/>
<path d="M5.30273 5.25009C5.43988 4.86023 5.71057 4.53148 6.06687 4.32208C6.42318 4.11268 6.84209 4.03614 7.24942 4.106C7.65675 4.17587 8.02621 4.38764 8.29236 4.70381C8.55851 5.01998 8.70418 5.42014 8.70357 5.83342C8.70357 7.00009 6.95357 7.58342 6.95357 7.58342" stroke="black" stroke-linecap="round" stroke-linejoin="round"/>
<path d="M7 9.91675H7.00583" stroke="black" stroke-linecap="round" stroke-linejoin="round"/>
</g>
<defs>
<clipPath id="clip0_153_1918">
<rect width="14" height="14" fill="white"/>
</clipPath>
</defs>
</svg>
