<svg width="302" height="573" viewBox="0 0 302 573" fill="none" xmlns="http://www.w3.org/2000/svg">
<g filter="url(#filter0_d_153_2836)">
<path d="M190.48 530.633L189.878 546.187C189.878 546.187 172.291 557.917 164.609 560.459C160.843 561.702 150.618 563.02 150.618 567.671C150.618 572.322 163.799 573 170.935 573C174.701 573 184.267 572.642 196.129 572.51C206.825 572.397 216.296 570.929 216.296 565.807C216.095 558.878 214.152 552.111 210.647 546.13L212.888 530.633H190.48Z" fill="white" stroke="#105C0A" stroke-linecap="round" stroke-linejoin="round"/>
<path d="M192.589 261.294C192.589 261.294 189.859 303.849 190.424 334.051C190.857 358.229 186.074 428.84 186.074 428.84L187.957 535.509L214.187 537.392C214.187 537.392 228.215 480.376 225.127 430.063C225.127 430.063 235.558 359.754 238.684 337.158C238.684 337.158 259.811 309.516 258.963 260.823L192.589 261.294Z" fill="#105C0A"/>
<path d="M204.621 299.932C208.37 308.023 214.071 315.056 221.21 320.4" stroke="#7F7F7F" stroke-linecap="round" stroke-linejoin="round"/>
<path d="M150.657 567.652C150.657 572.303 163.838 572.999 170.974 572.999C174.74 572.999 184.306 572.642 196.168 572.51C206.864 572.397 216.335 570.928 216.335 565.807C216.134 558.877 214.192 552.11 210.686 546.13C205.64 548.013 203.738 554.885 203.738 554.885C203.738 554.885 190.331 556.994 193.852 552.268C197.373 547.542 189.842 546.186 189.842 546.186C189.842 546.186 172.255 557.917 164.572 560.459C160.882 561.664 150.657 563.02 150.657 567.652Z" fill="#A8C879" stroke="#105C0A" stroke-linecap="round" stroke-linejoin="round"/>
<path d="M186.074 529.108L186.601 538.052L215.429 540.519L217.896 531.518L186.074 529.108Z" fill="#999999" stroke="#105C0A" stroke-linecap="round" stroke-linejoin="round"/>
<path d="M205.148 423.643C208.943 426.585 213.272 428.765 217.895 430.064C231.283 433.83 205.035 434.772 204.037 439.95" stroke="#7F7F7F" stroke-linecap="round" stroke-linejoin="round"/>
<path d="M198.633 416.883C199.525 418.188 200.54 419.405 201.664 420.517" stroke="#7F7F7F" stroke-linecap="round" stroke-linejoin="round"/>
<path d="M141.64 218.4L126.37 228.907C123.939 227.004 120.946 225.957 117.859 225.932C113.283 226.158 108.82 228.568 105.751 228.907C102.23 229.265 91.7419 227.307 91.7419 230.564C91.7419 235.347 109.668 233.577 110.233 235.818C110.798 238.058 98.3323 241.222 98.3323 241.222L96.8071 244.178L121.625 246.532C121.625 246.532 132.583 247.699 137.762 240.28L157.533 228.983L145.632 215.067L141.64 218.4Z" fill="white" stroke="#105C0A" stroke-linecap="round" stroke-linejoin="round"/>
<path d="M192.349 117.286C186.417 134.628 180.241 187.388 180.241 187.388L137.479 218.231L150.66 234.707C150.66 234.707 193.177 213.43 199.956 208.195C206.734 202.96 214.756 147.055 218.955 135.889C223.154 124.723 220.649 112.861 209.898 108.436C199.146 104.011 193.968 112.653 192.349 117.286Z" fill="#A8C879" stroke="#105C0A" stroke-linecap="round" stroke-linejoin="round"/>
<path d="M133.467 216.367L142.242 208.929L159.904 233.031L150.169 238.925L133.467 216.367Z" fill="#A8C879"/>
<mask id="mask0_153_2836" style="mask-type:luminance" maskUnits="userSpaceOnUse" x="133" y="208" width="27" height="31">
<path d="M133.466 216.367L142.241 208.929L159.903 233.031L150.168 238.925L133.466 216.367Z" fill="white"/>
</mask>
<g mask="url(#mask0_153_2836)">
<path opacity="0.5" d="M133.466 216.367L142.241 208.929L159.903 233.031L150.168 238.925L133.466 216.367Z" fill="white"/>
</g>
<path d="M133.467 216.367L142.242 208.929L159.904 233.031L150.169 238.925L133.467 216.367Z" stroke="#105C0A" stroke-linecap="round" stroke-linejoin="round"/>
<path d="M220.796 90.0579L257.156 85.1245L227.744 103.992L222.378 104.858L220.796 90.0579Z" fill="#A8C879" stroke="#105C0A" stroke-linecap="round" stroke-linejoin="round"/>
<path d="M221.454 83.1471C221.454 83.1471 208.82 87.8357 206.014 79.0422C204.308 73.6961 203.357 68.1379 203.19 62.5287L198.539 59.9302C198.26 59.7777 198.017 59.5687 197.824 59.3167C197.631 59.0648 197.493 58.7753 197.419 58.4668C197.345 58.1584 197.335 57.8378 197.392 57.5256C197.449 57.2134 197.57 56.9165 197.748 56.6538L205.073 45.8268C205.073 45.8268 202.945 37.9937 204.131 33.8888C205.317 29.784 210.985 17.0551 210.985 17.0551C210.985 17.0551 238.665 -4.35416 252.824 18.4673C266.984 41.2888 248.305 71.6799 248.305 71.6799L252.824 94.0306L226.086 107.211L221.454 83.1471Z" fill="white"/>
<mask id="mask1_153_2836" style="mask-type:luminance" maskUnits="userSpaceOnUse" x="197" y="7" width="62" height="101">
<path d="M221.455 83.1471C221.455 83.1471 208.821 87.8357 206.015 79.0422C204.309 73.6961 203.358 68.1379 203.191 62.5287L198.54 59.9302C198.261 59.7777 198.018 59.5687 197.825 59.3167C197.632 59.0648 197.494 58.7753 197.42 58.4668C197.346 58.1584 197.336 57.8378 197.393 57.5256C197.45 57.2134 197.571 56.9165 197.749 56.6538L205.074 45.8268C205.074 45.8268 202.946 37.9937 204.132 33.8888C205.318 29.784 210.986 17.0551 210.986 17.0551C210.986 17.0551 238.666 -4.35416 252.825 18.4673C266.985 41.2888 248.306 71.6799 248.306 71.6799L252.825 94.0306L226.087 107.211L221.455 83.1471Z" fill="white"/>
</mask>
<g mask="url(#mask1_153_2836)">
<path d="M221.453 83.1475C225.815 81.2812 229.856 78.7394 233.428 75.6157C233.572 75.486 233.755 75.4082 233.948 75.3947C234.141 75.3812 234.333 75.4327 234.493 75.541C234.654 75.6494 234.773 75.8083 234.833 75.9925C234.892 76.1767 234.888 76.3755 234.822 76.5571C232.21 83.6935 227.562 89.9067 221.453 94.4265C209.533 103.201 221.453 83.1475 221.453 83.1475Z" fill="#999999"/>
</g>
<path d="M221.454 83.1471C221.454 83.1471 208.82 87.8357 206.014 79.0422C204.308 73.6961 203.357 68.1379 203.19 62.5287L198.539 59.9302C198.26 59.7777 198.017 59.5687 197.824 59.3167C197.631 59.0648 197.493 58.7753 197.419 58.4668C197.345 58.1584 197.335 57.8378 197.392 57.5256C197.449 57.2134 197.57 56.9165 197.748 56.6538L205.073 45.8268C205.073 45.8268 202.945 37.9937 204.131 33.8888C205.317 29.784 210.985 17.0551 210.985 17.0551C210.985 17.0551 238.665 -4.35416 252.824 18.4673C266.984 41.2888 248.305 71.6799 248.305 71.6799L252.824 94.0306L226.086 107.211L221.454 83.1471Z" stroke="#105C0A" stroke-linecap="round" stroke-linejoin="round"/>
<path d="M206.373 35.1507C206.373 35.1507 210.892 31.1776 215.788 37.768" stroke="#105C0A" stroke-linecap="round" stroke-linejoin="round"/>
<path d="M210.911 65.6918C210.911 65.6918 214.225 68.0831 219.365 63.9971" stroke="#105C0A" stroke-linecap="round" stroke-linejoin="round"/>
<path d="M212.06 43.4544C212.06 44.7725 211.42 45.827 210.648 45.827C209.876 45.827 209.217 44.7725 209.217 43.4544C209.217 42.1363 209.857 41.0819 210.648 41.0819C211.439 41.0819 212.06 42.1552 212.06 43.4544Z" fill="#105C0A"/>
<path d="M234.35 45.827C234.35 45.827 238.605 37.7679 244.047 43.4544C252.483 52.2855 239.98 58.7253 239.98 58.7253C241.288 63.8264 244.207 68.3695 248.302 71.6801C248.302 71.6801 251.748 67.9142 255.589 63.1879C259.431 58.4617 269.881 41.2891 262.425 21.9887C262.425 21.9887 263.197 4.15704 236.063 0.598242C208.93 -2.96056 206.049 10.5779 197.293 9.22221C197.293 9.22221 203.959 15.1724 210.568 10.8792C209.965 12.4518 208.925 13.8191 207.57 14.82C206.216 15.8208 204.603 16.4135 202.923 16.5281C202.923 16.5281 211.114 23.5327 219.361 21.7062C227.609 19.8798 224.087 32.9475 234.35 45.827Z" fill="#105C0A" stroke="#105C0A" stroke-miterlimit="10"/>
<path d="M255.595 18.3544C256.428 19.9329 257.06 21.6091 257.478 23.3443" stroke="#7F7F7F" stroke-linecap="round" stroke-linejoin="round"/>
<path d="M217.18 6.0587C217.18 6.0587 241.658 2.29277 252.749 14.3814" stroke="#7F7F7F" stroke-linecap="round" stroke-linejoin="round"/>
<path d="M218.441 15.0213C216.935 15.2285 215.372 15.5297 213.734 15.8875" stroke="#7F7F7F" stroke-linecap="round" stroke-linejoin="round"/>
<path d="M252.824 26.9028C252.824 26.9028 246.14 13.4396 224.391 14.3999" stroke="#7F7F7F" stroke-linecap="round" stroke-linejoin="round"/>
<path d="M252.166 61.5684C251.488 62.7547 250.754 63.9597 249.944 65.1837" stroke="#7F7F7F" stroke-linecap="round" stroke-linejoin="round"/>
<path d="M258.23 32.9851C259.516 41.3574 258.132 49.9222 254.275 57.4636" stroke="#7F7F7F" stroke-linecap="round" stroke-linejoin="round"/>
<path d="M265.912 534.399L267.211 546.186C267.211 546.186 249.625 557.917 241.942 560.459C238.176 561.702 227.933 563.02 227.933 567.671C227.933 572.322 241.113 573 248.269 573C252.035 573 261.581 572.642 273.444 572.51C284.158 572.397 293.611 570.929 293.611 565.807C293.41 558.878 291.467 552.111 287.962 546.13L287.265 531.518L265.912 534.399Z" fill="white" stroke="#105C0A" stroke-linecap="round" stroke-linejoin="round"/>
<path d="M278.699 555.356C273.05 555.356 270.942 553.699 270.942 553.699C275.649 549.707 267.289 546.167 267.289 546.167C267.289 546.167 249.702 557.898 242.019 560.44C238.253 561.683 228.01 563.001 228.01 567.633C228.01 572.265 241.191 572.981 248.346 572.981C252.112 572.981 261.658 572.623 273.521 572.491C284.235 572.378 293.688 570.909 293.688 565.788C293.487 558.858 291.544 552.091 288.039 546.111C281.693 548.69 284.348 555.356 278.699 555.356Z" fill="#A8C879" stroke="#105C0A" stroke-linecap="round" stroke-linejoin="round"/>
<path d="M221.474 261.539H279.846C279.846 261.539 286.851 296.468 284.779 331.208C282.708 365.949 285.664 425.978 285.664 425.978C285.664 425.978 292.857 456.576 288.978 537.355L264.952 539.238C264.952 539.238 247.836 459.438 244.409 428.143C242.375 409.464 237.611 360.357 232.847 342.13C227.857 323.375 223.169 316.277 221.474 261.539Z" fill="#105C0A"/>
<path d="M281.145 524.193C281.145 526.566 281.296 529.014 281.371 531.518" stroke="#7F7F7F" stroke-linecap="round" stroke-linejoin="round"/>
<path d="M269.435 363.84C270.339 385.231 270.885 412.289 272.58 427.541C275.235 451.323 278.831 462.809 280.865 516.04" stroke="#7F7F7F" stroke-linecap="round" stroke-linejoin="round"/>
<path d="M249.364 286.752C252.105 294.113 257.47 300.202 264.427 303.849C264.427 303.849 266.31 322.679 268.193 342.751C268.495 345.896 268.739 349.587 268.965 353.691" stroke="#7F7F7F" stroke-linecap="round" stroke-linejoin="round"/>
<path d="M245.822 272.799C246.126 275.816 246.712 278.798 247.573 281.706" stroke="#7F7F7F" stroke-linecap="round" stroke-linejoin="round"/>
<path d="M222.04 279.709C221.952 277.776 221.858 275.743 221.757 273.609" stroke="#7F7F7F" stroke-linecap="round" stroke-linejoin="round"/>
<path d="M226.562 320.288C224.278 309.24 222.899 298.024 222.438 286.752" stroke="#7F7F7F" stroke-linecap="round" stroke-linejoin="round"/>
<path d="M235.181 353.747C234.372 349.21 233.581 345.236 232.771 342.167C231.66 337.968 230.568 332.658 229.533 329.269" stroke="#7F7F7F" stroke-linecap="round" stroke-linejoin="round"/>
<path d="M260.85 533.213L262.809 541.969L291.656 539.728L292.597 530.953L260.85 533.213Z" fill="#999999" stroke="#105C0A" stroke-linecap="round" stroke-linejoin="round"/>
<path d="M282.46 184.695C283.062 146.509 296.262 104.745 296.262 104.745C296.262 104.745 283.721 90.7545 257.586 88.2313L228.456 105.668L222.337 104.858L219.889 93.0893C203.187 99.5855 192.322 111.147 190.948 122.878C188.876 140.371 194.092 193.075 192.209 227.043C191.079 247.285 189.724 268.468 189.724 268.468L213.185 273.552L217.403 267.791L224.408 273.552L285.755 267.32C285.755 267.32 281.895 222.882 282.46 184.695Z" fill="#A8C879" stroke="#105C0A" stroke-linecap="round" stroke-linejoin="round"/>
<path d="M221.475 89.0783L225.015 102.862L257.213 84.1637L265.046 88.2498L239.89 112.709L224.638 105.366L213.83 111.147L214.997 93.1831L221.475 89.0783Z" fill="#A8C879"/>
<mask id="mask2_153_2836" style="mask-type:luminance" maskUnits="userSpaceOnUse" x="213" y="84" width="53" height="29">
<path d="M221.472 89.078L225.012 102.861L257.21 84.1635L265.043 88.2495L239.887 112.709L224.635 105.366L213.827 111.146L214.994 93.1829L221.472 89.078Z" fill="white"/>
</mask>
<g mask="url(#mask2_153_2836)">
<path opacity="0.5" d="M221.472 89.078L225.012 102.861L257.21 84.1635L265.043 88.2495L239.887 112.709L224.635 105.366L213.827 111.146L214.994 93.1829L221.472 89.078Z" fill="white"/>
</g>
<path d="M221.475 89.0783L225.015 102.862L257.213 84.1637L265.046 88.2498L239.89 112.709L224.638 105.366L213.83 111.147L214.997 93.1831L221.475 89.0783Z" stroke="#105C0A" stroke-linecap="round" stroke-linejoin="round"/>
<path d="M217.577 254.309C217.577 258.621 217.577 260.824 217.577 260.824" stroke="#105C0A" stroke-linecap="round" stroke-linejoin="round"/>
<path d="M221.758 124.685C219.044 144.876 217.678 165.226 217.672 185.599C217.371 215.538 217.446 237.192 217.54 249.375" stroke="#105C0A" stroke-linecap="round" stroke-linejoin="round"/>
<path d="M223.659 113.934C223.659 113.934 223.207 115.817 222.529 119.79" stroke="#105C0A" stroke-linecap="round" stroke-linejoin="round"/>
<path d="M185.698 176.392H16.7207C7.48609 176.392 0 183.878 0 193.112V227.457C0 236.692 7.48609 244.178 16.7207 244.178H185.698C194.932 244.178 202.418 236.692 202.418 227.457V193.112C202.418 183.878 194.932 176.392 185.698 176.392Z" fill="#A8C879" stroke="#105C0A" stroke-linecap="round" stroke-linejoin="round"/>
<path d="M25.2887 210.812L18.0204 204.127L29.8454 191.154C30.4702 190.53 31.3167 190.18 32.1991 190.18C33.0816 190.18 33.928 190.53 34.5528 191.154L36.6994 193.149C37.3762 193.72 37.7997 194.536 37.8773 195.418C37.9549 196.3 37.6804 197.177 37.1137 197.857L25.2887 210.812Z" stroke="#105C0A" stroke-linecap="round" stroke-linejoin="round"/>
<path d="M20.4509 213.881L14.689 215.105L15.3857 209.211" stroke="#105C0A" stroke-linecap="round" stroke-linejoin="round"/>
<path d="M159.113 188.932H63.6658C62.2725 188.932 60.9362 189.485 59.951 190.471C58.9658 191.456 58.4123 192.792 58.4123 194.185C58.4123 195.579 58.9658 196.915 59.951 197.9C60.9362 198.885 62.2725 199.439 63.6658 199.439H159.113C160.506 199.439 161.843 198.885 162.828 197.9C163.813 196.915 164.367 195.579 164.367 194.185C164.367 192.792 163.813 191.456 162.828 190.471C161.843 189.485 160.506 188.932 159.113 188.932Z" fill="#858585" stroke="#105C0A" stroke-linecap="round" stroke-linejoin="round"/>
<path d="M142.618 205.784H63.6658C62.2725 205.784 60.9362 206.338 59.951 207.323C58.9658 208.308 58.4123 209.644 58.4123 211.038C58.4123 212.431 58.9658 213.767 59.951 214.752C60.9362 215.738 62.2725 216.291 63.6658 216.291H142.618C144.012 216.291 145.348 215.738 146.333 214.752C147.318 213.767 147.872 212.431 147.872 211.038C147.872 209.644 147.318 208.308 146.333 207.323C145.348 206.338 144.012 205.784 142.618 205.784Z" fill="#999999" stroke="#105C0A" stroke-linecap="round" stroke-linejoin="round"/>
<path d="M237.911 219.831C237.911 219.831 213.979 226.177 211.098 227.062C208.217 227.947 204.959 232.824 201.231 237.381C198.374 241.164 194.434 243.988 189.933 245.477C186.864 246.193 178.165 249.243 178.052 246.664C177.939 244.084 186.826 243.255 186.826 243.255L194.189 239.602C190.423 241.975 177.129 244.009 177.129 244.009C175.174 244.298 173.18 243.906 171.48 242.898C168.882 241.241 170.445 239.282 170.445 239.282C169.484 237.249 173.834 236.062 173.834 236.062L181.836 230.734C181.836 230.734 188.182 221.47 187.015 219.831C185.847 218.193 174.003 223.729 172.553 220.999C171.104 218.268 181.836 214.408 187.956 212.959C194.076 211.509 203.942 212.959 203.942 212.959L231.622 202.64L237.911 219.831Z" fill="white" stroke="#105C0A" stroke-linecap="round" stroke-linejoin="round"/>
<path d="M173.347 239.678C174.489 239.684 175.63 239.59 176.755 239.396C179.809 238.194 182.645 236.503 185.153 234.387C187.036 232.673 188.919 229.359 190.331 229.115" stroke="#105C0A" stroke-linecap="round" stroke-linejoin="round"/>
<path d="M174.626 241.956C175.824 241.897 177.005 241.656 178.129 241.24C181.486 240.279 184.75 239.019 187.882 237.474C189.765 236.269 192.213 233.708 193.531 233.953" stroke="#105C0A" stroke-linecap="round" stroke-linejoin="round"/>
<path d="M267.398 123.273C267.285 116.645 267.549 98.7946 285.418 100.094C303.288 101.393 301.424 120.053 300.802 133.046C300.181 146.038 305.736 200.456 293.685 204.353L229.419 225.066L221.416 202.037L269.733 181.814C269.733 181.814 267.681 137.998 267.398 123.273Z" fill="#A8C879"/>
<path d="M287.868 193.074C288.739 194.241 289.472 195.505 290.052 196.84" stroke="#105C0A" stroke-linecap="round" stroke-linejoin="round"/>
<path d="M289.997 180.458C289.997 180.458 277.042 176.504 275.102 181.513C273.634 185.279 280.036 185.693 285.364 190.419" stroke="#105C0A" stroke-linecap="round" stroke-linejoin="round"/>
<path d="M267.567 128.47C267.567 126.493 267.567 124.704 267.454 123.273" stroke="#105C0A" stroke-linecap="round" stroke-linejoin="round"/>
<path d="M285.476 100.094C303.345 101.318 301.481 120.053 300.86 133.045C300.238 146.038 305.793 200.456 293.742 204.353L229.477 225.066L221.474 202.037L269.791 181.814C269.791 181.814 268.398 152.722 267.757 133.968" stroke="#105C0A" stroke-linecap="round" stroke-linejoin="round"/>
<path d="M217.671 201.359L228.253 196.878L237.913 225.16L226.841 227.89L217.671 201.359Z" fill="#A8C879"/>
<mask id="mask3_153_2836" style="mask-type:luminance" maskUnits="userSpaceOnUse" x="217" y="196" width="21" height="32">
<path d="M217.674 201.359L228.256 196.877L237.916 225.159L226.844 227.89L217.674 201.359Z" fill="white"/>
</mask>
<g mask="url(#mask3_153_2836)">
<path opacity="0.5" d="M217.674 201.359L228.256 196.877L237.916 225.159L226.844 227.89L217.674 201.359Z" fill="white"/>
</g>
<path d="M218.407 202.369L228.99 197.887L238.649 226.169L227.577 228.9L218.407 202.369Z" stroke="#105C0A" stroke-linecap="round" stroke-linejoin="round"/>
<path d="M96.3519 242.954C95.8435 240.958 94.789 235.253 97.8583 235.253C100.927 235.253 101.492 238.642 101.492 238.642C101.492 238.642 100.965 234.669 103.978 235.253C106.991 235.837 107.461 240.299 107.461 240.299C107.461 240.299 106.953 236.684 110.229 237.06C113.506 237.437 111.547 245.666 115.464 245.628C117.121 245.628 115.2 239.753 118.401 239.772C121.602 239.791 120.284 246.099 126.291 246.099C128.174 246.099 120.868 248.622 116.01 247.586C116.01 247.586 113.75 249.639 107.932 246.419C106.891 246.908 105.728 247.08 104.589 246.913C103.451 246.745 102.387 246.246 101.53 245.477C101.041 245.779 100.483 245.953 99.9092 245.982C99.3351 246.01 98.7631 245.893 98.2463 245.641C97.7295 245.39 97.2848 245.011 96.9536 244.541C96.6224 244.071 96.4154 243.525 96.3519 242.954Z" fill="white" stroke="#105C0A" stroke-linecap="round" stroke-linejoin="round"/>
<path d="M101.433 241.014C101.361 241.692 101.425 242.377 101.621 243.029" stroke="#105C0A" stroke-linecap="round" stroke-linejoin="round"/>
<path d="M107.629 242.559C107.629 242.559 107.516 242.446 107.855 244.009" stroke="#105C0A" stroke-linecap="round" stroke-linejoin="round"/>
</g>
<defs>
<filter id="filter0_d_153_2836" x="-16.5017" y="-16.5017" width="342.613" height="614.004" filterUnits="userSpaceOnUse" color-interpolation-filters="sRGB">
<feFlood flood-opacity="0" result="BackgroundImageFix"/>
<feColorMatrix in="SourceAlpha" type="matrix" values="0 0 0 0 0 0 0 0 0 0 0 0 0 0 0 0 0 0 127 0" result="hardAlpha"/>
<feOffset dx="4" dy="4"/>
<feGaussianBlur stdDeviation="10"/>
<feComposite in2="hardAlpha" operator="out"/>
<feColorMatrix type="matrix" values="0 0 0 0 0 0 0 0 0 0 0 0 0 0 0 0 0 0 0.25 0"/>
<feBlend mode="normal" in2="BackgroundImageFix" result="effect1_dropShadow_153_2836"/>
<feBlend mode="normal" in="SourceGraphic" in2="effect1_dropShadow_153_2836" result="shape"/>
</filter>
</defs>
</svg>
