<svg width="467" height="467" viewBox="0 0 467 467" fill="none" xmlns="http://www.w3.org/2000/svg">
<g filter="url(#filter0_dd_153_3848)">
<path opacity="0.7" d="M63.4461 156.062C63.4461 156.062 37.4062 223.31 74.0003 291.025C110.594 358.74 185.968 394.512 246.295 425.101C306.622 455.689 369.266 440.792 399.032 390.692C428.799 340.592 387.974 304.83 387.918 233.388C387.862 161.946 398.612 143.033 359.898 82.6778C321.183 22.3227 226.28 8.95713 154.511 53.7238C82.7426 98.4904 63.4461 156.062 63.4461 156.062Z" fill="white"/>
<path d="M123.288 399.35C145.33 422.626 199.446 414.098 222.89 399.35C299.011 351.483 432.367 271.794 438.41 156.352C440.979 107.289 397.706 81.5196 379.634 73.9635C336.24 55.8066 288.606 50.3613 241.579 48.2598C192.479 46.0649 139.773 47.7742 95.5855 71.7313C78.8296 80.8004 63.0263 92.4661 52.2106 108.344C41.2267 124.484 34.9035 143.705 33.2223 163.104C30.5231 194.393 38.9384 225.767 51.6688 254.478C64.3993 283.189 81.37 309.77 96.9492 337.043C107.12 354.817 104.757 379.746 123.288 399.35Z" fill="#A8C879"/>
<path opacity="0.7" d="M123.288 399.35C145.33 422.626 199.446 414.098 222.89 399.35C299.011 351.483 432.367 271.794 438.41 156.352C440.979 107.289 397.706 81.5196 379.634 73.9635C336.24 55.8066 288.606 50.3613 241.579 48.2598C192.479 46.0649 139.773 47.7742 95.5855 71.7313C78.8296 80.8004 63.0263 92.4661 52.2106 108.344C41.2267 124.484 34.9035 143.705 33.2223 163.104C30.5231 194.393 38.9384 225.767 51.6688 254.478C64.3993 283.189 81.37 309.77 96.9492 337.043C107.12 354.817 104.757 379.746 123.288 399.35Z" fill="white"/>
<path d="M131.891 131.333L87.1042 117.804C85.3661 117.278 83.5314 118.262 83.0063 120L75.0403 146.37C74.5153 148.108 75.4987 149.943 77.2368 150.468L122.024 163.998C123.762 164.523 125.597 163.539 126.122 161.801L134.088 135.431C134.613 133.693 133.63 131.858 131.891 131.333Z" stroke="#105C0A" stroke-width="1.00285" stroke-miterlimit="10"/>
<path d="M81.4258 124.073L132.338 139.502" stroke="#105C0A" stroke-miterlimit="10"/>
<path d="M79.875 129.182L130.797 144.611" stroke="#105C0A" stroke-miterlimit="10"/>
<path d="M115.302 154.166C115.172 154.596 115.131 155.048 115.181 155.494C115.231 155.94 115.371 156.372 115.592 156.763C114.828 157.14 113.95 157.213 113.135 156.968C112.616 156.811 112.143 156.529 111.758 156.147C111.373 155.765 111.088 155.295 110.927 154.777C110.767 154.259 110.735 153.709 110.836 153.176C110.937 152.643 111.168 152.143 111.507 151.72C111.846 151.297 112.284 150.964 112.782 150.749C113.28 150.534 113.823 150.445 114.364 150.489C114.904 150.533 115.426 150.709 115.883 151.002C116.339 151.295 116.717 151.695 116.983 152.167C116.584 152.371 116.229 152.653 115.941 152.997C115.652 153.34 115.435 153.738 115.302 154.166Z" stroke="#105C0A" stroke-miterlimit="10"/>
<path d="M121.644 156.09C121.453 156.717 121.08 157.274 120.572 157.689C120.065 158.105 119.445 158.361 118.793 158.424C118.14 158.487 117.483 158.356 116.905 158.046C116.327 157.736 115.854 157.262 115.546 156.683C115.237 156.104 115.107 155.447 115.173 154.794C115.238 154.141 115.495 153.523 115.912 153.017C116.329 152.51 116.886 152.139 117.514 151.949C118.142 151.76 118.812 151.761 119.44 151.952C120.28 152.209 120.985 152.789 121.398 153.565C121.812 154.341 121.9 155.249 121.644 156.09Z" stroke="#105C0A" stroke-miterlimit="10"/>
<path d="M436.305 194.988L399.272 183.765C397.539 183.24 395.709 184.219 395.184 185.951L388.693 207.368C388.168 209.101 389.147 210.931 390.88 211.456L427.912 222.679C429.645 223.205 431.475 222.226 432.001 220.493L438.491 199.076C439.016 197.343 438.037 195.513 436.305 194.988Z" stroke="#105C0A" stroke-miterlimit="10"/>
<path d="M394.186 189.247L437.495 202.37" stroke="#105C0A" stroke-miterlimit="10"/>
<path d="M392.868 193.6L436.168 206.722" stroke="#105C0A" stroke-miterlimit="10"/>
<path d="M422.999 214.82C422.887 215.185 422.851 215.568 422.893 215.947C422.935 216.326 423.053 216.693 423.242 217.024C422.833 217.223 422.382 217.32 421.927 217.305C421.473 217.291 421.028 217.166 420.633 216.942C420.238 216.717 419.903 216.4 419.657 216.017C419.412 215.635 419.263 215.198 419.224 214.745C419.185 214.292 419.257 213.836 419.434 213.417C419.61 212.998 419.886 212.628 420.237 212.34C420.588 212.051 421.005 211.852 421.45 211.76C421.895 211.669 422.356 211.686 422.793 211.813C423.487 212.021 424.072 212.49 424.428 213.12C424.086 213.291 423.783 213.53 423.538 213.823C423.292 214.115 423.108 214.454 422.999 214.82Z" stroke="#105C0A" stroke-miterlimit="10"/>
<path d="M428.388 216.483C428.223 217.01 427.905 217.477 427.475 217.824C427.045 218.172 426.522 218.384 425.972 218.435C425.421 218.486 424.868 218.373 424.382 218.11C423.896 217.847 423.498 217.446 423.239 216.958C422.98 216.47 422.871 215.916 422.926 215.366C422.981 214.816 423.198 214.294 423.548 213.867C423.899 213.44 424.368 213.126 424.897 212.965C425.426 212.804 425.991 212.802 426.52 212.961C426.875 213.068 427.205 213.244 427.492 213.479C427.779 213.715 428.016 214.004 428.189 214.332C428.363 214.659 428.47 215.018 428.504 215.387C428.538 215.757 428.499 216.129 428.388 216.483Z" stroke="#105C0A" stroke-miterlimit="10"/>
<path d="M377.036 92.6661L322.975 117.417L335.852 145.544L389.914 120.792L377.036 92.6661Z" stroke="#105C0A" stroke-miterlimit="10"/>
<path d="M385.266 116.75L377.084 98.8825C376.319 99.2315 375.448 99.2633 374.66 98.971C373.872 98.6786 373.232 98.0859 372.881 97.3228L329.179 117.329C329.528 118.093 329.56 118.965 329.267 119.753C328.975 120.541 328.382 121.18 327.619 121.532L335.801 139.399C336.18 139.226 336.589 139.128 337.006 139.113C337.422 139.098 337.838 139.165 338.228 139.311C338.619 139.457 338.977 139.678 339.281 139.963C339.586 140.247 339.832 140.589 340.004 140.969L383.697 120.953C383.523 120.574 383.426 120.165 383.41 119.748C383.395 119.332 383.462 118.916 383.608 118.526C383.754 118.135 383.975 117.777 384.26 117.473C384.544 117.168 384.886 116.922 385.266 116.75Z" stroke="#105C0A" stroke-miterlimit="10"/>
<path d="M361.394 125.557C364.953 122.823 365.622 117.722 362.888 114.163C360.154 110.604 355.053 109.935 351.494 112.669C347.935 115.403 347.266 120.504 350 124.063C352.734 127.622 357.835 128.291 361.394 125.557Z" stroke="#105C0A" stroke-miterlimit="10"/>
<path d="M358.655 123.045L359.262 124.372L358.683 124.633L358.086 123.325C357.063 123.771 355.916 123.843 354.845 123.531V122.718C355.791 123.005 356.807 122.955 357.721 122.578L356.348 119.552C354.929 119.823 353.462 120.028 352.762 118.497C352.257 117.395 352.612 116.068 354.312 115.125L353.705 113.789L354.284 113.528L354.919 114.882C355.759 114.518 356.685 114.395 357.591 114.527V115.34C356.793 115.225 355.979 115.318 355.228 115.611L356.629 118.674C358.076 118.385 359.617 118.123 360.365 119.674C360.832 120.748 360.43 122.102 358.655 123.045ZM355.984 118.74L354.658 115.816C353.509 116.461 353.257 117.32 353.593 118.048C353.985 118.964 354.919 118.926 355.975 118.74H355.984ZM359.505 120.056C359.094 119.122 358.104 119.216 357.002 119.431L358.319 122.317C359.589 121.644 359.832 120.794 359.496 120.056H359.505Z" fill="#105C0A"/>
<path d="M78.6837 220.79L37.1113 224.531L39.0573 246.154L80.6296 242.412L78.6837 220.79Z" stroke="#105C0A" stroke-width="1.00404" stroke-miterlimit="10"/>
<path d="M77.288 238.039L76.1111 224.356C75.5256 224.406 74.9444 224.221 74.4946 223.843C74.0448 223.465 73.763 222.924 73.7108 222.339L40.2362 225.234C40.2829 225.819 40.0975 226.399 39.7199 226.848C39.3423 227.298 38.803 227.58 38.2188 227.635L39.3956 241.318C39.6858 241.292 39.9781 241.324 40.256 241.412C40.5338 241.499 40.7916 241.641 41.0146 241.828C41.2376 242.016 41.4214 242.245 41.5555 242.504C41.6896 242.762 41.7713 243.045 41.796 243.335L75.2705 240.44C75.2238 239.855 75.4093 239.275 75.7868 238.826C76.1644 238.377 76.7037 238.094 77.288 238.039Z" stroke="#105C0A" stroke-miterlimit="10"/>
<path d="M63.4182 232.351C63.5157 233.472 63.2785 234.597 62.7367 235.583C62.1949 236.569 61.3727 237.372 60.3743 237.891C59.3759 238.41 58.246 238.621 57.1276 238.498C56.0092 238.374 54.9526 237.922 54.0913 237.198C53.23 236.474 52.6029 235.511 52.2891 234.43C51.9753 233.349 51.9891 232.2 52.3286 231.127C52.6682 230.055 53.3182 229.107 54.1966 228.404C55.0749 227.7 56.1421 227.273 57.2632 227.177C58.0072 227.111 58.7569 227.194 59.4692 227.418C60.1815 227.643 60.8425 228.006 61.4143 228.487C61.986 228.968 62.4573 229.556 62.8012 230.219C63.1451 230.883 63.3547 231.607 63.4182 232.351Z" stroke="#105C0A" stroke-miterlimit="10"/>
<path d="M58.2814 235.956L58.3655 236.975H57.9265L57.8331 235.966C57.0569 236.017 56.2871 235.796 55.6569 235.34L55.8623 234.817C56.4197 235.222 57.098 235.426 57.7864 235.396L57.5902 233.07C56.5909 232.921 55.5728 232.706 55.4794 231.539C55.4047 230.689 55.9464 229.895 57.2914 229.671L57.2073 228.653H57.6463L57.7303 229.652C58.3782 229.611 59.0248 229.75 59.5983 230.054L59.4209 230.586C58.9225 230.327 58.3666 230.198 57.8051 230.212L58.0012 232.557C59.0193 232.706 60.1027 232.902 60.2054 234.088C60.2615 234.957 59.6731 235.751 58.2814 235.956ZM57.5342 232.491L57.3381 230.278C56.4041 230.437 56.0678 230.941 56.1145 231.501C56.1612 232.062 56.787 232.37 57.5342 232.491ZM59.5423 234.191C59.4769 233.491 58.8138 233.257 58.0386 233.182L58.2254 235.396C59.1967 235.237 59.589 234.752 59.5423 234.191Z" fill="#105C0A"/>
<path d="M415.004 105.271C419.491 105.271 423.13 101.633 423.13 97.1453C423.13 92.6576 419.491 89.0195 415.004 89.0195C410.516 89.0195 406.878 92.6576 406.878 97.1453C406.878 101.633 410.516 105.271 415.004 105.271Z" stroke="#105C0A" stroke-miterlimit="10"/>
<path d="M415.368 101.657V103.114H414.696V101.666C413.582 101.644 412.51 101.238 411.66 100.517L412.024 99.7887C412.767 100.441 413.709 100.823 414.696 100.872V97.5378C413.295 97.1922 411.894 96.7626 411.894 95.0814C411.894 93.8672 412.772 92.8117 414.696 92.6623V91.1772H415.331V92.6249C416.247 92.6444 417.14 92.9193 417.909 93.4188L417.591 94.166C416.914 93.7292 416.135 93.475 415.331 93.4282V96.7906C416.76 97.1362 418.273 97.5378 418.273 99.247C418.31 100.471 417.386 101.545 415.368 101.657ZM414.733 96.6225V93.4562C413.425 93.5683 412.865 94.2408 412.865 95.044C412.828 96.006 413.687 96.3609 414.696 96.6225H414.733ZM417.386 99.2937C417.386 98.2943 416.452 97.9487 415.368 97.6779V100.872C416.76 100.751 417.386 100.106 417.386 99.2937Z" fill="#105C0A"/>
<path d="M361.484 205.855C365.853 204.826 368.559 200.45 367.53 196.082C366.5 191.714 362.125 189.007 357.757 190.037C353.389 191.066 350.682 195.441 351.711 199.81C352.741 204.178 357.116 206.884 361.484 205.855Z" stroke="#105C0A" stroke-miterlimit="10"/>
<path d="M357.573 201.968L356.816 203.21L356.274 202.874L357.031 201.641C356.09 201.044 355.389 200.135 355.051 199.073L355.742 198.643C356.034 199.583 356.637 200.397 357.451 200.95L359.207 198.101C358.189 197.083 357.208 195.972 358.086 194.543C358.721 193.506 360.02 193.067 361.757 193.954L362.523 192.703L363.064 193.039L362.308 194.272C363.074 194.771 363.69 195.468 364.092 196.289L363.429 196.766C363.077 196.041 362.546 195.418 361.888 194.954L360.122 197.821C361.168 198.867 362.243 199.997 361.346 201.454C360.701 202.501 359.357 202.921 357.573 201.968ZM359.674 197.298L361.327 194.599C360.16 194.01 359.31 194.272 358.89 194.954C358.385 195.822 358.918 196.579 359.674 197.345V197.298ZM360.533 200.959C361.056 200.109 360.449 199.334 359.655 198.531L357.993 201.24C359.235 201.931 360.104 201.744 360.524 201.006L360.533 200.959Z" fill="#105C0A"/>
<path d="M243.008 41.096C243.675 42.5579 243.894 44.1849 243.637 45.7712C243.38 47.3575 242.658 48.8319 241.563 50.008C240.468 51.1841 239.049 52.0091 237.485 52.3787C235.921 52.7482 234.282 52.6457 232.777 52.0842C231.271 51.5227 229.966 50.5273 229.025 49.2239C228.085 47.9205 227.553 46.3676 227.495 44.7616C227.438 43.1557 227.858 41.5687 228.702 40.2013C229.546 38.834 230.777 37.7477 232.239 37.0798C233.21 36.635 234.258 36.386 235.325 36.3472C236.392 36.3083 237.456 36.4804 238.457 36.8534C239.457 37.2265 240.374 37.7933 241.155 38.5213C241.936 39.2493 242.566 40.1243 243.008 41.096Z" stroke="#105C0A" stroke-miterlimit="10"/>
<path d="M237.824 48.4094L238.431 49.7356L237.852 50.0065L237.236 48.6896C236.213 49.1348 235.066 49.2075 233.995 48.895V48.0825C234.938 48.3674 235.95 48.3212 236.862 47.9517L235.48 44.9069C234.06 45.1777 232.594 45.3739 231.893 43.8514C231.389 42.74 231.744 41.423 233.453 40.4797L232.846 39.1441L233.416 38.8826L234.023 40.1995C234.863 39.835 235.788 39.7121 236.694 39.8446V40.6572C235.896 40.5441 235.083 40.6374 234.331 40.928L235.732 43.9915C237.18 43.702 238.721 43.4498 239.468 44.9909C240.038 46.1117 239.608 47.466 237.824 48.4094ZM235.153 44.1036L233.836 41.2176C232.687 41.862 232.435 42.7213 232.771 43.4405C233.173 44.3184 234.098 44.2904 235.153 44.1036ZM238.674 45.4206C238.254 44.4866 237.273 44.5893 236.171 44.7948L237.488 47.6808C238.712 47.0084 239.011 46.1678 238.674 45.4206Z" fill="#105C0A"/>
<path d="M215.642 370.172C216.645 372.368 216.974 374.813 216.588 377.196C216.201 379.579 215.117 381.794 213.472 383.561C211.826 385.328 209.694 386.567 207.345 387.123C204.995 387.678 202.534 387.524 200.271 386.68C198.009 385.836 196.048 384.341 194.636 382.383C193.224 380.424 192.424 378.091 192.338 375.679C192.252 373.266 192.883 370.882 194.151 368.828C195.42 366.773 197.269 365.142 199.465 364.139C200.924 363.472 202.499 363.1 204.101 363.043C205.703 362.985 207.301 363.244 208.803 363.805C210.306 364.365 211.683 365.216 212.856 366.308C214.03 367.401 214.976 368.714 215.642 370.172Z" stroke="#105C0A" stroke-miterlimit="10"/>
<path d="M207.843 381.175L208.777 383.174L207.908 383.566L206.974 381.586C205.439 382.258 203.717 382.371 202.108 381.903L202.164 380.689C203.582 381.112 205.101 381.036 206.47 380.474L204.387 375.916C202.267 376.318 200.053 376.617 199.007 374.329C198.241 372.666 198.783 370.677 201.342 369.257L200.408 367.268L201.267 366.866L202.201 368.846C203.465 368.302 204.855 368.118 206.217 368.314V369.528C205.022 369.359 203.803 369.501 202.678 369.939L204.77 374.534C206.946 374.104 209.262 373.722 210.327 376.038C211.13 377.728 210.533 379.764 207.843 381.175ZM203.845 374.702L201.856 370.368C200.146 371.302 199.764 372.619 200.268 373.722C200.866 375.038 202.248 374.992 203.845 374.702ZM209.132 376.692C208.506 375.319 207.021 375.431 205.396 375.758L207.376 380.091C209.216 379.073 209.636 377.803 209.132 376.692Z" fill="#105C0A"/>
<path d="M40.7782 180.477C38.9644 182.07 36.719 183.09 34.3258 183.407C31.9326 183.724 29.499 183.324 27.3329 182.259C25.1667 181.193 23.3652 179.509 22.1561 177.419C20.947 175.33 20.3846 172.929 20.54 170.52C20.6954 168.11 21.5616 165.801 23.0291 163.885C24.4966 161.968 26.4995 160.529 28.7846 159.75C31.0698 158.972 33.5344 158.888 35.8671 159.51C38.1997 160.132 40.2956 161.432 41.8897 163.245C42.9485 164.449 43.7598 165.85 44.277 167.368C44.7942 168.886 45.0073 170.491 44.9041 172.091C44.8009 173.691 44.3834 175.256 43.6754 176.694C42.9675 178.133 41.983 179.419 40.7782 180.477Z" stroke="#105C0A" stroke-miterlimit="10"/>
<path d="M28.0197 176.18L26.3759 177.628L25.7407 176.909L27.3752 175.48C26.2924 174.199 25.6882 172.581 25.666 170.903L26.8522 170.604C26.8528 172.076 27.3497 173.504 28.2625 174.658L31.9985 171.352C30.9992 169.437 30.0745 167.401 31.9985 165.748C33.3809 164.543 35.4357 164.487 37.5278 166.523L39.2277 165.085L39.8535 165.794L38.219 167.233C39.0885 168.29 39.6507 169.567 39.8441 170.922L38.686 171.305C38.4999 170.111 38.0148 168.983 37.2756 168.027L33.4743 171.361C34.511 173.313 35.5477 175.424 33.633 177.114C32.2414 178.329 30.1212 178.394 28.0197 176.18ZM33.0633 170.483L36.6405 167.335C35.2208 165.972 33.8385 165.981 32.9792 166.775C31.8584 167.728 32.3068 169.054 33.0353 170.483H33.0633ZM32.6804 176.087C33.8198 175.097 33.2875 173.705 32.5029 172.211L28.9257 175.359C30.3921 176.862 31.7557 176.918 32.6897 176.115L32.6804 176.087Z" fill="#105C0A"/>
<path d="M96.6615 284.598C96.7917 281.344 94.2586 278.599 91.0037 278.469C87.7488 278.339 85.0046 280.872 84.8744 284.127C84.7442 287.382 87.2773 290.126 90.5322 290.256C93.7871 290.386 96.5313 287.853 96.6615 284.598Z" stroke="#105C0A" stroke-width="1.0008" stroke-miterlimit="10"/>
<path d="M92.4656 285.505L93.138 286.318L92.7925 286.607L92.12 285.804C91.488 286.312 90.6984 286.583 89.8877 286.57L89.757 285.991C90.4699 286.01 91.168 285.786 91.737 285.356L90.1866 283.488C89.2526 283.945 88.2626 284.366 87.478 283.432C86.9176 282.759 86.9176 281.76 87.9263 280.77L87.2445 279.957L87.5994 279.668L88.2719 280.471C88.7919 280.058 89.4156 279.796 90.0745 279.714L90.2426 280.275C89.6653 280.355 89.1167 280.576 88.6455 280.919L90.2053 282.787C91.1393 282.311 92.1947 281.853 93.0073 282.787C93.577 283.478 93.5583 284.506 92.4656 285.505ZM89.7943 283.002L88.3186 281.237C87.6461 281.909 87.6368 282.554 88.001 283.002C88.3653 283.45 89.0938 283.329 89.7943 283.002ZM92.5123 283.254C92.0453 282.703 91.3728 282.937 90.6443 283.301L92.12 285.066C92.8392 284.356 92.8859 283.703 92.5123 283.245V283.254Z" fill="#105C0A"/>
<path d="M277.949 400.845C278.694 401.741 279.157 402.837 279.28 403.996C279.402 405.155 279.178 406.325 278.636 407.356C278.094 408.388 277.258 409.236 276.235 409.793C275.211 410.35 274.045 410.59 272.884 410.485C271.724 410.379 270.62 409.931 269.714 409.199C268.808 408.466 268.139 407.481 267.792 406.368C267.445 405.256 267.437 404.065 267.766 402.947C268.096 401.83 268.75 400.835 269.645 400.088C270.847 399.089 272.397 398.608 273.953 398.75C275.51 398.892 276.947 399.645 277.949 400.845Z" stroke="#105C0A" stroke-miterlimit="10"/>
<path d="M275.707 406.962L276.389 407.775L276.034 408.065L275.361 407.261C274.733 407.769 273.946 408.04 273.138 408.027L273.008 407.448C273.721 407.471 274.421 407.247 274.988 406.813L273.437 404.945C272.503 405.403 271.504 405.823 270.729 404.889C270.159 404.217 270.159 403.217 271.168 402.227L270.495 401.415L270.85 401.125L271.523 401.928C272.041 401.512 272.665 401.25 273.325 401.172L273.493 401.732C272.913 401.812 272.362 402.033 271.887 402.377L273.456 404.245C274.39 403.768 275.445 403.311 276.258 404.245C276.8 404.936 276.781 405.963 275.707 406.962ZM273.026 404.422L271.551 402.657C270.869 403.329 270.86 403.974 271.233 404.422C271.607 404.87 272.317 404.786 273.026 404.422ZM275.735 404.684C275.268 404.123 274.596 404.357 273.867 404.684L275.343 406.449C276.071 405.814 276.118 405.16 275.735 404.712V404.684Z" fill="#105C0A"/>
<path d="M116.644 65.0845C116.941 61.8432 114.555 58.9746 111.314 58.6774C108.072 58.3801 105.204 60.7667 104.906 64.008C104.609 67.2494 106.996 70.1179 110.237 70.4152C113.478 70.7125 116.347 68.3258 116.644 65.0845Z" stroke="#105C0A" stroke-miterlimit="10"/>
<path d="M113.079 66.8932L113.751 67.7057L113.396 67.9953L112.724 67.192C112.096 67.7014 111.309 67.9727 110.501 67.9579L110.37 67.3788C111.083 67.3976 111.781 67.1736 112.35 66.7437L110.8 64.8757C109.866 65.3334 108.867 65.7537 108.091 64.8197C107.531 64.1472 107.522 63.1478 108.54 62.1578L107.858 61.3452L108.213 61.0557L108.885 61.8589C109.404 61.4442 110.028 61.1823 110.688 61.1024L110.856 61.6628C110.279 61.7428 109.73 61.9642 109.259 62.3072L110.819 64.1752C111.753 63.6989 112.808 63.2412 113.621 64.1752C114.172 64.8664 114.144 65.8938 113.079 66.8932ZM110.389 64.3807L108.913 62.5781C108.241 63.2506 108.222 63.895 108.596 64.3433C108.969 64.7917 109.679 64.7169 110.389 64.3807ZM113.107 64.6329C112.64 64.0818 111.958 64.3153 111.239 64.6329L112.715 66.3981C113.434 65.7443 113.48 65.0905 113.107 64.6329Z" fill="#105C0A"/>
<path opacity="0.2" d="M243.596 306.174C243.596 306.174 236.395 342.722 192.226 351.006C192.226 351.006 180.691 360.206 176.853 365.652C173.014 371.097 152.569 380.353 131.74 409.232C110.912 438.111 79.9033 346.402 79.9033 346.402L148.44 257.392L243.596 306.174Z" fill="black" fill-opacity="0.7"/>
<path d="M282.852 134.571C282.852 134.571 306.669 122.924 311.909 124.932C317.148 126.94 322.183 138.988 302.148 150.523C282.114 162.058 288.092 183.55 288.092 183.55H302.382C302.382 183.55 310.956 187.043 314.29 191.535C317.625 196.028 320.006 211.345 321.912 216.538C323.817 221.731 322.846 226.934 317.625 228.624C317.625 228.624 314.29 243.157 315.243 249.602C316.196 256.047 315.719 260.194 309.527 260.978C307.969 261.141 306.394 260.962 304.911 260.456C303.429 259.949 302.075 259.126 300.942 258.044C299.809 256.962 298.925 255.646 298.351 254.189C297.777 252.731 297.527 251.166 297.618 249.602L292.855 266.862L296.189 273.494C300.9 275.317 305.253 277.954 309.05 281.283C315.719 286.999 322.388 288.559 320.483 294.929C318.577 301.299 314.767 308.164 294.76 300.206C274.754 292.248 258.082 260.978 258.082 260.978L246.062 151.943L282.852 134.571Z" fill="white"/>
<path opacity="0.4" d="M307.92 197.205C297.123 211.925 309.069 228.877 309.069 228.877C309.069 228.877 301.597 233.042 301.382 243.671C301.298 248.089 302.41 254.263 303.736 259.979C301.794 259.062 300.174 257.581 299.084 255.731C297.995 253.88 297.487 251.745 297.628 249.602L292.855 266.863L296.189 273.485C299.697 274.827 303.004 276.647 306.015 278.892C303.054 285.692 302.148 294.098 302.41 302.765C299.808 302.075 297.253 301.22 294.76 300.206C274.754 292.239 258.082 260.978 258.082 260.978L246.062 151.934L282.852 134.571C282.852 134.571 295.862 128.21 304.773 125.698C304.082 134.029 305.707 142.65 306.884 147.451C305.364 148.563 303.783 149.589 302.148 150.523C282.142 162.058 288.092 183.55 288.092 183.55H302.391C302.391 183.55 310.536 186.875 314.029 191.199C311.64 192.807 309.569 194.843 307.92 197.205Z" fill="#A8C879"/>
<path d="M245.642 288.606C245.642 288.606 219.732 339.406 173.032 350.932C173.032 350.932 171.249 360.981 163.347 365.297C159.125 367.594 142.089 393.12 127.136 416.424L44.3086 365.614C49.4082 360.571 55.2177 354.761 61.1206 348.699C78.3996 331.084 96.8368 311.339 102.478 301.57C107.522 292.884 113.901 277.809 119.458 263.64C126.575 245.52 132.366 228.877 132.366 228.877L159.975 198.185L203.378 149.926L205.246 156.099L245.642 288.606Z" fill="white"/>
<path opacity="0.4" d="M203.416 149.926L245.642 288.606C245.642 288.606 219.733 339.406 173.033 350.932C173.033 350.932 171.249 360.981 163.347 365.297C159.555 367.361 145.442 388.142 131.787 409.195C136.849 391.822 151.504 364.129 151.504 364.129C142.098 352.986 144.844 341.246 148.608 344.59C152.372 347.934 161.834 357.33 162.432 357.918C158.275 353.024 157.313 345.356 157.313 345.356C157.313 345.356 168.97 353.108 169.913 340.686C170.856 328.263 162.927 297.908 162.927 297.908L142.108 218.089L203.416 149.926Z" fill="#A8C879"/>
<path d="M246.062 151.943L282.852 134.571C282.852 134.571 306.669 122.924 311.909 124.932C317.148 126.94 322.183 138.988 302.148 150.523C282.114 162.058 288.092 183.55 288.092 183.55H302.382C302.382 183.55 310.956 187.043 314.29 191.535C317.625 196.028 320.006 211.345 321.912 216.538C323.817 221.731 322.846 226.934 317.625 228.624C317.625 228.624 314.29 243.157 315.243 249.602C316.196 256.047 315.719 260.194 309.527 260.978C307.969 261.141 306.394 260.962 304.911 260.456C303.429 259.949 302.075 259.126 300.942 258.044C299.809 256.962 298.925 255.646 298.351 254.189C297.777 252.731 297.527 251.166 297.618 249.602L292.855 266.862L296.189 273.494C300.9 275.317 305.253 277.954 309.05 281.283C315.719 286.999 322.388 288.559 320.483 294.929C318.577 301.299 314.767 308.164 294.76 300.206C274.754 292.248 258.082 260.978 258.082 260.978" stroke="#105C0A" stroke-linecap="round" stroke-linejoin="round"/>
<path d="M317.625 228.624C310.48 230.558 302.149 229.129 299.048 216.482C295.947 203.836 302.149 190.33 306.193 189.088" stroke="#105C0A" stroke-linecap="round" stroke-linejoin="round"/>
<path d="M297.618 249.602C297.618 249.602 297.142 233.341 303.101 229.325" stroke="#105C0A" stroke-linecap="round" stroke-linejoin="round"/>
<path opacity="0.4" d="M123.867 330.365C123.867 330.365 106.411 328.189 102.516 320.381C99.2934 313.917 81.8276 338.127 61.1582 348.7C78.4372 331.084 96.8744 311.34 102.516 301.57C107.559 292.884 113.939 277.809 119.496 263.64C119.216 275.39 112.958 293.379 114.742 302.747C112.83 303.252 111.195 304.491 110.19 306.193C109.184 307.896 108.89 309.926 109.371 311.844C110.707 319.288 123.867 330.365 123.867 330.365Z" fill="#A8C879"/>
<path d="M245.641 288.606C245.641 288.606 219.732 339.406 173.023 350.932C173.023 350.932 171.248 360.982 163.346 365.297C159.125 367.594 142.098 393.121 127.126 416.424" stroke="#105C0A" stroke-linecap="round" stroke-linejoin="round"/>
<path d="M44.3086 365.614C64.2588 345.897 94.9221 314.636 102.515 301.57C114.004 281.797 132.403 228.867 132.403 228.867L203.387 149.926" stroke="#105C0A" stroke-linecap="round" stroke-linejoin="round"/>
<path d="M162.88 210.215C162.88 210.215 173.789 219.985 176.89 228.895" stroke="#105C0A" stroke-linecap="round" stroke-linejoin="round"/>
<path d="M291.651 67.9204H174.275C170.804 67.9204 167.989 70.7347 167.989 74.2062V324.079C167.989 327.551 170.804 330.365 174.275 330.365H291.651C295.122 330.365 297.937 327.551 297.937 324.079V74.2062C297.937 70.7347 295.122 67.9204 291.651 67.9204Z" fill="#105C0A"/>
<path d="M258.717 75.0655L256.233 79.614C255.97 80.1076 255.579 80.521 255.101 80.8104C254.622 81.0998 254.074 81.2544 253.515 81.2579H212.419C211.861 81.2549 211.314 81.1027 210.834 80.8169C210.354 80.5311 209.96 80.1223 209.692 79.6327L207.217 75.0841C206.951 74.5926 206.557 74.1821 206.077 73.8961C205.597 73.61 205.048 73.459 204.489 73.459H175.769C175.36 73.4602 174.955 73.5422 174.577 73.7002C174.2 73.8582 173.857 74.0892 173.569 74.3798C173.281 74.6705 173.053 75.0152 172.899 75.3941C172.744 75.773 172.666 76.1787 172.668 76.5879V322.23C172.668 323.053 172.994 323.843 173.576 324.426C174.157 325.009 174.946 325.338 175.769 325.34H290.147C290.557 325.343 290.963 325.264 291.343 325.109C291.722 324.954 292.067 324.725 292.358 324.436C292.649 324.147 292.879 323.803 293.037 323.424C293.194 323.046 293.275 322.64 293.275 322.23V76.5879C293.275 75.763 292.948 74.9719 292.364 74.3886C291.781 73.8053 290.99 73.4777 290.165 73.4777H261.454C260.897 73.4723 260.35 73.6169 259.868 73.8963C259.386 74.1757 258.989 74.5795 258.717 75.0655Z" fill="#A8C879" stroke="#105C0A" stroke-linecap="round" stroke-linejoin="round"/>
<path d="M224.048 77.2697C224.971 77.2697 225.72 76.5212 225.72 75.5979C225.72 74.6745 224.971 73.926 224.048 73.926C223.125 73.926 222.376 74.6745 222.376 75.5979C222.376 76.5212 223.125 77.2697 224.048 77.2697Z" stroke="white" stroke-miterlimit="10"/>
<path d="M243.54 75.5978C243.538 75.8025 243.476 76.002 243.361 76.1713C243.246 76.3405 243.083 76.4719 242.894 76.549C242.704 76.626 242.496 76.6452 242.296 76.6042C242.095 76.5631 241.911 76.4636 241.767 76.3183C241.623 76.1729 241.525 75.9882 241.486 75.7873C241.447 75.5865 241.468 75.3785 241.547 75.1896C241.625 75.0007 241.758 74.8394 241.929 74.7258C242.099 74.6123 242.299 74.5518 242.504 74.5518C242.64 74.5518 242.776 74.5789 242.902 74.6316C243.029 74.6842 243.143 74.7614 243.24 74.8587C243.336 74.956 243.412 75.0714 243.464 75.1982C243.516 75.3251 243.541 75.4609 243.54 75.5978Z" stroke="white" stroke-miterlimit="10"/>
<path d="M238.888 74.9441H228.727C228.641 74.9441 228.557 74.9611 228.478 74.994C228.399 75.027 228.327 75.0753 228.268 75.1361C228.208 75.197 228.16 75.2691 228.128 75.3484C228.097 75.4277 228.081 75.5125 228.082 75.5979C228.082 75.7688 228.15 75.9327 228.271 76.0536C228.392 76.1745 228.556 76.2424 228.727 76.2424H238.888C239.059 76.2424 239.223 76.1745 239.344 76.0536C239.465 75.9327 239.533 75.7688 239.533 75.5979C239.534 75.5125 239.518 75.4277 239.487 75.3484C239.455 75.2691 239.407 75.197 239.348 75.1361C239.288 75.0753 239.216 75.027 239.137 74.994C239.058 74.9611 238.974 74.9441 238.888 74.9441Z" fill="white"/>
<path d="M193.935 79.6887H182.979V84.34H193.935V79.6887Z" stroke="#105C0A" stroke-linecap="round" stroke-linejoin="round"/>
<path d="M195.626 80.4734H193.926V83.5649H195.626V80.4734Z" stroke="#105C0A" stroke-linecap="round" stroke-linejoin="round"/>
<path d="M271.57 82.6589H269.627V84.3495H271.57V82.6589Z" stroke="#105C0A" stroke-linecap="round" stroke-linejoin="round"/>
<path d="M275.362 80.959H273.419V84.3494H275.362V80.959Z" stroke="#105C0A" stroke-linecap="round" stroke-linejoin="round"/>
<path d="M279.154 79.2593H277.211V84.3402H279.154V79.2593Z" stroke="#105C0A" stroke-linecap="round" stroke-linejoin="round"/>
<path d="M282.936 77.5593H280.993V84.3402H282.936V77.5593Z" stroke="#105C0A" stroke-linecap="round" stroke-linejoin="round"/>
<path opacity="0.5" d="M292.472 127.734H173.443V241.262H292.472V127.734Z" fill="white"/>
<path d="M282.936 141.492H182.979V156.426H282.936V141.492Z" fill="white" stroke="#105C0A" stroke-linecap="round" stroke-linejoin="round"/>
<path d="M282.936 169.502H182.979V184.437H282.936V169.502Z" fill="white" stroke="#105C0A" stroke-linecap="round" stroke-linejoin="round"/>
<path d="M174.368 273.886C175.769 295.415 165.794 319.391 165.794 319.391L111.912 304.222L102.516 301.57C111.856 288.597 116.301 263.042 113.864 242.364C113.677 240.804 113.565 239.337 113.481 237.936C112.547 220.882 119.636 215.894 125.623 208.357C132.161 200.194 146.713 169.372 146.713 162.077C146.713 154.782 164.972 136.924 160.909 116.657C160.909 116.657 166.429 113.229 171.977 116.04C174.499 117.31 177.011 119.86 179.038 124.586C183.792 135.691 177.114 167.083 171.435 174.779L160.498 220.06C160.498 220.06 164.188 226.42 167.812 237.964C171.414 249.636 173.615 261.695 174.368 273.886Z" fill="white"/>
<path opacity="0.4" d="M113.481 237.937C116.535 246.296 119.776 251.947 119.496 263.659C119.216 275.371 112.958 293.397 114.742 302.765C113.723 303.066 112.771 303.561 111.94 304.223L102.544 301.57C111.884 288.597 116.33 263.042 113.892 242.364C113.677 240.804 113.565 239.338 113.481 237.937Z" fill="#A8C879"/>
<path opacity="0.4" d="M171.435 174.779L160.498 220.06C160.498 220.06 164.187 226.42 167.811 237.964C160.405 226.028 154.109 222.46 154.109 222.46C159.041 216.548 162.842 173.304 162.842 173.304C162.842 173.304 178.3 155.137 176.852 136.13C176.388 129.204 174.739 122.409 171.977 116.04C174.499 117.31 177.011 119.86 179.038 124.586C183.792 135.691 177.114 167.083 171.435 174.779Z" fill="#A8C879"/>
<path d="M102.516 301.57C111.856 288.597 116.301 263.042 113.873 242.364C111.445 221.685 119.141 216.511 125.632 208.347C132.123 200.184 146.713 169.372 146.713 162.068C146.713 154.764 164.963 136.934 160.909 116.657C160.909 116.657 172.556 109.437 179.038 124.586C183.792 135.701 177.114 167.083 171.435 174.789L160.508 220.06C160.508 220.06 172.173 240.187 174.368 273.886C175.769 295.415 165.794 319.4 165.794 319.4" stroke="#105C0A" stroke-linecap="round" stroke-linejoin="round"/>
<path d="M138.53 336.623C138.53 336.623 150.794 344.17 157.948 356.106" stroke="#105C0A" stroke-linecap="round" stroke-linejoin="round"/>
<path d="M172.976 350.904C172.976 350.904 162.413 352.408 152.867 340.985C146.749 333.671 128.172 330.365 123.913 311.237" stroke="#105C0A" stroke-linecap="round" stroke-linejoin="round"/>
<path opacity="0.2" d="M326.508 407.467C299.469 394.531 315.842 384.164 278.641 368.108C241.439 352.053 241.066 338.332 245.549 306.782C250.032 275.231 246.483 241.673 257.299 238.824C268.115 235.975 248.837 192.46 261.446 177.077L323.501 297.787L326.508 407.467Z" fill="black" fill-opacity="0.7"/>
<path d="M427.258 406.206C425.988 402.573 424.699 398.603 423.7 394.998C422.411 390.328 421.402 386.592 419.03 382.249C418.656 381.558 418.255 380.829 417.806 380.045C415.275 375.534 411.81 369.36 409.783 361.776C408.42 356.667 409.783 344.086 411.054 331.888C411.988 323.127 412.837 314.861 412.585 310.172L412.511 308.51C411.875 296.246 410.549 270.729 407.841 263.678C405.179 256.878 402.694 255.86 398.164 254.048C397.697 253.843 397.23 253.656 396.689 253.432C394.989 252.722 392.093 251.227 388.759 249.5C381.24 245.605 371.882 240.757 367.127 240.16C362.68 239.66 358.182 239.868 353.799 240.776C347.943 236.283 337.977 230.502 335.007 230.381C332.579 230.259 327.274 231.782 324.733 232.575L323.454 232.986C321.845 231.739 320.14 230.621 318.354 229.643C318.233 229.577 318.111 229.531 318.008 229.484C314.711 228.13 309.733 228.083 307.015 228.158C306.193 228.158 305.549 228.242 305.259 228.27C300.132 220.377 295.088 212.523 292.893 209.076C288.317 201.828 274.148 172.006 274.008 171.716C273.991 171.678 273.966 171.644 273.933 171.618C273.901 171.592 273.862 171.574 273.821 171.567C273.778 171.561 273.734 171.561 273.69 171.567C272.588 171.249 264.472 169.185 261.212 177.049C257.644 185.614 262.734 204.415 267.703 211.243C270.094 214.531 276.623 227.943 283.245 241.822C281.545 243.401 267.946 255.963 261.343 258.307C255.935 260.222 257.205 287.943 258.223 310.2C258.606 318.419 258.924 325.49 258.83 329.74C258.643 337.959 273.597 349.279 288.092 360.225C301.168 370.144 314.73 380.39 316.318 387.834C316.757 389.926 318.008 391.626 319.503 393.541C321.997 396.717 325.21 400.462 326.573 407.551C326.975 409.681 330.393 412.464 333.111 417.012H431.219C430.397 414.799 428.846 410.764 427.258 406.206ZM291.203 258.541C295.957 268.497 298.899 274.419 299.609 275.082C300.318 275.745 300.272 278.902 300.253 281.975C300.151 284.665 300.244 287.359 300.533 290.035C299.375 291.053 292.062 297.713 290.586 303.111L284.375 295.798L282.806 272.85C283.74 271.86 290.129 265.107 291.203 258.541Z" fill="white"/>
<path opacity="0.4" d="M399.108 322.52C401.415 344.048 401.443 355.723 404.03 361.953C408.401 372.47 414.836 374.599 414.836 374.599C412.696 370.523 410.996 366.231 409.765 361.794C408.41 356.685 409.765 344.104 411.035 331.906C411.969 323.145 412.828 314.87 412.585 310.181L412.501 308.519C411.866 296.265 410.54 270.748 407.831 263.687C405.179 256.887 402.685 255.869 398.155 254.048C397.688 253.852 397.221 253.665 396.679 253.441C394.98 252.731 392.093 251.237 388.75 249.509C381.231 245.614 371.872 240.767 367.118 240.169C362.671 239.663 358.172 239.871 353.79 240.785C347.934 236.293 337.968 230.511 334.998 230.39C332.57 230.268 325.985 232.183 323.426 232.996C334.634 242.14 350.773 253.544 350.773 253.544C363.541 256.084 361.907 261.623 367.072 264.752C371.742 267.554 376.206 259.353 380.148 258.634C385.303 257.7 391.159 263.136 390.898 269.73C390.095 287.896 397.128 304.036 399.108 322.52Z" fill="#A8C879"/>
<path opacity="0.4" d="M334.568 255.804C334.568 255.804 324.453 247.398 319.624 244.596C314.796 241.794 314.02 232.136 317.831 229.792C317.976 229.705 318.139 229.654 318.307 229.643L317.962 229.484C314.665 228.13 309.687 228.074 306.969 228.158C312.573 238.59 317.047 246.595 318.251 248.351C322.314 254.216 334.568 255.804 334.568 255.804Z" fill="#A8C879"/>
<path opacity="0.4" d="M319.223 386.527C319.653 384.294 315.973 377.756 314.357 375.104C310.687 369.051 268.068 331.393 274.242 321.343C280.416 311.293 286.057 318.728 289.961 319.381C292.763 319.848 300.459 315.262 300.422 314.879C299.544 307.137 306.689 302.102 306.689 302.102C306.689 302.102 306.035 271.28 304.391 271.803C302.748 272.326 283.077 225.524 283.077 225.524C283.077 225.524 262.287 197.877 263.463 184.979C264.64 172.08 273.663 171.856 273.663 171.856V171.51C272.561 171.193 264.444 169.129 261.185 176.993C257.617 185.558 262.707 204.359 267.676 211.187C270.067 214.474 276.596 227.887 283.218 241.766C281.518 243.344 267.919 255.907 261.315 258.251C255.907 260.166 257.178 287.887 258.196 310.144C258.579 318.363 258.896 325.434 258.803 329.683C258.616 337.903 273.569 349.223 288.065 360.169C301.141 370.088 314.703 380.334 316.291 387.778C316.73 389.87 317.981 391.57 319.475 393.485C319.178 391.178 319.094 388.849 319.223 386.527ZM291.203 258.569C295.957 268.525 298.899 274.447 299.609 275.11C300.319 275.773 300.272 278.93 300.254 282.003C300.151 284.693 300.245 287.387 300.534 290.063C299.376 291.081 292.063 297.741 290.587 303.139L284.376 295.826L282.807 272.877C283.741 271.859 290.129 265.107 291.203 258.541V258.569Z" fill="#A8C879"/>
<path d="M328.769 255.683C324.595 254.369 320.928 251.799 318.271 248.323C314.002 242.607 297.237 216.567 292.595 209.225C287.953 201.884 273.663 171.856 273.663 171.856C273.663 171.856 264.883 168.914 261.465 177.114C258.046 185.315 262.726 203.846 267.928 210.981C273.13 218.117 297.853 273.064 299.815 274.839C301.776 276.613 298.834 291.277 302.766 294.826" stroke="#105C0A" stroke-linecap="round" stroke-linejoin="round"/>
<path d="M300.88 290.166C300.88 290.166 291.82 298.058 290.755 303.821L284.03 295.91L282.442 272.728C282.442 272.728 290.559 264.602 291.007 257.373" stroke="#105C0A" stroke-linecap="round" stroke-linejoin="round"/>
<path d="M283.591 241.794C283.591 241.794 268.545 255.991 261.39 258.522C254.236 261.053 259.457 314.244 259.102 329.646C258.747 345.048 313.227 371.881 316.571 387.647C317.897 393.924 323.389 395.203 326.742 407.261" stroke="#105C0A" stroke-linecap="round" stroke-linejoin="round"/>
<path d="M305.008 228.578C305.008 228.578 313.199 227.84 317.813 229.764C322.427 231.688 341.163 247.781 345.684 250.854C350.204 253.926 357.004 255.094 358.293 258.41" stroke="#105C0A" stroke-linecap="round" stroke-linejoin="round"/>
<path d="M323.323 233.323C323.323 233.323 331.729 230.521 334.942 230.679C338.155 230.838 350.241 237.965 355.658 242.728C359.809 246.411 364.59 249.315 369.771 251.302" stroke="#105C0A" stroke-linecap="round" stroke-linejoin="round"/>
<path d="M353.688 241.112C358.074 240.168 362.586 239.95 367.044 240.468C373.881 241.402 391.048 251.489 396.521 253.768C401.994 256.047 404.609 256.467 407.486 263.827C410.363 271.187 411.68 299.17 412.259 310.228C412.838 321.287 407.075 352.959 409.457 361.869C411.838 370.779 416.135 377.654 418.741 382.417" stroke="#105C0A" stroke-linecap="round" stroke-linejoin="round"/>
<path d="M282.442 272.728C282.442 272.728 281.135 267.264 279.267 266.564" stroke="#105C0A" stroke-linecap="round" stroke-linejoin="round"/>
<path d="M284.03 295.91C284.66 299.094 285.512 302.231 286.58 305.297C287.925 308.612 285.833 313.413 285.833 313.413" stroke="#105C0A" stroke-linecap="round" stroke-linejoin="round"/>
<path d="M290.754 303.821C290.54 309.126 295.817 315.328 297.096 314.45" stroke="#105C0A" stroke-linecap="round" stroke-linejoin="round"/>
<path d="M317.626 272.728C317.626 272.728 323.295 263.556 328.731 263.108C334.167 262.66 340.444 270.374 343.797 269.646C347.15 268.917 351.371 263.986 357.013 263.108C362.654 262.23 365.297 264.92 369.771 265.144C374.245 265.368 374.703 259.391 380.045 258.606C385.388 257.821 387.209 260.474 390.796 261.165C394.382 261.856 395.279 259.026 398.183 257.429" stroke="#105C0A" stroke-linecap="round" stroke-linejoin="round"/>
<path d="M183.491 113.162C183.491 113.741 183.345 114.203 183.052 114.548C182.759 114.893 182.394 115.131 181.958 115.261C181.802 115.3 181.629 115.326 181.44 115.339C181.258 115.352 181.112 115.359 181.001 115.359H178.833V107.908H180.884C181.613 107.908 182.186 108.087 182.603 108.445C183.026 108.803 183.237 109.314 183.237 109.978C183.237 110.336 183.156 110.636 182.993 110.876C182.83 111.117 182.622 111.296 182.368 111.414C182.694 111.544 182.961 111.742 183.169 112.009C183.384 112.276 183.491 112.66 183.491 113.162ZM180.083 114.255H180.894C180.959 114.255 181.056 114.252 181.187 114.246C181.317 114.239 181.411 114.226 181.47 114.207C181.73 114.122 181.922 113.988 182.046 113.806C182.17 113.624 182.231 113.409 182.231 113.162C182.231 112.901 182.17 112.683 182.046 112.507C181.922 112.325 181.73 112.195 181.47 112.117C181.411 112.091 181.32 112.068 181.196 112.048C181.079 112.029 180.975 112.019 180.884 112.019H180.083V114.255ZM181.978 109.978C181.978 109.672 181.896 109.447 181.733 109.304C181.577 109.154 181.362 109.067 181.089 109.041C181.03 109.034 180.962 109.031 180.884 109.031C180.806 109.024 180.744 109.021 180.698 109.021H180.083V110.916H181.089C181.349 110.883 181.561 110.785 181.724 110.623C181.893 110.46 181.978 110.245 181.978 109.978ZM189.599 115.359H188.291L187.627 113.171H185.635L184.98 115.359H183.681L186.025 107.908H187.236L189.599 115.359ZM187.285 112.039L186.64 109.871L185.976 112.039H187.285ZM195.044 115.359H193.745L191.342 110.271V115.359H190.131V107.908H191.421L193.833 113.025V107.908H195.044V115.359ZM201.24 115.359H199.687L197.363 112.488V115.359H196.122V107.908H197.363V110.515L199.501 107.908H201.015L198.105 111.433L201.24 115.359ZM205.966 109.041V114.236H206.474C206.571 114.236 206.708 114.233 206.884 114.226C207.066 114.213 207.206 114.19 207.304 114.158C207.427 114.125 207.561 114.054 207.704 113.943C207.854 113.832 207.997 113.676 208.134 113.474C208.271 113.266 208.381 113.015 208.466 112.722C208.557 112.423 208.603 112.065 208.603 111.648C208.603 111.218 208.557 110.857 208.466 110.564C208.381 110.271 208.271 110.02 208.134 109.812C207.997 109.61 207.854 109.454 207.704 109.343C207.561 109.226 207.427 109.151 207.304 109.119C207.206 109.093 207.066 109.073 206.884 109.06C206.708 109.047 206.571 109.041 206.474 109.041H205.966ZM204.716 107.908H206.396C206.61 107.908 206.835 107.924 207.069 107.957C207.31 107.983 207.522 108.015 207.704 108.054C208.01 108.139 208.29 108.282 208.544 108.484C208.804 108.679 209.032 108.923 209.228 109.216C209.423 109.496 209.576 109.841 209.687 110.251C209.804 110.655 209.862 111.121 209.862 111.648C209.862 112.162 209.804 112.625 209.687 113.035C209.576 113.445 209.423 113.79 209.228 114.07C209.032 114.363 208.804 114.61 208.544 114.812C208.29 115.007 208.01 115.147 207.704 115.232C207.522 115.271 207.31 115.304 207.069 115.33C206.835 115.349 206.61 115.359 206.396 115.359H204.716V107.908ZM214.818 115.359H210.697V107.908H214.74V109.041H211.957V110.916H214.613V112.039H211.957V114.236H214.818V115.359ZM220.497 109.041H218.544V115.359H217.284V109.041H215.331V107.908H220.497V109.041ZM225.765 115.359H224.456L223.792 113.171H221.8L221.146 115.359H219.847L222.191 107.908H223.402L225.765 115.359ZM223.451 112.039L222.806 109.871L222.142 112.039H223.451ZM227.596 115.359H226.336V107.908H227.596V115.359ZM232.845 115.359H228.714V107.908H229.974V114.236H232.845V115.359ZM237.566 113.25C237.566 114.005 237.332 114.565 236.863 114.929C236.394 115.294 235.763 115.476 234.969 115.476C234.669 115.476 234.357 115.44 234.031 115.369C233.712 115.297 233.422 115.216 233.162 115.125V113.845C233.546 114.001 233.865 114.119 234.119 114.197C234.262 114.236 234.415 114.272 234.578 114.304C234.741 114.337 234.897 114.353 235.047 114.353C235.209 114.353 235.359 114.34 235.496 114.314C235.639 114.288 235.766 114.229 235.877 114.138C235.981 114.073 236.075 113.979 236.16 113.855C236.245 113.731 236.287 113.575 236.287 113.386C236.287 113.197 236.248 113.041 236.17 112.917C236.092 112.787 236.004 112.677 235.906 112.585C235.672 112.384 235.418 112.211 235.144 112.068C234.956 111.964 234.744 111.847 234.51 111.716C234.275 111.58 234.054 111.427 233.846 111.257C233.624 111.082 233.445 110.873 233.308 110.632C233.172 110.391 233.103 110.121 233.103 109.822C233.103 109.125 233.315 108.611 233.738 108.279C234.161 107.947 234.708 107.781 235.379 107.781C235.548 107.781 235.717 107.797 235.887 107.83C236.056 107.856 236.209 107.885 236.346 107.917C236.593 107.989 236.863 108.074 237.156 108.171V109.402C236.804 109.22 236.476 109.086 236.17 109.001C235.87 108.917 235.59 108.875 235.33 108.875C235.056 108.875 234.825 108.953 234.637 109.109C234.454 109.259 234.363 109.473 234.363 109.753C234.363 109.864 234.392 109.962 234.451 110.046C234.51 110.131 234.581 110.216 234.666 110.3C234.75 110.398 234.848 110.486 234.959 110.564C235.076 110.642 235.206 110.717 235.349 110.789C235.805 111.036 236.15 111.238 236.385 111.394C236.625 111.544 236.824 111.694 236.98 111.843C237.156 112.006 237.293 112.198 237.39 112.419C237.495 112.641 237.553 112.917 237.566 113.25Z" fill="black"/>
<path d="M185.97 133.767H185.315L184.983 132.674H183.987L183.66 133.767H183.011L184.183 130.042H184.788L185.97 133.767ZM184.812 132.107L184.49 131.023L184.158 132.107H184.812ZM188.287 132.078H187.642C187.642 131.902 187.609 131.772 187.544 131.687C187.479 131.599 187.385 131.555 187.261 131.555C187.121 131.555 186.996 131.627 186.885 131.77C186.778 131.91 186.724 132.115 186.724 132.385C186.724 132.447 186.731 132.514 186.744 132.586C186.757 132.657 186.774 132.727 186.797 132.796C186.823 132.877 186.862 132.955 186.914 133.03C186.97 133.105 187.04 133.168 187.124 133.22C187.154 133.237 187.198 133.253 187.256 133.269C187.315 133.286 187.386 133.294 187.471 133.294C187.526 133.294 187.616 133.282 187.74 133.26C187.863 133.233 188.023 133.167 188.218 133.059V133.601C188.039 133.705 187.868 133.774 187.705 133.806C187.543 133.836 187.378 133.842 187.212 133.826C187.069 133.806 186.926 133.762 186.783 133.694C186.643 133.622 186.529 133.539 186.441 133.445C186.34 133.325 186.255 133.175 186.187 132.996C186.119 132.817 186.084 132.612 186.084 132.381C186.084 132.185 186.109 132.008 186.158 131.848C186.21 131.686 186.285 131.546 186.382 131.428C186.477 131.308 186.6 131.212 186.753 131.14C186.906 131.066 187.08 131.028 187.276 131.028C187.419 131.028 187.551 131.052 187.671 131.101C187.792 131.147 187.896 131.209 187.984 131.287C188.075 131.365 188.148 131.463 188.204 131.58C188.259 131.694 188.287 131.86 188.287 132.078ZM190.745 132.078H190.1C190.1 131.902 190.068 131.772 190.003 131.687C189.938 131.599 189.843 131.555 189.72 131.555C189.58 131.555 189.454 131.627 189.344 131.77C189.236 131.91 189.182 132.115 189.182 132.385C189.182 132.447 189.189 132.514 189.202 132.586C189.215 132.657 189.233 132.727 189.256 132.796C189.282 132.877 189.321 132.955 189.373 133.03C189.428 133.105 189.498 133.168 189.583 133.22C189.612 133.237 189.656 133.253 189.715 133.269C189.773 133.286 189.845 133.294 189.929 133.294C189.985 133.294 190.074 133.282 190.198 133.26C190.322 133.233 190.481 133.167 190.677 133.059V133.601C190.498 133.705 190.327 133.774 190.164 133.806C190.001 133.836 189.837 133.842 189.671 133.826C189.527 133.806 189.384 133.762 189.241 133.694C189.101 133.622 188.987 133.539 188.899 133.445C188.798 133.325 188.714 133.175 188.645 132.996C188.577 132.817 188.543 132.612 188.543 132.381C188.543 132.185 188.567 132.008 188.616 131.848C188.668 131.686 188.743 131.546 188.841 131.428C188.935 131.308 189.059 131.212 189.212 131.14C189.365 131.066 189.539 131.028 189.734 131.028C189.877 131.028 190.009 131.052 190.13 131.101C190.25 131.147 190.354 131.209 190.442 131.287C190.533 131.365 190.607 131.463 190.662 131.58C190.717 131.694 190.745 131.86 190.745 132.078ZM192.725 132.434C192.725 132.307 192.71 132.185 192.681 132.068C192.652 131.948 192.611 131.848 192.559 131.77C192.507 131.692 192.446 131.637 192.378 131.604C192.31 131.568 192.245 131.551 192.183 131.551C192.121 131.551 192.056 131.568 191.988 131.604C191.919 131.637 191.857 131.692 191.802 131.77C191.753 131.848 191.714 131.948 191.685 132.068C191.655 132.185 191.641 132.307 191.641 132.434C191.641 132.558 191.655 132.678 191.685 132.796C191.714 132.91 191.753 133.007 191.802 133.089C191.857 133.167 191.919 133.222 191.988 133.255C192.056 133.287 192.121 133.303 192.183 133.303C192.245 133.303 192.31 133.287 192.378 133.255C192.446 133.222 192.507 133.167 192.559 133.089C192.611 133.007 192.652 132.91 192.681 132.796C192.71 132.678 192.725 132.558 192.725 132.434ZM193.364 132.434C193.364 132.62 193.337 132.801 193.281 132.976C193.229 133.149 193.153 133.299 193.052 133.426C192.945 133.556 192.814 133.655 192.661 133.723C192.508 133.792 192.349 133.826 192.183 133.826C192.017 133.826 191.857 133.792 191.704 133.723C191.551 133.655 191.421 133.556 191.314 133.426C191.213 133.299 191.135 133.149 191.079 132.976C191.027 132.801 191.001 132.62 191.001 132.434C191.001 132.246 191.027 132.065 191.079 131.892C191.135 131.717 191.213 131.565 191.314 131.438C191.421 131.305 191.551 131.204 191.704 131.135C191.857 131.064 192.017 131.028 192.183 131.028C192.349 131.028 192.508 131.064 192.661 131.135C192.814 131.204 192.945 131.305 193.052 131.438C193.153 131.565 193.229 131.717 193.281 131.892C193.337 132.065 193.364 132.246 193.364 132.434ZM193.728 131.087H194.348V132.752C194.348 132.934 194.384 133.079 194.456 133.186C194.504 133.248 194.584 133.279 194.695 133.279C194.789 133.279 194.884 133.225 194.978 133.118C195.073 133.01 195.143 132.844 195.188 132.62C195.201 132.561 195.209 132.506 195.212 132.454C195.219 132.399 195.222 132.335 195.222 132.263V131.087H195.837V133.767H195.222V133.552C195.18 133.618 195.105 133.681 194.998 133.743C194.893 133.802 194.784 133.831 194.671 133.831C194.371 133.831 194.14 133.749 193.977 133.587C193.811 133.421 193.728 133.181 193.728 132.869V131.087ZM198.438 133.767H197.817V132.107C197.817 131.928 197.782 131.785 197.71 131.677C197.661 131.612 197.581 131.58 197.471 131.58C197.376 131.58 197.282 131.634 197.188 131.741C197.093 131.848 197.023 132.016 196.978 132.244C196.965 132.299 196.955 132.355 196.948 132.41C196.945 132.465 196.943 132.53 196.943 132.605V133.767H196.328V131.087H196.943V131.311C197.005 131.227 197.09 131.158 197.197 131.106C197.305 131.054 197.404 131.028 197.495 131.028C197.795 131.028 198.026 131.109 198.188 131.272C198.354 131.441 198.438 131.684 198.438 132V133.767ZM200.334 131.614H199.729V132.854C199.729 132.926 199.729 132.991 199.729 133.05C199.729 133.105 199.74 133.159 199.763 133.211C199.776 133.243 199.796 133.266 199.822 133.279C199.851 133.289 199.898 133.294 199.963 133.294C200.038 133.297 200.159 133.282 200.325 133.25V133.787C200.159 133.813 200.006 133.826 199.866 133.826C199.615 133.826 199.426 133.764 199.299 133.64C199.172 133.517 199.109 133.352 199.109 133.147V131.614H198.762V131.087H199.109V130.569L199.729 130.242V131.087H200.334V131.614ZM204.758 133.767H204.109L202.907 131.223V133.767H202.302V130.042H202.946L204.153 132.6V130.042H204.758V133.767ZM205.273 131.087H205.893V132.752C205.893 132.934 205.929 133.079 206.001 133.186C206.049 133.248 206.129 133.279 206.24 133.279C206.334 133.279 206.429 133.225 206.523 133.118C206.617 133.01 206.687 132.844 206.733 132.62C206.746 132.561 206.754 132.506 206.757 132.454C206.764 132.399 206.767 132.335 206.767 132.263V131.087H207.382V133.767H206.767V133.552C206.725 133.618 206.65 133.681 206.543 133.743C206.438 133.802 206.329 133.831 206.215 133.831C205.916 133.831 205.685 133.749 205.522 133.587C205.356 133.421 205.273 133.181 205.273 132.869V131.087ZM211.062 133.767H210.456V132.273C210.456 132.172 210.451 132.075 210.441 131.98C210.435 131.883 210.422 131.809 210.402 131.76C210.38 131.702 210.35 131.663 210.314 131.643C210.282 131.621 210.243 131.609 210.197 131.609C210.113 131.609 210.03 131.664 209.948 131.775C209.87 131.883 209.816 132.042 209.787 132.254C209.777 132.322 209.771 132.384 209.768 132.439C209.764 132.491 209.763 132.553 209.763 132.625V133.767H209.172V132.273C209.172 132.172 209.167 132.076 209.157 131.985C209.151 131.894 209.136 131.819 209.113 131.76C209.09 131.702 209.063 131.663 209.03 131.643C208.998 131.621 208.954 131.609 208.898 131.609C208.84 131.609 208.785 131.632 208.732 131.677C208.684 131.723 208.638 131.798 208.596 131.902C208.557 132.006 208.527 132.117 208.508 132.234C208.492 132.348 208.482 132.472 208.479 132.605V133.767H207.873V131.087H208.479V131.287C208.547 131.202 208.62 131.139 208.698 131.096C208.78 131.051 208.858 131.028 208.933 131.028C209.167 131.028 209.349 131.098 209.479 131.238C209.532 131.3 209.574 131.363 209.606 131.428C209.626 131.396 209.65 131.362 209.68 131.326C209.833 131.127 210.02 131.028 210.241 131.028C210.482 131.028 210.679 131.111 210.832 131.277C210.985 131.443 211.062 131.692 211.062 132.024V133.767ZM213.159 132.434C213.159 132.307 213.144 132.185 213.115 132.068C213.089 131.951 213.051 131.853 213.002 131.775C212.957 131.697 212.901 131.642 212.836 131.609C212.774 131.577 212.716 131.56 212.661 131.56C212.612 131.56 212.556 131.581 212.495 131.624C212.433 131.663 212.381 131.718 212.338 131.79C212.283 131.874 212.241 131.972 212.211 132.083C212.185 132.19 212.172 132.307 212.172 132.434C212.172 132.558 212.185 132.678 212.211 132.796C212.241 132.91 212.28 133.007 212.329 133.089C212.374 133.167 212.428 133.222 212.49 133.255C212.551 133.284 212.608 133.299 212.661 133.299C212.716 133.299 212.774 133.284 212.836 133.255C212.901 133.222 212.957 133.167 213.002 133.089C213.048 133.007 213.085 132.91 213.115 132.796C213.144 132.678 213.159 132.558 213.159 132.434ZM212.665 133.826C212.483 133.826 212.322 133.795 212.182 133.733C212.042 133.668 211.925 133.572 211.83 133.445C211.746 133.328 211.677 133.18 211.625 133.001C211.577 132.822 211.552 132.625 211.552 132.41V130.042H212.167V131.267C212.307 131.108 212.48 131.028 212.685 131.028C212.871 131.028 213.037 131.069 213.183 131.15C213.333 131.228 213.452 131.332 213.539 131.463C213.627 131.586 213.691 131.733 213.73 131.902C213.769 132.068 213.788 132.237 213.788 132.41C213.788 132.625 213.762 132.822 213.71 133.001C213.662 133.18 213.593 133.328 213.505 133.445C213.414 133.572 213.297 133.668 213.154 133.733C213.01 133.795 212.848 133.826 212.665 133.826ZM214.675 132.132H215.607C215.607 131.979 215.58 131.848 215.524 131.741C215.492 131.686 215.446 131.642 215.388 131.609C215.332 131.573 215.27 131.555 215.202 131.555C215.062 131.555 214.937 131.625 214.826 131.765C214.751 131.86 214.701 131.982 214.675 132.132ZM214.689 132.659C214.699 132.705 214.712 132.752 214.728 132.801C214.754 132.875 214.795 132.95 214.85 133.025C214.909 133.1 214.981 133.165 215.065 133.22C215.095 133.237 215.138 133.253 215.197 133.269C215.256 133.286 215.327 133.294 215.412 133.294C215.51 133.294 215.62 133.277 215.744 133.245C215.868 133.209 216.006 133.146 216.159 133.054V133.601C215.98 133.705 215.809 133.774 215.646 133.806C215.484 133.836 215.319 133.842 215.153 133.826C215.01 133.806 214.867 133.762 214.723 133.694C214.583 133.622 214.47 133.539 214.382 133.445C214.281 133.325 214.196 133.175 214.128 132.996C214.059 132.817 214.025 132.612 214.025 132.381C214.025 132.185 214.05 132.008 214.098 131.848C214.151 131.686 214.225 131.546 214.323 131.428C214.417 131.311 214.538 131.215 214.684 131.14C214.834 131.066 215.008 131.028 215.207 131.028C215.373 131.028 215.527 131.064 215.671 131.135C215.814 131.207 215.926 131.298 216.008 131.409C216.154 131.601 216.227 131.918 216.227 132.361V132.659H214.689ZM218.163 131.629C218.01 131.629 217.893 131.638 217.812 131.658C217.73 131.677 217.654 131.708 217.582 131.751C217.507 131.793 217.439 131.85 217.377 131.922C217.319 131.993 217.279 132.081 217.26 132.185C217.234 132.319 217.221 132.472 217.221 132.644V133.767H216.611V131.087H217.221V131.394C217.27 131.329 217.332 131.271 217.406 131.219C217.582 131.095 217.835 131.031 218.163 131.028V131.629Z" fill="black"/>
<path d="M183.934 161.787H183.304V158.062H183.934V161.787ZM186.514 158.628H185.122V159.566H186.465V160.127H185.122V161.787H184.493V158.062H186.514V158.628ZM188.953 160.733C188.953 161.11 188.836 161.39 188.601 161.573C188.367 161.755 188.051 161.846 187.654 161.846C187.504 161.846 187.348 161.828 187.185 161.792C187.026 161.756 186.881 161.716 186.751 161.67V161.031C186.943 161.109 187.102 161.167 187.229 161.206C187.301 161.226 187.377 161.244 187.459 161.26C187.54 161.276 187.618 161.284 187.693 161.284C187.775 161.284 187.849 161.278 187.918 161.265C187.989 161.252 188.053 161.223 188.108 161.177C188.16 161.144 188.207 161.097 188.25 161.035C188.292 160.974 188.313 160.895 188.313 160.801C188.313 160.707 188.294 160.628 188.255 160.567C188.216 160.502 188.172 160.446 188.123 160.401C188.006 160.3 187.879 160.213 187.742 160.142C187.648 160.09 187.542 160.031 187.425 159.966C187.307 159.898 187.197 159.821 187.093 159.737C186.982 159.649 186.892 159.545 186.824 159.424C186.756 159.304 186.721 159.169 186.721 159.019C186.721 158.67 186.827 158.413 187.039 158.247C187.25 158.081 187.524 157.998 187.859 157.998C187.944 157.998 188.028 158.006 188.113 158.023C188.198 158.036 188.274 158.05 188.343 158.067C188.466 158.102 188.601 158.145 188.748 158.194V158.809C188.572 158.718 188.408 158.651 188.255 158.609C188.105 158.566 187.965 158.545 187.835 158.545C187.698 158.545 187.582 158.584 187.488 158.662C187.397 158.737 187.351 158.845 187.351 158.985C187.351 159.04 187.366 159.089 187.395 159.131C187.425 159.173 187.46 159.216 187.503 159.258C187.545 159.307 187.594 159.351 187.649 159.39C187.708 159.429 187.773 159.466 187.845 159.502C188.072 159.626 188.245 159.727 188.362 159.805C188.483 159.88 188.582 159.955 188.66 160.03C188.748 160.111 188.816 160.207 188.865 160.318C188.917 160.428 188.946 160.567 188.953 160.733ZM191.9 159.243H191.245C191.245 159.068 191.227 158.942 191.192 158.867C191.159 158.793 191.117 158.732 191.065 158.687C190.964 158.599 190.842 158.555 190.698 158.555C190.585 158.555 190.475 158.581 190.371 158.633C190.267 158.682 190.171 158.762 190.083 158.872C189.995 158.99 189.925 159.139 189.873 159.322C189.821 159.504 189.795 159.688 189.795 159.873C189.795 159.99 189.81 160.132 189.839 160.298C189.868 160.464 189.922 160.627 190 160.786C190.078 160.933 190.182 161.055 190.313 161.153C190.443 161.247 190.607 161.294 190.806 161.294C190.952 161.294 191.1 161.268 191.25 161.216C191.403 161.161 191.582 161.061 191.787 160.918V161.582C191.768 161.595 191.719 161.621 191.641 161.66C191.566 161.699 191.486 161.732 191.402 161.758C191.187 161.82 190.954 161.851 190.703 161.851C190.433 161.851 190.199 161.792 190 161.675C189.802 161.555 189.637 161.398 189.507 161.206C189.38 161.014 189.289 160.804 189.234 160.576C189.182 160.345 189.155 160.111 189.155 159.873C189.155 159.632 189.183 159.401 189.238 159.18C189.297 158.955 189.391 158.76 189.522 158.594C189.649 158.425 189.81 158.283 190.005 158.169C190.2 158.055 190.432 157.998 190.698 157.998C190.861 157.998 191.016 158.028 191.162 158.086C191.309 158.145 191.436 158.223 191.543 158.321C191.654 158.415 191.74 158.531 191.802 158.667C191.867 158.804 191.9 158.996 191.9 159.243Z" fill="black"/>
</g>
<defs>
<filter id="filter0_dd_153_3848" x="-48" y="-48" width="547" height="563" filterUnits="userSpaceOnUse" color-interpolation-filters="sRGB">
<feFlood flood-opacity="0" result="BackgroundImageFix"/>
<feColorMatrix in="SourceAlpha" type="matrix" values="0 0 0 0 0 0 0 0 0 0 0 0 0 0 0 0 0 0 127 0" result="hardAlpha"/>
<feOffset dy="16"/>
<feGaussianBlur stdDeviation="16"/>
<feComposite in2="hardAlpha" operator="out"/>
<feColorMatrix type="matrix" values="0 0 0 0 0 0 0 0 0 0 0 0 0 0 0 0 0 0 1 0"/>
<feBlend mode="overlay" in2="BackgroundImageFix" result="effect1_dropShadow_153_3848"/>
<feColorMatrix in="SourceAlpha" type="matrix" values="0 0 0 0 0 0 0 0 0 0 0 0 0 0 0 0 0 0 127 0" result="hardAlpha"/>
<feOffset dx="-16" dy="-16"/>
<feGaussianBlur stdDeviation="16"/>
<feComposite in2="hardAlpha" operator="out"/>
<feColorMatrix type="matrix" values="0 0 0 0 0.729412 0 0 0 0 0.866667 0 0 0 0 0.619608 0 0 0 1 0"/>
<feBlend mode="overlay" in2="effect1_dropShadow_153_3848" result="effect2_dropShadow_153_3848"/>
<feBlend mode="normal" in="SourceGraphic" in2="effect2_dropShadow_153_3848" result="shape"/>
</filter>
</defs>
</svg>
