<svg width="204" height="217" viewBox="0 0 204 217" fill="none" xmlns="http://www.w3.org/2000/svg">
<path fill-rule="evenodd" clip-rule="evenodd" d="M160.073 129.305C147.656 158.492 156.429 205.602 126.391 215.798C99.4272 224.95 85.4083 179.381 62.6293 162.38C43.2892 147.946 12.5824 146.273 3.35454 123.971C-5.86775 101.683 5.52942 75.4708 18.1398 54.8575C28.5102 37.9056 48.9627 32.048 65.9256 21.6905C79.4268 13.4468 91.4436 2.71204 107.103 0.537141C123.269 -1.70815 138.843 3.4364 153.993 9.45889C171.975 16.6073 196.878 20.0133 202.597 38.4982C208.422 57.3221 187.7 73.4835 179.331 91.3548C173.164 104.523 165.765 115.926 160.073 129.305Z" fill="#A8C879"/>
</svg>
