<svg width="574" height="438" viewBox="0 0 574 438" fill="none" xmlns="http://www.w3.org/2000/svg">
<g filter="url(#filter0_d_0_16)">
<path d="M491.452 429.781C491.452 433.851 400.102 437.131 287.533 437.131C174.964 437.131 83.5996 433.851 83.5996 429.781C83.5996 425.712 174.95 422.446 287.533 422.446C400.115 422.446 491.452 425.726 491.452 429.781Z" fill="#A8C879"/>
<path opacity="0.6" d="M491.452 429.781C491.452 433.851 400.102 437.131 287.533 437.131C174.964 437.131 83.5996 433.851 83.5996 429.781C83.5996 425.712 174.95 422.446 287.533 422.446C400.115 422.446 491.452 425.726 491.452 429.781Z" fill="white"/>
<path d="M94.6451 200.685C94.7281 200.685 93.69 195.523 93.5793 195.149C92.389 191.467 87.9183 185.045 83.5723 185.045C82.8513 185.068 82.1431 185.241 81.4936 185.555C80.8441 185.869 80.2678 186.315 79.8019 186.866C79.336 187.417 78.9911 188.059 78.7894 188.752C78.5877 189.444 78.5337 190.171 78.631 190.886C78.9494 193.931 81.6899 196.533 84.1674 198.028C87.074 199.841 94.6451 200.685 94.6451 200.685Z" fill="#A8C879"/>
<path d="M103.046 165.917C98.9629 167.384 96.9421 174.941 97.0667 178.817C97.0667 179.149 97.8418 184.353 97.9248 184.353H98.0079C97.6757 185.543 97.3297 186.817 96.9836 188.229C96.3746 190.831 95.7103 193.765 95.1981 197.031C94.6044 200.53 94.2161 204.061 94.0355 207.606C93.8217 211.578 93.956 215.561 94.4369 219.509C94.4421 219.555 94.4421 219.602 94.4369 219.648C93.9109 218.499 92.3054 215.329 92.1531 215.094C90.0216 211.855 84.0146 206.789 79.8208 207.993C79.1335 208.205 78.4983 208.559 77.9565 209.032C77.4147 209.505 76.9783 210.087 76.6755 210.739C76.3728 211.392 76.2105 212.1 76.1992 212.82C76.1878 213.539 76.3277 214.252 76.6097 214.914C77.717 217.779 81.0388 219.551 83.8208 220.353C86.9628 221.239 93.9663 220.187 94.5199 220.104C95.12 224.105 95.98 228.063 97.0944 231.952C97.7449 234.222 98.4785 236.492 99.1982 238.748C98.7138 237.765 98.257 236.893 98.1878 236.783C96.0563 233.544 90.0493 228.478 85.8555 229.682C85.1681 229.894 84.533 230.248 83.9912 230.721C83.4493 231.194 83.0129 231.776 82.7102 232.428C82.4075 233.081 82.2452 233.789 82.2338 234.508C82.2225 235.228 82.3624 235.941 82.6444 236.603C83.7516 239.454 87.0735 241.24 89.8555 242.028C92.6376 242.817 98.6722 242.028 100.25 241.835C100.541 242.693 100.831 243.565 101.136 244.423C102.52 248.575 104.015 252.728 105.288 256.797C105.745 258.181 106.133 259.676 106.534 261.115C106.105 260.243 105.717 259.51 105.648 259.413C103.53 256.16 97.5096 251.108 93.3296 252.312C92.6411 252.523 92.0044 252.876 91.4611 253.348C90.9177 253.82 90.4798 254.402 90.1757 255.054C89.8715 255.707 89.7081 256.416 89.6958 257.136C89.6836 257.856 89.8229 258.57 90.1047 259.233C91.2119 262.084 94.5476 263.87 97.3297 264.658C100.112 265.447 105.551 264.755 107.434 264.492C107.807 265.973 108.181 267.468 108.472 268.921C108.638 269.918 108.873 270.859 108.998 271.883L109.413 274.845C109.607 276.742 109.828 278.693 109.966 280.548C110.077 281.849 110.16 283.081 110.243 284.313C109.814 282.929 108.859 280.064 108.859 279.842C107.327 276.797 105.04 274.195 102.216 272.285C102.058 271.938 101.873 271.605 101.662 271.288C101.267 270.685 100.75 270.171 100.144 269.78C99.5386 269.389 98.8574 269.13 98.145 269.019C97.4326 268.908 96.7048 268.948 96.0088 269.136C95.3128 269.325 94.6641 269.657 94.1047 270.112C90.8244 272.949 91.641 280.728 93.1497 284.299C93.2327 284.506 94.5338 286.693 95.2535 288.05L93.4957 285.863C92.2777 284.382 91.032 282.942 89.7033 281.392C89.0205 280.673 88.3422 279.939 87.6686 279.192C87.0043 278.444 86.2153 277.738 85.4818 276.991C83.7378 275.316 81.897 273.697 79.9454 272.119C81.2464 271.053 85.7724 267.233 87.0735 264.631C88.3745 262.029 89.3019 258.389 87.9455 255.634C87.6473 254.979 87.2147 254.394 86.6758 253.916C86.1368 253.439 85.5035 253.081 84.817 252.864C84.1305 252.647 83.4061 252.577 82.6908 252.659C81.9755 252.74 81.2854 252.971 80.6651 253.337C76.9834 255.634 76.6097 263.454 77.5647 267.178C77.5647 267.413 78.6166 270.043 79.1841 271.468C78.0353 270.513 76.9003 269.572 75.71 268.7C72.2775 266.056 68.7895 263.482 65.1909 260.894L61.9659 258.499C62.4227 258.126 67.9037 253.696 69.3709 250.776C70.6719 248.188 71.5993 244.534 70.2428 241.793C69.9462 241.135 69.5141 240.546 68.9747 240.066C68.4352 239.586 67.8006 239.226 67.1123 239.007C66.4239 238.789 65.6973 238.719 64.9799 238.801C64.2624 238.882 63.5703 239.114 62.9486 239.482C59.2808 241.793 58.9071 249.599 59.8621 253.323C59.9313 253.6 61.3569 257.364 61.7721 258.305C59.4053 256.548 57.0662 254.776 54.8516 252.935C51.8227 250.455 48.9563 247.783 46.2702 244.935C46.4778 244.769 52.2219 240.16 53.7167 237.184C55.0177 234.596 55.9451 230.942 54.5887 228.187C54.289 227.535 53.856 226.953 53.3175 226.479C52.779 226.004 52.147 225.648 51.4623 225.433C50.7776 225.218 50.0554 225.148 49.3423 225.229C48.6292 225.311 47.941 225.54 47.3222 225.904C43.6404 228.215 43.2806 236.035 44.2218 239.745C44.291 239.994 45.3706 242.873 45.9242 244.215L45.7166 244.354C43.0873 241.414 40.725 238.246 38.6577 234.886C37.5089 233.059 36.4985 231.232 35.5573 229.447C36.7199 228.7 41.9657 225.295 43.6128 222.693C45.2598 220.09 46.5194 216.727 45.4675 213.848C45.2423 213.172 44.8788 212.55 44.4001 212.022C43.9214 211.494 43.338 211.071 42.687 210.781C42.0361 210.49 41.3318 210.339 40.619 210.335C39.9062 210.332 39.2006 210.477 38.547 210.762C34.6438 212.644 33.4119 220.45 33.9517 224.215C33.9517 224.423 34.5054 226.513 34.9206 228.021C34.5054 227.219 34.0625 226.374 33.6888 225.585C32.3047 222.637 31.1282 219.841 30.1593 217.364C29.6195 215.98 29.1489 214.596 28.7752 213.433C29.5226 212.118 32.4984 206.734 32.7753 203.744C33.0521 200.755 32.6092 197.114 30.3531 195.038C29.8382 194.532 29.2227 194.14 28.5465 193.888C27.8703 193.635 27.1486 193.528 26.4282 193.572C25.7077 193.616 25.0047 193.812 24.3646 194.145C23.7245 194.479 23.1618 194.944 22.7129 195.509C20.1246 198.983 22.6021 206.416 24.8444 209.571C25.0381 209.848 28.5538 213.724 28.5953 213.724V213.641C28.9828 214.817 29.3981 216.063 29.8963 217.433C30.8237 219.938 31.8894 222.762 33.2597 225.738C34.6975 228.986 36.3243 232.147 38.1317 235.205C40.1472 238.633 42.4631 241.875 45.0522 244.894L45.1491 244.99C44.0695 244.326 40.9968 242.568 40.7338 242.458C37.1767 240.921 29.3842 240.063 26.533 243.33C26.0747 243.886 25.7389 244.533 25.5473 245.229C25.3557 245.924 25.3127 246.652 25.4211 247.364C25.5295 248.077 25.7868 248.759 26.1763 249.366C26.5658 249.973 27.0788 250.491 27.6818 250.887C30.1732 252.658 33.9379 252.271 36.6923 251.44C39.8065 250.458 44.9969 245.71 45.4813 245.336C48.1886 248.344 51.0923 251.17 54.1734 253.793C55.9589 255.33 57.7998 256.824 59.7098 258.305C58.7548 257.766 57.8967 257.281 57.7721 257.226C54.215 255.69 46.4363 254.831 43.5851 258.098C43.1241 258.653 42.7855 259.299 42.5917 259.994C42.3978 260.689 42.353 261.417 42.4601 262.131C42.5673 262.844 42.824 263.527 43.2135 264.134C43.6029 264.742 44.1163 265.26 44.72 265.655C47.2253 267.427 50.9762 267.039 53.7444 266.209C56.5126 265.378 61.0939 261.364 62.2981 260.299L64.4573 261.987C67.9452 264.658 71.3778 267.302 74.7688 270.001C75.9453 270.956 77.0664 271.925 78.2014 272.908C77.3571 272.423 76.6374 272.022 76.5128 271.967C72.9557 270.444 65.177 269.572 62.3258 272.852C61.8648 273.407 61.5262 274.054 61.3324 274.749C61.1385 275.444 61.0937 276.172 61.2009 276.885C61.308 277.599 61.5647 278.281 61.9542 278.889C62.3436 279.496 62.857 280.014 63.4607 280.41C65.966 282.181 69.7169 281.794 72.4851 280.949C75.2533 280.105 79.4056 276.493 80.7897 275.247C81.9108 276.271 83.0458 277.309 84.0977 278.361C84.7897 279.095 85.4818 279.745 86.1738 280.534L88.1531 282.79C89.3711 284.257 90.6168 285.766 91.7656 287.233C92.5684 288.257 93.3158 289.24 94.077 290.223C92.9144 289.268 90.6029 287.455 90.3815 287.302C87.1012 285.24 79.544 283.219 76.2221 286.015C75.686 286.497 75.2573 287.086 74.9638 287.744C74.6703 288.402 74.5186 289.115 74.5186 289.835C74.5186 290.556 74.6703 291.268 74.9638 291.927C75.2573 292.585 75.686 293.174 76.2221 293.655C78.4229 295.787 82.1876 296.008 85.0527 295.565C88.1946 295.081 93.8971 291.413 94.603 290.901C95.8487 292.534 97.039 294.14 98.1463 295.662C101.98 300.963 104.97 305.531 107.018 308.742L107.226 309.074L109.883 307.787L109.468 307.15C107.323 303.953 104.209 299.413 100.209 294.14C98.9629 292.465 97.5788 290.721 96.1532 288.922C97.6339 287.305 99.0203 285.604 100.305 283.828C103.35 285.019 109.704 285.06 110.52 285.06C110.659 287.122 110.769 289.116 110.838 290.998C111.115 297.545 111.088 302.998 111.032 306.804C111.032 306.957 111.032 307.095 111.032 307.247L113.953 305.863C113.953 302.071 113.8 296.95 113.427 290.887C113.288 288.811 113.108 286.583 112.915 284.299C113.717 284.105 120.32 282.403 122.811 280.41C125.081 278.61 127.462 275.676 127.378 272.617C127.384 271.896 127.238 271.182 126.949 270.522C126.66 269.861 126.236 269.269 125.703 268.783C125.171 268.297 124.542 267.929 123.857 267.703C123.173 267.476 122.449 267.396 121.731 267.468C117.413 268.022 113.814 274.956 113.108 278.776C113.108 278.998 112.873 281.545 112.79 283.053C112.707 282.126 112.624 281.226 112.527 280.285C112.333 278.389 112.084 276.506 111.835 274.472C111.669 273.503 111.503 272.506 111.351 271.51C111.198 270.513 110.935 269.489 110.728 268.479C110.202 266.112 109.565 263.745 108.859 261.378C110.52 261.212 116.416 260.52 118.935 259.067C121.455 257.613 124.237 255.094 124.624 252.049C124.738 251.338 124.7 250.611 124.515 249.915C124.329 249.219 123.999 248.57 123.546 248.01C123.093 247.45 122.527 246.992 121.886 246.665C121.244 246.338 120.541 246.149 119.821 246.112C115.475 246.001 110.852 252.312 109.579 255.98C109.496 256.202 108.873 258.928 108.569 260.437C108.126 259.053 107.71 257.6 107.184 256.174C105.8 252.022 104.236 247.966 102.714 243.855L101.33 240.077C101.925 240.077 108.942 239.357 111.766 237.724C114.271 236.34 117.067 233.752 117.454 230.707C117.57 229.995 117.535 229.267 117.35 228.57C117.165 227.873 116.835 227.224 116.382 226.663C115.928 226.103 115.362 225.644 114.719 225.318C114.076 224.991 113.372 224.804 112.652 224.769C108.306 224.658 103.683 230.983 102.409 234.637C102.312 234.914 101.427 238.79 101.247 239.855C100.25 237.087 99.2812 234.319 98.4785 231.551C97.3225 227.81 96.398 224.001 95.7103 220.146C95.9871 220.146 103.323 219.454 106.216 217.793C108.721 216.34 111.517 213.807 111.904 210.762C112.018 210.049 111.98 209.321 111.794 208.624C111.607 207.927 111.276 207.278 110.821 206.718C110.367 206.157 109.799 205.699 109.156 205.373C108.513 205.047 107.808 204.86 107.088 204.824C102.755 204.713 98.1324 211.038 96.8591 214.692C96.776 214.928 96.0978 217.931 95.8072 219.357H95.558C94.9863 215.458 94.764 211.516 94.8936 207.578C94.8936 205.419 95.1013 203.343 95.3089 201.336C96.693 201.336 102.991 201.336 105.759 200.146C108.527 198.955 111.461 196.768 112.181 193.793C112.373 193.096 112.416 192.366 112.306 191.651C112.197 190.936 111.937 190.253 111.545 189.645C111.153 189.038 110.637 188.52 110.031 188.125C109.425 187.731 108.743 187.469 108.029 187.357C103.724 186.775 98.4369 192.547 96.776 196.035C96.6791 196.229 95.9732 198.263 95.475 199.758C95.5718 198.845 95.6687 197.917 95.7933 196.99C96.2362 193.737 96.8314 190.789 97.385 188.173C97.7172 186.692 98.0355 185.405 98.3539 184.118C99.738 183.426 105.164 180.588 107.032 178.277C108.901 175.965 110.534 172.657 109.8 169.682C109.648 168.965 109.344 168.29 108.909 167.701C108.474 167.111 107.918 166.622 107.278 166.266C106.638 165.909 105.93 165.693 105.2 165.633C104.47 165.573 103.735 165.67 103.046 165.917Z" fill="#A8C879"/>
<path d="M24.5952 232.824C27.9863 232.686 34.7684 229.198 34.7822 229.198C34.7961 229.198 31.1282 225.433 30.8652 225.212C27.834 222.803 20.5537 219.91 16.9412 222.319C16.3524 222.734 15.8576 223.268 15.4889 223.887C15.1201 224.506 14.8857 225.195 14.8009 225.911C14.716 226.626 14.7826 227.351 14.9964 228.039C15.2101 228.727 15.5662 229.362 16.0415 229.904C17.9931 232.27 21.744 232.935 24.5952 232.824Z" fill="#A8C879"/>
<g opacity="0.5">
<path d="M94.6451 200.685C94.7281 200.685 93.69 195.523 93.5793 195.149C92.389 191.467 87.9183 185.045 83.5723 185.045C82.8513 185.068 82.1431 185.241 81.4936 185.555C80.8441 185.869 80.2678 186.315 79.8019 186.866C79.336 187.417 78.9911 188.059 78.7894 188.752C78.5877 189.444 78.5337 190.171 78.631 190.886C78.9494 193.931 81.6899 196.533 84.1674 198.028C87.074 199.841 94.6451 200.685 94.6451 200.685Z" fill="white"/>
<path d="M103.046 165.917C98.9629 167.384 96.9421 174.941 97.0667 178.817C97.0667 179.149 97.8418 184.353 97.9248 184.353H98.0079C97.6757 185.543 97.3297 186.817 96.9836 188.229C96.3746 190.831 95.7103 193.765 95.1981 197.031C94.6044 200.53 94.2161 204.061 94.0355 207.606C93.8217 211.578 93.956 215.561 94.4369 219.509C94.4421 219.555 94.4421 219.602 94.4369 219.648C93.9109 218.499 92.3054 215.329 92.1531 215.094C90.0216 211.855 84.0146 206.789 79.8208 207.993C79.1335 208.205 78.4983 208.559 77.9565 209.032C77.4147 209.505 76.9783 210.087 76.6755 210.739C76.3728 211.392 76.2105 212.1 76.1992 212.82C76.1878 213.539 76.3277 214.252 76.6097 214.914C77.717 217.779 81.0388 219.551 83.8208 220.353C86.9628 221.239 93.9663 220.187 94.5199 220.104C95.12 224.105 95.98 228.063 97.0944 231.952C97.7449 234.222 98.4785 236.492 99.1982 238.748C98.7138 237.765 98.257 236.893 98.1878 236.783C96.0563 233.544 90.0493 228.478 85.8555 229.682C85.1681 229.894 84.533 230.248 83.9912 230.721C83.4493 231.194 83.0129 231.776 82.7102 232.428C82.4075 233.081 82.2452 233.789 82.2338 234.508C82.2225 235.228 82.3624 235.941 82.6444 236.603C83.7516 239.454 87.0735 241.24 89.8555 242.028C92.6376 242.817 98.6722 242.028 100.25 241.835C100.541 242.693 100.831 243.565 101.136 244.423C102.52 248.575 104.015 252.728 105.288 256.797C105.745 258.181 106.133 259.676 106.534 261.115C106.105 260.243 105.717 259.51 105.648 259.413C103.53 256.16 97.5096 251.108 93.3296 252.312C92.6411 252.523 92.0044 252.876 91.4611 253.348C90.9177 253.82 90.4798 254.402 90.1757 255.054C89.8715 255.707 89.7081 256.416 89.6958 257.136C89.6836 257.856 89.8229 258.57 90.1047 259.233C91.2119 262.084 94.5476 263.87 97.3297 264.658C100.112 265.447 105.551 264.755 107.434 264.492C107.807 265.973 108.181 267.468 108.472 268.921C108.638 269.918 108.873 270.859 108.998 271.883L109.413 274.845C109.607 276.742 109.828 278.693 109.966 280.548C110.077 281.849 110.16 283.081 110.243 284.313C109.814 282.929 108.859 280.064 108.859 279.842C107.327 276.797 105.04 274.195 102.216 272.285C102.058 271.938 101.873 271.605 101.662 271.288C101.267 270.685 100.75 270.171 100.144 269.78C99.5386 269.389 98.8574 269.13 98.145 269.019C97.4326 268.908 96.7048 268.948 96.0088 269.136C95.3128 269.325 94.6641 269.657 94.1047 270.112C90.8244 272.949 91.641 280.728 93.1497 284.299C93.2327 284.506 94.5338 286.693 95.2535 288.05L93.4957 285.863C92.2777 284.382 91.032 282.942 89.7033 281.392C89.0205 280.673 88.3422 279.939 87.6686 279.192C87.0043 278.444 86.2153 277.738 85.4818 276.991C83.7378 275.316 81.897 273.697 79.9454 272.119C81.2464 271.053 85.7724 267.233 87.0735 264.631C88.3745 262.029 89.3019 258.389 87.9455 255.634C87.6473 254.979 87.2147 254.394 86.6758 253.916C86.1368 253.439 85.5035 253.081 84.817 252.864C84.1305 252.647 83.4061 252.577 82.6908 252.659C81.9755 252.74 81.2854 252.971 80.6651 253.337C76.9834 255.634 76.6097 263.454 77.5647 267.178C77.5647 267.413 78.6166 270.043 79.1841 271.468C78.0353 270.513 76.9003 269.572 75.71 268.7C72.2775 266.056 68.7895 263.482 65.1909 260.894L61.9659 258.499C62.4227 258.126 67.9037 253.696 69.3709 250.776C70.6719 248.188 71.5993 244.534 70.2428 241.793C69.9462 241.135 69.5141 240.546 68.9747 240.066C68.4352 239.586 67.8006 239.226 67.1123 239.007C66.4239 238.789 65.6973 238.719 64.9799 238.801C64.2624 238.882 63.5703 239.114 62.9486 239.482C59.2808 241.793 58.9071 249.599 59.8621 253.323C59.9313 253.6 61.3569 257.364 61.7721 258.305C59.4053 256.548 57.0662 254.776 54.8516 252.935C51.8227 250.455 48.9563 247.783 46.2702 244.935C46.4778 244.769 52.2219 240.16 53.7167 237.184C55.0177 234.596 55.9451 230.942 54.5887 228.187C54.289 227.535 53.856 226.953 53.3175 226.479C52.779 226.004 52.147 225.648 51.4623 225.433C50.7776 225.218 50.0554 225.148 49.3423 225.229C48.6292 225.311 47.941 225.54 47.3222 225.904C43.6404 228.215 43.2806 236.035 44.2218 239.745C44.291 239.994 45.3706 242.873 45.9242 244.215L45.7166 244.354C43.0873 241.414 40.725 238.246 38.6577 234.886C37.5089 233.059 36.4985 231.232 35.5573 229.447C36.7199 228.7 41.9657 225.295 43.6128 222.693C45.2598 220.09 46.5194 216.727 45.4675 213.848C45.2423 213.172 44.8788 212.55 44.4001 212.022C43.9214 211.494 43.338 211.071 42.687 210.781C42.0361 210.49 41.3318 210.339 40.619 210.335C39.9062 210.332 39.2006 210.477 38.547 210.762C34.6438 212.644 33.4119 220.45 33.9517 224.215C33.9517 224.423 34.5054 226.513 34.9206 228.021C34.5054 227.219 34.0625 226.374 33.6888 225.585C32.3047 222.637 31.1282 219.841 30.1593 217.364C29.6195 215.98 29.1489 214.596 28.7752 213.433C29.5226 212.118 32.4984 206.734 32.7753 203.744C33.0521 200.755 32.6092 197.114 30.3531 195.038C29.8382 194.532 29.2227 194.14 28.5465 193.888C27.8703 193.635 27.1486 193.528 26.4282 193.572C25.7077 193.616 25.0047 193.812 24.3646 194.145C23.7245 194.479 23.1618 194.944 22.7129 195.509C20.1246 198.983 22.6021 206.416 24.8444 209.571C25.0381 209.848 28.5538 213.724 28.5953 213.724V213.641C28.9828 214.817 29.3981 216.063 29.8963 217.433C30.8237 219.938 31.8894 222.762 33.2597 225.738C34.6975 228.986 36.3243 232.147 38.1317 235.205C40.1472 238.633 42.4631 241.875 45.0522 244.894L45.1491 244.99C44.0695 244.326 40.9968 242.568 40.7338 242.458C37.1767 240.921 29.3842 240.063 26.533 243.33C26.0747 243.886 25.7389 244.533 25.5473 245.229C25.3557 245.924 25.3127 246.652 25.4211 247.364C25.5295 248.077 25.7868 248.759 26.1763 249.366C26.5658 249.973 27.0788 250.491 27.6818 250.887C30.1732 252.658 33.9379 252.271 36.6923 251.44C39.8065 250.458 44.9969 245.71 45.4813 245.336C48.1886 248.344 51.0923 251.17 54.1734 253.793C55.9589 255.33 57.7998 256.824 59.7098 258.305C58.7548 257.766 57.8967 257.281 57.7721 257.226C54.215 255.69 46.4363 254.831 43.5851 258.098C43.1241 258.653 42.7855 259.299 42.5917 259.994C42.3978 260.689 42.353 261.417 42.4601 262.131C42.5673 262.844 42.824 263.527 43.2135 264.134C43.6029 264.742 44.1163 265.26 44.72 265.655C47.2253 267.427 50.9762 267.039 53.7444 266.209C56.5126 265.378 61.0939 261.364 62.2981 260.299L64.4573 261.987C67.9452 264.658 71.3778 267.302 74.7688 270.001C75.9453 270.956 77.0664 271.925 78.2014 272.908C77.3571 272.423 76.6374 272.022 76.5128 271.967C72.9557 270.444 65.177 269.572 62.3258 272.852C61.8648 273.407 61.5262 274.054 61.3324 274.749C61.1385 275.444 61.0937 276.172 61.2009 276.885C61.308 277.599 61.5647 278.281 61.9542 278.889C62.3436 279.496 62.857 280.014 63.4607 280.41C65.966 282.181 69.7169 281.794 72.4851 280.949C75.2533 280.105 79.4056 276.493 80.7897 275.247C81.9108 276.271 83.0458 277.309 84.0977 278.361C84.7897 279.095 85.4818 279.745 86.1738 280.534L88.1531 282.79C89.3711 284.257 90.6168 285.766 91.7656 287.233C92.5684 288.257 93.3158 289.24 94.077 290.223C92.9144 289.268 90.6029 287.455 90.3815 287.302C87.1012 285.24 79.544 283.219 76.2221 286.015C75.686 286.497 75.2573 287.086 74.9638 287.744C74.6703 288.402 74.5186 289.115 74.5186 289.835C74.5186 290.556 74.6703 291.268 74.9638 291.927C75.2573 292.585 75.686 293.174 76.2221 293.655C78.4229 295.787 82.1876 296.008 85.0527 295.565C88.1946 295.081 93.8971 291.413 94.603 290.901C95.8487 292.534 97.039 294.14 98.1463 295.662C101.98 300.963 104.97 305.531 107.018 308.742L107.226 309.074L109.883 307.787L109.468 307.15C107.323 303.953 104.209 299.413 100.209 294.14C98.9629 292.465 97.5788 290.721 96.1532 288.922C97.6339 287.305 99.0203 285.604 100.305 283.828C103.35 285.019 109.704 285.06 110.52 285.06C110.659 287.122 110.769 289.116 110.838 290.998C111.115 297.545 111.088 302.998 111.032 306.804C111.032 306.957 111.032 307.095 111.032 307.247L113.953 305.863C113.953 302.071 113.8 296.95 113.427 290.887C113.288 288.811 113.108 286.583 112.915 284.299C113.717 284.105 120.32 282.403 122.811 280.41C125.081 278.61 127.462 275.676 127.378 272.617C127.384 271.896 127.238 271.182 126.949 270.522C126.66 269.861 126.236 269.269 125.703 268.783C125.171 268.297 124.542 267.929 123.857 267.703C123.173 267.476 122.449 267.396 121.731 267.468C117.413 268.022 113.814 274.956 113.108 278.776C113.108 278.998 112.873 281.545 112.79 283.053C112.707 282.126 112.624 281.226 112.527 280.285C112.333 278.389 112.084 276.506 111.835 274.472C111.669 273.503 111.503 272.506 111.351 271.51C111.198 270.513 110.935 269.489 110.728 268.479C110.202 266.112 109.565 263.745 108.859 261.378C110.52 261.212 116.416 260.52 118.935 259.067C121.455 257.613 124.237 255.094 124.624 252.049C124.738 251.338 124.7 250.611 124.515 249.915C124.329 249.219 123.999 248.57 123.546 248.01C123.093 247.45 122.527 246.992 121.886 246.665C121.244 246.338 120.541 246.149 119.821 246.112C115.475 246.001 110.852 252.312 109.579 255.98C109.496 256.202 108.873 258.928 108.569 260.437C108.126 259.053 107.71 257.6 107.184 256.174C105.8 252.022 104.236 247.966 102.714 243.855L101.33 240.077C101.925 240.077 108.942 239.357 111.766 237.724C114.271 236.34 117.067 233.752 117.454 230.707C117.57 229.995 117.535 229.267 117.35 228.57C117.165 227.873 116.835 227.224 116.382 226.663C115.928 226.103 115.362 225.644 114.719 225.318C114.076 224.991 113.372 224.804 112.652 224.769C108.306 224.658 103.683 230.983 102.409 234.637C102.312 234.914 101.427 238.79 101.247 239.855C100.25 237.087 99.2812 234.319 98.4785 231.551C97.3225 227.81 96.398 224.001 95.7103 220.146C95.9871 220.146 103.323 219.454 106.216 217.793C108.721 216.34 111.517 213.807 111.904 210.762C112.018 210.049 111.98 209.321 111.794 208.624C111.607 207.927 111.276 207.278 110.821 206.718C110.367 206.157 109.799 205.699 109.156 205.373C108.513 205.047 107.808 204.86 107.088 204.824C102.755 204.713 98.1324 211.038 96.8591 214.692C96.776 214.928 96.0978 217.931 95.8072 219.357H95.558C94.9863 215.458 94.764 211.516 94.8936 207.578C94.8936 205.419 95.1013 203.343 95.3089 201.336C96.693 201.336 102.991 201.336 105.759 200.146C108.527 198.955 111.461 196.768 112.181 193.793C112.373 193.096 112.416 192.366 112.306 191.651C112.197 190.936 111.937 190.253 111.545 189.645C111.153 189.038 110.637 188.52 110.031 188.125C109.425 187.731 108.743 187.469 108.029 187.357C103.724 186.775 98.4369 192.547 96.776 196.035C96.6791 196.229 95.9732 198.263 95.475 199.758C95.5718 198.845 95.6687 197.917 95.7933 196.99C96.2362 193.737 96.8314 190.789 97.385 188.173C97.7172 186.692 98.0355 185.405 98.3539 184.118C99.738 183.426 105.164 180.588 107.032 178.277C108.901 175.965 110.534 172.657 109.8 169.682C109.648 168.965 109.344 168.29 108.909 167.701C108.474 167.111 107.918 166.622 107.278 166.266C106.638 165.909 105.93 165.693 105.2 165.633C104.47 165.573 103.735 165.67 103.046 165.917Z" fill="white"/>
<path d="M24.5952 232.824C27.9863 232.686 34.7684 229.198 34.7822 229.198C34.7961 229.198 31.1282 225.433 30.8652 225.212C27.834 222.803 20.5537 219.91 16.9412 222.319C16.3524 222.734 15.8576 223.268 15.4889 223.887C15.1201 224.506 14.8857 225.195 14.8009 225.911C14.716 226.626 14.7826 227.351 14.9964 228.039C15.2101 228.727 15.5662 229.362 16.0415 229.904C17.9931 232.27 21.744 232.935 24.5952 232.824Z" fill="white"/>
</g>
<path d="M64.1945 317.739C64.1945 317.739 84.7761 268.133 96.2918 270.292C107.808 272.451 76.5407 349.379 76.5407 349.379C76.5407 349.379 112.749 281.074 137.441 281.074C162.133 281.074 128.389 356.563 97.1223 381.726C97.1223 381.726 146.493 328.521 175.31 340.037C204.127 351.553 117.69 405.463 117.69 405.463C117.69 405.463 167.891 389.643 162.133 401.865C156.376 414.086 140.777 416.245 140.777 416.245L197.525 419.124H0L44.4434 414.806C44.4434 414.806 -1.64708 391.802 10.6714 382.446C22.9899 373.089 50.1736 393.228 50.1736 393.228C50.1736 393.228 3.26647 341.462 12.3185 322.057C21.3705 302.652 61.7032 357.283 61.7032 357.283C61.7032 357.283 28.7754 287.552 35.4053 275.316C42.0351 263.081 64.1945 317.739 64.1945 317.739Z" fill="#A8C879"/>
<path opacity="0.4" d="M64.1945 317.739C64.1945 317.739 84.7761 268.133 96.2918 270.292C107.808 272.451 76.5407 349.379 76.5407 349.379C76.5407 349.379 112.749 281.074 137.441 281.074C162.133 281.074 128.389 356.563 97.1223 381.726C97.1223 381.726 146.493 328.521 175.31 340.037C204.127 351.553 117.69 405.463 117.69 405.463C117.69 405.463 167.891 389.643 162.133 401.865C156.376 414.086 140.777 416.245 140.777 416.245L197.525 419.124H0L44.4434 414.806C44.4434 414.806 -1.64708 391.802 10.6714 382.446C22.9899 373.089 50.1736 393.228 50.1736 393.228C50.1736 393.228 3.26647 341.462 12.3185 322.057C21.3705 302.652 61.7032 357.283 61.7032 357.283C61.7032 357.283 28.7754 287.552 35.4053 275.316C42.0351 263.081 64.1945 317.739 64.1945 317.739Z" fill="white"/>
<path d="M57.6199 320.355C75.724 373.85 75.724 411.705 75.724 411.705C75.724 411.705 54.3258 412.536 32.0972 396.079" stroke="#105C0A" stroke-linecap="round" stroke-linejoin="round"/>
<path d="M66.6723 349.158C70.3985 333.165 75.3498 317.483 81.4822 302.25" stroke="#105C0A" stroke-linecap="round" stroke-linejoin="round"/>
<path d="M120.167 317.891L74.0769 386.196C74.0769 386.196 42.7962 359.898 32.0972 345.047" stroke="#105C0A" stroke-linecap="round" stroke-linejoin="round"/>
<path d="M74.8935 402.653C74.8935 402.653 123.448 379.608 143.213 366.445" stroke="#105C0A" stroke-linecap="round" stroke-linejoin="round"/>
<path d="M479.355 200.685C479.272 200.685 480.324 195.523 480.421 195.149C481.611 191.467 486.096 185.045 490.428 185.045C491.149 185.068 491.857 185.241 492.507 185.555C493.156 185.869 493.732 186.315 494.198 186.866C494.664 187.417 495.009 188.059 495.211 188.752C495.413 189.444 495.466 190.171 495.369 190.886C495.051 193.931 492.31 196.533 489.833 198.028C486.926 199.841 479.355 200.685 479.355 200.685Z" fill="#A8C879"/>
<path d="M470.954 165.917C475.037 167.384 477.071 174.941 476.933 178.817C476.933 179.149 476.158 184.353 476.089 184.353H476.006C476.324 185.544 476.67 186.817 477.016 188.229C477.625 190.831 478.289 193.765 478.801 197.032C479.395 200.531 479.783 204.062 479.964 207.606C480.185 211.578 480.05 215.562 479.563 219.509C479.557 219.555 479.557 219.602 479.563 219.648C480.102 218.499 481.708 215.329 481.846 215.094C483.978 211.855 489.985 206.79 494.179 207.994C494.867 208.204 495.504 208.557 496.047 209.029C496.59 209.502 497.027 210.084 497.33 210.737C497.633 211.39 497.795 212.099 497.805 212.819C497.816 213.539 497.674 214.253 497.39 214.914C496.283 217.779 492.961 219.551 490.179 220.354C487.037 221.24 480.033 220.188 479.48 220.105C478.886 224.107 478.026 228.065 476.905 231.952C476.259 234.222 475.558 236.488 474.801 238.748C475.286 237.766 475.743 236.894 475.812 236.783C477.943 233.544 483.964 228.478 488.144 229.683C488.833 229.893 489.469 230.245 490.012 230.718C490.555 231.191 490.993 231.772 491.296 232.425C491.599 233.079 491.761 233.788 491.771 234.508C491.781 235.228 491.639 235.942 491.355 236.603C490.248 239.454 486.926 241.24 484.144 242.029C481.362 242.818 475.327 242.029 473.749 241.835L472.877 244.423C471.493 248.576 469.985 252.728 468.725 256.797C468.268 258.181 467.867 259.676 467.466 261.115C467.909 260.243 468.282 259.51 468.351 259.413C470.483 256.16 476.49 251.108 480.67 252.313C481.359 252.523 481.995 252.876 482.539 253.348C483.082 253.821 483.52 254.402 483.824 255.055C484.128 255.707 484.291 256.416 484.304 257.136C484.316 257.856 484.177 258.571 483.895 259.233C482.788 262.084 479.452 263.87 476.67 264.659C473.888 265.448 468.448 264.756 466.566 264.493C466.192 265.974 465.832 267.468 465.542 268.922C465.362 269.918 465.127 270.86 465.002 271.884L464.587 274.846C464.393 276.742 464.171 278.694 464.033 280.548C463.922 281.849 463.839 283.081 463.756 284.313C464.199 282.929 465.14 280.064 465.21 279.842C466.746 276.8 469.033 274.199 471.853 272.285C472.01 271.935 472.2 271.602 472.421 271.289C472.813 270.684 473.328 270.169 473.932 269.777C474.537 269.385 475.217 269.125 475.929 269.014C476.641 268.902 477.369 268.943 478.064 269.132C478.759 269.322 479.407 269.655 479.964 270.112C483.258 272.95 482.428 280.728 480.919 284.299C480.836 284.507 479.604 286.694 478.815 288.05C479.41 287.316 479.964 286.666 480.587 285.863C481.791 284.382 483.037 282.943 484.365 281.393L486.4 279.192C487.064 278.444 487.867 277.739 488.601 276.991C490.331 275.316 492.172 273.697 494.068 272.119C492.781 271.053 488.241 267.233 486.94 264.631C485.639 262.029 484.712 258.389 486.068 255.634C486.366 254.977 486.799 254.39 487.339 253.912C487.879 253.433 488.514 253.074 489.202 252.857C489.89 252.64 490.616 252.571 491.333 252.654C492.05 252.736 492.741 252.969 493.362 253.337C497.03 255.634 497.404 263.455 496.449 267.178C496.449 267.413 495.397 270.043 494.829 271.469C495.978 270.514 497.113 269.572 498.303 268.7C501.736 266.057 505.293 263.482 508.823 260.894L512.047 258.5C511.591 258.126 506.11 253.697 504.643 250.776C503.355 248.188 502.414 244.534 503.771 241.793C504.067 241.135 504.499 240.547 505.039 240.067C505.578 239.587 506.213 239.226 506.901 239.008C507.59 238.79 508.316 238.719 509.034 238.801C509.751 238.883 510.443 239.115 511.065 239.482C514.746 241.793 515.106 249.6 514.151 253.323C514.082 253.6 512.657 257.365 512.255 258.306C514.608 256.548 516.947 254.776 519.176 252.935C522.205 250.455 525.071 247.783 527.757 244.935C527.549 244.769 521.805 240.16 520.311 237.184C519.009 234.596 518.082 230.942 519.439 228.188C519.735 227.531 520.167 226.945 520.705 226.466C521.244 225.987 521.877 225.627 522.564 225.409C523.25 225.191 523.975 225.12 524.691 225.201C525.407 225.281 526.098 225.511 526.719 225.876C530.401 228.188 530.774 236.008 529.819 239.717C529.75 239.966 528.67 242.845 528.131 244.188C528.194 244.242 528.264 244.288 528.338 244.326C530.964 241.386 533.321 238.218 535.383 234.859C536.546 233.032 537.543 231.205 538.484 229.42C537.321 228.672 532.075 225.267 530.428 222.665C528.781 220.063 527.536 216.7 528.574 213.821C528.798 213.136 529.163 212.506 529.647 211.971C530.13 211.437 530.721 211.01 531.38 210.719C532.04 210.428 532.753 210.279 533.473 210.281C534.194 210.284 534.906 210.438 535.563 210.734C539.48 212.617 540.698 220.423 540.159 224.188C540.159 224.395 539.605 226.485 539.203 227.994C539.605 227.191 540.048 226.347 540.422 225.558C541.806 222.61 542.982 219.814 543.951 217.336C544.505 215.952 544.961 214.568 545.335 213.406C544.574 212.091 541.612 206.707 541.321 203.717C541.031 200.727 541.501 197.087 543.757 195.011C544.271 194.505 544.885 194.114 545.56 193.861C546.235 193.609 546.956 193.501 547.675 193.546C548.395 193.59 549.097 193.785 549.736 194.119C550.374 194.452 550.936 194.917 551.384 195.481C553.986 198.956 551.508 206.388 549.266 209.544C549.072 209.821 545.543 213.696 545.501 213.696V213.613C545.114 214.79 544.698 216.035 544.2 217.406C543.287 219.911 542.221 222.734 540.851 225.71C539.402 228.956 537.771 232.117 535.965 235.177C533.949 238.606 531.633 241.848 529.044 244.866L528.947 244.963C530.027 244.299 533.1 242.541 533.363 242.43C536.934 240.894 544.712 240.036 547.563 243.302C548.022 243.858 548.359 244.504 548.552 245.199C548.744 245.894 548.789 246.621 548.682 247.334C548.575 248.047 548.319 248.729 547.93 249.336C547.542 249.944 547.03 250.463 546.428 250.859C543.923 252.631 540.172 252.243 537.404 251.413C534.29 250.43 529.1 245.683 528.629 245.309C525.922 248.317 523.018 251.142 519.937 253.766C518.151 255.302 516.297 256.797 514.4 258.278C515.355 257.738 516.214 257.254 516.338 257.198C519.895 255.662 527.674 254.804 530.525 258.07C530.986 258.625 531.325 259.272 531.519 259.967C531.712 260.662 531.757 261.39 531.65 262.103C531.543 262.817 531.286 263.5 530.897 264.107C530.507 264.714 529.994 265.233 529.39 265.628C526.899 267.399 523.134 267.012 520.38 266.181C517.625 265.351 513.016 261.337 511.826 260.271C511.092 260.839 510.442 261.406 509.653 261.96C506.179 264.631 502.732 267.275 499.341 269.974C498.165 270.929 497.044 271.898 495.909 272.88L497.597 271.939C501.155 270.417 508.933 269.545 511.784 272.825C512.245 273.38 512.584 274.026 512.778 274.721C512.972 275.416 513.017 276.144 512.909 276.858C512.802 277.571 512.546 278.254 512.156 278.861C511.767 279.469 511.253 279.987 510.65 280.382C508.144 282.154 504.393 281.766 501.639 280.922C498.885 280.078 494.719 276.465 493.334 275.219C492.213 276.244 491.078 277.282 490.04 278.334C489.334 279.067 488.656 279.718 487.964 280.507L485.971 282.763C484.767 284.23 483.507 285.739 482.359 287.206C481.556 288.23 480.808 289.213 480.061 290.195C481.21 289.24 483.535 287.427 483.743 287.275C487.023 285.213 494.594 283.192 497.902 285.988C498.438 286.469 498.867 287.058 499.16 287.716C499.454 288.375 499.606 289.087 499.606 289.808C499.606 290.529 499.454 291.241 499.16 291.899C498.867 292.557 498.438 293.146 497.902 293.628C495.687 295.759 491.923 295.981 489.071 295.538C485.916 295.054 480.213 291.386 479.507 290.874C478.262 292.507 477.071 294.112 475.964 295.635C472.13 300.936 469.14 305.504 467.092 308.715C467.092 308.839 466.954 308.936 466.884 309.047L464.227 307.76L464.642 307.123C466.787 303.926 469.915 299.386 473.902 294.112C475.161 292.438 476.531 290.694 477.957 288.894C476.473 287.28 475.087 285.579 473.805 283.801C470.746 284.991 464.407 285.033 463.576 285.033C463.452 287.095 463.341 289.088 463.258 290.971C462.981 297.517 463.009 302.971 463.078 306.777V307.22L460.158 305.836C460.158 302.043 460.31 296.922 460.697 290.86C460.822 288.784 461.002 286.555 461.21 284.271C460.393 284.078 453.791 282.375 451.299 280.382C449.043 278.583 446.663 275.649 446.746 272.59C446.738 271.868 446.883 271.153 447.171 270.492C447.459 269.83 447.883 269.237 448.416 268.751C448.949 268.264 449.579 267.896 450.265 267.671C450.95 267.445 451.675 267.367 452.393 267.441C456.697 267.994 460.31 274.929 461.016 278.749C461.016 278.97 461.237 281.517 461.32 283.026C461.417 282.098 461.486 281.199 461.597 280.258C461.777 278.361 462.026 276.479 462.289 274.444C462.441 273.475 462.607 272.479 462.76 271.482C462.912 270.486 463.175 269.462 463.383 268.451C463.908 266.084 464.545 263.718 465.251 261.351C463.59 261.185 457.708 260.493 455.175 259.039C452.642 257.586 449.874 255.067 449.5 252.022C449.384 251.31 449.42 250.582 449.605 249.886C449.79 249.189 450.12 248.539 450.573 247.978C451.026 247.418 451.593 246.96 452.236 246.633C452.878 246.307 453.583 246.12 454.303 246.084C458.635 245.973 463.258 252.285 464.531 255.953C464.614 256.174 465.237 258.901 465.542 260.41C465.985 259.025 466.4 257.572 466.926 256.147C468.31 251.994 469.874 247.939 471.396 243.828C471.867 242.569 472.31 241.309 472.781 240.049C472.185 240.049 465.168 239.33 462.344 237.696C459.839 236.312 457.043 233.724 456.656 230.679C456.542 229.968 456.58 229.241 456.765 228.545C456.951 227.849 457.281 227.2 457.734 226.64C458.187 226.08 458.753 225.622 459.394 225.294C460.036 224.967 460.739 224.779 461.459 224.741C465.805 224.631 470.428 230.956 471.701 234.61C471.798 234.887 472.684 238.762 472.864 239.828C473.86 237.06 474.843 234.292 475.632 231.523C476.801 227.786 477.725 223.976 478.4 220.118C478.123 220.118 470.801 219.426 467.909 217.765C465.389 216.312 462.594 213.779 462.22 210.734C462.104 210.023 462.14 209.295 462.325 208.598C462.51 207.901 462.839 207.251 463.293 206.691C463.746 206.13 464.313 205.672 464.956 205.345C465.598 205.019 466.303 204.832 467.023 204.796C471.355 204.686 475.978 211.011 477.251 214.665C477.334 214.9 478.026 217.904 478.317 219.33H478.552C479.124 215.431 479.346 211.489 479.217 207.551C479.217 205.392 479.009 203.315 478.801 201.309C477.417 201.309 471.133 201.309 468.365 200.118C465.597 198.928 462.649 196.741 461.929 193.765C461.737 193.068 461.695 192.338 461.804 191.624C461.914 190.909 462.173 190.225 462.565 189.618C462.957 189.01 463.473 188.492 464.079 188.098C464.685 187.704 465.367 187.442 466.082 187.329C470.386 186.748 475.673 192.519 477.348 196.007C477.431 196.201 478.151 198.236 478.635 199.731C478.538 198.817 478.442 197.89 478.317 196.962C477.888 193.71 477.279 190.762 476.725 188.146C476.393 186.665 476.075 185.378 475.756 184.09C474.372 183.398 468.947 180.561 467.092 178.249C465.237 175.938 463.576 172.63 464.324 169.654C464.482 168.955 464.785 168.297 465.214 167.722C465.642 167.147 466.186 166.668 466.81 166.316C467.435 165.964 468.126 165.747 468.84 165.678C469.553 165.609 470.273 165.691 470.954 165.917Z" fill="#A8C879"/>
<path d="M549.405 232.824C546.014 232.686 539.232 229.198 539.232 229.198C539.232 229.198 542.872 225.433 543.135 225.212C546.167 222.803 553.447 219.91 557.06 222.319C557.65 222.732 558.147 223.266 558.517 223.885C558.887 224.504 559.122 225.194 559.207 225.91C559.292 226.626 559.224 227.352 559.009 228.04C558.794 228.728 558.437 229.363 557.959 229.904C556.008 232.27 552.298 232.935 549.405 232.824Z" fill="#A8C879"/>
<g opacity="0.5">
<path d="M479.356 200.685C479.273 200.685 480.325 195.523 480.422 195.149C481.612 191.467 486.097 185.045 490.429 185.045C491.15 185.068 491.858 185.241 492.508 185.555C493.157 185.869 493.733 186.315 494.199 186.866C494.665 187.417 495.01 188.059 495.212 188.752C495.414 189.444 495.467 190.171 495.37 190.886C495.052 193.931 492.311 196.533 489.834 198.028C486.927 199.841 479.356 200.685 479.356 200.685Z" fill="white"/>
<path d="M470.954 165.917C475.037 167.384 477.071 174.941 476.933 178.817C476.933 179.149 476.158 184.353 476.089 184.353H476.006C476.324 185.544 476.67 186.817 477.016 188.229C477.625 190.831 478.289 193.765 478.801 197.032C479.395 200.531 479.783 204.062 479.964 207.606C480.185 211.578 480.05 215.562 479.563 219.509C479.557 219.555 479.557 219.602 479.563 219.648C480.102 218.499 481.708 215.329 481.846 215.094C483.978 211.855 489.985 206.79 494.179 207.994C494.867 208.204 495.504 208.557 496.047 209.029C496.59 209.502 497.027 210.084 497.33 210.737C497.633 211.39 497.795 212.099 497.805 212.819C497.816 213.539 497.674 214.253 497.39 214.914C496.283 217.779 492.961 219.551 490.179 220.354C487.037 221.24 480.033 220.188 479.48 220.105C478.886 224.107 478.026 228.065 476.905 231.952C476.259 234.222 475.558 236.488 474.801 238.748C475.286 237.766 475.743 236.894 475.812 236.783C477.943 233.544 483.964 228.478 488.144 229.683C488.833 229.893 489.469 230.245 490.012 230.718C490.555 231.191 490.993 231.772 491.296 232.425C491.599 233.079 491.761 233.788 491.771 234.508C491.781 235.228 491.639 235.942 491.355 236.603C490.248 239.454 486.926 241.24 484.144 242.029C481.362 242.818 475.327 242.029 473.749 241.835L472.877 244.423C471.493 248.576 469.985 252.728 468.725 256.797C468.268 258.181 467.867 259.676 467.466 261.115C467.909 260.243 468.282 259.51 468.351 259.413C470.483 256.16 476.49 251.108 480.67 252.313C481.359 252.523 481.995 252.876 482.539 253.348C483.082 253.821 483.52 254.402 483.824 255.055C484.128 255.707 484.291 256.416 484.304 257.136C484.316 257.856 484.177 258.571 483.895 259.233C482.788 262.084 479.452 263.87 476.67 264.659C473.888 265.448 468.448 264.756 466.566 264.493C466.192 265.974 465.832 267.468 465.542 268.922C465.362 269.918 465.127 270.86 465.002 271.884L464.587 274.846C464.393 276.742 464.171 278.694 464.033 280.548C463.922 281.849 463.839 283.081 463.756 284.313C464.199 282.929 465.14 280.064 465.21 279.842C466.746 276.8 469.033 274.199 471.853 272.285C472.01 271.935 472.2 271.602 472.421 271.289C472.813 270.684 473.328 270.169 473.932 269.777C474.537 269.385 475.217 269.125 475.929 269.014C476.641 268.902 477.369 268.943 478.064 269.132C478.759 269.322 479.407 269.655 479.964 270.112C483.258 272.95 482.428 280.728 480.919 284.299C480.836 284.507 479.604 286.694 478.815 288.05C479.41 287.316 479.964 286.666 480.587 285.863C481.791 284.382 483.037 282.943 484.365 281.393L486.4 279.192C487.064 278.444 487.867 277.739 488.601 276.991C490.331 275.316 492.172 273.697 494.068 272.119C492.781 271.053 488.241 267.233 486.94 264.631C485.639 262.029 484.712 258.389 486.068 255.634C486.366 254.977 486.799 254.39 487.339 253.912C487.879 253.433 488.514 253.074 489.202 252.857C489.89 252.64 490.616 252.571 491.333 252.654C492.05 252.736 492.741 252.969 493.362 253.337C497.03 255.634 497.404 263.455 496.449 267.178C496.449 267.413 495.397 270.043 494.829 271.469C495.978 270.514 497.113 269.572 498.303 268.7C501.736 266.057 505.293 263.482 508.823 260.894L512.047 258.5C511.591 258.126 506.11 253.697 504.643 250.776C503.355 248.188 502.414 244.534 503.771 241.793C504.067 241.135 504.499 240.547 505.039 240.067C505.578 239.587 506.213 239.226 506.901 239.008C507.59 238.79 508.316 238.719 509.034 238.801C509.751 238.883 510.443 239.115 511.065 239.482C514.746 241.793 515.106 249.6 514.151 253.323C514.082 253.6 512.657 257.365 512.255 258.306C514.608 256.548 516.947 254.776 519.176 252.935C522.205 250.455 525.071 247.783 527.757 244.935C527.549 244.769 521.805 240.16 520.311 237.184C519.009 234.596 518.082 230.942 519.439 228.188C519.735 227.531 520.167 226.945 520.705 226.466C521.244 225.987 521.877 225.627 522.564 225.409C523.25 225.191 523.975 225.12 524.691 225.201C525.407 225.281 526.098 225.511 526.719 225.876C530.401 228.188 530.774 236.008 529.819 239.717C529.75 239.966 528.67 242.845 528.131 244.188C528.194 244.242 528.264 244.288 528.338 244.326C530.964 241.386 533.321 238.218 535.383 234.859C536.546 233.032 537.543 231.205 538.484 229.42C537.321 228.672 532.075 225.267 530.428 222.665C528.781 220.063 527.536 216.7 528.574 213.821C528.798 213.136 529.163 212.506 529.647 211.971C530.13 211.437 530.721 211.01 531.38 210.719C532.04 210.428 532.753 210.279 533.473 210.281C534.194 210.284 534.906 210.438 535.563 210.734C539.48 212.617 540.698 220.423 540.159 224.188C540.159 224.395 539.605 226.485 539.203 227.994C539.605 227.191 540.048 226.347 540.422 225.558C541.806 222.61 542.982 219.814 543.951 217.336C544.505 215.952 544.961 214.568 545.335 213.406C544.574 212.091 541.612 206.707 541.321 203.717C541.031 200.727 541.501 197.087 543.757 195.011C544.271 194.505 544.885 194.114 545.56 193.861C546.235 193.609 546.956 193.501 547.675 193.546C548.395 193.59 549.097 193.785 549.736 194.119C550.374 194.452 550.936 194.917 551.384 195.481C553.986 198.956 551.508 206.388 549.266 209.544C549.072 209.821 545.543 213.696 545.501 213.696V213.613C545.114 214.79 544.698 216.035 544.2 217.406C543.287 219.911 542.221 222.734 540.851 225.71C539.402 228.956 537.771 232.117 535.965 235.177C533.949 238.606 531.633 241.848 529.044 244.866L528.947 244.963C530.027 244.299 533.1 242.541 533.363 242.43C536.934 240.894 544.712 240.036 547.563 243.302C548.022 243.858 548.359 244.504 548.552 245.199C548.744 245.894 548.789 246.621 548.682 247.334C548.575 248.047 548.319 248.729 547.93 249.336C547.542 249.944 547.03 250.463 546.428 250.859C543.923 252.631 540.172 252.243 537.404 251.413C534.29 250.43 529.1 245.683 528.629 245.309C525.922 248.317 523.018 251.142 519.937 253.766C518.151 255.302 516.297 256.797 514.4 258.278C515.355 257.738 516.214 257.254 516.338 257.198C519.895 255.662 527.674 254.804 530.525 258.07C530.986 258.625 531.325 259.272 531.519 259.967C531.712 260.662 531.757 261.39 531.65 262.103C531.543 262.817 531.286 263.5 530.897 264.107C530.507 264.714 529.994 265.233 529.39 265.628C526.899 267.399 523.134 267.012 520.38 266.181C517.625 265.351 513.016 261.337 511.826 260.271C511.092 260.839 510.442 261.406 509.653 261.96C506.179 264.631 502.732 267.275 499.341 269.974C498.165 270.929 497.044 271.898 495.909 272.88L497.597 271.939C501.155 270.417 508.933 269.545 511.784 272.825C512.245 273.38 512.584 274.026 512.778 274.721C512.972 275.416 513.017 276.144 512.909 276.858C512.802 277.571 512.546 278.254 512.156 278.861C511.767 279.469 511.253 279.987 510.65 280.382C508.144 282.154 504.393 281.766 501.639 280.922C498.885 280.078 494.719 276.465 493.334 275.219C492.213 276.244 491.078 277.282 490.04 278.334C489.334 279.067 488.656 279.718 487.964 280.507L485.971 282.763C484.767 284.23 483.507 285.739 482.359 287.206C481.556 288.23 480.808 289.213 480.061 290.195C481.21 289.24 483.535 287.427 483.743 287.275C487.023 285.213 494.594 283.192 497.902 285.988C498.438 286.469 498.867 287.058 499.16 287.716C499.454 288.375 499.606 289.087 499.606 289.808C499.606 290.529 499.454 291.241 499.16 291.899C498.867 292.557 498.438 293.146 497.902 293.628C495.687 295.759 491.923 295.981 489.071 295.538C485.916 295.054 480.213 291.386 479.507 290.874C478.262 292.507 477.071 294.112 475.964 295.635C472.13 300.936 469.14 305.504 467.092 308.715C467.092 308.839 466.954 308.936 466.884 309.047L464.227 307.76L464.642 307.123C466.787 303.926 469.915 299.386 473.902 294.112C475.161 292.438 476.531 290.694 477.957 288.894C476.473 287.28 475.087 285.579 473.805 283.801C470.746 284.991 464.407 285.033 463.576 285.033C463.452 287.095 463.341 289.088 463.258 290.971C462.981 297.517 463.009 302.971 463.078 306.777V307.22L460.158 305.836C460.158 302.043 460.31 296.922 460.697 290.86C460.822 288.784 461.002 286.555 461.21 284.271C460.393 284.078 453.791 282.375 451.299 280.382C449.043 278.583 446.663 275.649 446.746 272.59C446.738 271.868 446.883 271.153 447.171 270.492C447.459 269.83 447.883 269.237 448.416 268.751C448.949 268.264 449.579 267.896 450.265 267.671C450.95 267.445 451.675 267.367 452.393 267.441C456.697 267.994 460.31 274.929 461.016 278.749C461.016 278.97 461.237 281.517 461.32 283.026C461.417 282.098 461.486 281.199 461.597 280.258C461.777 278.361 462.026 276.479 462.289 274.444C462.441 273.475 462.607 272.479 462.76 271.482C462.912 270.486 463.175 269.462 463.383 268.451C463.908 266.084 464.545 263.718 465.251 261.351C463.59 261.185 457.708 260.493 455.175 259.039C452.642 257.586 449.874 255.067 449.5 252.022C449.384 251.31 449.42 250.582 449.605 249.886C449.79 249.189 450.12 248.539 450.573 247.978C451.026 247.418 451.593 246.96 452.236 246.633C452.878 246.307 453.583 246.12 454.303 246.084C458.635 245.973 463.258 252.285 464.531 255.953C464.614 256.174 465.237 258.901 465.542 260.41C465.985 259.025 466.4 257.572 466.926 256.147C468.31 251.994 469.874 247.939 471.396 243.828C471.867 242.569 472.31 241.309 472.781 240.049C472.185 240.049 465.168 239.33 462.344 237.696C459.839 236.312 457.043 233.724 456.656 230.679C456.542 229.968 456.58 229.241 456.765 228.545C456.951 227.849 457.281 227.2 457.734 226.64C458.187 226.08 458.753 225.622 459.394 225.294C460.036 224.967 460.739 224.779 461.459 224.741C465.805 224.631 470.428 230.956 471.701 234.61C471.798 234.887 472.684 238.762 472.864 239.828C473.86 237.06 474.843 234.292 475.632 231.523C476.801 227.786 477.725 223.976 478.4 220.118C478.123 220.118 470.801 219.426 467.909 217.765C465.389 216.312 462.594 213.779 462.22 210.734C462.104 210.023 462.14 209.295 462.325 208.598C462.51 207.901 462.839 207.251 463.293 206.691C463.746 206.13 464.313 205.672 464.956 205.345C465.598 205.019 466.303 204.832 467.023 204.796C471.355 204.686 475.978 211.011 477.251 214.665C477.334 214.9 478.026 217.904 478.317 219.33H478.552C479.124 215.431 479.346 211.489 479.217 207.551C479.217 205.392 479.009 203.315 478.801 201.309C477.417 201.309 471.133 201.309 468.365 200.118C465.597 198.928 462.649 196.741 461.929 193.765C461.737 193.068 461.695 192.338 461.804 191.624C461.914 190.909 462.173 190.225 462.565 189.618C462.957 189.01 463.473 188.492 464.079 188.098C464.685 187.704 465.367 187.442 466.082 187.329C470.386 186.748 475.673 192.519 477.348 196.007C477.431 196.201 478.151 198.236 478.635 199.731C478.538 198.817 478.442 197.89 478.317 196.962C477.888 193.71 477.279 190.762 476.725 188.146C476.393 186.665 476.075 185.378 475.756 184.09C474.372 183.398 468.947 180.561 467.092 178.249C465.237 175.938 463.576 172.63 464.324 169.654C464.482 168.955 464.785 168.297 465.214 167.722C465.642 167.147 466.186 166.668 466.81 166.316C467.435 165.964 468.126 165.747 468.84 165.678C469.553 165.609 470.273 165.691 470.954 165.917Z" fill="white"/>
<path d="M549.405 232.824C546.014 232.686 539.232 229.198 539.232 229.198C539.232 229.198 542.872 225.433 543.135 225.212C546.167 222.803 553.447 219.911 557.06 222.319C557.65 222.733 558.147 223.266 558.517 223.885C558.887 224.504 559.122 225.194 559.207 225.91C559.292 226.626 559.224 227.352 559.009 228.04C558.794 228.728 558.437 229.364 557.959 229.904C556.008 232.271 552.298 232.935 549.405 232.824Z" fill="white"/>
</g>
<path d="M509.805 317.739C509.805 317.739 489.224 268.133 477.708 270.292C466.192 272.451 497.459 349.379 497.459 349.379C497.459 349.379 461.251 281.074 436.559 281.074C411.866 281.074 445.611 356.563 476.891 381.726C476.891 381.726 427.507 328.521 398.704 340.037C369.901 351.553 456.351 405.463 456.351 405.463C456.351 405.463 406.15 389.643 411.908 401.865C417.666 414.086 433.306 416.245 433.306 416.245L376.558 419.124H574L529.556 414.806C529.556 414.806 575.647 391.802 563.301 382.446C550.955 373.089 523.799 393.228 523.799 393.228C523.799 393.228 570.706 341.462 561.654 322.057C552.602 302.652 512.269 357.283 512.269 357.283C512.269 357.283 545.197 287.552 538.567 275.316C531.937 263.081 509.805 317.739 509.805 317.739Z" fill="#A8C879"/>
<path opacity="0.4" d="M509.805 317.739C509.805 317.739 489.224 268.133 477.708 270.292C466.192 272.451 497.459 349.379 497.459 349.379C497.459 349.379 461.251 281.074 436.559 281.074C411.866 281.074 445.611 356.563 476.891 381.726C476.891 381.726 427.507 328.521 398.704 340.037C369.901 351.553 456.351 405.463 456.351 405.463C456.351 405.463 406.15 389.643 411.908 401.865C417.666 414.086 433.306 416.245 433.306 416.245L376.558 419.124H574L529.556 414.806C529.556 414.806 575.647 391.802 563.301 382.446C550.955 373.089 523.799 393.228 523.799 393.228C523.799 393.228 570.706 341.462 561.654 322.057C552.602 302.652 512.269 357.283 512.269 357.283C512.269 357.283 545.197 287.552 538.567 275.316C531.937 263.081 509.805 317.739 509.805 317.739Z" fill="white"/>
<path d="M516.394 320.355C498.29 373.85 498.29 411.705 498.29 411.705C498.29 411.705 519.689 412.536 541.903 396.079" stroke="#105C0A" stroke-linecap="round" stroke-linejoin="round"/>
<path d="M507.342 349.158C503.606 333.166 498.65 317.484 492.518 302.25" stroke="#105C0A" stroke-linecap="round" stroke-linejoin="round"/>
<path d="M453.846 317.891L499.922 386.196C499.922 386.196 531.203 359.898 541.902 345.047" stroke="#105C0A" stroke-linecap="round" stroke-linejoin="round"/>
<path d="M499.106 402.653C499.106 402.653 450.552 379.608 430.801 366.445" stroke="#105C0A" stroke-linecap="round" stroke-linejoin="round"/>
<path d="M191.573 69.5557L180.265 51.5071H80.665V69.5557V76.0472V376.314H490.635V69.5557H191.573Z" fill="#105C0A"/>
<path d="M487.937 77.8327H83.7104V369.767H487.937V77.8327Z" fill="white"/>
<mask id="mask0_0_16" style="mask-type:luminance" maskUnits="userSpaceOnUse" x="83" y="77" width="405" height="293">
<path d="M487.937 77.8327H83.7104V369.767H487.937V77.8327Z" fill="white"/>
</mask>
<g mask="url(#mask0_0_16)">
<path opacity="0.17" d="M489.916 75.3279H480.532V371.982H489.916V75.3279Z" fill="black"/>
<path opacity="0.17" d="M489.916 254.693H480.532V369.573H489.916V254.693Z" fill="black"/>
<path d="M488.463 73.8882H82.1055V89.7638H488.463V73.8882Z" fill="#A8C879" stroke="#105C0A" stroke-miterlimit="10"/>
</g>
<path d="M487.937 77.8327H83.7104V369.767H487.937V77.8327Z" stroke="#105C0A" stroke-linecap="round" stroke-linejoin="round"/>
<g opacity="0.17">
<path d="M294.315 105.072H266.038C265.711 105.072 265.387 105.008 265.084 104.882C264.782 104.757 264.507 104.574 264.276 104.342C264.045 104.111 263.861 103.836 263.736 103.534C263.611 103.232 263.546 102.908 263.546 102.581C263.545 102.252 263.608 101.927 263.732 101.623C263.856 101.319 264.04 101.043 264.271 100.81C264.503 100.577 264.778 100.392 265.081 100.266C265.384 100.14 265.709 100.075 266.038 100.075H294.315C294.643 100.075 294.968 100.14 295.272 100.266C295.575 100.392 295.85 100.577 296.081 100.81C296.313 101.043 296.496 101.319 296.621 101.623C296.745 101.927 296.808 102.252 296.806 102.581C296.806 102.908 296.742 103.232 296.617 103.534C296.491 103.836 296.308 104.111 296.077 104.342C295.845 104.574 295.571 104.757 295.268 104.882C294.966 105.008 294.642 105.072 294.315 105.072Z" fill="black"/>
<path d="M350.87 105.072H322.592C321.933 105.068 321.301 104.805 320.835 104.338C320.368 103.872 320.105 103.24 320.101 102.581C320.101 101.919 320.363 101.283 320.83 100.814C321.297 100.345 321.93 100.079 322.592 100.075H350.87C351.534 100.075 352.171 100.339 352.641 100.809C353.111 101.279 353.375 101.916 353.375 102.581C353.371 103.243 353.106 103.876 352.636 104.343C352.167 104.81 351.532 105.072 350.87 105.072Z" fill="black"/>
<path d="M407.437 105.072H379.16C378.498 105.072 377.863 104.81 377.393 104.343C376.924 103.876 376.658 103.243 376.655 102.581C376.655 101.916 376.919 101.279 377.388 100.809C377.858 100.339 378.495 100.075 379.16 100.075H407.437C408.099 100.079 408.733 100.345 409.2 100.814C409.666 101.283 409.928 101.919 409.928 102.581C409.925 103.24 409.661 103.872 409.195 104.338C408.728 104.805 408.097 105.068 407.437 105.072Z" fill="black"/>
<path d="M463.992 105.072H435.714C435.387 105.072 435.063 105.008 434.761 104.882C434.459 104.757 434.184 104.574 433.953 104.342C433.721 104.111 433.538 103.836 433.413 103.534C433.287 103.232 433.223 102.908 433.223 102.581C433.221 102.252 433.284 101.927 433.409 101.623C433.533 101.319 433.716 101.043 433.948 100.81C434.179 100.577 434.455 100.392 434.758 100.266C435.061 100.14 435.386 100.075 435.714 100.075H463.992C464.654 100.079 465.287 100.345 465.754 100.814C466.221 101.283 466.483 101.919 466.483 102.581C466.479 103.24 466.216 103.872 465.749 104.338C465.283 104.805 464.651 105.068 463.992 105.072Z" fill="black"/>
</g>
<path d="M121.911 224.229H164.638" stroke="#105C0A" stroke-width="3" stroke-linecap="round" stroke-linejoin="round"/>
<path d="M163.877 230.886H168.542" stroke="#105C0A" stroke-linecap="round" stroke-linejoin="round"/>
<path d="M137.122 230.886H161.053" stroke="#105C0A" stroke-linecap="round" stroke-linejoin="round"/>
<path d="M118.645 230.886H134.59" stroke="#105C0A" stroke-linecap="round" stroke-linejoin="round"/>
<path d="M148.943 237.544H168.542" stroke="#105C0A" stroke-linecap="round" stroke-linejoin="round"/>
<path d="M138.243 237.544H145.856" stroke="#105C0A" stroke-linecap="round" stroke-linejoin="round"/>
<path d="M118.645 237.544H134.867" stroke="#105C0A" stroke-linecap="round" stroke-linejoin="round"/>
<path d="M129.233 244.188H168.541" stroke="#105C0A" stroke-linecap="round" stroke-linejoin="round"/>
<path d="M118.645 244.188H125.579" stroke="#105C0A" stroke-linecap="round" stroke-linejoin="round"/>
<path d="M158.811 250.845H168.542" stroke="#105C0A" stroke-linecap="round" stroke-linejoin="round"/>
<path d="M140.223 250.845H155.421" stroke="#105C0A" stroke-linecap="round" stroke-linejoin="round"/>
<path d="M118.645 250.845H137.123" stroke="#105C0A" stroke-linecap="round" stroke-linejoin="round"/>
<path d="M134.866 257.503H168.541" stroke="#105C0A" stroke-linecap="round" stroke-linejoin="round"/>
<path d="M118.645 257.503H131.766" stroke="#105C0A" stroke-linecap="round" stroke-linejoin="round"/>
<path d="M219.352 224.229H262.079" stroke="#105C0A" stroke-width="3" stroke-linecap="round" stroke-linejoin="round"/>
<path d="M261.317 230.886H265.982" stroke="#105C0A" stroke-linecap="round" stroke-linejoin="round"/>
<path d="M234.563 230.886H258.494" stroke="#105C0A" stroke-linecap="round" stroke-linejoin="round"/>
<path d="M216.086 230.886H232.031" stroke="#105C0A" stroke-linecap="round" stroke-linejoin="round"/>
<path d="M246.384 237.544H265.983" stroke="#105C0A" stroke-linecap="round" stroke-linejoin="round"/>
<path d="M235.684 237.544H243.297" stroke="#105C0A" stroke-linecap="round" stroke-linejoin="round"/>
<path d="M216.086 237.544H232.308" stroke="#105C0A" stroke-linecap="round" stroke-linejoin="round"/>
<path d="M226.674 244.188H265.982" stroke="#105C0A" stroke-linecap="round" stroke-linejoin="round"/>
<path d="M216.086 244.188H223.02" stroke="#105C0A" stroke-linecap="round" stroke-linejoin="round"/>
<path d="M256.252 250.845H265.983" stroke="#105C0A" stroke-linecap="round" stroke-linejoin="round"/>
<path d="M237.664 250.845H252.861" stroke="#105C0A" stroke-linecap="round" stroke-linejoin="round"/>
<path d="M216.086 250.845H234.564" stroke="#105C0A" stroke-linecap="round" stroke-linejoin="round"/>
<path d="M232.307 257.503H265.982" stroke="#105C0A" stroke-linecap="round" stroke-linejoin="round"/>
<path d="M216.086 257.503H229.207" stroke="#105C0A" stroke-linecap="round" stroke-linejoin="round"/>
<path d="M316.792 224.229H359.519" stroke="#105C0A" stroke-width="3" stroke-linecap="round" stroke-linejoin="round"/>
<path d="M358.758 230.886H363.423" stroke="#105C0A" stroke-linecap="round" stroke-linejoin="round"/>
<path d="M332.003 230.886H355.934" stroke="#105C0A" stroke-linecap="round" stroke-linejoin="round"/>
<path d="M313.526 230.886H329.471" stroke="#105C0A" stroke-linecap="round" stroke-linejoin="round"/>
<path d="M343.824 237.544H363.422" stroke="#105C0A" stroke-linecap="round" stroke-linejoin="round"/>
<path d="M333.124 237.544H340.737" stroke="#105C0A" stroke-linecap="round" stroke-linejoin="round"/>
<path d="M313.526 237.544H329.748" stroke="#105C0A" stroke-linecap="round" stroke-linejoin="round"/>
<path d="M324.114 244.188H363.423" stroke="#105C0A" stroke-linecap="round" stroke-linejoin="round"/>
<path d="M313.526 244.188H320.461" stroke="#105C0A" stroke-linecap="round" stroke-linejoin="round"/>
<path d="M353.693 250.845H363.423" stroke="#105C0A" stroke-linecap="round" stroke-linejoin="round"/>
<path d="M335.104 250.845H350.302" stroke="#105C0A" stroke-linecap="round" stroke-linejoin="round"/>
<path d="M313.526 250.845H332.004" stroke="#105C0A" stroke-linecap="round" stroke-linejoin="round"/>
<path d="M329.747 257.503H363.423" stroke="#105C0A" stroke-linecap="round" stroke-linejoin="round"/>
<path d="M313.526 257.503H326.648" stroke="#105C0A" stroke-linecap="round" stroke-linejoin="round"/>
<path d="M414.233 224.229H456.96" stroke="#105C0A" stroke-width="3" stroke-linecap="round" stroke-linejoin="round"/>
<path d="M456.199 230.886H460.863" stroke="#105C0A" stroke-linecap="round" stroke-linejoin="round"/>
<path d="M429.444 230.886H453.375" stroke="#105C0A" stroke-linecap="round" stroke-linejoin="round"/>
<path d="M410.967 230.886H426.912" stroke="#105C0A" stroke-linecap="round" stroke-linejoin="round"/>
<path d="M441.265 237.544H460.863" stroke="#105C0A" stroke-linecap="round" stroke-linejoin="round"/>
<path d="M430.565 237.544H438.178" stroke="#105C0A" stroke-linecap="round" stroke-linejoin="round"/>
<path d="M410.967 237.544H427.189" stroke="#105C0A" stroke-linecap="round" stroke-linejoin="round"/>
<path d="M421.555 244.188H460.864" stroke="#105C0A" stroke-linecap="round" stroke-linejoin="round"/>
<path d="M410.967 244.188H417.902" stroke="#105C0A" stroke-linecap="round" stroke-linejoin="round"/>
<path d="M451.134 250.845H460.864" stroke="#105C0A" stroke-linecap="round" stroke-linejoin="round"/>
<path d="M432.545 250.845H447.742" stroke="#105C0A" stroke-linecap="round" stroke-linejoin="round"/>
<path d="M410.967 250.845H429.445" stroke="#105C0A" stroke-linecap="round" stroke-linejoin="round"/>
<path d="M427.188 257.503H460.863" stroke="#105C0A" stroke-linecap="round" stroke-linejoin="round"/>
<path d="M410.967 257.503H424.088" stroke="#105C0A" stroke-linecap="round" stroke-linejoin="round"/>
<path d="M474.026 202.789H97.5512V125.128H474.026V202.789Z" fill="#A8C879"/>
<path opacity="0.7" d="M474.026 202.789H97.5512V125.128H474.026V202.789Z" fill="white"/>
<path d="M378.758 202.789H192.888V125.128H378.758V202.789Z" fill="#A8C879"/>
<path opacity="0.92" d="M378.758 202.789H192.888V125.128H378.758V202.789Z" fill="white"/>
<path d="M340.78 147.633H353.444" stroke="#105C0A" stroke-linecap="round" stroke-linejoin="round"/>
<path d="M268.28 147.633H333.153" stroke="#105C0A" stroke-linecap="round" stroke-linejoin="round"/>
<path d="M218.203 147.633H261.4" stroke="#105C0A" stroke-linecap="round" stroke-linejoin="round"/>
<path d="M300.336 154.29H353.444" stroke="#105C0A" stroke-linecap="round" stroke-linejoin="round"/>
<path d="M271.326 154.29H291.935" stroke="#105C0A" stroke-linecap="round" stroke-linejoin="round"/>
<path d="M218.203 154.29H262.175" stroke="#105C0A" stroke-linecap="round" stroke-linejoin="round"/>
<path d="M246.91 160.948H353.444" stroke="#105C0A" stroke-linecap="round" stroke-linejoin="round"/>
<path d="M218.203 160.948H236.985" stroke="#105C0A" stroke-linecap="round" stroke-linejoin="round"/>
<path d="M327.049 167.605H353.444" stroke="#105C0A" stroke-linecap="round" stroke-linejoin="round"/>
<path d="M276.667 167.605H317.886" stroke="#105C0A" stroke-linecap="round" stroke-linejoin="round"/>
<path d="M218.203 167.605H268.279" stroke="#105C0A" stroke-linecap="round" stroke-linejoin="round"/>
<path d="M262.176 174.249H353.444" stroke="#105C0A" stroke-linecap="round" stroke-linejoin="round"/>
<path d="M218.203 174.249H253.774" stroke="#105C0A" stroke-linecap="round" stroke-linejoin="round"/>
<path d="M474.026 368.798H97.5512V291.136H474.026V368.798Z" fill="#A8C879"/>
<path opacity="0.7" d="M474.026 368.798H97.5512V291.136H474.026V368.798Z" fill="white"/>
<mask id="mask1_0_16" style="mask-type:luminance" maskUnits="userSpaceOnUse" x="305" y="260" width="84" height="111">
<path d="M388.905 260.539H305.319V370.215H388.905V260.539Z" fill="white"/>
</mask>
<g mask="url(#mask1_0_16)">
<path d="M343.699 310.145C338.186 310.771 332.711 311.695 327.298 312.914C320.973 314.547 317.928 315.253 317.928 318.298C317.928 321.343 317.222 334.464 315.159 340.333C313.097 346.201 310.703 354.63 310.703 357.675C310.703 360.72 315.159 373.606 315.159 373.606H323.353C323.353 373.606 320.308 358.603 320.308 357.205C320.308 355.807 324.53 343.364 324.53 343.364L324.765 374.063H367.672L367.215 344.762C367.215 344.762 370.952 356.72 370.952 358.824C370.952 360.928 369.568 374.769 369.568 374.769H377.707C377.707 374.769 381.693 359.544 381.458 354.146C381.222 348.748 377.305 331.641 376.779 326.464C376.254 321.288 379.354 318.492 373.734 314.976C368.115 311.46 355.215 309.357 352.405 309.121C349.477 309.179 346.561 309.522 343.699 310.145Z" fill="#A8C879" stroke="#105C0A" stroke-miterlimit="10"/>
<path d="M324.488 343.433L325.194 331.709L322.605 322.81" stroke="#105C0A" stroke-linecap="round" stroke-linejoin="round"/>
<path d="M367.146 329.841V344.831" stroke="#105C0A" stroke-linecap="round" stroke-linejoin="round"/>
<path d="M367.368 334.063L371.118 328.429" stroke="#105C0A" stroke-linecap="round" stroke-linejoin="round"/>
<path d="M347.685 326.09L346.288 373.662" stroke="#105C0A" stroke-linecap="round" stroke-linejoin="round"/>
<path d="M346.98 304.526C344.895 304.64 342.911 305.465 341.361 306.865C338.786 309.218 337.845 318.353 337.845 318.353C337.845 318.353 346.053 316.014 347.451 315.584C348.849 315.155 361.292 317.924 361.292 317.924C361.292 317.924 360.129 309.73 356.849 306.214C353.568 302.699 346.98 304.526 346.98 304.526Z" fill="#105C0A" stroke="#105C0A" stroke-linecap="round" stroke-linejoin="round"/>
<path d="M343.7 297.024C343.7 297.024 345.582 299.792 345.582 308.097C345.582 316.402 346.509 324.969 347.686 326.09C348.862 327.212 353.776 315.018 353.776 309.481C353.869 305.82 354.752 302.223 356.364 298.934C356.364 298.934 350.496 294.948 347.451 294.478C346.619 294.348 345.769 294.539 345.073 295.012C344.377 295.484 343.886 296.204 343.7 297.024Z" fill="white" stroke="#105C0A" stroke-linecap="round" stroke-linejoin="round"/>
<path d="M345.956 317.232C346.33 321.785 346.966 325.37 347.686 326.09C348.406 326.81 350.662 322.242 352.212 317.342C350.134 317.636 348.022 317.599 345.956 317.232Z" fill="#105C0A" stroke="#105C0A" stroke-linecap="round" stroke-linejoin="round"/>
<path d="M357.997 274.532C357.997 274.532 359.381 275.003 361.983 272.65C364.585 270.297 363.367 265.854 362.218 266.795C361.485 267.394 360.85 268.104 360.336 268.899C359.882 267.528 359.045 266.314 357.924 265.402C356.804 264.49 355.446 263.917 354.011 263.75C349.097 263.28 343.229 270.076 343.229 270.076C343.229 270.076 332.46 278.048 333.623 284.373C334.786 290.699 340.889 296.318 343.699 297.024C346.509 297.73 351.672 292.581 350.73 288.124C349.789 283.668 349.097 277.052 350.73 276.401C353.115 275.642 355.542 275.018 357.997 274.532Z" fill="#105C0A" stroke="#105C0A" stroke-linecap="round" stroke-linejoin="round"/>
<path d="M343.229 293.273C343.229 293.273 339.257 290.505 338.316 292.581C337.374 294.657 339.492 298.436 342.066 299.599C344.641 300.761 346.98 297.024 346.98 297.024C346.98 297.024 355.188 303.585 360.821 303.82C366.454 304.055 366.69 299.599 365.748 291.169C364.807 282.74 361.998 276.166 359.894 273.827C357.79 271.488 349.582 273.591 346.994 275.695C344.406 277.799 342.842 279.681 345.361 280.152C347.88 280.623 350.274 281.536 347.935 284.138C345.596 286.74 344.419 285.771 345.167 287.654C345.914 289.536 348.918 291.405 346.108 292.346L343.229 293.273Z" fill="white" stroke="#105C0A" stroke-linecap="round" stroke-linejoin="round"/>
</g>
<mask id="mask2_0_16" style="mask-type:luminance" maskUnits="userSpaceOnUse" x="148" y="256" width="85" height="111">
<path d="M232.175 256.468H148.589V366.684H232.175V256.468Z" fill="white"/>
</mask>
<g mask="url(#mask2_0_16)">
<path d="M193.184 302.185C193.184 302.185 163.647 305.7 162.734 308.275C161.82 310.849 151.024 335.957 152.658 338.268C154.291 340.58 157.585 341.036 160.159 341.036C161.983 340.873 163.708 340.137 165.087 338.933L157.585 370.767H211.952L213.6 348.497C213.6 348.497 219.925 351.265 224.146 350.85C228.368 350.434 227.427 347.099 226.486 340.773C225.544 334.448 225.101 318.268 223.44 315.223C221.78 312.178 201.876 303.735 201.876 303.735L193.184 302.185Z" fill="#105C0A" stroke="#105C0A" stroke-linecap="round" stroke-linejoin="round"/>
<path d="M214.042 340.358V325.825L215.205 323.015" stroke="white" stroke-linecap="round" stroke-linejoin="round"/>
<path d="M166.692 328.164L169.045 318.323L168.574 316.219" stroke="white" stroke-linecap="round" stroke-linejoin="round"/>
<path d="M172.865 371.763C172.865 371.763 177.308 352.538 179.426 340.594C181.544 328.649 190.36 302.185 190.36 302.185L203.966 305.936C203.966 305.936 194.817 332.649 192.478 344.137C190.139 355.625 188.173 371.902 188.173 371.902L172.865 371.763Z" fill="#A8C879" stroke="#105C0A" stroke-miterlimit="10"/>
<path d="M192.243 299.416C192.243 299.416 188.257 299.416 186.845 302.185C185.433 304.953 183.564 315.777 183.564 315.777C183.564 315.777 192.007 312.026 192.713 312.026C193.419 312.026 196.7 312.261 198.333 314.129C199.966 315.998 203.495 320.455 203.495 320.455C203.495 320.455 208.88 311.79 207.482 306.171C207.002 304.319 205.951 302.665 204.478 301.445C203.004 300.225 201.183 299.5 199.274 299.375L192.243 299.416Z" fill="#A8C879" stroke="#105C0A" stroke-miterlimit="10"/>
<path d="M190.859 293.243C190.859 293.243 190.388 309.659 190.859 314.337C191.329 319.015 192.035 320.192 192.035 320.192C192.035 320.192 196.021 313.631 197.184 311.292C198.347 308.953 201.876 306.365 203.523 304.261C205.17 302.157 206.291 294.185 206.291 294.185C206.291 294.185 200.201 298.877 196.921 297.7C194.6 296.673 192.531 295.152 190.859 293.243Z" fill="white" stroke="#105C0A" stroke-linecap="round" stroke-linejoin="round"/>
<path d="M200.548 263.582C196.561 264.163 192.672 266.157 191.551 270.046C190.61 273.326 190.167 284.108 189.918 289.492C189.669 294.877 192.492 301.686 194.831 302.392C196.784 303.085 198.885 303.248 200.921 302.863C202.098 302.392 207.496 295.126 208.894 293.714C210.292 292.302 214.513 279.181 214.513 274.503C214.616 272.195 213.964 269.917 212.655 268.013C211.346 266.11 209.452 264.685 207.26 263.956C205.074 263.362 202.787 263.234 200.548 263.582Z" fill="white" stroke="#105C0A" stroke-linecap="round" stroke-linejoin="round"/>
<path d="M212.16 285.575C212.16 285.575 215.911 282.281 214.928 286.503C214.626 287.764 214.051 288.943 213.242 289.958C212.434 290.972 211.412 291.796 210.25 292.371L212.16 285.575Z" fill="white" stroke="#105C0A" stroke-linecap="round" stroke-linejoin="round"/>
<path d="M190.36 281.063C190.36 281.063 187.592 278.489 187.592 282.004C187.699 284.306 188.522 286.517 189.945 288.33L190.36 281.063Z" fill="white" stroke="#105C0A" stroke-linecap="round" stroke-linejoin="round"/>
<path d="M212.16 285.575C213.376 281.99 214.162 278.273 214.5 274.503C214.603 272.195 213.95 269.917 212.641 268.013C211.333 266.11 209.439 264.685 207.247 263.956C205.06 263.362 202.773 263.234 200.534 263.582C196.548 264.163 192.658 266.157 191.537 270.046C190.816 273.925 190.395 277.853 190.278 281.797C191.468 280.869 193.946 278.6 193.42 275.901C192.714 272.385 191.302 270.752 193.876 269.105C196.451 267.458 199.51 269.811 203.731 271.222C207.953 272.634 212.16 270.752 213.337 271.914C214.513 273.077 209.586 278.018 210.292 279.887C210.998 281.755 212.631 283.873 212.16 285.52V285.575Z" fill="#105C0A" stroke="#105C0A" stroke-linecap="round" stroke-linejoin="round"/>
<path d="M178.402 330.517C178.402 330.517 174.887 325.589 172.548 325.354C170.208 325.119 164.575 330.517 164.575 330.517H178.402Z" fill="white" stroke="#105C0A" stroke-linecap="round" stroke-linejoin="round"/>
<path d="M200.672 330.974H203.966L204.658 337.548L201.142 336.607L200.672 330.974Z" fill="white" stroke="#105C0A" stroke-linecap="round" stroke-linejoin="round"/>
<path d="M203.966 330.974L209.821 333.562L211.219 340.829L204.658 337.548L203.966 330.974Z" fill="white" stroke="#105C0A" stroke-linecap="round" stroke-linejoin="round"/>
<path d="M222.692 343.708L189.183 330.586C187.252 331.536 185.44 332.711 183.785 334.088C182.808 335.071 182.086 336.278 181.682 337.604C181.682 337.604 197.613 349.092 205.35 352.607C213.087 356.123 224.34 357.299 226.208 355.376C228.077 353.452 227.592 346.241 226.443 345.064C225.822 344.424 225.114 343.874 224.34 343.431" fill="#105C0A"/>
<path d="M222.692 343.708L189.183 330.586C187.252 331.536 185.44 332.711 183.785 334.088C182.808 335.071 182.086 336.278 181.682 337.604C181.682 337.604 197.613 349.092 205.35 352.607C213.087 356.123 224.34 357.299 226.208 355.376C228.077 353.452 227.592 346.241 226.443 345.064C225.822 344.424 225.114 343.874 224.34 343.431" stroke="#105C0A" stroke-linecap="round" stroke-linejoin="round"/>
<path d="M200.672 329.866L201.143 336.662C201.143 336.662 176.533 342.282 167.398 343.929C158.263 345.576 153.336 344.386 151.938 340.178C150.54 335.97 155.218 330.794 157.322 329.631C159.426 328.469 200.672 329.866 200.672 329.866Z" fill="#105C0A" stroke="#105C0A" stroke-linecap="round" stroke-linejoin="round"/>
</g>
</g>
<defs>
<filter id="filter0_d_0_16" x="-16" y="35.5071" width="614" height="425.624" filterUnits="userSpaceOnUse" color-interpolation-filters="sRGB">
<feFlood flood-opacity="0" result="BackgroundImageFix"/>
<feColorMatrix in="SourceAlpha" type="matrix" values="0 0 0 0 0 0 0 0 0 0 0 0 0 0 0 0 0 0 127 0" result="hardAlpha"/>
<feOffset dx="4" dy="4"/>
<feGaussianBlur stdDeviation="10"/>
<feComposite in2="hardAlpha" operator="out"/>
<feColorMatrix type="matrix" values="0 0 0 0 0 0 0 0 0 0 0 0 0 0 0 0 0 0 0.25 0"/>
<feBlend mode="normal" in2="BackgroundImageFix" result="effect1_dropShadow_0_16"/>
<feBlend mode="normal" in="SourceGraphic" in2="effect1_dropShadow_0_16" result="shape"/>
</filter>
</defs>
</svg>
