<svg width="149" height="311" viewBox="0 0 149 311" fill="none" xmlns="http://www.w3.org/2000/svg">
<g filter="url(#filter0_d_22_464)">
<path d="M73.0984 103.956C90.9661 88.5933 110.164 69.3268 110.43 57.814C102.133 57.6324 100.233 57.814 94.8058 61.7454C89.9777 65.2501 70.1617 89.2107 63.4423 93.3601C54.5464 95.4937 38.5415 97.9815 30.8337 98.1177C29.4692 98.1315 28.1468 97.6663 27.1176 96.8102C24.3329 94.5222 22.166 94.5949 19.1342 93.1785C16.7582 92.0526 15.8363 90.7633 15.3326 91.1628C14.8289 91.5623 13.8594 93.2239 15.1805 95.067C16.0481 96.1468 17.0685 97.1062 18.2123 97.9179C15.3438 97.6057 12.5351 96.912 9.86772 95.8569C3.47146 93.4054 0.28758 94.1681 2.84418 102.213C4.44087 107.243 8.99333 110.284 21.8524 110.602C26.5787 110.809 31.3144 110.69 36.023 110.248C45.432 109.077 56.2476 108.895 63.9269 107.969C67.3388 107.549 70.5369 106.149 73.0984 103.956Z" fill="white"/>
<path d="M111.323 57.3147C105.183 56.2343 97.8463 57.7687 92.9517 62.2993C88.0571 66.83 77.4505 78.6423 77.4505 78.6423C77.4505 78.6423 82.5542 87.7853 90.2335 89.5922L97.8368 81.6658L111.323 57.3147Z" fill="#D39D31"/>
<path opacity="0.1" d="M111.323 57.3147C105.183 56.2343 97.8463 57.7687 92.9517 62.2993C88.0571 66.83 77.4505 78.6423 77.4505 78.6423C77.4505 78.6423 82.5542 87.7853 90.2335 89.5922L97.8368 81.6658L111.323 57.3147Z" fill="black"/>
<path d="M145.519 274.695H134.617V289.857H145.519V274.695Z" fill="white"/>
<path d="M107.173 255.93L96.2785 256.288L96.8241 271.441L107.719 271.083L107.173 255.93Z" fill="white"/>
<path d="M144.797 126.655C144.797 136.642 146.146 200.924 146.146 200.924C146.403 203.794 149.206 209.096 148.598 220.055C147.771 234.981 146.422 276.456 146.422 276.456C146.422 276.456 141.309 281.296 134.066 276.456C134.066 276.456 124.201 220.109 122.243 205.31C120.542 192.399 117.643 157.325 117.643 157.325L112.093 199.426C112.093 199.426 113.87 209.132 114.269 215.987C114.669 222.842 107.864 261.584 107.864 261.584C106.099 262.641 104.075 263.237 101.994 263.313C99.9128 263.39 97.8471 262.944 96.0025 262.02C96.0025 262.02 91.8207 205.056 90.7278 198.836C89.6348 192.617 93.8451 126.655 93.8451 126.655H144.797Z" fill="#105C0A"/>
<path d="M128.393 57.7869C129.21 57.9776 133.895 59.0308 138.353 60.1566C140.201 60.6222 141.836 61.6596 143.002 63.1069C144.168 64.5541 144.799 66.3295 144.797 68.1556V126.654C137.193 134.599 110.506 138.303 93.8167 126.654V75.8913C93.8167 67.7834 98.5687 58.0411 111.561 57.3148L128.393 57.7869Z" fill="#EBEBEB"/>
<path d="M132.061 16.2756C132.938 16.1771 133.828 16.2715 134.661 16.5516C135.495 16.8317 136.25 17.2901 136.87 17.8917C138.932 19.9074 138.505 23.639 136.87 32.2191L130.493 32.9182L132.061 16.2756Z" fill="#263238"/>
<path d="M94.8618 13.7969C93.4891 13.8024 92.13 13.5366 90.8701 13.016C88.9122 11.9447 88.399 14.0693 89.473 15.9215C90.1848 17.2435 91.2387 18.3697 92.5346 19.1929C93.8304 20.0161 95.3252 20.5089 96.8767 20.6246C96.9337 20.3613 98.7109 15.867 98.7109 15.867L94.8618 13.7969Z" fill="#263238"/>
<path d="M104.803 34.7433C111.684 34.7433 117.263 29.414 117.263 22.8401C117.263 16.2662 111.684 10.937 104.803 10.937C97.9216 10.937 92.3431 16.2662 92.3431 22.8401C92.3431 29.414 97.9216 34.7433 104.803 34.7433Z" fill="#263238"/>
<path d="M129.067 32.9183C130.018 33.463 131.367 31.7198 132.536 30.5576C133.705 29.3954 137.516 27.8338 139.417 31.6199C141.318 35.406 137.735 40.6993 134.732 41.6073C129.561 43.1599 128.782 39.9911 128.782 39.9911L128.392 57.8141C128.392 57.8141 125 65.7314 115.828 66.8935C106.657 68.0557 108.548 60.8557 111.561 57.3147V51.8671C111.561 51.8671 106.875 52.548 104.594 52.203C100.793 51.6401 98.3881 48.78 97.2381 44.8396C95.3848 38.484 94.6815 33.4176 96.2877 20.9969C98.0174 7.37777 114.602 7.2325 123.555 12.6166C132.508 18.0007 129.067 32.9183 129.067 32.9183Z" fill="white"/>
<path d="M128.592 35.4423C129.039 35.2789 131.358 31.5836 132.536 30.5576C134.171 29.1321 132.061 16.2756 132.061 16.2756C132.061 16.2756 133.715 11.4 130.483 8.16767C127.252 4.93539 120.979 5.44384 116.427 5.31672C111.675 5.15329 106.561 4.88091 100.07 2.18432C93.5789 -0.512278 93.0847 -0.830058 92.2769 1.89378C91.469 4.61761 91.1649 10.8643 95.0426 15.0499L98.2739 16.1757C98.2739 16.1757 100.013 17.6557 106.077 18.3639C110.632 18.8381 115.227 18.8381 119.782 18.3639C121.54 18.1369 123.412 19.2718 124.002 24.6105C124.439 28.4784 125.893 36.4138 128.592 35.4423Z" fill="#263238"/>
<path d="M132.051 17.2743L137.754 14.3417C137.571 13.972 137.312 13.6417 136.991 13.3708C136.671 13.0999 136.296 12.894 135.89 12.7658C135.484 12.6375 135.054 12.5896 134.628 12.6248C134.202 12.66 133.788 12.7777 133.41 12.9707C132.649 13.3842 132.083 14.0617 131.83 14.8629C131.577 15.664 131.656 16.5275 132.051 17.2743Z" fill="#263238"/>
<path d="M111.57 51.8943C111.57 51.8943 120.067 50.26 123.032 48.7528C124.779 47.8817 126.21 46.5274 127.138 44.8668C126.688 46.5137 125.896 48.0575 124.809 49.4065C122.633 52.0577 111.57 54.0098 111.57 54.0098V51.8943Z" fill="#A8C879"/>
<path d="M111.57 30.8935C111.583 31.2141 111.695 31.524 111.891 31.7844C112.087 32.0449 112.359 32.2444 112.673 32.3582C112.987 32.4719 113.329 32.4948 113.657 32.424C113.985 32.3532 114.283 32.1918 114.515 31.96C114.748 31.7283 114.903 31.4363 114.963 31.1205C115.023 30.8048 114.984 30.4792 114.851 30.1845C114.719 29.8897 114.498 29.6387 114.217 29.4629C113.936 29.2871 113.607 29.1941 113.271 29.1957C112.812 29.2099 112.376 29.3956 112.058 29.713C111.74 30.0304 111.565 30.4542 111.57 30.8935Z" fill="#263238"/>
<path d="M113.186 35.1427C113.186 35.2029 113.211 35.2606 113.255 35.3032C113.3 35.3457 113.36 35.3697 113.424 35.3697C113.487 35.3697 113.547 35.3457 113.592 35.3032C113.636 35.2606 113.661 35.2029 113.661 35.1427C113.661 35.0825 113.636 35.0247 113.592 34.9822C113.547 34.9396 113.487 34.9157 113.424 34.9157C113.36 34.9157 113.3 34.9396 113.255 34.9822C113.211 35.0247 113.186 35.0825 113.186 35.1427Z" fill="#A8C879"/>
<path d="M115.096 34.1076C115.095 34.1382 115.1 34.1687 115.111 34.1973C115.123 34.2259 115.14 34.252 115.162 34.274C115.184 34.2961 115.211 34.3136 115.24 34.3256C115.27 34.3375 115.302 34.3437 115.334 34.3437C115.399 34.3437 115.462 34.3188 115.508 34.2745C115.555 34.2303 115.581 34.1702 115.581 34.1076C115.588 34.0734 115.587 34.038 115.578 34.0042C115.569 33.9703 115.553 33.9388 115.529 33.9118C115.506 33.8848 115.477 33.8631 115.444 33.8481C115.411 33.8332 115.375 33.8255 115.338 33.8255C115.302 33.8255 115.266 33.8332 115.233 33.8481C115.2 33.8631 115.17 33.8848 115.147 33.9118C115.124 33.9388 115.108 33.9703 115.099 34.0042C115.09 34.038 115.089 34.0734 115.096 34.1076Z" fill="#A8C879"/>
<path d="M116.066 35.9235C116.063 35.9544 116.067 35.9855 116.078 36.0147C116.089 36.0439 116.106 36.0706 116.128 36.093C116.151 36.1153 116.178 36.1328 116.208 36.1443C116.238 36.1558 116.271 36.161 116.303 36.1596C116.369 36.1596 116.432 36.1347 116.478 36.0905C116.524 36.0462 116.55 35.9861 116.55 35.9235C116.55 35.8609 116.524 35.8009 116.478 35.7566C116.432 35.7123 116.369 35.6875 116.303 35.6875C116.239 35.6898 116.179 35.7157 116.135 35.7597C116.09 35.8038 116.066 35.8625 116.066 35.9235Z" fill="#A8C879"/>
<path d="M117.653 34.3619C117.653 34.4254 117.678 34.4864 117.724 34.5321C117.77 34.5778 117.833 34.6047 117.9 34.607C117.932 34.6059 117.964 34.5986 117.994 34.5856C118.023 34.5727 118.05 34.5543 118.072 34.5315C118.094 34.5088 118.111 34.4821 118.122 34.4529C118.133 34.4238 118.139 34.3929 118.137 34.3619C118.137 34.3008 118.113 34.2421 118.068 34.1981C118.024 34.1541 117.964 34.1282 117.9 34.1258C117.834 34.1258 117.771 34.1507 117.725 34.195C117.679 34.2392 117.653 34.2993 117.653 34.3619Z" fill="#A8C879"/>
<path d="M110.496 33.8715C110.496 33.9317 110.521 33.9895 110.566 34.0321C110.61 34.0746 110.671 34.0985 110.734 34.0985C110.797 34.0985 110.857 34.0746 110.902 34.0321C110.946 33.9895 110.971 33.9317 110.971 33.8715C110.971 33.8113 110.946 33.7536 110.902 33.711C110.857 33.6685 110.797 33.6446 110.734 33.6446C110.671 33.6446 110.61 33.6685 110.566 33.711C110.521 33.7536 110.496 33.8113 110.496 33.8715Z" fill="#A8C879"/>
<path d="M111.057 35.9235C111.054 35.9544 111.058 35.9855 111.069 36.0147C111.08 36.0439 111.097 36.0706 111.12 36.0929C111.142 36.1152 111.17 36.1327 111.2 36.1442C111.23 36.1557 111.262 36.161 111.295 36.1596C111.327 36.1596 111.358 36.1534 111.388 36.1414C111.417 36.1295 111.444 36.1119 111.466 36.0899C111.488 36.0678 111.506 36.0417 111.517 36.0131C111.528 35.9846 111.534 35.9541 111.532 35.9235C111.532 35.8633 111.507 35.8055 111.463 35.763C111.418 35.7204 111.358 35.6965 111.295 35.6965C111.232 35.6965 111.171 35.7204 111.127 35.763C111.082 35.8055 111.057 35.8633 111.057 35.9235Z" fill="#A8C879"/>
<path d="M108.415 34.5889C108.415 34.6491 108.44 34.7068 108.484 34.7494C108.529 34.7919 108.589 34.8158 108.652 34.8158C108.715 34.8158 108.776 34.7919 108.82 34.7494C108.865 34.7068 108.89 34.6491 108.89 34.5889C108.89 34.5287 108.865 34.4709 108.82 34.4284C108.776 34.3858 108.715 34.3619 108.652 34.3619C108.589 34.3619 108.529 34.3858 108.484 34.4284C108.44 34.4709 108.415 34.5287 108.415 34.5889Z" fill="#A8C879"/>
<path d="M101.002 33.7809C101.001 33.8419 101.026 33.9006 101.071 33.9446C101.115 33.9887 101.175 34.0146 101.239 34.0169C101.272 34.0158 101.304 34.0085 101.333 33.9955C101.363 33.9826 101.389 33.9642 101.411 33.9414C101.433 33.9186 101.45 33.8919 101.462 33.8628C101.473 33.8337 101.478 33.8028 101.477 33.7718C101.477 33.7107 101.452 33.652 101.408 33.608C101.363 33.564 101.303 33.5381 101.239 33.5357C101.207 33.5369 101.175 33.5442 101.145 33.5571C101.116 33.5701 101.089 33.5885 101.067 33.6112C101.045 33.634 101.028 33.6607 101.017 33.6898C101.005 33.7189 101 33.7498 101.002 33.7809Z" fill="#A8C879"/>
<path d="M99.3287 34.8975C99.3275 34.9281 99.3327 34.9585 99.344 34.9871C99.3554 35.0157 99.3727 35.0418 99.3949 35.0639C99.4171 35.0859 99.4437 35.1035 99.4732 35.1155C99.5026 35.1274 99.5343 35.1336 99.5663 35.1336C99.6302 35.1312 99.6907 35.1053 99.735 35.0613C99.7793 35.0173 99.804 34.9586 99.8039 34.8975C99.8039 34.8373 99.7789 34.7796 99.7344 34.737C99.6898 34.6944 99.6294 34.6705 99.5663 34.6705C99.5033 34.6705 99.4429 34.6944 99.3984 34.737C99.3538 34.7796 99.3287 34.8373 99.3287 34.8975Z" fill="#A8C879"/>
<path d="M98.0173 33.6991C98.0161 33.7301 98.0212 33.7611 98.0325 33.7902C98.0437 33.8193 98.0609 33.846 98.0829 33.8688C98.105 33.8915 98.1315 33.9099 98.1611 33.9229C98.1906 33.9358 98.2225 33.9431 98.2549 33.9443C98.3134 33.9334 98.366 33.9034 98.4039 33.8595C98.4417 33.8156 98.4624 33.7605 98.4624 33.7037C98.4624 33.6468 98.4417 33.5917 98.4039 33.5478C98.366 33.5039 98.3134 33.474 98.2549 33.4631C98.1911 33.4654 98.1306 33.4913 98.0863 33.5353C98.042 33.5794 98.0173 33.6381 98.0173 33.6991Z" fill="#A8C879"/>
<path d="M96.4302 34.2528C96.4231 34.2871 96.424 34.3224 96.4329 34.3563C96.4417 34.3901 96.4584 34.4217 96.4816 34.4487C96.5047 34.4757 96.5339 34.4974 96.5669 34.5123C96.6 34.5272 96.6361 34.535 96.6726 34.535C96.7091 34.535 96.7452 34.5272 96.7783 34.5123C96.8113 34.4974 96.8404 34.4757 96.8636 34.4487C96.8868 34.4217 96.9034 34.3901 96.9123 34.3563C96.9212 34.3224 96.9221 34.2871 96.915 34.2528C96.915 34.1918 96.8903 34.1331 96.8459 34.0891C96.8016 34.045 96.7412 34.0191 96.6773 34.0168C96.6118 34.0168 96.5489 34.0417 96.5026 34.0859C96.4563 34.1302 96.4302 34.1902 96.4302 34.2528Z" fill="#A8C879"/>
<path d="M96.1639 32.4733C96.1626 32.5043 96.1677 32.5353 96.179 32.5644C96.1903 32.5935 96.2074 32.6202 96.2295 32.643C96.2516 32.6657 96.2781 32.6841 96.3076 32.6971C96.3371 32.71 96.369 32.7173 96.4015 32.7185C96.4599 32.7076 96.5125 32.6776 96.5504 32.6337C96.5882 32.5898 96.609 32.5347 96.609 32.4779C96.609 32.421 96.5882 32.3659 96.5504 32.322C96.5125 32.2781 96.4599 32.2482 96.4015 32.2373C96.3376 32.2396 96.2772 32.2655 96.2329 32.3095C96.1886 32.3536 96.1638 32.4123 96.1639 32.4733Z" fill="#A8C879"/>
<path d="M113.376 24.7558L117.016 26.6716C117.263 26.1997 117.313 25.6558 117.156 25.1501C116.999 24.6443 116.647 24.2145 116.17 23.9477C115.932 23.8215 115.67 23.7423 115.399 23.7147C115.128 23.6871 114.855 23.7117 114.594 23.7871C114.334 23.8624 114.091 23.987 113.882 24.1534C113.673 24.3198 113.501 24.5247 113.376 24.7558Z" fill="#263238"/>
<path d="M112.34 42.1248L108.453 43.5139C108.538 43.7628 108.675 43.9927 108.855 44.1902C109.035 44.3877 109.255 44.5488 109.501 44.6639C109.747 44.779 110.015 44.8458 110.289 44.8603C110.563 44.8749 110.837 44.837 111.095 44.7487C111.618 44.5515 112.041 44.1673 112.274 43.6776C112.506 43.1878 112.53 42.631 112.34 42.1248Z" fill="#A8C879"/>
<path d="M97.447 26.1087L100.773 23.6663C100.617 23.4578 100.419 23.2811 100.19 23.1465C99.9612 23.0119 99.7067 22.9221 99.4414 22.8824C99.176 22.8427 98.905 22.8538 98.6442 22.9151C98.3834 22.9765 98.1379 23.0868 97.9222 23.2396C97.4726 23.5682 97.1726 24.0493 97.0841 24.5834C96.9956 25.1175 97.1256 25.6636 97.447 26.1087Z" fill="#263238"/>
<path d="M98.4736 30.4305C98.4885 30.7485 98.6008 31.0553 98.7965 31.3128C98.9923 31.5703 99.2629 31.7673 99.5747 31.8793C99.8866 31.9912 100.226 32.0132 100.551 31.9425C100.876 31.8719 101.172 31.7116 101.402 31.4817C101.632 31.2518 101.787 30.9623 101.847 30.6492C101.907 30.3361 101.869 30.0131 101.738 29.7203C101.607 29.4276 101.389 29.1779 101.112 29.0023C100.834 28.8267 100.508 28.733 100.175 28.7327C99.7143 28.7446 99.2773 28.9296 98.9588 29.2475C98.6403 29.5654 98.4659 29.9905 98.4736 30.4305Z" fill="#263238"/>
<path d="M106.077 28.887L105.516 38.6655L100.175 36.9223L106.077 28.887Z" fill="#A8C879"/>
<path d="M134.618 284.719V283.229C133.572 283.665 131.149 292.5 126.824 296.268C123.384 299.264 118.698 302.723 117.501 306.064C116.303 309.406 124.03 311.457 127.243 310.913C130.978 310.277 137.45 307.771 139.075 305.465C140.7 303.159 141.451 299.709 142.772 298.002C144.093 296.295 147.135 294.37 147.847 292.418C148.247 291.337 147.781 288.959 147.23 286.97C146.716 285.154 146.175 283.102 145.519 283.275C145.519 283.502 145.519 284.41 145.519 284.41C144.721 285.254 142.535 286.08 140.064 286.171C138.467 286.189 134.599 285.863 134.618 284.719Z" fill="#263238"/>
<path d="M96.7148 268.23C96.1445 268.23 95.6883 269.011 94.4338 270.3C92.5684 272.099 90.4038 273.59 88.028 274.713C83.9413 276.665 76.0054 279.661 72.4128 281.214C70.1699 282.176 70.2744 284.764 72.5934 286.235C74.9124 287.706 80.5103 288.777 87.2392 287.333C90.8983 286.553 95.6693 283.32 98.6441 283.493C101.619 283.665 107.312 283.629 109.545 282.167C111.779 280.705 110.876 277.564 110.249 274.904C109.564 271.971 108.576 267.477 107.559 267.64V268.548C106.247 270.437 99.5755 271.217 96.6958 269.819L96.7148 268.23Z" fill="#263238"/>
<path d="M117.672 157.325C112.027 155.65 106.836 152.811 102.465 149.008C102.465 149.008 105.402 154.247 114.108 159.123L113.633 187.759L117.672 157.325Z" fill="#263238"/>
<path d="M33.3288 150.862L0.687452 132.838V105.284L0 104.907V95.7122L33.3288 114.097V150.862Z" fill="#D39D31"/>
<path opacity="0.1" d="M33.3288 150.747L0.687452 132.723V105.169L0 104.792V95.5972L33.3288 113.982V150.747Z" fill="black"/>
<path opacity="0.15" d="M33.3286 123.287L21.6419 116.841L21.6377 107.635L20.8357 107.205L20.8314 116.395L0.687317 105.284V106.605L20.8314 117.713L20.8272 143.966L21.6462 144.416L21.6419 118.159L33.3286 124.605V123.287Z" fill="black"/>
<path d="M33.3288 150.862L65.7919 132.968V105.381L66.6576 104.907V95.7122L33.3288 114.097V150.862Z" fill="#D39D31"/>
<path opacity="0.1" d="M65.7919 105.381L45.826 116.395L45.8218 107.205L45.0198 107.635V116.841L33.3288 123.287V124.605L45.0155 118.163L45.0113 144.416L45.8303 143.966L45.826 117.721L65.7919 106.719V105.381Z" fill="black"/>
<path d="M66.6576 95.7121L33.3288 77.3315L0 95.7121L33.3288 114.097L66.6576 95.7121Z" fill="#D39D31"/>
<path opacity="0.4" d="M66.6576 95.7121L33.3288 77.3315L0 95.7121L33.3288 114.097L66.6576 95.7121Z" fill="white"/>
<path opacity="0.15" d="M27.7188 96.077L11.7885 89.2259L12.4972 88.8205L28.5632 95.7162" fill="black"/>
<path opacity="0.15" d="M38.9343 96.077L54.8646 89.2259L54.1517 88.8205L38.0856 95.7162" fill="black"/>
<path opacity="0.15" d="M45.8219 107.205L33.9952 98.8174V98.8134L33.3289 98.3391L33.3247 98.3431V98.3391L32.6542 98.8134L32.6585 98.8174L20.8275 107.205L21.6337 107.635L33.3247 99.2917L45.0199 107.635L45.8219 107.205Z" fill="black"/>
<path d="M54.1605 102.493V140.17L45.8304 144.767L45.8219 107.09L54.1605 102.493Z" fill="#105C0A"/>
<path d="M45.8302 144.882L45.0112 144.416L45.8302 143.966V144.882Z" fill="#263238"/>
<path d="M12.4972 102.608V140.285L20.8273 144.882L20.8357 107.205L12.4972 102.608Z" fill="#263238"/>
<path d="M20.8275 144.882L21.6465 144.416L20.8275 143.966V144.882Z" fill="black"/>
<path d="M20.8358 107.09L33.333 98.2282L38.0985 95.5972L54.1603 88.7055L45.8302 84.1084L33.333 92.9703L28.5717 95.6013L12.4972 102.493L20.8358 107.09Z" fill="#455A64"/>
<path d="M28.5716 95.7162L27.7229 96.077L30.5279 97.2648L32.6624 98.8134L33.3329 98.3391L31.2493 96.8635L28.5716 95.7162Z" fill="#263238"/>
<path d="M45.8217 107.205L31.2494 96.8634L12.4972 88.8204L20.8315 84.2232L35.4166 94.5648L54.1603 102.608L45.8217 107.205Z" fill="#455A64"/>
<path d="M30.7146 94.2041C30.7146 94.2041 20.9248 101.967 4.93933 100.2C4.93933 100.2 11.729 104.444 20.0294 103.484C20.0294 103.484 18.8369 106.378 11.8436 109.901C11.8436 109.901 29.3142 110.055 33.8294 96.1986L30.7146 94.2041Z" fill="#105C0A"/>
<path d="M21.5106 108.125C26.3482 106.39 31.6272 102.969 33.8168 96.2108L30.7021 94.2162C28.8094 95.5869 26.7399 96.7191 24.5447 97.5851C24.5447 97.5851 27.9395 99.0039 31.4023 98.1283C30.6174 100.383 29.3252 102.447 27.6163 104.174C25.9074 105.901 23.8233 107.25 21.5106 108.125Z" fill="#263238"/>
<path d="M9.00901 83.934C9.00901 83.934 10.9526 81.7611 16.9147 82.7422C20.5133 83.3381 26.624 87.3434 29.6454 94.0162C30.0273 94.8594 30.8845 95.1432 31.3428 95.7107C31.4492 95.8378 31.5655 95.957 31.6907 96.0675L33.5791 96.0877C33.5791 89.8528 29.9169 83.561 26.4542 79.9206C22.9915 76.2802 17.2882 74.5005 13.2228 74.3627C11.7812 74.299 10.3443 74.563 9.03023 75.1329C7.92266 78.0801 7.46436 81.003 9.00901 83.934Z" fill="#105C0A"/>
<path d="M29.2296 93.2919C29.2296 93.2919 32.6245 92.1973 31.2283 87.0002C32.6932 89.8722 33.4908 93.0127 33.5665 96.2067L31.6781 96.1864C31.5529 96.076 31.4366 95.9568 31.3302 95.8297C30.8719 95.2621 30.0147 94.9783 29.6327 94.1351C29.5097 93.8432 29.3697 93.5676 29.2296 93.2919Z" fill="#263238"/>
<path d="M12.4888 88.0421C11.0585 86.9477 9.87481 85.588 9.00912 84.0449C7.46023 81.1139 7.91853 78.191 9.00912 75.2357C5.51244 76.7114 3.42462 81.0531 2.64381 84.5598C2.21945 86.5219 2.16853 88.2083 2.5165 89.0191C3.49676 91.2245 9.23827 100.135 33.8296 96.2108L33.8041 93.742C27.6468 93.3771 16.8936 91.5853 12.4888 88.0421Z" fill="#105C0A"/>
<path d="M9.00901 84.049C9.00901 84.049 8.7162 77.1816 13.2228 74.4776C11.7812 74.414 10.3443 74.6779 9.03023 75.2479C7.92266 78.1951 7.46436 81.118 9.00901 84.049Z" fill="#263238"/>
<path d="M35.9427 94.2041C35.9427 94.2041 45.7325 101.967 61.718 100.2C61.718 100.2 54.9283 104.444 46.6279 103.484C46.6279 103.484 47.8204 106.378 54.8137 109.901C54.8137 109.901 37.3431 110.055 32.8279 96.1986L35.9427 94.2041Z" fill="#105C0A"/>
<path d="M35.2552 98.1202C38.701 98.9958 42.1128 97.5769 42.1128 97.5769L41.472 97.3013L41.3744 97.2607L40.8058 97.0053L40.6785 96.9486L40.1608 96.7013C40.117 96.6821 40.0745 96.6604 40.0334 96.6364C39.8679 96.5594 39.7109 96.4783 39.5539 96.4013L39.4266 96.3364L39.0023 96.1054L38.8792 96.0405L38.4803 95.8216L38.37 95.7608L37.9965 95.5581L37.8947 95.5013L37.5722 95.3067L37.4788 95.25L37.1945 95.0716L37.1096 95.0189L36.8635 94.8608L36.7914 94.8121L36.5835 94.6743L36.5198 94.6297L36.3543 94.5162L36.2991 94.4757L36.1761 94.3865L36.1209 94.3459L36.0445 94.2932L35.9936 94.2568L35.9681 94.2324L35.9384 94.2122L34.92 94.8648L32.8237 96.2067C37.3346 110.063 54.8052 109.909 54.8095 109.909C45.8216 109.504 36.3798 102.989 35.2552 98.1202Z" fill="#263238"/>
<path d="M57.6485 84.049C57.6485 84.049 55.7049 81.8761 49.7428 82.8571C46.1442 83.453 40.0335 87.4583 37.0121 94.1311C36.6302 94.9743 35.773 95.2581 35.3147 95.8257C35.2083 95.9528 35.0919 96.072 34.9667 96.1824L33.0784 96.2027C33.0784 89.9677 36.7405 83.676 40.2033 80.0356C43.666 76.3951 49.3693 74.6154 53.4346 74.4776C54.8763 74.414 56.3132 74.6779 57.6273 75.2479C58.7348 78.1951 59.2143 81.118 57.6485 84.049Z" fill="#105C0A"/>
<path d="M37.428 93.2919C37.428 93.2919 34.0332 92.1973 35.4293 87.0002C33.9644 89.8722 33.1668 93.0127 33.0911 96.2067L34.9795 96.1864C35.1047 96.076 35.221 95.9568 35.3275 95.8297C35.7858 95.2621 36.643 94.9783 37.0249 94.1351C37.1479 93.8432 37.288 93.5676 37.428 93.2919Z" fill="#263238"/>
<path d="M54.1687 88.0421C55.5991 86.9477 56.7827 85.588 57.6484 84.0449C59.1973 81.1139 58.739 78.191 57.6484 75.2357C61.1451 76.7114 63.2329 81.0531 64.0137 84.5598C64.4381 86.5219 64.489 88.2083 64.141 89.0191C63.1608 91.2245 57.4193 100.135 32.8279 96.2108L32.8534 93.742C39.0108 93.3771 49.7639 91.5853 54.1687 88.0421Z" fill="#105C0A"/>
<path d="M57.6485 84.049C57.6485 84.049 57.9413 77.1816 53.4346 74.4776C54.8763 74.414 56.3132 74.6779 57.6273 75.2479C58.7348 78.1951 59.2143 81.118 57.6485 84.049Z" fill="#263238"/>
<path d="M36.7236 94.573C36.6967 94.3345 36.6039 94.1071 36.4548 93.914C36.3057 93.721 36.1055 93.5693 35.8749 93.4744C35.0581 93.2005 34.1932 93.082 33.3288 93.1258C32.4399 93.082 31.5516 93.2203 30.7232 93.5312C30.511 93.6287 30.3287 93.777 30.1941 93.9617C30.0595 94.1464 29.9772 94.3612 29.9551 94.5852C29.866 95.323 29.8109 96.5716 30.3201 97.2811C31.159 97.9676 32.2328 98.3355 33.3372 98.3148C34.4369 98.3376 35.5062 97.9692 36.3374 97.2811C36.8424 96.5595 36.7915 95.3108 36.7236 94.573Z" fill="#455A64"/>
<path d="M122.329 113.299C145.671 82.9369 154.3 62.1904 138.391 60.1566C133.544 61.237 130.113 66.5939 125.874 78.5152C125.874 78.5152 114.326 96.0839 110.43 103.783C103.102 109.385 89.0074 121.942 81.9173 124.784C80.6628 125.274 78.8 124.221 77.5169 123.785C74.0574 122.632 72.0616 123.44 68.6876 123.159C66.0455 122.941 64.6959 122.06 64.3728 122.605C63.9802 123.229 63.8599 123.976 64.0376 124.684C64.2154 125.392 64.677 126.005 65.3232 126.391C66.3402 127.133 67.5491 127.598 68.8207 127.735C68.8207 127.735 67.224 128.888 61.0843 128.87C54.2034 128.87 51.5232 130.622 56.9501 137.232C60.362 141.363 65.7604 142.616 77.8591 138.458C82.3378 137.009 86.702 135.255 90.9177 133.21C99.2433 128.852 96.2875 130.677 102.826 126.718C108.12 123.504 120.285 115.959 122.329 113.299Z" fill="white"/>
<path d="M136.347 59.6481C136.347 59.6481 141.983 59.6481 144.825 62.2993C147.667 64.9505 148.731 69.8262 145.861 77.3167C142.991 84.8073 135.15 97.0645 135.15 97.0645C135.15 97.0645 125.912 97.5457 117.7 89.5921L125.893 75.0106C125.893 75.0106 129.058 64.0335 136.347 59.6481Z" fill="#D39D31"/>
<path opacity="0.1" d="M136.347 59.6481C136.347 59.6481 141.983 59.6481 144.825 62.2993C147.667 64.9505 148.731 69.8262 145.861 77.3167C142.991 84.8073 135.15 97.0645 135.15 97.0645C135.15 97.0645 125.912 97.5457 117.7 89.5921L125.893 75.0106C125.893 75.0106 129.058 64.0335 136.347 59.6481Z" fill="black"/>
</g>
<defs>
<filter id="filter0_d_22_464" x="-16" y="-16" width="188.684" height="351" filterUnits="userSpaceOnUse" color-interpolation-filters="sRGB">
<feFlood flood-opacity="0" result="BackgroundImageFix"/>
<feColorMatrix in="SourceAlpha" type="matrix" values="0 0 0 0 0 0 0 0 0 0 0 0 0 0 0 0 0 0 127 0" result="hardAlpha"/>
<feOffset dx="4" dy="4"/>
<feGaussianBlur stdDeviation="10"/>
<feComposite in2="hardAlpha" operator="out"/>
<feColorMatrix type="matrix" values="0 0 0 0 0 0 0 0 0 0 0 0 0 0 0 0 0 0 0.25 0"/>
<feBlend mode="normal" in2="BackgroundImageFix" result="effect1_dropShadow_22_464"/>
<feBlend mode="normal" in="SourceGraphic" in2="effect1_dropShadow_22_464" result="shape"/>
</filter>
</defs>
</svg>
