<svg width="574" height="302" viewBox="0 0 574 302" fill="none" xmlns="http://www.w3.org/2000/svg">
<g filter="url(#filter0_d_141_4373)">
<path d="M561.009 222.182L549.685 222.424L543.936 222.519C542.012 222.562 540.078 222.519 538.153 222.571H537.773V222.182L537.722 212.498V212.066H538.153L549.581 212.118C553.396 212.118 557.203 212.213 561.009 212.256H561.251V212.498C561.251 214.138 561.182 215.769 561.139 217.383L561.009 222.182ZM561.009 222.182L560.888 217.305C560.845 215.7 560.793 214.112 560.776 212.524L561.009 212.765C557.203 212.808 553.396 212.903 549.581 212.903L538.153 212.955L538.585 212.524V222.182L538.196 221.802C540.078 221.802 541.96 221.802 543.85 221.846L549.469 221.992L561.009 222.182Z" fill="#EBEBEB"/>
<path d="M548.261 234.361L536.937 234.603L531.18 234.698C529.263 234.698 527.33 234.698 525.405 234.75H525.025V234.361V224.703V224.271H525.457L536.885 224.331C540.691 224.331 544.507 224.426 548.313 224.47H548.555V224.703C548.555 226.343 548.486 227.974 548.443 229.588L548.261 234.361ZM548.261 234.361L548.14 229.484C548.097 227.879 548.045 226.291 548.028 224.703L548.261 224.944C544.455 224.987 540.64 225.082 536.833 225.082L525.405 225.134L525.837 224.703V234.361L525.448 233.981C527.33 233.981 529.212 233.981 531.102 234.025L536.773 234.128L548.261 234.361Z" fill="#EBEBEB"/>
<path d="M573.758 234.361L562.434 234.603L556.685 234.698C554.761 234.698 552.827 234.698 550.902 234.75H550.522V234.361L550.471 224.703V224.271H550.902L562.33 224.331C566.145 224.331 569.952 224.426 573.758 224.47H574V224.703C574 226.343 573.922 227.974 573.888 229.588L573.758 234.361ZM573.758 234.361L573.638 229.484C573.638 227.879 573.543 226.291 573.525 224.703L573.758 224.944C569.952 224.987 566.145 225.082 562.33 225.082L550.902 225.134L551.334 224.703V234.361L550.945 233.981C552.836 233.981 554.709 233.981 556.599 234.025L562.279 234.128L573.758 234.361Z" fill="#EBEBEB"/>
<path d="M235.103 107.254L223.779 107.496L218.03 107.591C216.105 107.591 214.172 107.591 212.247 107.591H211.867V107.203L211.815 97.5441V97.1125H212.247L223.675 97.1643C227.49 97.1643 231.297 97.2593 235.103 97.3024H235.345V97.5355C235.345 99.1755 235.267 100.798 235.224 102.412L235.103 107.254ZM235.103 107.254L234.982 102.369C234.982 100.764 234.887 99.1755 234.87 97.5959L235.103 97.8289C231.297 97.8289 227.49 97.9671 223.675 97.9671L212.247 98.0275L212.679 97.5959L212.635 107.254L212.247 106.866C214.129 106.866 216.01 106.866 217.901 106.918L223.58 107.013L235.103 107.254Z" fill="#EBEBEB"/>
<path d="M222.337 119.433L211.013 119.675L205.255 119.77C203.339 119.77 201.406 119.77 199.481 119.813H199.101V119.424L199.032 109.783V109.352H199.464L210.892 109.403C214.698 109.403 218.513 109.498 222.32 109.541H222.562V109.783C222.562 111.423 222.492 113.046 222.449 114.66L222.337 119.433ZM222.337 119.433L222.216 114.548C222.173 112.942 222.121 111.354 222.104 109.775L222.337 110.008C218.531 110.051 214.716 110.146 210.909 110.146L199.481 110.206L199.913 109.775L199.895 119.433L199.507 119.045C201.389 119.045 203.27 119.045 205.161 119.096L210.831 119.191L222.337 119.433Z" fill="#EBEBEB"/>
<path d="M247.852 119.433L236.528 119.675L230.779 119.77C228.854 119.77 226.929 119.77 224.996 119.813H224.616V119.424L224.564 109.783V109.352H224.996L236.424 109.403C240.239 109.403 244.046 109.498 247.852 109.541H248.094V109.783C248.094 111.423 248.016 113.046 247.982 114.66L247.852 119.433ZM247.852 119.433L247.731 114.548C247.731 112.942 247.636 111.354 247.619 109.775L247.852 110.008C244.046 110.051 240.239 110.146 236.424 110.146L224.996 110.206L225.428 109.775L225.384 119.433L224.996 119.045C226.886 119.045 228.759 119.045 230.65 119.096L236.329 119.191L247.852 119.433Z" fill="#EBEBEB"/>
<path d="M48.7418 171.162L37.4174 171.403L31.6602 171.498C29.744 171.498 27.8106 171.498 25.8858 171.541H25.5405V171.153V161.494V161.063H25.9721L37.4001 161.115C41.2066 161.115 45.0217 161.209 48.8282 161.253H49.0698V161.486C49.0698 163.126 49.0008 164.748 48.9576 166.362L48.7418 171.162ZM48.7418 171.162L48.621 166.276C48.621 164.671 48.5261 163.082 48.5088 161.503L48.7418 161.736C44.9354 161.779 41.1203 161.874 37.3138 161.874L25.8858 161.935L26.3174 161.503L26.2742 171.162L25.8858 170.773C27.7674 170.773 29.6491 170.773 31.5394 170.825L37.2102 170.92L48.7418 171.162Z" fill="#EBEBEB"/>
<path d="M427.645 107.246L416.321 107.487L410.572 107.582C408.647 107.626 406.714 107.582 404.789 107.626H404.409V107.237L404.357 97.5785V97.147H404.789L416.217 97.1988C420.032 97.1988 423.839 97.3023 427.645 97.3455H427.887V97.5785C427.887 99.2185 427.818 100.85 427.775 102.455L427.645 107.246ZM427.645 107.246L427.524 102.369C427.481 100.755 427.429 99.1667 427.412 97.5872L427.645 97.8202C423.839 97.8634 420.032 97.9583 416.217 97.967L404.789 98.0187L405.221 97.5872L405.177 107.246L404.789 106.857C406.671 106.857 408.552 106.857 410.443 106.909L416.122 107.004L427.645 107.246Z" fill="#EBEBEB"/>
<path d="M559.688 13.439L548.364 13.6807L542.606 13.7757C540.69 13.7757 538.757 13.7757 536.832 13.8275H536.452V13.439V3.78045V3.34888H536.884L548.312 3.40067C552.118 3.40067 555.933 3.50424 559.74 3.5474H559.981V3.78045C559.981 5.42042 559.912 7.05177 559.869 8.65722L559.688 13.439ZM559.688 13.439L559.567 8.56227C559.524 6.94819 559.472 5.36 559.455 3.78045L559.688 4.0135C555.882 4.0135 552.066 4.1516 548.26 4.16023L536.832 4.21202L537.264 3.78045L537.22 13.439L536.832 13.0506C538.714 13.0506 540.595 13.0506 542.486 13.1024L548.156 13.1974L559.688 13.439Z" fill="#EBEBEB"/>
<path d="M572.437 25.6183L561.112 25.86L555.364 25.9549C553.439 25.9981 551.505 25.9549 549.58 25.9981H549.201V25.6097L549.149 15.9511V15.5195H549.58L561.009 15.5713C564.824 15.5713 568.63 15.6749 572.437 15.7181H572.678V15.9511C572.678 17.5911 572.601 19.2224 572.557 20.8279L572.437 25.6183ZM572.437 25.6183L572.316 20.7416C572.316 19.1275 572.221 17.5393 572.204 15.9597L572.437 16.1928C568.63 16.2359 564.824 16.3309 561.009 16.3395L549.58 16.3913L550.012 15.9597V25.6183L549.624 25.2299C551.505 25.2299 553.387 25.2299 555.277 25.2817L560.957 25.3766L572.437 25.6183Z" fill="#EBEBEB"/>
<path d="M23.2445 13.4481L11.9114 13.6897L6.16285 13.7847C4.24667 13.7847 2.31323 13.7847 0.388416 13.8365H0V13.4481V3.78948V3.35791H0.440202L11.8682 3.41833C15.6747 3.41833 19.4812 3.51328 23.2963 3.55643H23.5293V3.78948C23.5293 5.42946 23.4516 7.0608 23.4171 8.67488L23.2445 13.4481ZM23.2445 13.4481L23.115 8.5713C23.115 6.95722 23.0201 5.36904 23.0028 3.78948L23.2445 4.02253C19.4294 4.07432 15.6229 4.16063 11.8164 4.16926L0.388416 4.22105L0.819988 3.78948L0.768198 13.4481L0.388416 13.1114C2.27007 13.1114 4.1431 13.1114 6.03338 13.1114L11.7129 13.2064L23.2445 13.4481Z" fill="#EBEBEB"/>
<path d="M303.196 133.252C302.137 134.253 300.823 134.942 299.399 135.246C298.535 135.471 297.577 135.6 296.662 135.764H293.538C292.252 135.565 290.948 135.41 289.697 135.16C285.02 134.156 280.589 132.231 276.663 129.498C266.325 122.663 257.615 113.641 251.149 103.068C248.981 99.5794 247.488 95.7145 246.747 91.6746C246.557 90.6129 246.41 89.5426 246.246 88.4723V85.3477C246.505 84.148 246.712 82.9309 247.032 81.7484C247.346 80.6386 247.941 79.6281 248.758 78.8137C248.913 78.9518 249.051 79.064 249.189 79.2021C254.161 84.1681 259.136 89.1341 264.113 94.1C264.274 94.2341 264.389 94.4153 264.442 94.6181C264.495 94.821 264.482 95.0353 264.407 95.2307C264.028 96.4614 263.978 97.7694 264.259 99.0257C264.541 100.282 265.145 101.443 266.012 102.395C270.258 107.217 274.804 111.767 279.624 116.015C280.585 116.888 281.757 117.494 283.024 117.774C284.291 118.054 285.609 117.998 286.848 117.612C287.211 117.517 287.47 117.457 287.781 117.767C292.862 122.877 297.954 127.976 303.058 133.062C303.084 133.088 303.119 133.166 303.196 133.252Z" fill="#EBEBEB"/>
<path d="M312.967 122.091V123.127C312.517 123.776 312.03 124.398 311.509 124.992C309.972 126.588 308.384 128.133 306.822 129.696L306.338 130.153L290.992 114.815C293.003 112.83 295.005 110.802 297.077 108.825C297.301 108.617 297.565 108.455 297.853 108.351C298.141 108.246 298.447 108.201 298.753 108.217C299.059 108.233 299.359 108.311 299.634 108.445C299.91 108.579 300.155 108.767 300.357 108.998C301.513 110.12 302.636 111.268 303.809 112.398C306.477 115.074 309.161 117.733 311.802 120.426C312.234 120.949 312.623 121.506 312.967 122.091Z" fill="#EBEBEB"/>
<path d="M272.736 85.4253C270.837 87.2638 268.895 89.0591 267.013 90.8372L251.788 75.6199C252.124 75.3178 252.513 74.9985 252.867 74.6532C254.265 73.2636 255.637 71.8394 257.061 70.4756C257.64 69.968 258.248 69.4953 258.883 69.0601H259.927C260.509 69.4175 261.063 69.8186 261.584 70.2598C265.313 73.9541 269.027 77.6656 272.727 81.3944C274.126 82.7927 274.126 84.0529 272.736 85.4253Z" fill="#EBEBEB"/>
<path d="M17.5645 93.8931H117.456V30.521H17.5645V93.8931Z" fill="#EBEBEB"/>
<path d="M136.144 93.8929H117.457V74.429L136.144 93.8929Z" fill="#EBEBEB"/>
<path d="M105.891 41.4744H29.1226V42.6828H105.891V41.4744Z" fill="white"/>
<path d="M68.8013 47.9824H29.1226V49.1908H68.8013V47.9824Z" fill="white"/>
<path d="M91.1999 60.9897H29.1226V62.1981H91.1999V60.9897Z" fill="white"/>
<path d="M105.891 67.4895H29.1226V68.6979H105.891V67.4895Z" fill="white"/>
<path d="M105.891 73.9888H29.1226V75.1972H105.891V73.9888Z" fill="white"/>
<path d="M56.3979 80.4968H29.1226V81.7052H56.3979V80.4968Z" fill="white"/>
<path d="M556.581 119.2H456.689V175.089H556.581V119.2Z" fill="#DBDBDB"/>
<path d="M438.002 175.097H456.69V155.634L438.002 175.097Z" fill="#DBDBDB"/>
<path d="M535.313 148.383H468.48V149.592H535.313V148.383Z" fill="white"/>
<path d="M521.572 154.892H468.48V156.1H521.572V154.892Z" fill="white"/>
<path d="M525.577 135.376H468.48V136.584H525.577V135.376Z" fill="white"/>
<path d="M543.03 128.876H468.48V130.084H543.03V128.876Z" fill="white"/>
<path d="M527.079 161.391H468.48V162.599H527.079V161.391Z" fill="white"/>
<path d="M506.114 59.7991H322.687V67.8436H506.114V59.7991Z" fill="#EBEBEB"/>
<path d="M341.011 67.8521H332.966V94.4542H341.011V67.8521Z" fill="#EBEBEB"/>
<path d="M341.011 67.8521H332.966V76.0778H341.011V67.8521Z" fill="#DBDBDB"/>
<path d="M495.833 67.8521H487.789V94.4542H495.833V67.8521Z" fill="#EBEBEB"/>
<path d="M495.833 67.8521H487.789V76.0778H495.833V67.8521Z" fill="#DBDBDB"/>
<path d="M369.84 59.799V8.53687H356.927V59.799H369.84Z" fill="#C7C7C7"/>
<path d="M369.84 11.4278V5.7915L356.927 5.7915V11.4278H369.84Z" fill="#DBDBDB"/>
<path d="M369.831 20.7411V18.6523H356.918V20.7411H369.831Z" fill="#DBDBDB"/>
<path d="M371.445 53.0831V47.4468H356.927V53.0831H371.445Z" fill="#DBDBDB"/>
<path d="M378.859 59.7987V0L369.84 0V59.7987H378.859Z" fill="#DBDBDB"/>
<path d="M377.021 28.622V5.61914H371.609V28.622H377.021Z" fill="#EBEBEB"/>
<path d="M443.016 53.4114L400.489 11.3716L394.148 17.7862L436.675 59.826L443.016 53.4114Z" fill="#C7C7C7"/>
<path d="M431.794 44.8143L415.436 28.6428L411.631 32.4916L427.99 48.6631L431.794 44.8143Z" fill="#DBDBDB"/>
<path d="M394.172 59.8162V14.3889L378.851 14.3889V59.8162H394.172Z" fill="#A6A6A6"/>
<path d="M394.172 54.9909V50.7615H378.851V54.9909H394.172Z" fill="#C7C7C7"/>
<path d="M394.172 47.991V46.3511H378.851V47.991H394.172Z" fill="#C7C7C7"/>
<path d="M356.928 59.8161V17.125H346.346V59.8161H356.928Z" fill="#A6A6A6"/>
<path d="M356.928 55.2845V51.3054H346.346V55.2845H356.928Z" fill="#C7C7C7"/>
<path d="M356.928 29.8993V25.9202H346.346V29.8993H356.928Z" fill="#C7C7C7"/>
<path d="M356.928 34.172V32.627H346.346V34.172H356.928Z" fill="#C7C7C7"/>
<path d="M486.831 39.9116L485.683 42.9585L484.975 44.8143L483.819 47.8698L479.313 59.8071H454.946L450.423 47.8698L449.267 44.8143L448.568 42.9585L447.411 39.9116L456.405 26.8005L451.744 18.1604H482.524L477.837 26.8005L486.831 39.9116Z" fill="#DBDBDB"/>
<path d="M486.831 39.9121L485.683 42.959H448.568L447.411 39.9121H486.831Z" fill="#A6A6A6"/>
<path d="M484.975 44.8149L483.819 47.8705H450.424L449.267 44.8149H484.975Z" fill="#A6A6A6"/>
<path d="M11.5752 292.451L80.4541 292.243L149.324 292.166L287.074 292.028L424.823 292.166L493.693 292.243L562.572 292.451L493.693 292.666L424.823 292.744L287.074 292.882L149.324 292.744L80.4541 292.666L11.5752 292.451Z" fill="black"/>
<path d="M279.599 292.433H385.472L364.368 169.634H285.192L279.599 292.433Z" fill="#DBDBDB"/>
<path d="M279.599 292.433H288.886L294.091 169.634H285.192L279.599 292.433Z" fill="#A6A6A6"/>
<path d="M371.592 193.707C383.573 220.465 412.523 264.873 425.478 253.868C444.856 237.417 457.976 201.027 463.155 186.31C466.063 178.067 424.071 164.274 421.499 171.757C417.84 182.391 412.1 204.617 408.777 207.768C407.05 209.416 393.292 190.108 382.882 180.95C367.855 167.752 367.769 185.162 371.592 193.707Z" fill="#AD6359"/>
<path d="M473.642 173.923C469.904 182.331 455.516 196.547 450.734 198.644C445.952 200.741 420.696 177.928 421.223 172.56C421.749 167.191 436.82 139.07 445.167 134.754C453.513 130.438 477.517 165.206 473.642 173.923Z" fill="#AD6359"/>
<path d="M423.2 166.656C423.2 166.656 423.804 154.692 420.783 144.576C418.246 136.074 413.524 123.74 418.039 122.204C427.326 119.053 439.099 149.824 439.099 149.824C439.099 149.824 442.12 164.239 433.204 168.175C427.611 170.643 423.2 166.656 423.2 166.656Z" fill="#AD6359"/>
<path d="M433.67 143.964C434.274 148.806 439.634 145.319 439.634 145.319C439.634 145.319 433.135 152.225 435.689 156.946C438.175 161.512 444.493 157.067 444.951 156.756C444.606 157.127 438.805 163.601 441.87 168.106C445.055 172.785 450.63 167.243 450.993 166.881C450.777 167.321 448.067 173.285 451.174 176.185C456.508 181.148 463.862 166.095 469.525 164.412C469.525 164.412 473.478 173.674 473.642 173.907C473.642 173.907 480.935 159.717 478.242 152.207C477.865 151.11 477.125 150.175 476.144 149.555C475.163 148.935 474.001 148.668 472.848 148.798C472.848 148.798 475.705 144.482 473.409 140.857C472.218 139.001 468.23 139.243 468.23 139.243C468.23 139.243 470.371 135.695 468.126 132.605C466.34 130.128 462.585 130.758 462.585 130.758C462.585 130.758 463.06 126.391 460.419 124.457C455.05 120.556 432.366 133.598 433.67 143.964Z" fill="#AD6359"/>
<path d="M461.938 130.784C462.015 130.741 461.938 130.628 461.895 130.654C453.384 133.123 444.796 138.423 439.323 145.474C439.142 145.707 439.436 146.096 439.686 145.88C446.755 139.709 453.444 134.815 461.938 130.784Z" fill="black"/>
<path d="M468.282 139.13C468.376 139.087 468.281 138.932 468.204 138.957C459.443 141.547 449.94 147.813 444.58 156.661C444.398 156.963 444.536 157.42 444.778 157.092C448.783 151.499 460.617 142.729 468.282 139.13Z" fill="black"/>
<path d="M450.829 167.614C456.293 159.328 463.863 153.622 472.486 148.884C472.589 148.823 472.486 148.677 472.391 148.702C467.54 149.868 462.361 153.458 458.58 156.6C455.003 159.443 452.234 163.175 450.553 167.424C450.476 167.614 450.717 167.804 450.829 167.614Z" fill="black"/>
<path d="M439.461 145.311C439.245 145.587 439.893 145.595 439.685 145.88C438.822 147.071 434.204 154.71 436.319 157.101C438.045 159.009 441.748 158.042 443.043 157.101L446.28 154.762L444.053 158.12C443.051 159.591 442.293 161.214 441.809 162.927C441.541 163.707 441.441 164.536 441.517 165.357C441.593 166.178 441.843 166.974 442.249 167.692C442.63 168.357 443.229 168.87 443.944 169.146C444.659 169.421 445.448 169.441 446.176 169.202C447.8 168.644 449.253 167.678 450.397 166.397L453.677 162.945L451.709 167.26C451.159 168.454 450.762 169.713 450.527 171.006C450.263 172.222 450.362 173.489 450.811 174.649C451.034 175.16 451.394 175.599 451.851 175.917C452.308 176.236 452.845 176.421 453.401 176.453C454.661 176.325 455.859 175.84 456.853 175.055C459.033 173.389 461.079 171.557 462.973 169.574C463.966 168.607 464.958 167.631 466.003 166.699C466.984 165.718 468.16 164.953 469.455 164.455C468.224 165.079 467.127 165.938 466.227 166.984C465.269 167.977 464.354 169.012 463.439 170.057C461.641 172.213 459.647 174.198 457.483 175.987C456.323 176.971 454.902 177.598 453.392 177.791C452.56 177.799 451.743 177.566 451.04 177.12C450.337 176.674 449.778 176.035 449.43 175.279C448.826 173.855 448.661 172.283 448.956 170.765C449.188 169.32 449.608 167.913 450.207 166.578L451.519 167.442C450.19 168.977 448.482 170.137 446.565 170.808C445.491 171.151 444.331 171.109 443.285 170.687C442.274 170.244 441.42 169.507 440.833 168.572C440.319 167.661 440.004 166.652 439.909 165.611C439.814 164.569 439.941 163.519 440.281 162.53C440.832 160.654 441.693 158.884 442.827 157.291L443.837 158.275C442.111 159.397 438.106 160.933 435.094 158.318C431.762 154.27 438.192 146.623 439.461 145.311Z" fill="black"/>
<path d="M439.633 145.319C438.7 145.691 437.717 145.921 436.716 146.001C436.314 146.042 435.908 145.975 435.541 145.807C435.173 145.638 434.858 145.375 434.627 145.043C434.22 144.244 434.055 143.344 434.152 142.453C434.204 141.469 434.308 140.442 434.463 139.381C433.806 140.248 433.341 141.245 433.099 142.307C432.933 142.879 432.882 143.479 432.949 144.072C433.015 144.664 433.199 145.238 433.488 145.759C433.865 146.301 434.398 146.716 435.015 146.95C435.61 147.145 436.247 147.169 436.854 147.019C437.936 146.76 438.909 146.165 439.633 145.319Z" fill="black"/>
<path d="M418.944 172.56L462.654 203.003C462.654 203.003 436.544 257.096 420.412 256.95C404.28 256.803 380.975 216.287 372.939 198.774C364.903 181.261 369.693 166.423 385.955 182.374C402.217 198.325 408.043 204.902 408.569 204.686C409.553 204.289 418.944 172.56 418.944 172.56Z" fill="#105C0A"/>
<path d="M462.654 203.003C462.654 203.003 444.528 240.515 429.172 252.979C426.091 255.482 423.13 256.975 420.411 256.941C404.279 256.803 380.974 216.278 372.895 198.774C367.898 187.933 367.855 178.119 372.395 176.004C375.2 174.701 379.731 176.306 385.92 182.4C402.32 198.463 407.999 204.919 408.535 204.703C409.553 204.289 418.953 172.569 418.953 172.569L462.654 203.003Z" fill="#105C0A"/>
<path d="M435.603 246.592C435.068 247.213 434.524 247.817 433.98 248.404C429.061 251.501 423.543 253.522 417.787 254.334C416.2 254.51 414.602 254.573 413.006 254.524L412.013 253.903C413.918 254.018 415.83 253.969 417.727 253.756C419.998 253.508 422.232 252.992 424.382 252.219L426.013 251.684L427.593 251.02C428.119 250.795 428.663 250.605 429.172 250.346L430.7 249.57C432.4 248.689 434.038 247.694 435.603 246.592ZM402.441 198.938C397.453 201.206 392.904 204.335 389.002 208.182C386.471 210.676 384.131 213.356 382.002 216.2C382.105 216.39 382.217 216.589 382.338 216.779C384.493 213.886 386.868 211.165 389.442 208.639C392.712 205.427 396.438 202.713 400.499 200.586L402.026 199.809C402.307 199.667 402.595 199.54 402.89 199.43L402.441 198.938ZM440.195 201.691C436.049 199.662 431.712 198.052 427.248 196.883C426.781 196.771 426.315 196.659 425.841 196.564C425.539 196.495 425.228 196.426 424.926 196.374C421.153 195.583 417.28 195.385 413.446 195.787C412.885 195.865 412.332 195.951 411.771 196.055C411.711 196.253 411.642 196.46 411.581 196.65C412.22 196.538 412.868 196.443 413.515 196.365C417.073 195.99 420.668 196.138 424.183 196.806L425.124 196.978C425.789 197.116 426.453 197.263 427.118 197.427C431.545 198.568 435.847 200.147 439.962 202.14C446.124 205.163 452.102 208.55 457.863 212.282C457.95 212.135 458.027 211.988 458.096 211.85C452.337 208.111 446.359 204.718 440.195 201.691ZM444.726 190.522C437.728 190.811 430.91 192.821 424.874 196.374L424.132 196.806C422.607 197.719 421.135 198.716 419.721 199.792C412.324 205.42 406.42 212.653 400.801 219.929C397.987 223.58 395.225 227.257 392.307 230.814C392.1 231.072 391.884 231.323 391.669 231.582L391.997 232.056C392.247 231.763 392.497 231.47 392.739 231.193C395.674 227.629 398.444 223.952 401.267 220.309C406.886 213.059 412.781 205.877 420.101 200.327C421.687 199.117 423.348 198.007 425.072 197.004C425.305 196.857 425.547 196.719 425.789 196.59C427.799 195.462 429.894 194.492 432.055 193.69L433.669 193.103C434.204 192.913 434.766 192.783 435.318 192.619L436.967 192.162L438.693 191.825C440.921 191.323 443.202 191.085 445.486 191.118H445.589L444.726 190.522ZM391.082 187.51C388.066 188.85 384.915 189.86 381.682 190.522L379.999 190.85C379.438 190.954 378.868 190.988 378.273 191.066L376.546 191.264L374.82 191.333C373.244 191.443 371.661 191.414 370.09 191.247L370.245 191.817C377.541 192.349 384.854 191.031 391.505 187.984C391.41 187.82 391.246 187.665 391.082 187.51ZM378.635 176.789C375.579 178.866 372.409 180.77 369.141 182.495C369.141 182.728 369.141 182.961 369.141 183.202C372.628 181.379 376 179.344 379.239 177.109C379.032 176.996 378.834 176.884 378.635 176.789Z" fill="white"/>
<path d="M452.323 208.078C451.166 207.12 450.001 206.188 448.827 205.256C446.445 203.374 444.063 201.501 441.68 199.637C436.933 195.934 432.082 192.36 427.197 188.847C424.426 186.845 421.698 184.739 418.841 182.866C418.828 182.856 418.812 182.848 418.796 182.844C418.779 182.84 418.762 182.839 418.745 182.841C418.729 182.844 418.712 182.849 418.698 182.858C418.683 182.867 418.67 182.878 418.66 182.892C418.65 182.905 418.643 182.921 418.638 182.937C418.634 182.954 418.633 182.971 418.636 182.988C418.638 183.004 418.644 183.021 418.652 183.035C418.661 183.05 418.672 183.063 418.686 183.073C420.956 185.075 423.39 186.905 425.747 188.813C428.103 190.72 430.442 192.637 432.833 194.501C437.586 198.195 442.397 201.818 447.265 205.368C448.62 206.369 449.958 207.422 451.365 208.363C452.081 208.846 452.763 209.382 453.488 209.848C454.213 210.314 454.99 210.711 455.698 211.237C455.714 211.247 455.733 211.25 455.751 211.246C455.769 211.242 455.786 211.232 455.797 211.218C455.809 211.203 455.815 211.185 455.814 211.166C455.813 211.148 455.805 211.13 455.793 211.116C454.61 210.124 453.505 209.045 452.323 208.078Z" fill="black"/>
<path d="M408.906 203.72C407.237 208.229 405.865 212.842 404.797 217.53C404.228 219.843 403.779 222.182 403.338 224.513C402.873 226.829 402.561 229.173 402.406 231.53C402.406 231.616 402.536 231.616 402.553 231.53C403.278 229.277 403.813 226.93 404.331 224.625C404.849 222.32 405.436 219.999 405.954 217.72C406.998 213.076 408.224 208.476 409.13 203.806C409.136 203.791 409.139 203.776 409.138 203.76C409.138 203.744 409.134 203.728 409.128 203.714C409.121 203.7 409.112 203.687 409.101 203.676C409.089 203.665 409.076 203.656 409.061 203.651C409.046 203.645 409.031 203.642 409.015 203.643C408.999 203.643 408.984 203.647 408.969 203.653C408.955 203.659 408.942 203.669 408.931 203.68C408.92 203.691 408.911 203.705 408.906 203.72Z" fill="black"/>
<path opacity="0.1" d="M429.172 252.979C426.091 255.482 423.13 256.975 420.411 256.941C404.279 256.803 380.974 216.278 372.895 198.774C367.898 187.933 367.855 178.119 372.395 176.004L429.172 252.979Z" fill="black"/>
<path d="M404.151 292.433H299.218C298.062 290.31 315.255 198.402 350.644 172.517C358.499 166.777 372.43 170.471 376.297 176.056C395.77 204.116 404.151 292.433 404.151 292.433Z" fill="#105C0A"/>
<path d="M398.694 251.633C396.075 250.705 393.507 249.636 391.004 248.43C387.491 246.747 384.099 244.883 380.724 242.915L380.232 242.621C376.779 240.576 373.326 238.409 369.943 236.225L369.46 235.915L367.164 234.43C359.395 229.45 351.748 224.323 343.453 220.335C339.353 218.285 334.999 216.787 330.506 215.881C328.251 215.479 325.955 215.351 323.67 215.501C323.1 215.501 322.539 215.622 321.943 215.7C321.555 215.778 321.167 215.829 320.77 215.907C320.83 215.769 320.882 215.639 320.951 215.501C321.262 215.441 321.581 215.389 321.892 215.32C322.461 215.251 323.04 215.165 323.618 215.122C325.926 214.966 328.245 215.091 330.523 215.493C335.064 216.391 339.465 217.892 343.608 219.955C351.946 223.943 359.646 229.07 367.397 234.033L369.675 235.492L370.167 235.802C373.62 238.021 377.073 240.222 380.655 242.302L381.147 242.595C384.426 244.503 387.767 246.316 391.202 247.947C393.602 249.095 396.059 250.118 398.565 251.011L398.694 251.633ZM389.355 207.811L389.001 208.147C382.346 214.63 377.375 222.536 372.688 230.442C371.698 232.128 370.703 233.812 369.701 235.492C369.624 235.638 369.546 235.777 369.46 235.915C368.191 238.055 366.913 240.187 365.584 242.285C364.419 244.132 363.202 245.953 361.907 247.714C361.786 247.878 361.674 248.042 361.553 248.197C360.243 249.967 358.831 251.659 357.324 253.264C355.753 254.931 354.018 256.434 352.145 257.752L351.446 258.244C351.213 258.408 350.954 258.538 350.712 258.684L349.236 259.548C348.219 260.061 347.169 260.508 346.094 260.885C341.74 262.331 337.182 263.069 332.595 263.069C328.023 263.051 323.468 262.533 319.009 261.524C314.693 260.609 310.507 259.384 306.286 258.158C306.286 258.296 306.217 258.434 306.174 258.564C310.386 259.798 314.615 261.041 318.914 261.964C323.426 262.994 328.036 263.526 332.664 263.553C337.303 263.555 341.913 262.815 346.319 261.36C347.419 260.982 348.491 260.529 349.53 260.005L351.04 259.142C351.295 259.006 351.543 258.856 351.782 258.693L352.499 258.192C354.4 256.861 356.162 255.34 357.755 253.652C359.362 251.932 360.867 250.12 362.261 248.223C362.39 248.059 362.503 247.904 362.615 247.74C363.84 246.065 364.997 244.348 366.067 242.604C367.405 240.507 368.657 238.375 369.952 236.243L370.202 235.82L373.197 230.762C377.893 222.864 382.864 215.027 389.45 208.622L389.562 208.518C389.485 208.268 389.415 208.035 389.355 207.811ZM394.335 228.31C393.671 229.174 392.998 229.985 392.316 230.814C389.458 234.406 386.264 237.718 382.778 240.705C382.087 241.249 381.397 241.793 380.68 242.302L380.232 242.621C379.233 243.326 378.186 243.961 377.098 244.52L376.347 244.926C376.097 245.064 375.821 245.159 375.562 245.28L373.991 245.953C372.92 246.34 371.824 246.654 370.711 246.894C368.036 247.467 365.308 247.756 362.572 247.757H361.907C360.284 247.757 358.662 247.628 357.048 247.455C352.492 246.881 348.014 245.808 343.695 244.253C339.379 242.759 335.124 240.921 330.894 239.074C326.685 237.169 322.361 235.529 317.947 234.163C316.644 233.791 315.358 233.463 313.977 233.222L313.847 233.593C315.194 233.843 316.532 234.163 317.835 234.542C322.223 235.913 326.521 237.556 330.704 239.462C334.934 241.283 339.163 243.131 343.522 244.641C347.879 246.209 352.394 247.297 356.987 247.886C358.506 248.059 360.025 248.171 361.545 248.197C361.769 248.197 361.985 248.197 362.209 248.197C365.107 248.244 368.002 247.972 370.841 247.386C371.975 247.135 373.094 246.815 374.19 246.428L375.795 245.737C376.063 245.616 376.33 245.521 376.589 245.383L377.357 244.969C378.536 244.368 379.667 243.679 380.741 242.906L381.19 242.587C381.846 242.112 382.493 241.611 383.132 241.102C386.653 238.103 389.879 234.774 392.764 231.159C393.34 230.451 393.915 229.735 394.491 229.01C394.439 228.785 394.387 228.543 394.335 228.31ZM383.494 190.116C382.89 190.263 382.286 190.401 381.682 190.522L379.999 190.85C379.438 190.954 378.868 190.988 378.272 191.066L376.546 191.264L374.82 191.333C372.54 191.481 370.252 191.359 368.001 190.971C364.47 190.36 361.049 189.229 357.85 187.613L356.987 187.19C356.383 186.879 355.787 186.551 355.2 186.215C351.249 183.895 347.542 181.183 344.135 178.119L343.755 178.498C347.194 181.595 350.933 184.342 354.916 186.698C355.33 186.94 355.779 187.173 356.176 187.397L357.039 187.829C360.452 189.62 364.12 190.874 367.915 191.549C373.174 192.287 378.528 191.994 383.676 190.686C383.641 190.496 383.563 190.306 383.494 190.116ZM377.349 177.644C372.765 180.719 367.873 183.308 362.753 185.369C360.896 186.092 358.997 186.701 357.065 187.19L356.253 187.397C354.01 187.919 351.731 188.274 349.435 188.459L347.708 188.571C347.139 188.614 346.569 188.571 345.982 188.571H344.256L342.529 188.433C340.45 188.313 338.389 187.969 336.384 187.406C336.263 187.57 336.142 187.734 336.03 187.907C342.923 189.638 350.141 189.611 357.022 187.829L357.885 187.613C359.607 187.157 361.301 186.604 362.96 185.956C368.107 183.881 373.024 181.277 377.634 178.188L377.349 177.644ZM403.165 283.405C402.302 283.405 401.37 283.483 400.472 283.508H400.403L399.877 283.552C395.453 284.015 391.154 285.294 387.197 287.324C384.366 288.802 381.661 290.511 379.11 292.433H379.653C382.088 290.631 384.662 289.026 387.353 287.634C391.344 285.596 395.684 284.329 400.144 283.897H400.464H400.671C401.534 283.897 402.345 283.802 403.174 283.811C403.191 283.655 403.183 283.534 403.165 283.405ZM403.614 287.375C402.676 286.184 401.707 285.013 400.705 283.862C400.61 283.742 400.507 283.629 400.403 283.517L400.049 283.103C397.034 279.588 393.565 276.488 389.735 273.884C387.791 272.616 385.698 271.593 383.503 270.838C382.959 270.656 382.389 270.501 381.837 270.346C381.285 270.19 380.706 270.069 380.111 269.992C378.971 269.776 377.806 269.759 376.658 269.646C372.018 269.477 367.388 270.213 363.029 271.813C358.71 273.455 354.585 275.568 350.729 278.114C343.824 282.559 337.532 287.79 330.808 292.433H331.093C337.782 287.867 344.04 282.732 350.876 278.381C354.718 275.854 358.829 273.761 363.133 272.141C367.449 270.561 372.031 269.837 376.624 270.009C377.754 270.13 378.911 270.147 380.033 270.363C380.603 270.44 381.147 270.604 381.708 270.717C382.269 270.829 382.812 271.019 383.348 271.2C385.511 271.949 387.572 272.964 389.485 274.221C393.282 276.807 396.716 279.89 399.696 283.388C399.747 283.448 399.799 283.5 399.842 283.56L400.144 283.897C401.353 285.304 402.535 286.737 403.675 288.213C403.683 287.936 403.649 287.669 403.597 287.375H403.614Z" fill="white"/>
<path d="M336.713 183.781C315.35 208.493 286.555 252.142 298.32 261.792C317.663 277.656 374.156 286.823 387.12 288.359C392.713 289.033 403.917 252.47 400.18 247.74C396.442 243.01 336.713 239.669 336.307 236.001C336.074 233.921 345.146 215.829 350.98 193.638C357.687 168.054 342.729 176.815 336.713 183.781Z" fill="#AD6359"/>
<path d="M390.391 244.727C390.391 244.727 407.533 244.598 418.745 245.038C425.003 245.28 435.689 246.661 440.203 248.948C446.953 252.357 473.002 270.958 468.635 277.371C464.673 283.172 444.32 264.355 444.32 264.355C444.32 264.355 466.538 281.532 460.487 287.66C454.436 293.788 434.265 269.465 434.265 269.465C434.265 269.465 456.706 287.591 449.465 292.942C443.992 296.956 424.485 275.964 424.485 275.964C424.485 275.964 443.656 291.7 438.209 296.076C432.167 300.909 412.962 282.662 412.962 282.662C397.253 291.449 386.205 289.205 378.436 286.676C376.615 286.029 390.391 244.727 390.391 244.727Z" fill="#AD6359"/>
<path d="M437.019 257.925C439.704 259.85 442.431 261.775 444.935 263.967C447.438 266.159 449.863 268.36 452.159 270.743C457.778 276.578 460.385 281.1 460.186 280.842C455.663 274.636 446.825 266.79 444.322 264.632C441.819 262.474 439.428 260.204 436.933 258.055C436.873 257.96 436.959 257.882 437.019 257.925Z" fill="black"/>
<path d="M429.078 266.824C432.393 269.414 435.785 271.882 438.987 274.636C442.189 277.389 446.522 281.36 449.517 284.311C449.742 284.536 449.517 284.967 449.276 284.752C446.168 281.921 441.551 278.054 438.409 275.257C435.267 272.461 432.237 269.552 429.009 266.885C428.957 266.876 429.026 266.781 429.078 266.824Z" fill="black"/>
<path d="M420.861 273.229C426.135 276.949 430.718 281.636 435.103 286.34C435.327 286.573 435.103 286.607 434.827 286.383C430.174 281.938 426.549 278.416 420.731 273.436C420.662 273.332 420.775 273.151 420.861 273.229Z" fill="black"/>
<path d="M387.983 244.184C395.803 244.132 418.772 244.072 426.575 244.676C433.48 245.202 439.168 246.687 444.96 250.519C457.389 258.737 465.399 268.386 467.401 271.235C468.61 272.961 470.362 275.749 468.765 277.683C466.806 280.03 459.598 277.734 451.994 270.855C451.718 270.605 451.891 270.449 452.175 270.682C462.853 279.314 467.099 278.33 468.213 276.854C468.938 275.896 468.213 274.264 467.591 272.97C466.552 271.138 465.281 269.446 463.811 267.938C458.906 262.691 453.481 257.957 447.618 253.808C441.337 249.119 433.854 246.309 426.039 245.703C418.047 245.047 395.933 245.254 387.949 244.486C387.785 244.434 387.811 244.193 387.983 244.184Z" fill="black"/>
<path d="M461.757 284.208C461.317 282.076 459.78 280.125 458.563 278.364C457.085 276.148 455.387 274.087 453.497 272.21C453.419 272.132 453.272 272.21 453.35 272.331C454.96 274.213 456.456 276.191 457.83 278.252C458.56 279.386 459.223 280.562 459.815 281.774C460.376 282.939 461.04 284.286 460.747 285.615C460.195 288.152 456.966 288.092 455.059 287.41C453.823 286.945 452.633 286.367 451.503 285.684C449.963 284.703 448.503 283.604 447.135 282.395C447.023 282.292 446.712 282.335 446.833 282.447C449.681 285.157 455.076 290.794 459.478 288.731C460.323 288.357 461.012 287.702 461.428 286.877C461.843 286.053 461.96 285.109 461.757 284.208Z" fill="black"/>
<path d="M390.651 242.509L370.117 289.119C370.117 289.119 298.355 272.918 294.195 259.297C290.034 245.677 312.519 209.235 332.812 186.482C352.768 164.127 355.72 179.292 350.757 196.581C345.794 213.87 337.654 233.8 338.56 235.293C339.467 236.786 390.651 242.509 390.651 242.509Z" fill="#105C0A"/>
<path d="M343.178 219.748C343.126 219.877 343.083 220.015 343.031 220.145C339.044 218.184 334.82 216.751 330.463 215.881C328.208 215.479 325.913 215.351 323.627 215.501C323.058 215.501 322.497 215.622 321.901 215.7C321.305 215.777 320.779 215.872 320.227 216.028C319.104 216.269 318.043 216.701 316.947 217.038C312.717 218.647 308.837 221.056 305.519 224.133L306.062 223.192C309.228 220.397 312.871 218.195 316.817 216.692C317.922 216.347 319.001 215.907 320.14 215.665C320.701 215.51 321.28 215.441 321.867 215.32C322.453 215.199 323.015 215.165 323.593 215.121C325.901 214.966 328.22 215.091 330.498 215.493C334.892 216.354 339.154 217.784 343.178 219.748ZM381.156 242.595L380.664 242.302L378.696 241.137L377.505 240.999C378.368 241.542 379.309 242.095 380.215 242.621L380.707 242.915C383.297 244.425 385.886 245.875 388.544 247.23L388.752 246.756C386.197 245.435 383.668 244.045 381.156 242.595ZM367.147 239.738C366.629 240.601 366.103 241.465 365.568 242.285C364.402 244.132 363.185 245.953 361.891 247.714C361.77 247.878 361.657 248.042 361.537 248.197C360.226 249.967 358.814 251.659 357.307 253.264C355.736 254.93 354.001 256.434 352.128 257.752L351.429 258.244C351.196 258.408 350.937 258.538 350.696 258.684L349.22 259.548C348.202 260.061 347.153 260.508 346.078 260.885C341.724 262.331 337.166 263.069 332.578 263.069C328.013 263.05 323.463 262.532 319.01 261.524C314.513 260.566 310.102 259.263 305.674 257.977C301.747 256.837 297.793 255.689 293.754 254.938C293.754 255.076 293.754 255.215 293.754 255.344C297.75 256.095 301.66 257.252 305.57 258.382C309.99 259.677 314.418 260.972 318.932 261.964C323.444 262.994 328.054 263.526 332.682 263.552C337.321 263.555 341.931 262.815 346.337 261.36C347.437 260.982 348.509 260.529 349.548 260.005L351.058 259.142C351.313 259.006 351.561 258.856 351.8 258.693L352.517 258.192C354.418 256.861 356.18 255.34 357.773 253.652C359.38 251.932 360.885 250.119 362.279 248.223C362.408 248.059 362.521 247.904 362.633 247.74C363.859 246.065 365.015 244.348 366.085 242.604C366.672 241.689 367.242 240.757 367.812 239.833L367.147 239.738ZM381.752 241.465C381.398 241.741 381.035 242.017 380.664 242.276L380.215 242.595C379.216 243.3 378.169 243.935 377.082 244.494L376.331 244.9C376.081 245.038 375.804 245.133 375.545 245.254L373.975 245.927C372.904 246.314 371.808 246.628 370.695 246.868C368.019 247.441 365.291 247.73 362.555 247.731H361.891C360.268 247.731 358.645 247.602 357.031 247.429C352.476 246.855 347.998 245.782 343.678 244.227C339.362 242.733 335.107 240.895 330.878 239.048C326.668 237.143 322.344 235.503 317.931 234.137C313.503 232.868 308.781 232.177 304.198 233.075C302.74 233.368 301.329 233.859 300.003 234.534C299.917 234.706 299.83 234.887 299.753 235.06C301.171 234.304 302.692 233.757 304.267 233.437C308.773 232.574 313.434 233.247 317.818 234.516C322.206 235.887 326.504 237.53 330.688 239.436C334.917 241.257 339.147 243.105 343.506 244.615C347.867 246.193 352.388 247.29 356.988 247.886C358.507 248.059 360.026 248.171 361.545 248.197C361.77 248.197 361.985 248.197 362.21 248.197C365.108 248.244 368.003 247.972 370.841 247.386C371.976 247.135 373.095 246.815 374.19 246.428L375.796 245.737C376.063 245.616 376.331 245.521 376.59 245.383L377.358 244.969C378.537 244.368 379.668 243.679 380.742 242.906L381.19 242.587C381.639 242.259 382.054 241.913 382.537 241.568L381.752 241.465ZM344.17 178.075C343.799 177.747 343.437 177.428 343.074 177.091L342.608 177.393L343.816 178.472C346.626 180.989 349.628 183.283 352.793 185.334C352.793 185.119 352.793 184.903 352.793 184.696C349.763 182.716 346.887 180.512 344.187 178.101L344.17 178.075ZM349.418 188.433L347.692 188.545C347.122 188.588 346.552 188.545 345.966 188.545H344.239L342.513 188.407C340.23 188.271 337.971 187.871 335.78 187.216C334.822 186.931 333.873 186.603 332.941 186.223L332.734 186.456L332.535 186.681C333.541 187.103 334.57 187.469 335.616 187.777C341.083 189.237 346.792 189.554 352.387 188.709C352.387 188.493 352.448 188.286 352.482 188.071C351.524 188.26 350.48 188.381 349.435 188.459L349.418 188.433ZM376.659 269.62C372.017 269.459 367.387 270.204 363.03 271.813C358.711 273.455 354.586 275.568 350.73 278.114C348.572 279.512 346.466 280.979 344.386 282.49L344.723 282.585C346.742 281.126 348.788 279.719 350.885 278.381C354.727 275.853 358.838 273.76 363.142 272.141C367.458 270.561 372.04 269.837 376.633 270.009C377.229 270.069 377.824 270.104 378.42 270.156L378.584 269.793C377.971 269.741 377.315 269.707 376.676 269.646L376.659 269.62Z" fill="white"/>
<path d="M361.882 281.411C362.581 280.082 363.254 278.753 363.927 277.415C365.279 274.705 366.626 271.989 367.967 269.267C370.625 263.864 373.146 258.391 375.571 252.867C376.961 249.742 378.471 246.652 379.723 243.467C379.738 243.435 379.739 243.399 379.727 243.366C379.715 243.332 379.69 243.305 379.658 243.29C379.626 243.276 379.589 243.274 379.556 243.286C379.523 243.298 379.496 243.323 379.481 243.355C377.988 245.988 376.693 248.741 375.312 251.443C373.931 254.145 372.524 256.82 371.195 259.548C368.548 264.951 365.981 270.398 363.496 275.887C362.796 277.424 362.037 278.943 361.407 280.514C361.079 281.316 360.699 282.093 360.38 282.904C360.06 283.716 359.819 284.544 359.516 285.347C359.513 285.356 359.51 285.365 359.51 285.374C359.509 285.384 359.511 285.393 359.514 285.402C359.517 285.411 359.522 285.419 359.529 285.426C359.535 285.433 359.543 285.438 359.551 285.442C359.56 285.446 359.569 285.448 359.578 285.449C359.587 285.449 359.597 285.448 359.606 285.445C359.614 285.441 359.623 285.436 359.629 285.43C359.636 285.424 359.642 285.416 359.646 285.408C360.345 284.07 361.165 282.775 361.882 281.411Z" fill="black"/>
<path d="M371.661 285.917L370.22 289.18L370.176 289.283H370.038C363.245 288.023 356.496 286.512 349.789 284.829C343.082 283.146 336.428 281.239 329.842 279.115C323.232 277.026 316.751 274.553 310.43 271.709C307.258 270.283 304.194 268.627 301.263 266.755C299.8 265.801 298.418 264.73 297.129 263.553C295.799 262.413 294.781 260.955 294.168 259.315C294.931 260.855 296.046 262.194 297.422 263.225C298.784 264.271 300.231 265.204 301.746 266.013C304.744 267.679 307.84 269.164 311.017 270.458C317.361 273.09 323.877 275.335 330.429 277.441C336.98 279.547 343.592 281.506 350.221 283.388C356.85 285.269 363.504 287.134 370.168 288.921L369.995 289.007L371.661 285.917Z" fill="black"/>
<path d="M389.831 244.322L390.547 242.466L390.625 242.595C383.426 242.121 376.236 241.542 369.046 240.791C361.856 240.04 354.71 239.22 347.563 238.15C345.776 237.874 343.989 237.58 342.203 237.235C341.34 237.054 340.416 236.881 339.492 236.622C339.259 236.553 339.035 236.484 338.785 236.389C338.641 236.343 338.502 236.282 338.37 236.208C338.27 236.154 338.174 236.09 338.085 236.018C337.992 235.94 337.914 235.847 337.852 235.742C337.817 235.675 337.786 235.605 337.757 235.535C337.752 235.501 337.752 235.466 337.757 235.431C337.723 235.103 337.74 234.771 337.809 234.447C337.852 234.214 337.896 233.964 337.956 233.748C338.871 230.166 340.028 226.783 341.201 223.39C343.549 216.563 346.104 209.822 348.797 203.124C346.717 210.029 344.585 216.934 342.462 223.839C341.443 227.292 340.321 230.744 339.536 234.197C339.484 234.413 339.458 234.611 339.415 234.818C339.372 235.026 339.415 235.267 339.372 235.181C339.362 235.135 339.344 235.091 339.32 235.051C339.32 234.965 339.164 234.879 339.199 234.896C339.156 234.896 339.233 234.913 339.199 234.896L339.415 234.982L339.984 235.164C340.848 235.388 341.711 235.552 342.574 235.725C344.3 236.044 346.104 236.32 347.874 236.588C351.43 237.123 354.992 237.627 358.559 238.098L369.271 239.54C376.409 240.489 383.547 241.508 390.686 242.552H390.815L390.763 242.664L389.831 244.322Z" fill="black"/>
<path d="M349.564 207.543C349.058 208.761 348.418 209.919 347.657 210.996C346.941 212.098 346.069 213.089 345.067 213.939C345.723 212.791 346.423 211.704 347.165 210.625C347.885 209.538 348.687 208.508 349.564 207.543Z" fill="black"/>
<path d="M370.478 191.601C364.385 193.327 353.405 184.411 348.9 176.979C348.589 176.47 349.815 155.478 349.625 151.292C349.625 150.429 376.158 156.471 376.158 156.471C376.158 156.471 373.974 165.361 374.354 172.655C374.38 173.276 376.356 189.926 370.478 191.601Z" fill="#AD6359"/>
<path d="M349.219 164.438C361.64 173.207 373.741 169.841 374.25 169.686C374.455 165.236 375.07 160.815 376.089 156.48C376.089 156.48 349.504 150.438 349.547 151.301C349.703 153.26 349.487 158.922 349.219 164.438Z" fill="black"/>
<path d="M376.029 139.182C376.71 145.379 381.673 149.919 387.103 149.315C392.532 148.711 396.39 143.213 395.734 137.024C395.078 130.835 390.098 126.287 384.66 126.891C379.222 127.495 375.347 132.993 376.029 139.182Z" fill="#455A64"/>
<path d="M372.887 139.924C373.646 146.83 379.162 151.862 385.204 151.197C391.246 150.533 395.561 144.413 394.776 137.516C393.99 130.62 388.51 125.579 382.459 126.244C376.408 126.908 372.127 133.037 372.887 139.924Z" fill="#C7C7C7"/>
<path d="M345.949 119.753C343.048 129.057 347.804 156.005 354.39 162.047C363.945 170.808 379.672 171.731 387.129 160.234C394.362 149.082 387.544 114.082 380.172 108.583C369.323 100.47 350.23 106.02 345.949 119.753Z" fill="#AD6359"/>
<path d="M368.338 136.671C368.338 136.61 368.217 136.783 368.235 136.861C368.632 138.656 368.796 140.788 367.276 141.703C367.225 141.703 367.276 141.824 367.276 141.798C369.253 141.133 369.011 138.311 368.338 136.671Z" fill="black"/>
<path d="M366.361 135.091C363.409 135.428 364.299 141.314 367.035 141.004C369.771 140.693 368.839 134.815 366.361 135.091Z" fill="black"/>
<path d="M378.817 135.255C378.817 135.186 378.972 135.324 378.981 135.402C379.196 137.231 379.757 139.286 381.492 139.648C381.544 139.648 381.561 139.752 381.492 139.752C379.429 139.769 378.73 137.024 378.817 135.255Z" fill="black"/>
<path d="M380.155 133.088C383.055 132.424 384.168 138.267 381.484 138.889C378.8 139.51 377.703 133.667 380.155 133.088Z" fill="black"/>
<path d="M363.634 132.752C364.374 132.41 365.095 132.027 365.792 131.604C366.607 131.306 367.302 130.747 367.768 130.015C367.869 129.756 367.882 129.471 367.804 129.204C367.726 128.937 367.562 128.703 367.337 128.539C366.846 128.282 366.294 128.16 365.74 128.188C365.186 128.215 364.65 128.39 364.186 128.695C363.146 129.164 362.318 130.004 361.864 131.051C361.774 131.296 361.756 131.561 361.814 131.815C361.873 132.069 362.004 132.301 362.192 132.482C362.38 132.662 362.616 132.784 362.872 132.832C363.129 132.88 363.393 132.852 363.634 132.752Z" fill="black"/>
<path d="M382.019 129.8C381.204 129.759 380.391 129.676 379.585 129.549C378.718 129.582 377.866 129.327 377.159 128.824C376.965 128.623 376.844 128.362 376.814 128.084C376.785 127.806 376.848 127.526 376.995 127.288C377.357 126.866 377.823 126.547 378.348 126.364C378.872 126.18 379.436 126.139 379.982 126.243C381.121 126.291 382.201 126.762 383.011 127.564C383.185 127.756 383.3 127.994 383.34 128.25C383.381 128.506 383.347 128.768 383.242 129.005C383.137 129.241 382.966 129.442 382.748 129.584C382.531 129.725 382.278 129.8 382.019 129.8Z" fill="black"/>
<path d="M369.339 153.752C369.84 154.115 370.367 154.615 371.066 154.615C371.742 154.501 372.386 154.245 372.956 153.864C372.966 153.852 372.981 153.844 372.997 153.842C373.014 153.841 373.03 153.845 373.042 153.856C373.055 153.866 373.063 153.881 373.065 153.897C373.066 153.913 373.061 153.929 373.051 153.942C372.846 154.341 372.536 154.677 372.154 154.913C371.772 155.149 371.333 155.276 370.884 155.28C370.499 155.241 370.134 155.088 369.835 154.84C369.537 154.593 369.319 154.262 369.21 153.89C369.132 153.804 369.262 153.7 369.339 153.752Z" fill="black"/>
<path d="M370.427 148.012C370.999 148.662 371.699 149.187 372.483 149.554C373.268 149.921 374.119 150.122 374.985 150.144C375.743 150.174 376.502 150.096 377.238 149.911C377.38 149.885 377.518 149.845 377.652 149.79C377.783 149.757 377.913 149.716 378.04 149.669C378.135 149.637 378.217 149.576 378.273 149.493C378.329 149.41 378.356 149.312 378.351 149.212C378.346 149.15 378.331 149.089 378.308 149.031V148.875C378.127 147.468 377.669 145.354 377.669 145.354C378.222 145.535 381.018 146.312 380.863 145.587C379.585 139.545 378.161 132.881 375.615 127.176C375.598 127.138 375.568 127.108 375.53 127.091C375.492 127.074 375.45 127.071 375.41 127.082C375.37 127.094 375.336 127.119 375.313 127.154C375.291 127.188 375.281 127.23 375.287 127.271C376.288 133.097 378.308 138.707 379.413 144.534C378.418 144.242 377.386 144.094 376.349 144.093C376.159 144.18 377.307 148.159 377.333 148.798C377.338 148.82 377.338 148.844 377.333 148.867C375.019 149.523 373.138 149.082 370.609 147.848C370.419 147.762 370.298 147.883 370.427 148.012Z" fill="black"/>
<path d="M376.297 149.324C375.683 150.442 374.791 151.381 373.707 152.052C373.102 152.397 372.406 152.547 371.713 152.484C370.203 152.32 369.987 150.99 370.056 149.808C370.113 149.179 370.244 148.559 370.444 147.961C372.2 149.027 374.25 149.504 376.297 149.324Z" fill="black"/>
<path d="M373.698 152.078C373.094 152.422 372.398 152.573 371.705 152.509C370.194 152.345 369.978 151.016 370.047 149.833C371.661 149.73 373.336 150.558 373.698 152.078Z" fill="#FF99BA"/>
<path opacity="0.2" d="M350.367 129.325C349.306 132.001 347.122 138.284 345.879 138.725C344.697 129.99 344.653 122.066 346.82 117.198C347.716 115.187 348.974 113.359 350.531 111.803C350.713 114.142 351.498 126.528 350.367 129.325Z" fill="black"/>
<path d="M373.716 116.835C372.977 118.116 371.921 119.186 370.65 119.942C369.379 120.697 367.935 121.114 366.457 121.151C364.952 121.19 363.462 120.845 362.128 120.147C360.794 119.449 359.661 118.422 358.835 117.163C358.831 117.155 358.824 117.149 358.817 117.143C358.81 117.137 358.802 117.133 358.793 117.131C358.784 117.128 358.775 117.128 358.766 117.129C358.757 117.13 358.748 117.133 358.74 117.138C358.732 117.142 358.725 117.148 358.72 117.155C358.714 117.163 358.71 117.171 358.708 117.18C358.705 117.188 358.704 117.198 358.706 117.207C358.707 117.216 358.71 117.225 358.714 117.232C359.465 118.637 360.586 119.81 361.955 120.624C363.324 121.438 364.89 121.862 366.483 121.85C368.043 121.762 369.553 121.265 370.86 120.409C372.168 119.553 373.227 118.368 373.931 116.974C373.95 116.945 373.956 116.91 373.949 116.877C373.941 116.844 373.921 116.815 373.893 116.797C373.864 116.778 373.829 116.772 373.796 116.779C373.763 116.787 373.734 116.807 373.716 116.835Z" fill="black"/>
<path d="M391.721 102.947C390.478 100.654 388.463 98.8741 386.033 97.9237C382.667 96.5944 379.292 97.4835 375.951 98.4416C375.933 98.4416 375.915 98.4489 375.903 98.4618C375.89 98.4748 375.882 98.4923 375.882 98.5106C375.882 98.5289 375.89 98.5465 375.903 98.5595C375.915 98.5724 375.933 98.5797 375.951 98.5797C378.791 97.777 381.726 97.1296 384.626 98.01C387.026 98.7281 389.106 100.252 390.513 102.326C391.885 104.473 392.439 107.042 392.073 109.563C391.706 112.085 390.445 114.39 388.519 116.058C387.383 116.99 386.07 117.68 384.658 118.085C383.246 118.49 381.767 118.602 380.31 118.415C380.198 118.415 380.146 118.57 380.267 118.587C382.25 118.924 384.287 118.701 386.15 117.943C388.013 117.186 389.628 115.924 390.813 114.299C391.998 112.674 392.707 110.751 392.86 108.746C393.013 106.741 392.603 104.733 391.678 102.947H391.721Z" fill="black"/>
<path d="M345.163 125.13C345.163 125.13 338.922 117.111 341.943 111.32C343.67 108.031 351.101 107.125 351.101 107.125C351.101 107.125 352.828 103.318 358.706 100.85C364.584 98.3811 372.516 99.8312 372.516 99.8312C372.516 99.8312 377.79 95.4465 383.832 97.6216C392.256 100.66 393.326 112.494 386.283 117.586C381.329 121.168 373.146 117.664 373.146 117.664C372.456 117.88 365.982 123.507 359.388 118.009C359.388 118.009 355.633 122.739 351.153 120.668C350.729 121.934 349.928 123.04 348.857 123.838C347.787 124.635 346.497 125.086 345.163 125.13Z" fill="black"/>
<path d="M351.568 141.72C351.568 141.72 345.362 133.089 341.443 135.324C337.524 137.56 342.306 150.101 346.932 151.724C347.513 151.979 348.14 152.115 348.775 152.123C349.409 152.13 350.039 152.009 350.626 151.767C351.213 151.526 351.745 151.168 352.19 150.715C352.635 150.263 352.984 149.725 353.216 149.134L351.568 141.72Z" fill="#AD6359"/>
<path d="M342.893 138.897C342.815 138.897 342.807 138.992 342.893 139.018C346.164 140.296 347.917 143.282 349.159 146.389C348.176 145.198 346.855 144.559 345.258 145.733C345.172 145.794 345.258 145.923 345.344 145.906C345.913 145.725 346.524 145.723 347.093 145.9C347.663 146.078 348.164 146.426 348.529 146.899C349.143 147.702 349.667 148.57 350.092 149.488C350.247 149.773 350.765 149.609 350.653 149.281V149.203C350.653 145.008 347.347 139.251 342.893 138.897Z" fill="black"/>
<path d="M346.396 135.678C346.396 135.678 343.039 122.299 345.654 114.099C348.563 104.985 359.533 96.0597 372.498 99.8489C372.498 99.8489 358.109 101.705 351.118 113.728C347.907 119.252 350.988 135.203 350.988 135.203L346.396 135.678Z" fill="#C7C7C7"/>
<path d="M360.328 140.183C361.64 147.089 357.817 153.597 351.775 154.753C345.733 155.91 339.76 151.301 338.439 144.396C337.118 137.49 340.951 130.982 346.993 129.826C353.035 128.669 359.008 133.295 360.328 140.183Z" fill="#C7C7C7"/>
<path d="M357.066 140.408C358.248 146.597 354.804 152.492 349.375 153.502C343.946 154.512 338.577 150.351 337.395 144.171C336.212 137.991 339.647 132.087 345.077 131.077C350.506 130.067 355.874 134.21 357.066 140.408Z" fill="#455A64"/>
<path d="M14.5781 292.433H120.451L99.3389 169.634H20.1713L14.5781 292.433Z" fill="#DBDBDB"/>
<path d="M14.5781 292.433H23.8569L29.0703 169.634H20.1713L14.5781 292.433Z" fill="#A6A6A6"/>
<path d="M77.3292 116.075C67.498 125.855 64.6755 141.97 64.6755 141.97C64.6755 141.97 55.25 158.188 57.8826 167.001C58.5789 169.5 59.871 171.792 61.6479 173.682C63.4249 175.572 65.6337 177.002 68.085 177.851L67.1528 172.983C67.1528 172.983 70.3119 179.24 80.8681 181.761C91.4244 184.281 105.39 181.036 112.658 177.359C116.965 175.202 120.641 171.967 123.326 167.968L120.607 175.045C120.607 175.045 130.853 174.683 136.938 163.781C143.023 152.88 125.544 137.214 124.06 133.839C122.575 130.464 120.694 105.873 94.8252 110.111C94.8597 110.051 84.1308 109.343 77.3292 116.075Z" fill="black"/>
<path d="M64.3819 177.152C61.6888 175.141 59.0304 172.836 57.5457 169.988C55.9269 167.035 55.3521 163.623 55.9144 160.303C56.6308 156.324 58.7283 152.811 60.7653 149.384C62.8023 145.958 65.2536 142.479 67.2993 138.88C67.4115 138.681 67.1094 138.517 66.9713 138.673C64.6729 141.372 62.5288 144.199 60.5495 147.14C58.5245 149.83 56.8212 152.747 55.4742 155.832C54.2152 158.673 53.8017 161.817 54.2831 164.886C54.7922 167.382 55.9001 169.716 57.5112 171.688C59.4188 174.062 61.8269 175.581 64.2437 177.367C64.3818 177.48 64.5286 177.264 64.3819 177.152Z" fill="black"/>
<path d="M139.157 152.509C136.049 143.454 127.936 137.706 122.956 129.808C120.28 125.536 118.2 120.806 114.713 117.094C114.618 116.99 114.445 117.154 114.531 117.258C117.397 120.598 119.054 124.621 121.126 128.479C123.333 132.276 125.912 135.844 128.825 139.13C133.952 145.276 140.089 152.552 138.915 161.158C138.371 165.128 136.024 169.53 131.95 170.764C131.794 170.816 131.889 171.075 132.044 171.006C133.651 170.361 135.11 169.395 136.331 168.168C137.552 166.941 138.511 165.478 139.148 163.868C140.521 160.206 140.524 156.172 139.157 152.509Z" fill="black"/>
<path d="M139.528 154.943C139.808 151.514 139.018 148.082 137.267 145.12C135.48 142.203 132.675 140.097 129.869 138.215C126.633 136.066 123.223 134.02 121.169 130.611C121.083 130.464 120.875 130.611 120.953 130.758C124.216 136.385 130.448 139.009 134.617 143.748C139.407 149.16 139.416 157.04 136.119 163.229C134.023 167.002 131.066 170.225 127.487 172.637C127.427 172.637 127.487 172.767 127.556 172.724C133.659 168.719 139.036 162.556 139.528 154.943Z" fill="black"/>
<path d="M100.41 196.193C126.606 210.573 157.964 228.621 177.178 224.375C185.697 222.493 223.952 172.344 225.574 166.544C226.964 161.564 192.326 141.513 188.459 145.44C181.934 152.026 164.291 189.107 161.702 189.728C159.112 190.35 137.119 185.887 114.229 181.753C92.2012 177.799 82.2233 186.215 100.41 196.193Z" fill="#EB9481"/>
<path d="M221.855 172.793C224.842 169.029 237.029 150.575 239.265 144.68C241.5 138.785 246.731 121.375 242.398 119.183C238.065 116.99 236.149 121.954 236.149 121.954C236.149 121.954 237.193 114.246 232.627 112.459C228.061 110.672 225.299 118.501 225.299 118.501C225.299 118.501 225.791 110.508 221.104 109.006C216.417 107.504 214.967 115.911 214.967 115.911C214.967 115.911 215.761 108.627 211.394 109.006C206.146 109.516 206.215 123.119 203.246 129.437C202.572 130.87 187.528 157.558 187.528 157.558L221.855 172.793Z" fill="#EB9481"/>
<path d="M215.07 115.23C215.07 125.234 213.343 129.618 208.164 137.956C208.061 138.112 208.277 138.302 208.406 138.146C214.276 130.447 217.227 125.268 215.588 115.204C215.475 114.712 215.07 114.755 215.07 115.23Z" fill="black"/>
<path d="M225.247 117.716C224.383 128.073 222.536 132.872 217.694 142.013C217.625 142.143 217.841 142.272 217.919 142.143C223.417 133.58 226.248 128.332 225.765 117.845C225.79 117.37 225.29 117.241 225.247 117.716Z" fill="black"/>
<path d="M235.855 122.411C234.275 132.406 232.497 137.723 226.662 145.992C226.647 146.011 226.635 146.033 226.628 146.056C226.621 146.079 226.619 146.103 226.622 146.127C226.624 146.151 226.631 146.175 226.642 146.196C226.654 146.217 226.669 146.236 226.688 146.251C226.707 146.267 226.728 146.278 226.751 146.285C226.775 146.292 226.799 146.294 226.823 146.292C226.847 146.29 226.87 146.282 226.892 146.271C226.913 146.26 226.932 146.244 226.947 146.225C233.723 138.371 235.993 131.759 236.157 122.489C236.148 121.867 235.958 121.781 235.855 122.411Z" fill="black"/>
<path d="M180.112 160.579C180.112 160.579 179.378 148.072 180.276 142.505C181.174 136.937 192.127 117.413 196.443 119.536C202.062 122.29 197.953 134.805 195.139 140.675C195.139 140.675 208.138 147.01 207.137 156.634C206.136 166.258 180.112 160.579 180.112 160.579Z" fill="#EB9481"/>
<path d="M197.772 120.797C201.087 127.003 196.909 134.469 194.596 140.364C194.558 140.449 194.542 140.542 194.548 140.635C194.554 140.728 194.582 140.819 194.63 140.898C194.679 140.978 194.745 141.045 194.825 141.093C194.905 141.141 194.995 141.17 195.088 141.176C200.362 144.197 206.922 149.997 207.483 156.384C207.483 156.423 207.498 156.46 207.526 156.488C207.553 156.515 207.591 156.531 207.629 156.531C207.668 156.531 207.706 156.515 207.733 156.488C207.761 156.46 207.776 156.423 207.776 156.384C208.104 149.479 202.123 143.23 196.141 140.287C198.592 134.245 202.468 126.606 197.867 120.762C197.807 120.736 197.755 120.762 197.772 120.797Z" fill="black"/>
<path d="M155.47 187.682L123.939 214.112C123.939 214.112 104.691 204.099 90.475 192.593C76.259 181.088 92.0027 175.494 116.412 179.594C140.822 183.694 155.47 187.682 155.47 187.682Z" fill="#105C0A"/>
<path d="M118.122 192.99C117.228 191.771 116.194 190.661 115.04 189.685C116.317 192.429 118.162 194.871 120.452 196.849C119.834 195.474 119.051 194.178 118.122 192.99ZM90.5011 192.611L90.8809 192.904C91.1312 192.637 91.3816 192.352 91.6146 192.041C91.2176 192.222 90.8464 192.412 90.4839 192.645L90.5011 192.611ZM143.282 192.783C141.791 192.564 140.279 192.518 138.777 192.645C140.186 193.177 141.651 193.545 143.144 193.741C144.635 193.968 146.148 194.017 147.65 193.888C146.236 193.351 144.765 192.981 143.265 192.783H143.282ZM132.726 182.564C132.707 183.14 132.727 183.717 132.787 184.29C132.997 183.772 133.176 183.242 133.322 182.702L132.726 182.564Z" fill="white"/>
<path d="M116.878 208.467C123.291 202.304 130.144 196.581 137.093 191.005C139.061 189.434 141.063 187.898 143.135 186.422C143.195 186.379 143.273 186.422 143.212 186.5C139.95 189.512 136.557 192.386 133.183 195.278C129.808 198.169 126.39 201.061 122.928 203.866C120.969 205.454 119.018 207.042 117.033 208.587C116.912 208.648 116.8 208.544 116.878 208.467Z" fill="black"/>
<path d="M137.335 202.882L123.93 214.103C123.93 214.103 104.682 204.099 90.4659 192.593C85.4165 188.511 84.1477 185.179 85.6927 182.753L137.335 202.882Z" fill="black"/>
<path d="M130.843 292.33H30.3647C30.3647 292.33 52.1937 208.026 72.3999 184.29C72.8487 183.746 73.3148 183.228 73.7809 182.745C73.8759 182.633 73.9622 182.555 74.0571 182.46C75.6213 180.789 77.4425 179.379 79.4518 178.282C79.8057 178.092 80.1596 177.911 80.5307 177.756C88.299 174.174 96.5334 177.143 102.463 182.218C104.345 183.824 125.647 211.565 127.494 222.104C129.126 231.435 122.825 241.456 122.825 241.456L130.843 292.33Z" fill="#105C0A"/>
<path d="M107.773 237.848C103.495 238.265 99.2534 239.001 95.0846 240.049C93.0131 240.601 90.9933 241.24 88.9649 241.922C87.955 242.267 86.9452 242.578 85.9266 242.88C84.8662 243.225 83.7677 243.44 82.6553 243.519C82.6347 243.519 82.615 243.527 82.6004 243.542C82.5858 243.556 82.5776 243.576 82.5776 243.597C82.5776 243.617 82.5858 243.637 82.6004 243.651C82.615 243.666 82.6347 243.674 82.6553 243.674C83.7091 243.719 84.7647 243.69 85.8144 243.588C86.8251 243.461 87.8259 243.265 88.8095 243.001C90.9156 242.457 92.9872 241.827 95.0846 241.275C99.314 240.153 103.535 239.03 107.833 238.21C107.881 238.202 107.924 238.176 107.953 238.136C107.981 238.096 107.992 238.047 107.984 237.999C107.976 237.951 107.95 237.908 107.91 237.88C107.87 237.851 107.821 237.84 107.773 237.848Z" fill="black"/>
<path d="M118.389 241.551C114.858 241.211 111.31 241.07 107.763 241.128C106.037 241.171 104.233 241.309 102.464 241.49C101.601 241.585 100.737 241.689 99.9433 241.801C99.1492 241.913 98.1134 242.172 97.1899 242.284C97.0949 242.284 97.0949 242.448 97.1899 242.44C98.053 242.362 98.9593 242.44 99.8397 242.397L102.49 242.302C104.216 242.25 106.02 242.207 107.789 242.129C111.328 241.982 114.858 241.87 118.397 241.836C118.587 241.844 118.57 241.568 118.389 241.551Z" fill="black"/>
<path d="M62.8545 204.108C62.3798 203.504 61.8965 202.908 61.3699 202.382L60.9988 203.159C61.344 203.694 61.7152 204.22 62.095 204.729C62.9892 205.941 64.0235 207.041 65.1764 208.009C64.5464 206.629 63.7678 205.32 62.8545 204.108ZM74.5156 181.994C74.3398 183.342 74.3109 184.705 74.4293 186.06C74.9655 184.644 75.3279 183.169 75.5082 181.666C75.5082 181.442 75.5687 181.209 75.5946 180.984C75.232 181.304 74.8695 181.64 74.5156 181.994ZM105.011 210.081C104.473 211.495 104.102 212.966 103.906 214.466C103.688 215.96 103.639 217.475 103.759 218.98C104.301 217.569 104.666 216.096 104.847 214.595C105.083 213.103 105.139 211.587 105.011 210.081ZM85.8056 258.693C85.2736 260.102 84.9086 261.567 84.718 263.061C84.4991 264.555 84.4528 266.07 84.5799 267.575C85.6058 264.733 86.0234 261.707 85.8056 258.693ZM53.1614 221.992C52.6344 223.411 52.2696 224.885 52.0739 226.386C51.8542 227.877 51.8078 229.389 51.9358 230.891C52.464 229.477 52.8261 228.005 53.0147 226.507C53.2409 225.013 53.2902 223.498 53.1614 221.992ZM80.1779 215.83C78.6863 215.611 77.1744 215.564 75.6722 215.691C77.0812 216.223 78.5467 216.591 80.0398 216.788C81.5306 217.014 83.043 217.063 84.5454 216.934C83.1412 216.388 81.6785 216.005 80.1865 215.795L80.1779 215.83ZM116.326 257.26C114.832 257.041 113.317 256.995 111.812 257.122C114.654 258.148 117.68 258.566 120.694 258.348C119.288 257.815 117.825 257.444 116.335 257.243L116.326 257.26ZM48.8457 253.281C47.3798 253.069 45.895 253.017 44.4178 253.126H44.3315H44.4091C45.8034 253.64 47.2511 253.996 48.7249 254.188C50.2164 254.407 51.7283 254.453 53.2305 254.326C51.8142 253.809 50.3428 253.459 48.8457 253.281ZM86.755 288.921C85.2634 288.702 83.7516 288.655 82.2494 288.783C85.094 289.81 88.1237 290.225 91.1398 290C89.7126 289.473 88.2299 289.111 86.7205 288.921H86.755ZM45.9801 284.553C44.4856 284.334 42.9709 284.288 41.4658 284.415C42.8757 284.94 44.3411 285.302 45.8333 285.494C47.3266 285.726 48.8429 285.772 50.3476 285.632C48.9266 285.104 47.4495 284.742 45.9455 284.553H45.9801ZM87.739 194.372C86.5231 195.276 85.4141 196.316 84.4332 197.47C85.8104 196.844 87.1132 196.065 88.3173 195.149C89.5309 194.248 90.632 193.204 91.5973 192.041C90.2294 192.674 88.9354 193.455 87.739 194.372ZM98.4938 240.576C97.2808 241.468 96.1795 242.502 95.2138 243.657C96.5869 243.035 97.8819 242.252 99.0721 241.327C100.287 240.437 101.389 239.403 102.352 238.245C100.98 238.877 99.6852 239.665 98.4938 240.593V240.576ZM60.783 268.818C59.5631 269.708 58.4584 270.746 57.4944 271.908C58.8623 271.275 60.1562 270.494 61.3527 269.578C62.5661 268.677 63.6749 267.643 64.6585 266.496C63.2728 267.109 61.9706 267.895 60.783 268.835V268.818ZM123.413 228.19C122.519 226.97 121.485 225.861 120.331 224.884C121.608 227.628 123.453 230.07 125.743 232.048C125.123 230.679 124.341 229.389 123.413 228.207V228.19ZM110.561 280.47C109.66 279.257 108.626 278.148 107.479 277.165C108.084 278.55 108.865 279.853 109.801 281.04C110.693 282.256 111.727 283.36 112.882 284.329C112.253 282.961 111.474 281.667 110.561 280.47ZM72.7203 239.35C71.8245 238.133 70.7904 237.023 69.6389 236.044C70.2509 237.428 71.0338 238.73 71.9694 239.92C72.8586 241.138 73.8934 242.242 75.0508 243.208C74.4222 241.838 73.6404 240.544 72.7203 239.35Z" fill="white"/>
<path d="M70.3463 184.946C51.0205 200.526 1.52781 262.266 12.6883 276.534C23.8487 290.802 98.0274 284.302 119.563 277.553C125.967 275.55 108.497 234.905 101.575 233.032C95.8091 231.469 63.8382 240.921 63.2168 239.074C62.5176 236.985 71.1145 225.427 82.0419 200.387C94.6438 171.507 78.8828 178.067 70.3463 184.946Z" fill="#EB9481"/>
<path d="M136.489 229.639C151.258 231.366 154.788 234.05 168.02 228.871C176.703 225.479 182.598 229.562 176.246 236.89C165.888 248.879 146.346 250.7 139.398 249.353L136.489 229.639Z" fill="#EB9481"/>
<path d="M95.0664 233.55C95.0664 233.55 113.391 228.811 129.307 229.07C140.321 229.251 164.23 232.315 180.457 260.894C184.307 267.67 184.989 280.064 174.674 271.252C167.355 265.011 164.601 258.84 159.681 255.983C159.681 255.983 158.672 271.839 151.732 275.438C145.662 278.576 139.377 281.279 132.924 283.526C132.24 282.439 131.629 281.309 131.094 280.142C131.094 280.142 124.292 282.887 113.831 279.08L95.0664 233.55Z" fill="#EB9481"/>
<path d="M139.795 230.925C144.111 234.792 153.018 243.13 157.921 252.504C163.411 262.913 171.179 284.44 163.454 288.419C157.792 291.337 154.097 283.37 154.097 283.37C154.097 283.37 155.435 292.951 149.782 294.461C144.603 295.842 142.108 289.507 142.108 289.507C142.108 289.507 141.918 295.454 136.671 295.825C130.352 296.257 131.785 283.741 125.001 278.64C123.473 277.492 139.795 230.925 139.795 230.925Z" fill="#EB9481"/>
<path d="M145.993 256.518C149.446 260.834 154.719 272.573 154.271 283.215C154.271 283.457 154.072 283.578 154.038 283.353C152.419 274.137 149.685 265.152 145.898 256.596C145.888 256.583 145.883 256.567 145.885 256.551C145.886 256.535 145.894 256.52 145.907 256.509C145.919 256.499 145.936 256.494 145.952 256.496C145.968 256.498 145.983 256.505 145.993 256.518Z" fill="black"/>
<path d="M135.643 262.318C138.233 266.332 143.144 278.718 142.315 289.464C142.315 289.706 142.099 289.809 142.074 289.585C140.933 280.292 138.741 271.159 135.54 262.361C135.539 262.349 135.543 262.337 135.549 262.327C135.556 262.317 135.566 262.309 135.577 262.304C135.588 262.3 135.6 262.299 135.612 262.301C135.624 262.303 135.635 262.309 135.643 262.318Z" fill="black"/>
<path d="M159.707 255.913C164.023 258.503 166.431 261.55 169.642 265.287C171.211 267.159 172.882 268.942 174.648 270.63C176.271 272.141 178.662 274.411 181.096 273.332C182.451 272.728 182.822 271.105 182.934 269.758C183.041 268.244 182.82 266.725 182.287 265.304C182.287 265.235 182.39 265.184 182.416 265.261C182.946 266.515 183.295 267.837 183.452 269.189C183.657 270.459 183.474 271.762 182.926 272.926C181.579 275.308 178.472 274.859 176.521 273.608C175.367 272.809 174.295 271.898 173.319 270.889C172.361 269.948 171.446 268.964 170.557 267.963C168.735 265.891 167.035 263.725 165.24 261.645C163.48 259.661 161.595 257.793 159.595 256.052C159.517 255.982 159.621 255.862 159.707 255.913Z" fill="black"/>
<path d="M165.198 274.782C164.689 271.822 161.029 259.099 159.579 256C159.57 255.984 159.567 255.965 159.572 255.947C159.577 255.929 159.589 255.914 159.605 255.905C159.621 255.896 159.64 255.894 159.658 255.898C159.675 255.903 159.69 255.915 159.7 255.931C162.436 260.307 165.888 270.932 166.493 274.204C167.097 277.475 167.675 281.523 166.838 284.743C165.578 289.594 162.125 289.68 160.874 289.611C159.395 289.503 157.997 288.894 156.912 287.885C155.675 286.595 154.712 285.068 154.081 283.396C154.081 283.319 154.158 283.25 154.201 283.327C155.393 285.675 157.697 288.29 160.425 288.627C161.029 288.721 161.645 288.692 162.238 288.544C162.831 288.396 163.388 288.131 163.877 287.764C164.902 286.783 165.536 285.465 165.664 284.052C166.04 280.958 165.883 277.823 165.198 274.782Z" fill="black"/>
<path d="M142.316 289.464C142.843 290.215 143.714 292.589 145.812 293.59C146.541 294.006 147.361 294.238 148.2 294.266C149.039 294.295 149.872 294.119 150.628 293.754C152.07 292.859 153.107 291.438 153.52 289.792C153.869 287.686 154.056 285.557 154.081 283.422C154.081 283.318 154.21 283.31 154.219 283.422C154.488 285.737 154.406 288.079 153.977 290.37C153.774 291.268 153.394 292.116 152.859 292.864C152.324 293.613 151.645 294.247 150.861 294.729C150.031 295.182 149.092 295.397 148.148 295.35C147.203 295.303 146.29 294.995 145.51 294.462C144.724 293.918 142.446 291.458 142.057 289.524C142.066 289.464 142.29 289.43 142.316 289.464Z" fill="black"/>
<path d="M125.665 277.88C126.289 278.572 126.83 279.334 127.279 280.15C127.788 281.014 128.271 281.834 128.729 282.697C129.638 284.441 130.364 286.275 130.895 288.169C131.448 290.068 131.879 292.14 133.183 293.702C133.793 294.474 134.63 295.035 135.577 295.305C136.524 295.574 137.531 295.539 138.456 295.204C139.436 294.814 140.251 294.098 140.761 293.175C141.353 292.181 141.748 291.082 141.926 289.939C141.922 289.928 141.921 289.917 141.922 289.906C141.924 289.895 141.928 289.884 141.934 289.875C141.941 289.866 141.949 289.858 141.959 289.853C141.969 289.848 141.98 289.845 141.991 289.845C142.002 289.845 142.013 289.848 142.023 289.853C142.033 289.858 142.041 289.866 142.048 289.875C142.054 289.884 142.058 289.895 142.06 289.906C142.061 289.917 142.06 289.928 142.056 289.939C141.982 290.975 141.803 292.002 141.521 293.003C141.194 293.902 140.638 294.699 139.907 295.316C139.14 295.901 138.227 296.264 137.268 296.365C136.308 296.465 135.34 296.3 134.469 295.886C132.535 295.022 131.448 293.072 130.774 291.138C130.024 288.989 129.523 286.771 128.668 284.647C128.228 283.525 127.805 282.403 127.27 281.324C126.735 280.245 125.993 279.123 125.544 277.967C125.492 277.898 125.596 277.803 125.665 277.88Z" fill="black"/>
<path d="M118.924 280.557C121.652 280.951 124.412 281.087 127.167 280.962C127.253 280.962 127.305 281.213 127.218 281.23C125.853 281.486 124.464 281.593 123.075 281.549C121.668 281.49 120.277 281.219 118.95 280.746C118.837 280.686 118.837 280.539 118.924 280.557Z" fill="black"/>
<path d="M34.1718 248.318C38.7859 246.091 43.5541 244.199 48.4395 242.656C53.274 241.145 58.213 239.991 63.2166 239.203C66.0736 238.729 68.9392 238.392 71.848 238.038C71.9343 238.038 71.9516 238.159 71.848 238.168C66.8204 238.981 61.8434 240.082 56.9415 241.465C52.0619 242.794 47.211 244.212 42.3889 245.72C39.6614 246.583 36.9684 247.55 34.2667 248.491C34.1718 248.56 34.0855 248.379 34.1718 248.318Z" fill="black"/>
<path d="M29.9678 222.432L70.8722 226.877C70.8722 226.877 81.3076 207.888 86.7368 190.392C92.166 172.896 76.7502 176.297 58.7364 193.258C40.7226 210.219 29.9678 222.432 29.9678 222.432Z" fill="#105C0A"/>
<path d="M29.9678 222.432L70.8722 226.877C70.8722 226.877 81.3076 207.888 86.7368 190.392C92.166 172.896 76.7502 176.297 58.7364 193.258C40.7226 210.219 29.9678 222.432 29.9678 222.432Z" fill="#105C0A"/>
<path d="M74.5841 181.424C74.5883 181.467 74.5883 181.511 74.5841 181.554C74.3651 183.048 74.3187 184.563 74.446 186.068C74.9823 184.653 75.3446 183.177 75.525 181.675C75.525 181.416 75.594 181.165 75.6199 180.906L74.5841 181.424ZM53.1609 221.992C52.7862 222.934 52.4973 223.907 52.2977 224.901L53.1609 224.987C53.2557 223.991 53.2557 222.988 53.1609 221.992ZM38.9708 212.782L38.5737 213.197C39.0226 213.197 39.4369 213.197 39.9289 213.119C39.6009 212.99 39.2901 212.877 38.9708 212.782ZM75.6803 215.657C75.922 215.752 76.1723 215.847 76.4226 215.924C76.4673 215.812 76.5192 215.702 76.578 215.596C76.2845 215.605 75.9824 215.622 75.6803 215.657ZM62.854 204.108C61.9535 202.894 60.9199 201.785 59.7726 200.802C60.3795 202.189 61.1597 203.495 62.0944 204.686C62.9886 205.897 64.0229 206.998 65.1758 207.966C64.5431 206.6 63.7646 205.307 62.854 204.108Z" fill="white"/>
<path d="M69.2155 226.498C69.4399 226.498 70.9418 226.498 70.9418 226.498C71.1231 225.972 74.6447 217.867 75.5079 216.14C77.2859 212.593 79.2712 209.14 81.2046 205.679C81.265 205.567 81.4377 205.679 81.3772 205.757C80.0135 208.778 78.7015 211.799 77.3118 214.837C77.6571 214.431 78.0023 214.026 78.339 213.611C79.0209 212.748 79.6423 211.885 80.2897 210.97C80.3501 210.892 80.4709 210.97 80.4278 211.065C79.8101 212.314 79.0293 213.475 78.1059 214.518C77.7139 214.976 77.2899 215.406 76.8371 215.804C76.7249 216.054 76.6127 216.313 76.4918 216.555C75.6287 218.281 71.3734 226.981 71.218 226.973L69.2501 226.731C69.1033 226.766 69.1033 226.489 69.2155 226.498Z" fill="black"/>
<path d="M37.6766 215.484C46.5497 216.08 55.3969 217.297 64.1924 218.678C66.6897 219.075 69.1698 219.526 71.6327 220.033C71.7017 220.033 71.7017 220.154 71.6327 220.145C67.2134 219.757 62.8027 219.187 58.392 218.643C53.9814 218.099 49.5362 217.512 45.1255 216.813C42.6397 216.433 40.1452 216.054 37.6679 215.631C37.5644 215.639 37.5644 215.475 37.6766 215.484Z" fill="black"/>
<path d="M84.6914 178.921C84.8468 180.717 91.5275 193.198 99.5289 193.966C102.118 194.208 104.112 180.043 104.112 180.043L104.492 179.033L109.869 164.861L94.2464 151.352L91.9763 149.54C91.9763 149.54 90.7593 153.51 89.3006 158.473C89.2315 158.706 89.1539 158.939 89.0848 159.181C89.0158 159.423 88.9122 159.725 88.8345 159.984C88.6101 160.726 88.377 161.477 88.1699 162.237C88.0059 162.815 87.8419 163.376 87.6865 163.963C87.5312 164.55 87.3758 165.171 87.2032 165.776C86.0676 170.095 85.2284 174.487 84.6914 178.921Z" fill="#EB9481"/>
<path d="M89.3013 158.473C90.1909 162.797 92.0104 166.875 94.6336 170.426C97.2568 173.976 100.621 176.913 104.493 179.033L109.87 164.861L94.2471 151.352L91.977 149.54C91.977 149.54 90.76 153.51 89.3013 158.473Z" fill="black"/>
<path d="M114.6 143.092C115.973 149.134 121.411 153.113 126.745 151.913C132.079 150.714 135.281 144.801 133.909 138.724C132.536 132.648 127.099 128.695 121.764 129.903C116.43 131.112 113.228 137.007 114.6 143.092Z" fill="#455A64"/>
<path d="M111.553 144.18C113.09 150.938 119.132 155.332 125.07 153.994C131.008 152.656 134.565 146.088 133.037 139.321C131.509 132.553 125.458 128.169 119.529 129.507C113.599 130.844 110.025 137.404 111.553 144.18Z" fill="#C7C7C7"/>
<path d="M129.005 135.531C136.256 161.123 121.746 168.33 116.222 169.918C111.207 171.334 93.9618 175.511 84.1047 150.8C74.2476 126.088 83.8544 114.625 95.1443 110.784C106.434 106.943 121.755 109.93 129.005 135.531Z" fill="#EB9481"/>
<path d="M120.098 132.311C119.49 132.372 118.879 132.398 118.268 132.389C117.626 132.512 116.961 132.418 116.378 132.122C116.212 131.993 116.093 131.814 116.04 131.611C115.987 131.408 116.003 131.193 116.085 131C116.305 130.644 116.616 130.354 116.987 130.159C117.357 129.965 117.773 129.874 118.191 129.895C119.041 129.8 119.896 130.025 120.59 130.525C120.74 130.65 120.851 130.816 120.909 131.002C120.967 131.189 120.97 131.388 120.919 131.576C120.867 131.765 120.762 131.934 120.616 132.064C120.471 132.195 120.291 132.28 120.098 132.311Z" fill="black"/>
<path d="M103.223 138.267C103.81 138.086 104.386 137.872 104.95 137.629C105.589 137.487 106.164 137.142 106.59 136.645C106.691 136.461 106.728 136.249 106.697 136.041C106.666 135.834 106.568 135.643 106.417 135.497C106.075 135.256 105.674 135.11 105.257 135.075C104.84 135.04 104.421 135.117 104.043 135.298C103.225 135.544 102.527 136.086 102.084 136.817C101.993 136.99 101.954 137.185 101.972 137.379C101.99 137.573 102.063 137.758 102.184 137.912C102.304 138.065 102.466 138.18 102.651 138.243C102.835 138.306 103.034 138.315 103.223 138.267Z" fill="black"/>
<path d="M108.402 142.782C108.402 142.713 108.29 142.903 108.316 142.972C108.868 144.698 109.179 146.769 107.798 147.797C107.755 147.797 107.798 147.909 107.841 147.892C109.671 147.072 109.187 144.309 108.402 142.782Z" fill="black"/>
<path d="M106.313 141.4C103.448 141.987 104.829 147.667 107.487 147.123C110.146 146.579 108.713 140.908 106.313 141.4Z" fill="black"/>
<path d="M105.269 141.97C104.855 142.419 104.501 143.101 103.923 143.308C103.344 143.515 102.576 143.075 101.989 142.609C101.929 142.566 101.885 142.609 101.903 142.704C102.153 143.791 102.844 144.81 104.052 144.689C105.26 144.568 105.683 143.429 105.683 142.264C105.692 142.048 105.442 141.798 105.269 141.97Z" fill="black"/>
<path d="M118.492 139.665C118.492 139.596 118.656 139.717 118.665 139.786C119.027 141.564 119.735 143.541 121.47 143.748C121.522 143.748 121.539 143.843 121.47 143.851C119.468 144.033 118.553 141.4 118.492 139.665Z" fill="black"/>
<path d="M119.623 137.456C122.402 136.593 123.939 142.203 121.349 143.023C118.76 143.843 117.301 138.189 119.623 137.456Z" fill="black"/>
<path d="M120.918 137.499C121.445 137.671 122.032 138.094 122.575 137.982C123.119 137.87 123.49 137.119 123.723 136.42C123.723 136.351 123.81 136.42 123.827 136.42C124.155 137.49 124.112 138.707 123.128 139.199C122.144 139.691 121.289 138.914 120.737 137.913C120.633 137.775 120.702 137.404 120.918 137.499Z" fill="black"/>
<path d="M112.39 156.971C112.89 157.308 113.426 157.834 114.116 157.722C114.776 157.579 115.4 157.3 115.946 156.902C115.956 156.89 115.971 156.882 115.987 156.88C116.004 156.878 116.02 156.883 116.032 156.894C116.045 156.904 116.053 156.919 116.055 156.935C116.056 156.951 116.051 156.967 116.041 156.98C115.854 157.379 115.563 157.72 115.198 157.968C114.834 158.215 114.409 158.36 113.969 158.387C113.584 158.367 113.214 158.233 112.906 158C112.598 157.768 112.367 157.449 112.243 157.083C112.183 156.988 112.312 156.928 112.39 156.971Z" fill="black"/>
<path d="M118.182 148.202C118.182 148.202 119.209 150.731 119.528 151.965C119.528 152.086 115.281 154.158 112.537 151.62C112.508 151.601 112.488 151.571 112.482 151.537C112.475 151.503 112.483 151.468 112.502 151.439C112.522 151.41 112.552 151.391 112.586 151.384C112.62 151.378 112.655 151.385 112.683 151.404C114.534 152.079 116.554 152.136 118.441 151.568C118.441 151.206 116.524 147.296 116.714 147.253C117.696 147.091 118.694 147.062 119.683 147.166C117.681 141.841 114.85 136.878 112.942 131.535C112.925 131.495 112.924 131.451 112.938 131.41C112.952 131.37 112.981 131.336 113.019 131.315C113.056 131.295 113.101 131.289 113.142 131.299C113.184 131.31 113.22 131.335 113.244 131.371C116.585 136.368 119.019 142.454 121.22 147.9C121.513 148.565 118.76 148.288 118.182 148.202Z" fill="black"/>
<path d="M118.432 152.164C117.973 153.309 117.231 154.319 116.274 155.098C115.737 155.501 115.089 155.73 114.418 155.754C112.942 155.754 112.554 154.537 112.502 153.389C112.481 152.781 112.531 152.173 112.649 151.577C114.464 152.386 116.491 152.592 118.432 152.164Z" fill="black"/>
<path d="M116.274 155.098C115.737 155.501 115.09 155.73 114.419 155.754C112.943 155.754 112.554 154.537 112.502 153.389C114.013 153.122 115.739 153.709 116.274 155.098Z" fill="#FF99BA"/>
<path d="M85.3388 149.945C90.2932 150.265 90.8629 138.932 90.8629 138.932C90.8629 138.932 111.578 134.107 112.321 116.947C112.321 116.947 116.576 127.598 127.857 131.845C127.857 131.845 125.984 113.201 110.948 110.474C110.948 110.474 92.149 104.898 82.6975 120.124C73.2461 135.35 82.0156 149.729 85.3388 149.945Z" fill="black"/>
<path d="M112.321 115.678C112.73 118.296 112.574 120.972 111.864 123.524C111.193 126.119 109.988 128.544 108.325 130.645C107.917 131.174 107.476 131.675 107.004 132.147L106.314 132.881C106.072 133.105 105.813 133.313 105.554 133.528C105.036 133.943 104.536 134.391 104 134.78C103.465 135.168 102.878 135.488 102.274 135.833C101.989 135.997 101.713 136.178 101.411 136.334L100.548 136.748L98.7439 137.568C97.501 137.999 96.2408 138.362 94.9893 138.707C96.1545 138.112 97.3629 137.637 98.5109 137.041L100.194 136.092L101.057 135.617C101.325 135.444 101.575 135.246 101.834 135.056C102.352 134.676 102.87 134.305 103.396 133.943C103.923 133.58 104.346 133.079 104.82 132.691L105.537 132.061L106.176 131.353C106.615 130.9 107.027 130.422 107.41 129.92C108.979 127.919 110.196 125.666 111.009 123.257C111.426 122.047 111.743 120.806 111.959 119.545C112.188 118.269 112.309 116.975 112.321 115.678Z" fill="black"/>
<path d="M89.0335 149.678C89.0335 149.678 81.7658 142.609 78.46 145.362C75.1541 148.115 81.7054 159.112 86.3577 159.889C86.9473 160.03 87.5594 160.052 88.1573 159.951C88.7552 159.85 89.3265 159.629 89.8369 159.302C90.3473 158.974 90.7862 158.547 91.1272 158.046C91.4683 157.544 91.7044 156.979 91.8214 156.384L89.0335 149.678Z" fill="#EB9481"/>
<path d="M80.4198 148.461C80.4038 148.461 80.3884 148.467 80.3771 148.479C80.3657 148.49 80.3594 148.505 80.3594 148.521C80.3594 148.537 80.3657 148.553 80.3771 148.564C80.3884 148.575 80.4038 148.582 80.4198 148.582C83.7084 149.229 85.849 151.75 87.5407 154.46C86.4187 153.51 85.0635 153.131 83.7602 154.46C83.6911 154.537 83.7602 154.641 83.8724 154.607C84.3765 154.335 84.9521 154.226 85.5207 154.294C86.0892 154.362 86.6229 154.604 87.0487 154.986C87.7573 155.629 88.394 156.347 88.9477 157.127C89.1376 157.377 89.6037 157.127 89.4397 156.842L89.3965 156.773C88.7232 152.941 84.6578 148.055 80.4198 148.461Z" fill="black"/>
<path d="M84.0614 146.079C84.0614 146.079 79.3487 133.52 80.98 125.32C82.7926 116.188 94.1084 105.77 107.047 109.671C107.047 109.671 91.6571 111.976 86.2193 124.345C83.7162 130.042 88.4462 145.121 88.4462 145.121L84.0614 146.079Z" fill="#C7C7C7"/>
<path d="M91.3301 163.977C97.0421 162.198 100.028 155.476 97.9995 148.963C95.9709 142.45 89.696 138.613 83.984 140.392C78.2721 142.171 75.2861 148.893 77.3147 155.406C79.3432 161.919 85.6182 165.756 91.3301 163.977Z" fill="#C7C7C7"/>
<path d="M94.8857 149.488C96.707 155.34 94.0226 161.382 88.8437 162.979C83.6649 164.576 78.0717 161.132 76.2418 155.28C74.412 149.428 77.105 143.386 82.2838 141.78C87.4627 140.175 93.0645 143.67 94.8857 149.488Z" fill="#455A64"/>
<path d="M104.432 179.12L99.6846 191.1L84.7522 176.039L80.5659 180.907C80.5659 180.907 95.2394 204.885 95.2912 203.797L100.177 193.44L107.323 200.578L106.676 182.607L104.432 179.12Z" fill="#EBEBEB"/>
<path d="M107.539 191.687C107.323 188.727 107.202 185.723 106.857 182.771C106.857 182.667 106.676 182.624 106.65 182.771C106.071 185.636 106.926 196.987 106.926 199.706C106.632 199.395 100.306 193.422 100.245 193.517C99.1834 195.157 95.6014 202.684 95.3597 203.365C93.0378 199.559 83.2153 184.549 80.4791 180.924C80.4628 180.907 80.4414 180.897 80.4184 180.894C80.3953 180.891 80.372 180.896 80.352 180.908C80.3321 180.92 80.3168 180.938 80.3085 180.96C80.3003 180.981 80.2995 181.005 80.3065 181.027C82.3521 185.05 95.0403 204.859 95.2216 204.807C97.1092 201.256 98.8146 197.612 100.331 193.888C101.402 195.191 107.789 201.933 107.806 201.492C107.886 198.222 107.797 194.949 107.539 191.687Z" fill="black"/>
<path d="M190.815 99.2959C190.297 104.261 188.409 108.985 185.363 112.939C182.317 116.894 178.231 119.925 173.563 121.693C168.894 123.461 163.826 123.897 158.924 122.952C154.022 122.008 149.479 119.719 145.802 116.343L132.32 118.32L139.07 106.667C137.542 102.877 136.897 98.7889 137.182 94.7124C137.468 90.6359 138.678 86.6779 140.719 83.1379C142.761 79.598 145.581 76.5689 148.966 74.28C152.352 71.9911 156.213 70.5024 160.259 69.9265C164.305 69.3507 168.429 69.7028 172.318 70.9563C176.208 72.2097 179.761 74.3316 182.709 77.1614C185.657 79.9911 187.923 83.4545 189.335 87.2893C190.747 91.1242 191.268 95.23 190.858 99.2959H190.815Z" fill="white"/>
<path d="M190.815 99.2965C190.294 104.264 188.412 108.992 185.378 112.96C183.887 114.942 182.106 116.688 180.095 118.139C178.109 119.644 175.921 120.861 173.596 121.756C171.268 122.666 168.825 123.247 166.337 123.482C165.094 123.595 163.845 123.618 162.599 123.551C161.348 123.521 160.101 123.391 158.87 123.162C153.899 122.268 149.275 120.005 145.518 116.628L145.837 116.723L132.372 118.795L131.396 118.942L131.888 118.079L138.612 106.4V106.866C137.031 103.004 136.359 98.8295 136.648 94.6659C136.937 90.5023 138.179 86.4608 140.278 82.8536C142.374 79.2599 145.257 76.1878 148.711 73.8683C152.162 71.583 156.085 70.1086 160.187 69.5555C164.289 69.0024 168.463 69.385 172.396 70.6746C176.281 72.0021 179.82 74.1815 182.754 77.0533C185.692 79.9101 187.943 83.3961 189.34 87.2488C190.736 91.1015 191.241 95.2207 190.815 99.2965ZM190.815 99.2965C191.246 95.2389 190.739 91.1365 189.334 87.3056C187.929 83.4747 185.663 80.0176 182.711 77.2006C179.759 74.3837 176.2 72.2821 172.307 71.0579C168.415 69.8336 164.293 69.5194 160.26 70.1395C156.264 70.7397 152.459 72.2454 149.134 74.5415C145.841 76.8512 143.091 79.8495 141.072 83.3283C139.086 86.8198 137.918 90.7161 137.655 94.7243C137.391 98.7325 138.041 102.748 139.553 106.469L139.648 106.711L139.519 106.927L132.734 118.562L132.251 117.845L145.742 115.955H145.932L146.061 116.085C149.676 119.459 154.159 121.76 159.008 122.731C160.212 122.972 161.433 123.12 162.66 123.171C163.887 123.257 165.118 123.257 166.345 123.171C168.806 122.979 171.229 122.448 173.544 121.592C175.872 120.753 178.063 119.572 180.043 118.087C182.067 116.646 183.855 114.899 185.343 112.908C188.387 108.962 190.28 104.251 190.815 99.2965Z" fill="black"/>
<path d="M175.779 100.573C177.581 100.573 179.041 99.1127 179.041 97.3108C179.041 95.5088 177.581 94.0481 175.779 94.0481C173.977 94.0481 172.516 95.5088 172.516 97.3108C172.516 99.1127 173.977 100.573 175.779 100.573Z" fill="black"/>
<path d="M164.084 100.573C165.886 100.573 167.347 99.1127 167.347 97.3108C167.347 95.5088 165.886 94.0481 164.084 94.0481C162.282 94.0481 160.821 95.5088 160.821 97.3108C160.821 99.1127 162.282 100.573 164.084 100.573Z" fill="black"/>
<path d="M152.397 100.573C154.199 100.573 155.66 99.1127 155.66 97.3108C155.66 95.5088 154.199 94.0481 152.397 94.0481C150.595 94.0481 149.134 95.5088 149.134 97.3108C149.134 99.1127 150.595 100.573 152.397 100.573Z" fill="black"/>
<path d="M458.839 99.2962C458.32 104.261 456.433 108.985 453.386 112.94C450.34 116.895 446.255 119.925 441.586 121.693C436.918 123.461 431.85 123.897 426.948 122.953C422.046 122.008 417.503 119.72 413.826 116.343L400.343 118.32L407.084 106.667C405.55 102.875 404.9 98.7836 405.182 94.7026C405.464 90.6216 406.671 86.6584 408.713 83.1134C410.754 79.5684 413.576 76.5348 416.964 74.2424C420.352 71.95 424.218 70.4591 428.268 69.8827C432.318 69.3062 436.446 69.6594 440.339 70.9154C444.232 72.1714 447.788 74.2973 450.737 77.1319C453.687 79.9665 455.952 83.4354 457.362 87.2756C458.771 91.1158 459.288 95.2266 458.873 99.2962H458.839Z" fill="white"/>
<path d="M458.839 99.2959C458.313 104.263 456.432 108.99 453.401 112.959C452.643 113.942 451.828 114.879 450.959 115.765C450.06 116.625 449.108 117.43 448.11 118.173C446.127 119.681 443.938 120.899 441.611 121.789C439.286 122.7 436.846 123.281 434.36 123.516C433.115 123.629 431.863 123.652 430.614 123.585C429.363 123.555 428.116 123.425 426.885 123.196C421.919 122.284 417.304 120.007 413.559 116.619L413.878 116.714L400.413 118.786L399.438 118.932L399.929 118.069L406.636 106.391V106.857C405.056 102.995 404.383 98.8211 404.671 94.6578C404.958 90.4946 406.197 86.4529 408.293 82.8443C410.393 79.2502 413.279 76.1782 416.735 73.859C420.186 71.5738 424.109 70.0993 428.211 69.5462C432.313 68.9931 436.487 69.3757 440.42 70.6654C444.305 71.9917 447.844 74.1713 450.777 77.044C453.718 79.9007 455.972 83.3879 457.368 87.2425C458.765 91.0971 459.268 95.2185 458.839 99.2959ZM458.839 99.2959C459.27 95.2382 458.763 91.1359 457.358 87.305C455.953 83.4741 453.687 80.017 450.735 77.2C447.783 74.383 444.223 72.2815 440.331 71.0572C436.438 69.833 432.317 69.5188 428.284 70.1388C424.288 70.739 420.483 72.2447 417.158 74.5409C413.865 76.8506 411.114 79.8488 409.096 83.3277C407.096 86.8177 405.915 90.7166 405.644 94.7298C405.39 98.7348 406.036 102.746 407.534 106.469L407.637 106.71L407.508 106.926L400.724 118.561L400.24 117.845L413.731 115.955H413.921L414.051 116.084C417.654 119.451 422.121 121.752 426.955 122.73C428.158 122.972 429.379 123.119 430.606 123.17C431.833 123.257 433.064 123.257 434.291 123.17C436.752 122.978 439.175 122.447 441.49 121.591C443.818 120.75 446.008 119.57 447.989 118.087C450.009 116.642 451.793 114.895 453.28 112.908C456.358 108.973 458.282 104.26 458.839 99.2959Z" fill="black"/>
<path d="M443.76 100.573C445.562 100.573 447.023 99.1127 447.023 97.3108C447.023 95.5088 445.562 94.0481 443.76 94.0481C441.958 94.0481 440.498 95.5088 440.498 97.3108C440.498 99.1127 441.958 100.573 443.76 100.573Z" fill="black"/>
<path d="M432.072 100.573C433.874 100.573 435.335 99.1127 435.335 97.3108C435.335 95.5088 433.874 94.0481 432.072 94.0481C430.27 94.0481 428.81 95.5088 428.81 97.3108C428.81 99.1127 430.27 100.573 432.072 100.573Z" fill="black"/>
<path d="M423.649 97.3109C423.651 97.9566 423.461 98.5883 423.103 99.1259C422.746 99.6636 422.237 100.083 421.641 100.331C421.045 100.58 420.388 100.646 419.755 100.521C419.121 100.396 418.539 100.086 418.082 99.6297C417.625 99.1737 417.313 98.5924 417.187 97.9593C417.06 97.3261 417.124 96.6697 417.371 96.073C417.618 95.4763 418.036 94.9662 418.573 94.6073C419.109 94.2485 419.741 94.0569 420.386 94.0569C421.25 94.0569 422.079 94.3995 422.69 95.0095C423.302 95.6195 423.647 96.4471 423.649 97.3109Z" fill="black"/>
<path d="M146.208 290.327H140.433V294.099H146.208V290.327Z" fill="#455A64"/>
<path d="M153.7 290.077H147.925V293.849H153.7V290.077Z" fill="#455A64"/>
<path d="M161.191 289.826H155.417V293.598H161.191V289.826Z" fill="#455A64"/>
<path d="M168.675 289.576H162.901V293.348H168.675V289.576Z" fill="#455A64"/>
<path d="M176.167 289.326H170.393V293.098H176.167V289.326Z" fill="#455A64"/>
<path d="M183.66 289.084H177.885V292.856H183.66V289.084Z" fill="#455A64"/>
<path d="M191.143 288.834H185.369V292.606H191.143V288.834Z" fill="#455A64"/>
<path d="M198.635 288.584H192.86V292.356H198.635V288.584Z" fill="#455A64"/>
<path d="M206.118 288.333H200.344V292.105H206.118V288.333Z" fill="#455A64"/>
<path d="M207.534 296.266H139.018V291.674L207.534 289.766V296.266Z" fill="#37474F"/>
<path d="M274.411 278.174H161.305L179.293 193.966H292.399L274.411 278.174Z" fill="#455A64"/>
<path d="M278.597 278.174H165.482L183.47 193.966H296.585L278.597 278.174Z" fill="#37474F"/>
<path d="M240.808 231.193C240.462 233.11 239.468 234.85 237.992 236.122C236.517 237.395 234.65 238.123 232.703 238.184C231.825 238.212 230.951 238.04 230.149 237.681C229.346 237.322 228.635 236.786 228.07 236.113C227.504 235.441 227.098 234.648 226.883 233.796C226.667 232.944 226.648 232.054 226.825 231.193C227.168 229.275 228.16 227.533 229.634 226.259C231.108 224.985 232.974 224.255 234.922 224.193C235.802 224.164 236.677 224.335 237.482 224.694C238.286 225.052 238.998 225.589 239.565 226.263C240.132 226.937 240.539 227.731 240.754 228.585C240.969 229.439 240.988 230.331 240.808 231.193Z" fill="black"/>
<path d="M246.609 300.167H190.979V295.842L246.609 294.047V300.167Z" fill="#455A64"/>
<path d="M261.731 300.159H231.858L213.87 252.97H243.744L261.731 300.159Z" fill="#455A64"/>
<path d="M266.642 300.159H236.777L218.79 252.97H248.654L266.642 300.159Z" fill="black"/>
<path d="M136.886 301.315H79.5562C74.6621 301.315 81.7399 287.375 99.607 282.032C117.474 276.69 142.54 296.084 136.886 301.315Z" fill="#37474F"/>
<path d="M114.444 301.315C114.482 299.727 114.744 298.152 115.221 296.637C115.681 295.105 116.327 293.635 117.145 292.26C117.966 290.877 118.993 289.629 120.192 288.557C121.382 287.495 122.749 286.65 124.232 286.063C123.619 286.564 122.92 286.926 122.359 287.47L121.496 288.221L120.684 289.084C119.624 290.194 118.694 291.422 117.914 292.744C117.12 294.065 116.438 295.451 115.877 296.887C115.301 298.329 114.822 299.808 114.444 301.315Z" fill="black"/>
<path d="M121.195 288.049C124.606 289.129 127.834 290.721 130.767 292.77C132.251 293.796 133.595 295.012 134.763 296.387C135.989 297.755 136.735 299.485 136.887 301.315C136.412 299.628 135.501 298.095 134.246 296.87C133.023 295.625 131.684 294.498 130.249 293.504C128.825 292.477 127.332 291.553 125.813 290.647C124.294 289.741 122.766 288.886 121.195 288.049Z" fill="black"/>
<path d="M411.073 290.327H405.298V294.099H411.073V290.327Z" fill="#455A64"/>
<path d="M418.564 290.077H412.79V293.849H418.564V290.077Z" fill="#455A64"/>
<path d="M426.057 289.826H420.282V293.598H426.057V289.826Z" fill="#455A64"/>
<path d="M433.54 289.576H427.766V293.348H433.54V289.576Z" fill="#455A64"/>
<path d="M441.032 289.326H435.258V293.098H441.032V289.326Z" fill="#455A64"/>
<path d="M448.525 289.084H442.75V292.856H448.525V289.084Z" fill="#455A64"/>
<path d="M456.007 288.834H450.233V292.606H456.007V288.834Z" fill="#455A64"/>
<path d="M463.5 288.584H457.726V292.356H463.5V288.584Z" fill="#455A64"/>
<path d="M470.992 288.333H465.217V292.105H470.992V288.333Z" fill="#455A64"/>
<path d="M472.407 296.266H403.891V291.674L472.407 289.766V296.266Z" fill="#37474F"/>
<path d="M539.275 278.174H426.168L444.156 193.966H557.263L539.275 278.174Z" fill="#455A64"/>
<path d="M543.462 278.174H430.356L448.344 193.966H561.45L543.462 278.174Z" fill="#37474F"/>
<path d="M505.674 231.193C505.327 233.109 504.334 234.847 502.861 236.12C501.388 237.392 499.523 238.121 497.577 238.184C496.698 238.213 495.824 238.042 495.02 237.684C494.216 237.326 493.504 236.79 492.938 236.117C492.371 235.444 491.964 234.651 491.748 233.798C491.532 232.945 491.513 232.055 491.691 231.193C492.035 229.276 493.027 227.535 494.501 226.261C495.974 224.987 497.84 224.257 499.787 224.193C500.667 224.164 501.542 224.335 502.347 224.694C503.151 225.052 503.864 225.589 504.431 226.263C504.997 226.937 505.404 227.731 505.619 228.585C505.834 229.439 505.853 230.331 505.674 231.193Z" fill="black"/>
<path d="M511.473 300.167H455.843V295.842L511.473 294.047V300.167Z" fill="#455A64"/>
<path d="M526.595 300.159H496.722L478.734 252.97H508.607L526.595 300.159Z" fill="#455A64"/>
<path d="M531.516 300.159H501.642L483.654 252.97H513.528L531.516 300.159Z" fill="black"/>
<path d="M401.776 301.315H344.42C339.526 301.315 346.604 287.375 364.471 282.032C382.338 276.69 407.404 296.084 401.776 301.315Z" fill="#37474F"/>
<path d="M379.265 301.315C379.308 299.727 379.569 298.153 380.042 296.637C380.506 295.106 381.152 293.637 381.967 292.26C382.792 290.881 383.819 289.633 385.014 288.557C386.203 287.495 387.57 286.65 389.053 286.063C388.44 286.564 387.741 286.926 387.18 287.47L386.317 288.221L385.506 289.084C384.44 290.192 383.507 291.42 382.726 292.744C381.933 294.065 381.251 295.451 380.689 296.887C380.116 298.329 379.641 299.809 379.265 301.315Z" fill="black"/>
<path d="M386.059 288.049C389.47 289.129 392.698 290.721 395.631 292.77C397.116 293.798 398.462 295.014 399.636 296.387C400.858 297.745 401.608 299.462 401.776 301.281C401.298 299.592 400.384 298.06 399.127 296.836C397.904 295.59 396.566 294.463 395.13 293.469C393.715 292.442 392.213 291.519 390.694 290.612C389.175 289.706 387.638 288.886 386.059 288.049Z" fill="black"/>
</g>
<defs>
<filter id="filter0_d_141_4373" x="-16" y="-16" width="614" height="341.315" filterUnits="userSpaceOnUse" color-interpolation-filters="sRGB">
<feFlood flood-opacity="0" result="BackgroundImageFix"/>
<feColorMatrix in="SourceAlpha" type="matrix" values="0 0 0 0 0 0 0 0 0 0 0 0 0 0 0 0 0 0 127 0" result="hardAlpha"/>
<feOffset dx="4" dy="4"/>
<feGaussianBlur stdDeviation="10"/>
<feComposite in2="hardAlpha" operator="out"/>
<feColorMatrix type="matrix" values="0 0 0 0 0 0 0 0 0 0 0 0 0 0 0 0 0 0 0.25 0"/>
<feBlend mode="normal" in2="BackgroundImageFix" result="effect1_dropShadow_141_4373"/>
<feBlend mode="normal" in="SourceGraphic" in2="effect1_dropShadow_141_4373" result="shape"/>
</filter>
</defs>
</svg>
