<svg width="276" height="126" viewBox="0 0 276 126" fill="none" xmlns="http://www.w3.org/2000/svg">
<path fill-rule="evenodd" clip-rule="evenodd" d="M57.3856 0.85211C74.9468 1.21556 96.2689 -2.1441 106.084 13.1016C115.638 27.9438 101.831 46.0129 97.6263 63.3602C93.6518 79.7574 96.2689 99.6469 82.8284 109.043C67.9419 119.45 47.5179 118.326 31.7831 109.39C16.8163 100.89 11.228 83.0384 6.75698 65.8418C1.93476 47.2944 -5.3944 25.9322 6.2112 11.0346C17.7552 -3.78395 39.121 0.474097 57.3856 0.85211Z" fill="#A8C879"/>
<path fill-rule="evenodd" clip-rule="evenodd" d="M222.906 22.3333C232.628 20.9009 243.051 21.3027 251.477 26.5769C260.008 31.9167 264.923 41.5885 268.901 51.1229C272.827 60.534 279.207 72.0412 274.102 80.811C268.505 90.4265 251.748 84.3661 244.635 92.8124C237.631 101.128 246.938 119.841 237.32 124.483C228.401 128.788 222.392 111.385 213.109 108.029C204.535 104.929 194.47 110.667 186.51 106.115C177.36 100.882 164.922 92.2815 166.807 81.5489C168.952 69.3366 187.778 69.7157 194.677 59.6139C199.541 52.4918 193.881 41.1589 199.076 34.2978C204.661 26.9219 214.002 23.6453 222.906 22.3333Z" fill="#A8C879"/>
</svg>
