<svg width="22" height="16" viewBox="0 0 22 16" fill="none" xmlns="http://www.w3.org/2000/svg">
<path fill-rule="evenodd" clip-rule="evenodd" d="M21.7799 3.34985C21.7799 3.34985 21.5648 1.82845 20.9054 1.15848C20.0688 0.278752 19.131 0.274612 18.7013 0.223553C15.6227 0 11.0048 0 11.0048 0H10.9952C10.9952 0 6.37723 0 3.29862 0.223553C2.86824 0.274612 1.93118 0.278752 1.09381 1.15848C0.434499 1.82845 0.219999 3.34985 0.219999 3.34985C0.219999 3.34985 0 5.1369 0 6.92325V8.59852C0 10.3856 0.219999 12.1719 0.219999 12.1719C0.219999 12.1719 0.434499 13.6933 1.09381 14.3633C1.93118 15.243 3.03049 15.2154 3.51999 15.3072C5.27999 15.4769 11 15.5294 11 15.5294C11 15.5294 15.6227 15.5225 18.7013 15.2989C19.131 15.2472 20.0688 15.243 20.9054 14.3633C21.5648 13.6933 21.7799 12.1719 21.7799 12.1719C21.7799 12.1719 21.9999 10.3856 21.9999 8.59852V6.92325C21.9999 5.1369 21.7799 3.34985 21.7799 3.34985Z" fill="white"/>
</svg>
