<svg width="19" height="15" viewBox="0 0 19 15" fill="none" xmlns="http://www.w3.org/2000/svg">
<path fill-rule="evenodd" clip-rule="evenodd" d="M9.22549 3.79068L9.26667 4.40703L8.58025 4.33156C6.08168 4.04225 3.89887 3.06113 2.04553 1.41335L1.13946 0.595746L0.906075 1.19951C0.411852 2.54541 0.727605 3.96678 1.75724 4.92275C2.30637 5.45104 2.18282 5.52651 1.23556 5.21205C0.906075 5.11142 0.617778 5.03595 0.590321 5.07369C0.494222 5.16174 0.823704 6.30638 1.08454 6.75921C1.44148 7.38813 2.16909 8.00448 2.96533 8.36925L3.63803 8.65856L2.84178 8.67114C2.07299 8.67114 2.04553 8.68372 2.1279 8.94787C2.40247 9.76547 3.48701 10.6334 4.69511 11.0107L5.54627 11.2749L4.80494 11.6774C3.70667 12.256 2.4162 12.583 1.12573 12.6082C0.507951 12.6208 0 12.6711 0 12.7088C0 12.8346 1.67487 13.539 2.64958 13.8157C5.57373 14.6333 9.04702 14.2811 11.6554 12.8849C13.5087 11.8912 15.3621 9.91641 16.227 8.00448C16.6937 6.98562 17.1605 5.124 17.1605 4.23093C17.1605 3.65232 17.2017 3.57685 17.9705 2.88503C18.4235 2.48252 18.8491 2.04227 18.9315 1.91649C19.0688 1.6775 19.055 1.6775 18.3549 1.89133C17.188 2.26869 17.0232 2.21837 17.5998 1.65234C18.0254 1.24983 18.5333 0.520275 18.5333 0.30644C18.5333 0.268705 18.3274 0.331597 18.094 0.444804C17.8469 0.570589 17.2978 0.759266 16.8859 0.872473L16.1446 1.08631L15.4719 0.671217C15.1012 0.444804 14.5796 0.193234 14.305 0.117763C13.6048 -0.0583359 12.534 -0.0331789 11.9025 0.168077C10.1865 0.734109 9.10193 2.19321 9.22549 3.79068Z" fill="white"/>
</svg>
