<svg width="40" height="40" viewBox="0 0 40 40" fill="none" xmlns="http://www.w3.org/2000/svg">
<path fill-rule="evenodd" clip-rule="evenodd" d="M20.6596 30.5211H20.6546C18.6642 30.5204 16.7085 30.021 14.9714 29.0735L8.66699 30.7273L10.3542 24.5647C9.31344 22.7611 8.76581 20.7152 8.7667 18.6192C8.76931 12.062 14.1043 6.72729 20.6594 6.72729C23.8409 6.72867 26.8268 7.96718 29.0722 10.2151C31.3175 12.463 32.5534 15.4509 32.5521 18.6285C32.5495 25.1842 27.2166 30.5184 20.6596 30.5211Z" fill="#DADADA"/>
<circle cx="20" cy="20" r="20" fill="#25D366"/>
<path fill-rule="evenodd" clip-rule="evenodd" d="M15.2628 26.9206L15.6238 27.1348C17.1414 28.0354 18.8811 28.512 20.6548 28.5127H20.6588C26.107 28.5127 30.5412 24.0783 30.5434 18.628C30.5444 15.9867 29.5172 13.5033 27.651 11.6349C25.7848 9.76646 23.3029 8.737 20.6627 8.73608C15.2104 8.73608 10.7761 13.17 10.7739 18.6199C10.7732 20.4877 11.2958 22.3067 12.2852 23.8804L12.5203 24.2544L11.5217 27.902L15.2628 26.9206Z" fill="#DADADA"/>
<path fill-rule="evenodd" clip-rule="evenodd" d="M26.6511 21.4564C26.5768 21.3325 26.3788 21.2581 26.0816 21.1093C25.7844 20.9606 24.3235 20.2418 24.051 20.1425C23.7787 20.0434 23.5805 19.9939 23.3825 20.2913C23.1844 20.5887 22.6149 21.2581 22.4416 21.4564C22.2682 21.6547 22.0949 21.6796 21.7978 21.5308C21.5007 21.3821 20.5432 21.0683 19.4081 20.0559C18.5247 19.2679 17.9284 18.2949 17.755 17.9974C17.5817 17.6999 17.7366 17.5391 17.8853 17.3909C18.019 17.2577 18.1825 17.0438 18.3311 16.8703C18.4796 16.6968 18.5292 16.5728 18.6282 16.3746C18.7273 16.1762 18.6777 16.0027 18.6034 15.854C18.5292 15.7052 17.9349 14.2426 17.6873 13.6476C17.446 13.0681 17.2011 13.1466 17.0187 13.1375C16.8455 13.1288 16.6472 13.127 16.4491 13.127C16.251 13.127 15.9291 13.2013 15.6567 13.4988C15.3844 13.7963 14.6167 14.5152 14.6167 15.9778C14.6167 17.4405 15.6815 18.8535 15.8301 19.0518C15.9786 19.2502 17.9254 22.2516 20.9064 23.5387C21.6153 23.8449 22.1688 24.0277 22.6004 24.1647C23.3122 24.3909 23.9601 24.359 24.472 24.2824C25.043 24.1972 26.2301 23.5636 26.4778 22.8695C26.7253 22.1753 26.7253 21.5803 26.6511 21.4564Z" fill="#25D366"/>
</svg>
